<?xml version="1.0" encoding="UTF-8" standalone="no"?>
<!DOCTYPE svg PUBLIC "-//W3C//DTD SVG 1.1//EN"
 "http://www.w3.org/Graphics/SVG/1.1/DTD/svg11.dtd">
<!-- Generated by graphviz version 2.38.0 (20140413.2041)
 -->
<!-- Title: %3 Pages: 1 -->
<svg width="1582pt" height="681pt"
 viewBox="0.00 0.00 1582.00 680.88" xmlns="http://www.w3.org/2000/svg" xmlns:xlink="http://www.w3.org/1999/xlink">
<g id="graph0" class="graph" transform="scale(1 1) rotate(0) translate(4 676.875)">
<title>%3</title>
<polygon fill="none" stroke="none" points="-4,4 -4,-676.875 1578,-676.875 1578,4 -4,4"/>
<!-- &#45;6371600474227556479 -->
<g id="node1" class="node"><title>&#45;6371600474227556479</title>
<polygon fill="none" stroke="white" stroke-width="3" points="323,-321.687 200,-321.687 200,-285.687 323,-285.687 323,-321.687"/>
<text text-anchor="middle" x="261.5" y="-299.987" font-family="Times,serif" font-size="14.00" fill="#ffffff">(&#39;wrapped&#45;#0&#39;, 2, 1)</text>
</g>
<!-- &#45;4308030986304559468 -->
<g id="node32" class="node"><title>&#45;4308030986304559468</title>
<ellipse fill="none" stroke="white" stroke-width="3" cx="258.5" cy="-401.884" rx="44.393" ry="44.393"/>
<text text-anchor="middle" x="258.5" y="-398.184" font-family="Times,serif" font-size="14.00" fill="#ffffff">transpose</text>
</g>
<!-- &#45;6371600474227556479&#45;&gt;&#45;4308030986304559468 -->
<g id="edge27" class="edge"><title>&#45;6371600474227556479&#45;&gt;&#45;4308030986304559468</title>
<path fill="none" stroke="white" stroke-width="3" d="M260.964,-321.885C260.736,-329.188 260.457,-338.138 260.169,-347.358"/>
<polygon fill="white" stroke="white" stroke-width="3" points="256.67,-347.299 259.856,-357.403 263.666,-347.517 256.67,-347.299"/>
</g>
<!-- &#45;474441372167228516 -->
<g id="node39" class="node"><title>&#45;474441372167228516</title>
<ellipse fill="none" stroke="white" stroke-width="3" cx="119.5" cy="-401.884" rx="23.2963" ry="23.2963"/>
<text text-anchor="middle" x="119.5" y="-398.184" font-family="Times,serif" font-size="14.00" fill="#ffffff">add</text>
</g>
<!-- &#45;6371600474227556479&#45;&gt;&#45;474441372167228516 -->
<g id="edge35" class="edge"><title>&#45;6371600474227556479&#45;&gt;&#45;474441372167228516</title>
<path fill="none" stroke="white" stroke-width="3" d="M236.113,-321.885C211.137,-338.805 173.102,-364.572 147.318,-382.039"/>
<polygon fill="white" stroke="white" stroke-width="3" points="145.066,-379.337 138.75,-387.843 148.992,-385.132 145.066,-379.337"/>
</g>
<!-- 359487603247794109 -->
<g id="node2" class="node"><title>359487603247794109</title>
<ellipse fill="none" stroke="white" stroke-width="3" cx="261.5" cy="-205.491" rx="26.7961" ry="26.7961"/>
<text text-anchor="middle" x="261.5" y="-201.791" font-family="Times,serif" font-size="14.00" fill="#ffffff">ones</text>
</g>
<!-- 359487603247794109&#45;&gt;&#45;6371600474227556479 -->
<g id="edge1" class="edge"><title>359487603247794109&#45;&gt;&#45;6371600474227556479</title>
<path fill="none" stroke="white" stroke-width="3" d="M261.5,-232.27C261.5,-245.62 261.5,-261.917 261.5,-275.47"/>
<polygon fill="white" stroke="white" stroke-width="3" points="258,-275.642 261.5,-285.642 265,-275.642 258,-275.642"/>
</g>
<!-- 4232396468314287043 -->
<g id="node3" class="node"><title>4232396468314287043</title>
<polygon fill="none" stroke="white" stroke-width="3" points="469.5,-321.687 341.5,-321.687 341.5,-285.687 469.5,-285.687 469.5,-321.687"/>
<text text-anchor="middle" x="405.5" y="-299.987" font-family="Times,serif" font-size="14.00" fill="#ffffff">(&#39;transpose&#45;#1&#39;, 2, 2)</text>
</g>
<!-- &#45;2085935685469968591 -->
<g id="node34" class="node"><title>&#45;2085935685469968591</title>
<ellipse fill="none" stroke="white" stroke-width="3" cx="442.5" cy="-401.884" rx="23.2963" ry="23.2963"/>
<text text-anchor="middle" x="442.5" y="-398.184" font-family="Times,serif" font-size="14.00" fill="#ffffff">add</text>
</g>
<!-- 4232396468314287043&#45;&gt;&#45;2085935685469968591 -->
<g id="edge30" class="edge"><title>4232396468314287043&#45;&gt;&#45;2085935685469968591</title>
<path fill="none" stroke="white" stroke-width="3" d="M412.115,-321.885C417.279,-335.311 424.586,-354.308 430.74,-370.308"/>
<polygon fill="white" stroke="white" stroke-width="3" points="427.536,-371.729 434.393,-379.806 434.07,-369.216 427.536,-371.729"/>
</g>
<!-- &#45;3620330270326323669 -->
<g id="node4" class="node"><title>&#45;3620330270326323669</title>
<ellipse fill="none" stroke="white" stroke-width="3" cx="415.5" cy="-205.491" rx="44.393" ry="44.393"/>
<text text-anchor="middle" x="415.5" y="-201.791" font-family="Times,serif" font-size="14.00" fill="#ffffff">transpose</text>
</g>
<!-- &#45;3620330270326323669&#45;&gt;4232396468314287043 -->
<g id="edge2" class="edge"><title>&#45;3620330270326323669&#45;&gt;4232396468314287043</title>
<path fill="none" stroke="white" stroke-width="3" d="M411.026,-249.525C410.126,-258.192 409.202,-267.08 408.373,-275.048"/>
<polygon fill="white" stroke="white" stroke-width="3" points="404.867,-274.927 407.314,-285.236 411.829,-275.651 404.867,-274.927"/>
</g>
<!-- &#45;6371600474228721528 -->
<g id="node5" class="node"><title>&#45;6371600474228721528</title>
<polygon fill="none" stroke="white" stroke-width="3" points="502,-125.295 379,-125.295 379,-89.2953 502,-89.2953 502,-125.295"/>
<text text-anchor="middle" x="440.5" y="-103.595" font-family="Times,serif" font-size="14.00" fill="#ffffff">(&#39;wrapped&#45;#0&#39;, 2, 2)</text>
</g>
<!-- &#45;6371600474228721528&#45;&gt;&#45;3620330270326323669 -->
<g id="edge3" class="edge"><title>&#45;6371600474228721528&#45;&gt;&#45;3620330270326323669</title>
<path fill="none" stroke="white" stroke-width="3" d="M436.031,-125.493C434.008,-133.275 431.499,-142.929 428.938,-152.785"/>
<polygon fill="white" stroke="white" stroke-width="3" points="425.502,-152.089 426.374,-162.648 432.277,-153.85 425.502,-152.089"/>
</g>
<!-- &#45;6371600474228721528&#45;&gt;&#45;2085935685469968591 -->
<g id="edge29" class="edge"><title>&#45;6371600474228721528&#45;&gt;&#45;2085935685469968591</title>
<path fill="none" stroke="white" stroke-width="3" d="M451.994,-125.676C457.997,-135.669 464.837,-148.705 468.5,-161.295 488.453,-229.875 493.621,-251.883 478.5,-321.687 474.671,-339.366 466.545,-357.837 458.981,-372.489"/>
<polygon fill="white" stroke="white" stroke-width="3" points="455.78,-371.052 454.142,-381.52 461.95,-374.358 455.78,-371.052"/>
</g>
<!-- &#45;6371600474226391430 -->
<g id="node6" class="node"><title>&#45;6371600474226391430</title>
<polygon fill="none" stroke="white" stroke-width="3" points="852,-321.687 729,-321.687 729,-285.687 852,-285.687 852,-321.687"/>
<text text-anchor="middle" x="790.5" y="-299.987" font-family="Times,serif" font-size="14.00" fill="#ffffff">(&#39;wrapped&#45;#0&#39;, 2, 0)</text>
</g>
<!-- 6372607602423959443 -->
<g id="node28" class="node"><title>6372607602423959443</title>
<ellipse fill="none" stroke="white" stroke-width="3" cx="653.5" cy="-401.884" rx="23.2963" ry="23.2963"/>
<text text-anchor="middle" x="653.5" y="-398.184" font-family="Times,serif" font-size="14.00" fill="#ffffff">add</text>
</g>
<!-- &#45;6371600474226391430&#45;&gt;6372607602423959443 -->
<g id="edge21" class="edge"><title>&#45;6371600474226391430&#45;&gt;6372607602423959443</title>
<path fill="none" stroke="white" stroke-width="3" d="M766.007,-321.885C742.048,-338.708 705.633,-364.278 680.766,-381.739"/>
<polygon fill="white" stroke="white" stroke-width="3" points="678.664,-378.938 672.491,-387.549 682.686,-384.667 678.664,-378.938"/>
</g>
<!-- &#45;7280060369691157163 -->
<g id="node30" class="node"><title>&#45;7280060369691157163</title>
<ellipse fill="none" stroke="white" stroke-width="3" cx="790.5" cy="-401.884" rx="44.393" ry="44.393"/>
<text text-anchor="middle" x="790.5" y="-398.184" font-family="Times,serif" font-size="14.00" fill="#ffffff">transpose</text>
</g>
<!-- &#45;6371600474226391430&#45;&gt;&#45;7280060369691157163 -->
<g id="edge24" class="edge"><title>&#45;6371600474226391430&#45;&gt;&#45;7280060369691157163</title>
<path fill="none" stroke="white" stroke-width="3" d="M790.5,-321.885C790.5,-329.188 790.5,-338.138 790.5,-347.358"/>
<polygon fill="white" stroke="white" stroke-width="3" points="787,-347.403 790.5,-357.403 794,-347.403 787,-347.403"/>
</g>
<!-- &#45;6513982130373134650 -->
<g id="node7" class="node"><title>&#45;6513982130373134650</title>
<ellipse fill="none" stroke="white" stroke-width="3" cx="790.5" cy="-205.491" rx="26.7961" ry="26.7961"/>
<text text-anchor="middle" x="790.5" y="-201.791" font-family="Times,serif" font-size="14.00" fill="#ffffff">ones</text>
</g>
<!-- &#45;6513982130373134650&#45;&gt;&#45;6371600474226391430 -->
<g id="edge4" class="edge"><title>&#45;6513982130373134650&#45;&gt;&#45;6371600474226391430</title>
<path fill="none" stroke="white" stroke-width="3" d="M790.5,-232.27C790.5,-245.62 790.5,-261.917 790.5,-275.47"/>
<polygon fill="white" stroke="white" stroke-width="3" points="787,-275.642 790.5,-285.642 794,-275.642 787,-275.642"/>
</g>
<!-- 4613567229462340679 -->
<g id="node8" class="node"><title>4613567229462340679</title>
<polygon fill="none" stroke="white" stroke-width="3" points="717.5,-672.875 621.5,-672.875 621.5,-636.875 717.5,-636.875 717.5,-672.875"/>
<text text-anchor="middle" x="669.5" y="-651.175" font-family="Times,serif" font-size="14.00" fill="#ffffff">(&#39;add&#45;#2&#39;, 0, 2)</text>
</g>
<!-- 7164043352348857351 -->
<g id="node9" class="node"><title>7164043352348857351</title>
<ellipse fill="none" stroke="white" stroke-width="3" cx="669.5" cy="-577.478" rx="23.2963" ry="23.2963"/>
<text text-anchor="middle" x="669.5" y="-573.778" font-family="Times,serif" font-size="14.00" fill="#ffffff">add</text>
</g>
<!-- 7164043352348857351&#45;&gt;4613567229462340679 -->
<g id="edge5" class="edge"><title>7164043352348857351&#45;&gt;4613567229462340679</title>
<path fill="none" stroke="white" stroke-width="3" d="M669.5,-601.099C669.5,-609.151 669.5,-618.302 669.5,-626.696"/>
<polygon fill="white" stroke="white" stroke-width="3" points="666,-626.784 669.5,-636.784 673,-626.784 666,-626.784"/>
</g>
<!-- 4232393945924949593 -->
<g id="node10" class="node"><title>4232393945924949593</title>
<polygon fill="none" stroke="white" stroke-width="3" points="853.5,-518.08 725.5,-518.08 725.5,-482.08 853.5,-482.08 853.5,-518.08"/>
<text text-anchor="middle" x="789.5" y="-496.38" font-family="Times,serif" font-size="14.00" fill="#ffffff">(&#39;transpose&#45;#1&#39;, 0, 2)</text>
</g>
<!-- 4232393945924949593&#45;&gt;7164043352348857351 -->
<g id="edge6" class="edge"><title>4232393945924949593&#45;&gt;7164043352348857351</title>
<path fill="none" stroke="white" stroke-width="3" d="M762.27,-518.189C742.961,-530.321 717.12,-546.557 697.615,-558.812"/>
<polygon fill="white" stroke="white" stroke-width="3" points="695.751,-555.85 689.146,-564.134 699.475,-561.777 695.751,-555.85"/>
</g>
<!-- &#45;6371597951830063686 -->
<g id="node11" class="node"><title>&#45;6371597951830063686</title>
<polygon fill="none" stroke="white" stroke-width="3" points="683,-125.295 560,-125.295 560,-89.2953 683,-89.2953 683,-125.295"/>
<text text-anchor="middle" x="621.5" y="-103.595" font-family="Times,serif" font-size="14.00" fill="#ffffff">(&#39;wrapped&#45;#0&#39;, 0, 2)</text>
</g>
<!-- &#45;6371597951830063686&#45;&gt;7164043352348857351 -->
<g id="edge7" class="edge"><title>&#45;6371597951830063686&#45;&gt;7164043352348857351</title>
<path fill="none" stroke="white" stroke-width="3" d="M608.693,-125.67C601.85,-135.661 593.774,-148.697 588.5,-161.295 563.543,-220.915 554.5,-238.055 554.5,-302.687 554.5,-302.687 554.5,-302.687 554.5,-402.884 554.5,-457.379 564.71,-473.818 596.5,-518.08 608.372,-534.609 626.127,-548.956 641.154,-559.293"/>
<polygon fill="white" stroke="white" stroke-width="3" points="639.352,-562.298 649.622,-564.903 643.218,-556.462 639.352,-562.298"/>
</g>
<!-- &#45;4223853443099013687 -->
<g id="node51" class="node"><title>&#45;4223853443099013687</title>
<ellipse fill="none" stroke="white" stroke-width="3" cx="641.5" cy="-205.491" rx="44.393" ry="44.393"/>
<text text-anchor="middle" x="641.5" y="-201.791" font-family="Times,serif" font-size="14.00" fill="#ffffff">transpose</text>
</g>
<!-- &#45;6371597951830063686&#45;&gt;&#45;4223853443099013687 -->
<g id="edge50" class="edge"><title>&#45;6371597951830063686&#45;&gt;&#45;4223853443099013687</title>
<path fill="none" stroke="white" stroke-width="3" d="M625.076,-125.493C626.643,-133.034 628.576,-142.331 630.559,-151.868"/>
<polygon fill="white" stroke="white" stroke-width="3" points="627.168,-152.752 632.63,-161.83 634.021,-151.327 627.168,-152.752"/>
</g>
<!-- 1829521698132742184 -->
<g id="node12" class="node"><title>1829521698132742184</title>
<ellipse fill="none" stroke="white" stroke-width="3" cx="440.5" cy="-26.6476" rx="26.7961" ry="26.7961"/>
<text text-anchor="middle" x="440.5" y="-22.9476" font-family="Times,serif" font-size="14.00" fill="#ffffff">ones</text>
</g>
<!-- 1829521698132742184&#45;&gt;&#45;6371600474228721528 -->
<g id="edge8" class="edge"><title>1829521698132742184&#45;&gt;&#45;6371600474228721528</title>
<path fill="none" stroke="white" stroke-width="3" d="M440.5,-53.3998C440.5,-61.4986 440.5,-70.4727 440.5,-78.6944"/>
<polygon fill="white" stroke="white" stroke-width="3" points="437,-78.9322 440.5,-88.9323 444,-78.9323 437,-78.9322"/>
</g>
<!-- 4613568490661669600 -->
<g id="node13" class="node"><title>4613568490661669600</title>
<polygon fill="none" stroke="white" stroke-width="3" points="1035.5,-518.08 939.5,-518.08 939.5,-482.08 1035.5,-482.08 1035.5,-518.08"/>
<text text-anchor="middle" x="987.5" y="-496.38" font-family="Times,serif" font-size="14.00" fill="#ffffff">(&#39;add&#45;#2&#39;, 1, 0)</text>
</g>
<!-- &#45;317884001992117184 -->
<g id="node14" class="node"><title>&#45;317884001992117184</title>
<ellipse fill="none" stroke="white" stroke-width="3" cx="987.5" cy="-401.884" rx="23.2963" ry="23.2963"/>
<text text-anchor="middle" x="987.5" y="-398.184" font-family="Times,serif" font-size="14.00" fill="#ffffff">add</text>
</g>
<!-- &#45;317884001992117184&#45;&gt;4613568490661669600 -->
<g id="edge9" class="edge"><title>&#45;317884001992117184&#45;&gt;4613568490661669600</title>
<path fill="none" stroke="white" stroke-width="3" d="M987.5,-425.681C987.5,-439.406 987.5,-456.973 987.5,-471.48"/>
<polygon fill="white" stroke="white" stroke-width="3" points="984,-471.863 987.5,-481.863 991,-471.863 984,-471.863"/>
</g>
<!-- &#45;6371599213029392607 -->
<g id="node15" class="node"><title>&#45;6371599213029392607</title>
<polygon fill="none" stroke="white" stroke-width="3" points="1190,-321.687 1067,-321.687 1067,-285.687 1190,-285.687 1190,-321.687"/>
<text text-anchor="middle" x="1128.5" y="-299.987" font-family="Times,serif" font-size="14.00" fill="#ffffff">(&#39;wrapped&#45;#0&#39;, 1, 0)</text>
</g>
<!-- &#45;6371599213029392607&#45;&gt;&#45;317884001992117184 -->
<g id="edge10" class="edge"><title>&#45;6371599213029392607&#45;&gt;&#45;317884001992117184</title>
<path fill="none" stroke="white" stroke-width="3" d="M1103.29,-321.885C1078.49,-338.805 1040.72,-364.572 1015.12,-382.039"/>
<polygon fill="white" stroke="white" stroke-width="3" points="1012.9,-379.316 1006.61,-387.843 1016.85,-385.098 1012.9,-379.316"/>
</g>
<!-- &#45;6226060151704193088 -->
<g id="node36" class="node"><title>&#45;6226060151704193088</title>
<ellipse fill="none" stroke="white" stroke-width="3" cx="1126.5" cy="-401.884" rx="44.393" ry="44.393"/>
<text text-anchor="middle" x="1126.5" y="-398.184" font-family="Times,serif" font-size="14.00" fill="#ffffff">transpose</text>
</g>
<!-- &#45;6371599213029392607&#45;&gt;&#45;6226060151704193088 -->
<g id="edge32" class="edge"><title>&#45;6371599213029392607&#45;&gt;&#45;6226060151704193088</title>
<path fill="none" stroke="white" stroke-width="3" d="M1128.14,-321.885C1127.99,-329.188 1127.8,-338.138 1127.61,-347.358"/>
<polygon fill="white" stroke="white" stroke-width="3" points="1124.11,-347.332 1127.4,-357.403 1131.11,-347.478 1124.11,-347.332"/>
</g>
<!-- 4232395207119618318 -->
<g id="node16" class="node"><title>4232395207119618318</title>
<polygon fill="none" stroke="white" stroke-width="3" points="1048.5,-321.687 920.5,-321.687 920.5,-285.687 1048.5,-285.687 1048.5,-321.687"/>
<text text-anchor="middle" x="984.5" y="-299.987" font-family="Times,serif" font-size="14.00" fill="#ffffff">(&#39;transpose&#45;#1&#39;, 1, 0)</text>
</g>
<!-- 4232395207119618318&#45;&gt;&#45;317884001992117184 -->
<g id="edge11" class="edge"><title>4232395207119618318&#45;&gt;&#45;317884001992117184</title>
<path fill="none" stroke="white" stroke-width="3" d="M985.036,-321.885C985.436,-334.707 985.994,-352.608 986.479,-368.129"/>
<polygon fill="white" stroke="white" stroke-width="3" points="982.989,-368.516 986.799,-378.402 989.985,-368.298 982.989,-368.516"/>
</g>
<!-- 6836971507778510898 -->
<g id="node17" class="node"><title>6836971507778510898</title>
<ellipse fill="none" stroke="white" stroke-width="3" cx="974.5" cy="-205.491" rx="44.393" ry="44.393"/>
<text text-anchor="middle" x="974.5" y="-201.791" font-family="Times,serif" font-size="14.00" fill="#ffffff">transpose</text>
</g>
<!-- 6836971507778510898&#45;&gt;4232395207119618318 -->
<g id="edge12" class="edge"><title>6836971507778510898&#45;&gt;4232395207119618318</title>
<path fill="none" stroke="white" stroke-width="3" d="M978.974,-249.525C979.874,-258.192 980.798,-267.08 981.627,-275.048"/>
<polygon fill="white" stroke="white" stroke-width="3" points="978.171,-275.651 982.686,-285.236 985.133,-274.927 978.171,-275.651"/>
</g>
<!-- &#45;6371597951833558833 -->
<g id="node18" class="node"><title>&#45;6371597951833558833</title>
<polygon fill="none" stroke="white" stroke-width="3" points="990,-125.295 867,-125.295 867,-89.2953 990,-89.2953 990,-125.295"/>
<text text-anchor="middle" x="928.5" y="-103.595" font-family="Times,serif" font-size="14.00" fill="#ffffff">(&#39;wrapped&#45;#0&#39;, 0, 1)</text>
</g>
<!-- &#45;6371597951833558833&#45;&gt;6836971507778510898 -->
<g id="edge13" class="edge"><title>&#45;6371597951833558833&#45;&gt;6836971507778510898</title>
<path fill="none" stroke="white" stroke-width="3" d="M936.724,-125.493C940.842,-134.106 946.057,-145.011 951.287,-155.948"/>
<polygon fill="white" stroke="white" stroke-width="3" points="948.188,-157.58 955.659,-165.092 954.503,-154.56 948.188,-157.58"/>
</g>
<!-- &#45;6902039178204938690 -->
<g id="node50" class="node"><title>&#45;6902039178204938690</title>
<ellipse fill="none" stroke="white" stroke-width="3" cx="897.5" cy="-577.478" rx="23.2963" ry="23.2963"/>
<text text-anchor="middle" x="897.5" y="-573.778" font-family="Times,serif" font-size="14.00" fill="#ffffff">add</text>
</g>
<!-- &#45;6371597951833558833&#45;&gt;&#45;6902039178204938690 -->
<g id="edge48" class="edge"><title>&#45;6371597951833558833&#45;&gt;&#45;6902039178204938690</title>
<path fill="none" stroke="white" stroke-width="3" d="M923.11,-125.522C913.068,-159.198 892.5,-236.273 892.5,-302.687 892.5,-302.687 892.5,-302.687 892.5,-402.884 892.5,-452.066 894.53,-509.055 896.003,-543.931"/>
<polygon fill="white" stroke="white" stroke-width="3" points="892.51,-544.173 896.44,-554.012 899.504,-543.87 892.51,-544.173"/>
</g>
<!-- 6676490700346582223 -->
<g id="node19" class="node"><title>6676490700346582223</title>
<ellipse fill="none" stroke="white" stroke-width="3" cx="928.5" cy="-26.6476" rx="26.7961" ry="26.7961"/>
<text text-anchor="middle" x="928.5" y="-22.9476" font-family="Times,serif" font-size="14.00" fill="#ffffff">ones</text>
</g>
<!-- 6676490700346582223&#45;&gt;&#45;6371597951833558833 -->
<g id="edge14" class="edge"><title>6676490700346582223&#45;&gt;&#45;6371597951833558833</title>
<path fill="none" stroke="white" stroke-width="3" d="M928.5,-53.3998C928.5,-61.4986 928.5,-70.4727 928.5,-78.6944"/>
<polygon fill="white" stroke="white" stroke-width="3" points="925,-78.9322 928.5,-88.9323 932,-78.9323 925,-78.9322"/>
</g>
<!-- 4613568490663999698 -->
<g id="node20" class="node"><title>4613568490663999698</title>
<polygon fill="none" stroke="white" stroke-width="3" points="186.5,-672.875 90.5,-672.875 90.5,-636.875 186.5,-636.875 186.5,-672.875"/>
<text text-anchor="middle" x="138.5" y="-651.175" font-family="Times,serif" font-size="14.00" fill="#ffffff">(&#39;add&#45;#2&#39;, 1, 2)</text>
</g>
<!-- &#45;7676933891720627234 -->
<g id="node21" class="node"><title>&#45;7676933891720627234</title>
<ellipse fill="none" stroke="white" stroke-width="3" cx="138.5" cy="-577.478" rx="23.2963" ry="23.2963"/>
<text text-anchor="middle" x="138.5" y="-573.778" font-family="Times,serif" font-size="14.00" fill="#ffffff">add</text>
</g>
<!-- &#45;7676933891720627234&#45;&gt;4613568490663999698 -->
<g id="edge15" class="edge"><title>&#45;7676933891720627234&#45;&gt;4613568490663999698</title>
<path fill="none" stroke="white" stroke-width="3" d="M138.5,-601.099C138.5,-609.151 138.5,-618.302 138.5,-626.696"/>
<polygon fill="white" stroke="white" stroke-width="3" points="135,-626.784 138.5,-636.784 142,-626.784 135,-626.784"/>
</g>
<!-- 4232395207117288220 -->
<g id="node22" class="node"><title>4232395207117288220</title>
<polygon fill="none" stroke="white" stroke-width="3" points="315.5,-518.08 187.5,-518.08 187.5,-482.08 315.5,-482.08 315.5,-518.08"/>
<text text-anchor="middle" x="251.5" y="-496.38" font-family="Times,serif" font-size="14.00" fill="#ffffff">(&#39;transpose&#45;#1&#39;, 1, 2)</text>
</g>
<!-- 4232395207117288220&#45;&gt;&#45;7676933891720627234 -->
<g id="edge16" class="edge"><title>4232395207117288220&#45;&gt;&#45;7676933891720627234</title>
<path fill="none" stroke="white" stroke-width="3" d="M225.859,-518.189C208.063,-530.062 184.377,-545.867 166.158,-558.023"/>
<polygon fill="white" stroke="white" stroke-width="3" points="164.079,-555.203 157.703,-563.665 167.964,-561.026 164.079,-555.203"/>
</g>
<!-- &#45;6371599213031722705 -->
<g id="node23" class="node"><title>&#45;6371599213031722705</title>
<polygon fill="none" stroke="white" stroke-width="3" points="123,-125.295 0,-125.295 0,-89.2953 123,-89.2953 123,-125.295"/>
<text text-anchor="middle" x="61.5" y="-103.595" font-family="Times,serif" font-size="14.00" fill="#ffffff">(&#39;wrapped&#45;#0&#39;, 1, 2)</text>
</g>
<!-- &#45;6371599213031722705&#45;&gt;&#45;7676933891720627234 -->
<g id="edge17" class="edge"><title>&#45;6371599213031722705&#45;&gt;&#45;7676933891720627234</title>
<path fill="none" stroke="white" stroke-width="3" d="M56.1104,-125.522C46.0676,-159.198 25.5,-236.273 25.5,-302.687 25.5,-302.687 25.5,-302.687 25.5,-402.884 25.5,-456.658 31.5533,-474.103 62.5,-518.08 74.6676,-535.37 93.4794,-549.884 109.342,-560.117"/>
<polygon fill="white" stroke="white" stroke-width="3" points="107.923,-563.354 118.269,-565.636 111.604,-557.4 107.923,-563.354"/>
</g>
<!-- &#45;537386670992905262 -->
<g id="node46" class="node"><title>&#45;537386670992905262</title>
<ellipse fill="none" stroke="white" stroke-width="3" cx="107.5" cy="-205.491" rx="44.393" ry="44.393"/>
<text text-anchor="middle" x="107.5" y="-201.791" font-family="Times,serif" font-size="14.00" fill="#ffffff">transpose</text>
</g>
<!-- &#45;6371599213031722705&#45;&gt;&#45;537386670992905262 -->
<g id="edge43" class="edge"><title>&#45;6371599213031722705&#45;&gt;&#45;537386670992905262</title>
<path fill="none" stroke="white" stroke-width="3" d="M69.7239,-125.493C73.8425,-134.106 79.0573,-145.011 84.2869,-155.948"/>
<polygon fill="white" stroke="white" stroke-width="3" points="81.1877,-157.58 88.6594,-165.092 87.5029,-154.56 81.1877,-157.58"/>
</g>
<!-- 4232395207118453269 -->
<g id="node24" class="node"><title>4232395207118453269</title>
<polygon fill="none" stroke="white" stroke-width="3" points="1336.5,-321.687 1208.5,-321.687 1208.5,-285.687 1336.5,-285.687 1336.5,-321.687"/>
<text text-anchor="middle" x="1272.5" y="-299.987" font-family="Times,serif" font-size="14.00" fill="#ffffff">(&#39;transpose&#45;#1&#39;, 1, 1)</text>
</g>
<!-- 726034793253178791 -->
<g id="node45" class="node"><title>726034793253178791</title>
<ellipse fill="none" stroke="white" stroke-width="3" cx="1315.5" cy="-401.884" rx="23.2963" ry="23.2963"/>
<text text-anchor="middle" x="1315.5" y="-398.184" font-family="Times,serif" font-size="14.00" fill="#ffffff">add</text>
</g>
<!-- 4232395207118453269&#45;&gt;726034793253178791 -->
<g id="edge41" class="edge"><title>4232395207118453269&#45;&gt;726034793253178791</title>
<path fill="none" stroke="white" stroke-width="3" d="M1280.19,-321.885C1286.23,-335.401 1294.79,-354.561 1301.98,-370.627"/>
<polygon fill="white" stroke="white" stroke-width="3" points="1298.96,-372.452 1306.23,-380.153 1305.35,-369.595 1298.96,-372.452"/>
</g>
<!-- 7761614856540613673 -->
<g id="node25" class="node"><title>7761614856540613673</title>
<ellipse fill="none" stroke="white" stroke-width="3" cx="1282.5" cy="-205.491" rx="44.393" ry="44.393"/>
<text text-anchor="middle" x="1282.5" y="-201.791" font-family="Times,serif" font-size="14.00" fill="#ffffff">transpose</text>
</g>
<!-- 7761614856540613673&#45;&gt;4232395207118453269 -->
<g id="edge18" class="edge"><title>7761614856540613673&#45;&gt;4232395207118453269</title>
<path fill="none" stroke="white" stroke-width="3" d="M1278.03,-249.525C1277.13,-258.192 1276.2,-267.08 1275.37,-275.048"/>
<polygon fill="white" stroke="white" stroke-width="3" points="1271.87,-274.927 1274.31,-285.236 1278.83,-275.651 1271.87,-274.927"/>
</g>
<!-- &#45;6371599213028227558 -->
<g id="node26" class="node"><title>&#45;6371599213028227558</title>
<polygon fill="none" stroke="white" stroke-width="3" points="1412,-125.295 1289,-125.295 1289,-89.2953 1412,-89.2953 1412,-125.295"/>
<text text-anchor="middle" x="1350.5" y="-103.595" font-family="Times,serif" font-size="14.00" fill="#ffffff">(&#39;wrapped&#45;#0&#39;, 1, 1)</text>
</g>
<!-- &#45;6371599213028227558&#45;&gt;7761614856540613673 -->
<g id="edge19" class="edge"><title>&#45;6371599213028227558&#45;&gt;7761614856540613673</title>
<path fill="none" stroke="white" stroke-width="3" d="M1338.34,-125.493C1331.45,-135.241 1322.49,-147.925 1313.76,-160.267"/>
<polygon fill="white" stroke="white" stroke-width="3" points="1310.7,-158.53 1307.79,-168.716 1316.42,-162.571 1310.7,-158.53"/>
</g>
<!-- &#45;6371599213028227558&#45;&gt;726034793253178791 -->
<g id="edge40" class="edge"><title>&#45;6371599213028227558&#45;&gt;726034793253178791</title>
<path fill="none" stroke="white" stroke-width="3" d="M1352.03,-125.379C1354.88,-161.849 1359.52,-249.855 1345.5,-321.687 1342.2,-338.571 1335.65,-356.564 1329.51,-371.126"/>
<polygon fill="white" stroke="white" stroke-width="3" points="1326.17,-370.039 1325.37,-380.604 1332.58,-372.841 1326.17,-370.039"/>
</g>
<!-- 4613564707070673131 -->
<g id="node27" class="node"><title>4613564707070673131</title>
<polygon fill="none" stroke="white" stroke-width="3" points="701.5,-518.08 605.5,-518.08 605.5,-482.08 701.5,-482.08 701.5,-518.08"/>
<text text-anchor="middle" x="653.5" y="-496.38" font-family="Times,serif" font-size="14.00" fill="#ffffff">(&#39;add&#45;#2&#39;, 2, 0)</text>
</g>
<!-- 6372607602423959443&#45;&gt;4613564707070673131 -->
<g id="edge20" class="edge"><title>6372607602423959443&#45;&gt;4613564707070673131</title>
<path fill="none" stroke="white" stroke-width="3" d="M653.5,-425.681C653.5,-439.406 653.5,-456.973 653.5,-471.48"/>
<polygon fill="white" stroke="white" stroke-width="3" points="650,-471.863 653.5,-481.863 657,-471.863 650,-471.863"/>
</g>
<!-- 4232396468316617141 -->
<g id="node29" class="node"><title>4232396468316617141</title>
<polygon fill="none" stroke="white" stroke-width="3" points="710.5,-321.687 582.5,-321.687 582.5,-285.687 710.5,-285.687 710.5,-321.687"/>
<text text-anchor="middle" x="646.5" y="-299.987" font-family="Times,serif" font-size="14.00" fill="#ffffff">(&#39;transpose&#45;#1&#39;, 2, 0)</text>
</g>
<!-- 4232396468316617141&#45;&gt;6372607602423959443 -->
<g id="edge22" class="edge"><title>4232396468316617141&#45;&gt;6372607602423959443</title>
<path fill="none" stroke="white" stroke-width="3" d="M647.751,-321.885C648.684,-334.707 649.987,-352.608 651.117,-368.129"/>
<polygon fill="white" stroke="white" stroke-width="3" points="647.647,-368.682 651.864,-378.402 654.629,-368.174 647.647,-368.682"/>
</g>
<!-- &#45;7280060369691157163&#45;&gt;4232393945924949593 -->
<g id="edge23" class="edge"><title>&#45;7280060369691157163&#45;&gt;4232393945924949593</title>
<path fill="none" stroke="white" stroke-width="3" d="M790.05,-446.198C789.96,-454.837 789.868,-463.685 789.786,-471.611"/>
<polygon fill="white" stroke="white" stroke-width="3" points="786.284,-471.705 789.68,-481.741 793.284,-471.778 786.284,-471.705"/>
</g>
<!-- &#45;3581354670716943002 -->
<g id="node31" class="node"><title>&#45;3581354670716943002</title>
<ellipse fill="none" stroke="white" stroke-width="3" cx="1350.5" cy="-26.6476" rx="26.7961" ry="26.7961"/>
<text text-anchor="middle" x="1350.5" y="-22.9476" font-family="Times,serif" font-size="14.00" fill="#ffffff">ones</text>
</g>
<!-- &#45;3581354670716943002&#45;&gt;&#45;6371599213028227558 -->
<g id="edge25" class="edge"><title>&#45;3581354670716943002&#45;&gt;&#45;6371599213028227558</title>
<path fill="none" stroke="white" stroke-width="3" d="M1350.5,-53.3998C1350.5,-61.4986 1350.5,-70.4727 1350.5,-78.6944"/>
<polygon fill="white" stroke="white" stroke-width="3" points="1347,-78.9322 1350.5,-88.9323 1354,-78.9323 1347,-78.9322"/>
</g>
<!-- &#45;4308030986304559468&#45;&gt;4232395207117288220 -->
<g id="edge26" class="edge"><title>&#45;4308030986304559468&#45;&gt;4232395207117288220</title>
<path fill="none" stroke="white" stroke-width="3" d="M255.348,-446.198C254.719,-454.837 254.076,-463.685 253.499,-471.611"/>
<polygon fill="white" stroke="white" stroke-width="3" points="249.997,-471.513 252.762,-481.741 256.978,-472.021 249.997,-471.513"/>
</g>
<!-- 4613564707073003229 -->
<g id="node33" class="node"><title>4613564707073003229</title>
<polygon fill="none" stroke="white" stroke-width="3" points="490.5,-518.08 394.5,-518.08 394.5,-482.08 490.5,-482.08 490.5,-518.08"/>
<text text-anchor="middle" x="442.5" y="-496.38" font-family="Times,serif" font-size="14.00" fill="#ffffff">(&#39;add&#45;#2&#39;, 2, 2)</text>
</g>
<!-- &#45;2085935685469968591&#45;&gt;4613564707073003229 -->
<g id="edge28" class="edge"><title>&#45;2085935685469968591&#45;&gt;4613564707073003229</title>
<path fill="none" stroke="white" stroke-width="3" d="M442.5,-425.681C442.5,-439.406 442.5,-456.973 442.5,-471.48"/>
<polygon fill="white" stroke="white" stroke-width="3" points="439,-471.863 442.5,-481.863 446,-471.863 439,-471.863"/>
</g>
<!-- 4232393945923784544 -->
<g id="node35" class="node"><title>4232393945923784544</title>
<polygon fill="none" stroke="white" stroke-width="3" points="1183.5,-518.08 1055.5,-518.08 1055.5,-482.08 1183.5,-482.08 1183.5,-518.08"/>
<text text-anchor="middle" x="1119.5" y="-496.38" font-family="Times,serif" font-size="14.00" fill="#ffffff">(&#39;transpose&#45;#1&#39;, 0, 1)</text>
</g>
<!-- 4232393945923784544&#45;&gt;&#45;6902039178204938690 -->
<g id="edge47" class="edge"><title>4232393945923784544&#45;&gt;&#45;6902039178204938690</title>
<path fill="none" stroke="white" stroke-width="3" d="M1069.4,-518.094C1026.39,-532.704 965.694,-553.317 929.118,-565.739"/>
<polygon fill="white" stroke="white" stroke-width="3" points="927.82,-562.484 919.477,-569.014 930.071,-569.112 927.82,-562.484"/>
</g>
<!-- &#45;6226060151704193088&#45;&gt;4232393945923784544 -->
<g id="edge31" class="edge"><title>&#45;6226060151704193088&#45;&gt;4232393945923784544</title>
<path fill="none" stroke="white" stroke-width="3" d="M1123.35,-446.198C1122.72,-454.837 1122.08,-463.685 1121.5,-471.611"/>
<polygon fill="white" stroke="white" stroke-width="3" points="1118,-471.513 1120.76,-481.741 1124.98,-472.021 1118,-471.513"/>
</g>
<!-- 8053495919151992157 -->
<g id="node37" class="node"><title>8053495919151992157</title>
<ellipse fill="none" stroke="white" stroke-width="3" cx="1128.5" cy="-205.491" rx="26.7961" ry="26.7961"/>
<text text-anchor="middle" x="1128.5" y="-201.791" font-family="Times,serif" font-size="14.00" fill="#ffffff">ones</text>
</g>
<!-- 8053495919151992157&#45;&gt;&#45;6371599213029392607 -->
<g id="edge33" class="edge"><title>8053495919151992157&#45;&gt;&#45;6371599213029392607</title>
<path fill="none" stroke="white" stroke-width="3" d="M1128.5,-232.27C1128.5,-245.62 1128.5,-261.917 1128.5,-275.47"/>
<polygon fill="white" stroke="white" stroke-width="3" points="1125,-275.642 1128.5,-285.642 1132,-275.642 1125,-275.642"/>
</g>
<!-- 4613564707071838180 -->
<g id="node38" class="node"><title>4613564707071838180</title>
<polygon fill="none" stroke="white" stroke-width="3" points="167.5,-518.08 71.5,-518.08 71.5,-482.08 167.5,-482.08 167.5,-518.08"/>
<text text-anchor="middle" x="119.5" y="-496.38" font-family="Times,serif" font-size="14.00" fill="#ffffff">(&#39;add&#45;#2&#39;, 2, 1)</text>
</g>
<!-- &#45;474441372167228516&#45;&gt;4613564707071838180 -->
<g id="edge34" class="edge"><title>&#45;474441372167228516&#45;&gt;4613564707071838180</title>
<path fill="none" stroke="white" stroke-width="3" d="M119.5,-425.681C119.5,-439.406 119.5,-456.973 119.5,-471.48"/>
<polygon fill="white" stroke="white" stroke-width="3" points="116,-471.863 119.5,-481.863 123,-471.863 116,-471.863"/>
</g>
<!-- 4232396468317782190 -->
<g id="node40" class="node"><title>4232396468317782190</title>
<polygon fill="none" stroke="white" stroke-width="3" points="181.5,-321.687 53.5,-321.687 53.5,-285.687 181.5,-285.687 181.5,-321.687"/>
<text text-anchor="middle" x="117.5" y="-299.987" font-family="Times,serif" font-size="14.00" fill="#ffffff">(&#39;transpose&#45;#1&#39;, 2, 1)</text>
</g>
<!-- 4232396468317782190&#45;&gt;&#45;474441372167228516 -->
<g id="edge36" class="edge"><title>4232396468317782190&#45;&gt;&#45;474441372167228516</title>
<path fill="none" stroke="white" stroke-width="3" d="M117.858,-321.885C118.124,-334.707 118.496,-352.608 118.819,-368.129"/>
<polygon fill="white" stroke="white" stroke-width="3" points="115.325,-368.477 119.033,-378.402 122.324,-368.331 115.325,-368.477"/>
</g>
<!-- 4232393945922619495 -->
<g id="node41" class="node"><title>4232393945922619495</title>
<polygon fill="none" stroke="white" stroke-width="3" points="1531.5,-321.687 1403.5,-321.687 1403.5,-285.687 1531.5,-285.687 1531.5,-321.687"/>
<text text-anchor="middle" x="1467.5" y="-299.987" font-family="Times,serif" font-size="14.00" fill="#ffffff">(&#39;transpose&#45;#1&#39;, 0, 0)</text>
</g>
<!-- 529333342928364085 -->
<g id="node53" class="node"><title>529333342928364085</title>
<ellipse fill="none" stroke="white" stroke-width="3" cx="1472.5" cy="-401.884" rx="23.2963" ry="23.2963"/>
<text text-anchor="middle" x="1472.5" y="-398.184" font-family="Times,serif" font-size="14.00" fill="#ffffff">add</text>
</g>
<!-- 4232393945922619495&#45;&gt;529333342928364085 -->
<g id="edge53" class="edge"><title>4232393945922619495&#45;&gt;529333342928364085</title>
<path fill="none" stroke="white" stroke-width="3" d="M1468.39,-321.885C1469.06,-334.707 1469.99,-352.608 1470.8,-368.129"/>
<polygon fill="white" stroke="white" stroke-width="3" points="1467.32,-368.597 1471.33,-378.402 1474.31,-368.234 1467.32,-368.597"/>
</g>
<!-- &#45;9001527950564727513 -->
<g id="node42" class="node"><title>&#45;9001527950564727513</title>
<ellipse fill="none" stroke="white" stroke-width="3" cx="1477.5" cy="-205.491" rx="44.393" ry="44.393"/>
<text text-anchor="middle" x="1477.5" y="-201.791" font-family="Times,serif" font-size="14.00" fill="#ffffff">transpose</text>
</g>
<!-- &#45;9001527950564727513&#45;&gt;4232393945922619495 -->
<g id="edge37" class="edge"><title>&#45;9001527950564727513&#45;&gt;4232393945922619495</title>
<path fill="none" stroke="white" stroke-width="3" d="M1473.03,-249.525C1472.13,-258.192 1471.2,-267.08 1470.37,-275.048"/>
<polygon fill="white" stroke="white" stroke-width="3" points="1466.87,-274.927 1469.31,-285.236 1473.83,-275.651 1466.87,-274.927"/>
</g>
<!-- &#45;6371597951832393784 -->
<g id="node43" class="node"><title>&#45;6371597951832393784</title>
<polygon fill="none" stroke="white" stroke-width="3" points="1574,-125.295 1451,-125.295 1451,-89.2953 1574,-89.2953 1574,-125.295"/>
<text text-anchor="middle" x="1512.5" y="-103.595" font-family="Times,serif" font-size="14.00" fill="#ffffff">(&#39;wrapped&#45;#0&#39;, 0, 0)</text>
</g>
<!-- &#45;6371597951832393784&#45;&gt;&#45;9001527950564727513 -->
<g id="edge38" class="edge"><title>&#45;6371597951832393784&#45;&gt;&#45;9001527950564727513</title>
<path fill="none" stroke="white" stroke-width="3" d="M1506.24,-125.493C1503.29,-133.603 1499.6,-143.745 1495.86,-154.031"/>
<polygon fill="white" stroke="white" stroke-width="3" points="1492.56,-152.87 1492.43,-163.464 1499.14,-155.264 1492.56,-152.87"/>
</g>
<!-- &#45;6371597951832393784&#45;&gt;529333342928364085 -->
<g id="edge52" class="edge"><title>&#45;6371597951832393784&#45;&gt;529333342928364085</title>
<path fill="none" stroke="white" stroke-width="3" d="M1520.12,-125.509C1535.39,-162.599 1566.2,-252.312 1540.5,-321.687 1532.03,-344.552 1513.68,-365.259 1498.17,-379.76"/>
<polygon fill="white" stroke="white" stroke-width="3" points="1495.49,-377.468 1490.39,-386.756 1500.17,-382.673 1495.49,-377.468"/>
</g>
<!-- 4613568490660504551 -->
<g id="node44" class="node"><title>4613568490660504551</title>
<polygon fill="none" stroke="white" stroke-width="3" points="1363.5,-518.08 1267.5,-518.08 1267.5,-482.08 1363.5,-482.08 1363.5,-518.08"/>
<text text-anchor="middle" x="1315.5" y="-496.38" font-family="Times,serif" font-size="14.00" fill="#ffffff">(&#39;add&#45;#2&#39;, 1, 1)</text>
</g>
<!-- 726034793253178791&#45;&gt;4613568490660504551 -->
<g id="edge39" class="edge"><title>726034793253178791&#45;&gt;4613568490660504551</title>
<path fill="none" stroke="white" stroke-width="3" d="M1315.5,-425.681C1315.5,-439.406 1315.5,-456.973 1315.5,-471.48"/>
<polygon fill="white" stroke="white" stroke-width="3" points="1312,-471.863 1315.5,-481.863 1319,-471.863 1312,-471.863"/>
</g>
<!-- &#45;537386670992905262&#45;&gt;4232396468317782190 -->
<g id="edge42" class="edge"><title>&#45;537386670992905262&#45;&gt;4232396468317782190</title>
<path fill="none" stroke="white" stroke-width="3" d="M111.974,-249.525C112.874,-258.192 113.798,-267.08 114.627,-275.048"/>
<polygon fill="white" stroke="white" stroke-width="3" points="111.171,-275.651 115.686,-285.236 118.133,-274.927 111.171,-275.651"/>
</g>
<!-- &#45;5451378411576711377 -->
<g id="node47" class="node"><title>&#45;5451378411576711377</title>
<ellipse fill="none" stroke="white" stroke-width="3" cx="61.5" cy="-26.6476" rx="26.7961" ry="26.7961"/>
<text text-anchor="middle" x="61.5" y="-22.9476" font-family="Times,serif" font-size="14.00" fill="#ffffff">ones</text>
</g>
<!-- &#45;5451378411576711377&#45;&gt;&#45;6371599213031722705 -->
<g id="edge44" class="edge"><title>&#45;5451378411576711377&#45;&gt;&#45;6371599213031722705</title>
<path fill="none" stroke="white" stroke-width="3" d="M61.5,-53.3998C61.5,-61.4986 61.5,-70.4727 61.5,-78.6944"/>
<polygon fill="white" stroke="white" stroke-width="3" points="58.0001,-78.9322 61.5,-88.9323 65.0001,-78.9323 58.0001,-78.9322"/>
</g>
<!-- 5065181310117414248 -->
<g id="node48" class="node"><title>5065181310117414248</title>
<ellipse fill="none" stroke="white" stroke-width="3" cx="1512.5" cy="-26.6476" rx="26.7961" ry="26.7961"/>
<text text-anchor="middle" x="1512.5" y="-22.9476" font-family="Times,serif" font-size="14.00" fill="#ffffff">ones</text>
</g>
<!-- 5065181310117414248&#45;&gt;&#45;6371597951832393784 -->
<g id="edge45" class="edge"><title>5065181310117414248&#45;&gt;&#45;6371597951832393784</title>
<path fill="none" stroke="white" stroke-width="3" d="M1512.5,-53.3998C1512.5,-61.4986 1512.5,-70.4727 1512.5,-78.6944"/>
<polygon fill="white" stroke="white" stroke-width="3" points="1509,-78.9322 1512.5,-88.9323 1516,-78.9323 1509,-78.9322"/>
</g>
<!-- 4613567229465835826 -->
<g id="node49" class="node"><title>4613567229465835826</title>
<polygon fill="none" stroke="white" stroke-width="3" points="945.5,-672.875 849.5,-672.875 849.5,-636.875 945.5,-636.875 945.5,-672.875"/>
<text text-anchor="middle" x="897.5" y="-651.175" font-family="Times,serif" font-size="14.00" fill="#ffffff">(&#39;add&#45;#2&#39;, 0, 1)</text>
</g>
<!-- &#45;6902039178204938690&#45;&gt;4613567229465835826 -->
<g id="edge46" class="edge"><title>&#45;6902039178204938690&#45;&gt;4613567229465835826</title>
<path fill="none" stroke="white" stroke-width="3" d="M897.5,-601.099C897.5,-609.151 897.5,-618.302 897.5,-626.696"/>
<polygon fill="white" stroke="white" stroke-width="3" points="894,-626.784 897.5,-636.784 901,-626.784 894,-626.784"/>
</g>
<!-- &#45;4223853443099013687&#45;&gt;4232396468316617141 -->
<g id="edge49" class="edge"><title>&#45;4223853443099013687&#45;&gt;4232396468316617141</title>
<path fill="none" stroke="white" stroke-width="3" d="M643.751,-249.805C644.2,-258.445 644.66,-267.293 645.072,-275.219"/>
<polygon fill="white" stroke="white" stroke-width="3" points="641.584,-275.544 645.599,-285.349 648.575,-275.181 641.584,-275.544"/>
</g>
<!-- 4613567229464670777 -->
<g id="node52" class="node"><title>4613567229464670777</title>
<polygon fill="none" stroke="white" stroke-width="3" points="1520.5,-518.08 1424.5,-518.08 1424.5,-482.08 1520.5,-482.08 1520.5,-518.08"/>
<text text-anchor="middle" x="1472.5" y="-496.38" font-family="Times,serif" font-size="14.00" fill="#ffffff">(&#39;add&#45;#2&#39;, 0, 0)</text>
</g>
<!-- 529333342928364085&#45;&gt;4613567229464670777 -->
<g id="edge51" class="edge"><title>529333342928364085&#45;&gt;4613567229464670777</title>
<path fill="none" stroke="white" stroke-width="3" d="M1472.5,-425.681C1472.5,-439.406 1472.5,-456.973 1472.5,-471.48"/>
<polygon fill="white" stroke="white" stroke-width="3" points="1469,-471.863 1472.5,-481.863 1476,-471.863 1469,-471.863"/>
</g>
<!-- &#45;7980626304808583418 -->
<g id="node54" class="node"><title>&#45;7980626304808583418</title>
<ellipse fill="none" stroke="white" stroke-width="3" cx="621.5" cy="-26.6476" rx="26.7961" ry="26.7961"/>
<text text-anchor="middle" x="621.5" y="-22.9476" font-family="Times,serif" font-size="14.00" fill="#ffffff">ones</text>
</g>
<!-- &#45;7980626304808583418&#45;&gt;&#45;6371597951830063686 -->
<g id="edge54" class="edge"><title>&#45;7980626304808583418&#45;&gt;&#45;6371597951830063686</title>
<path fill="none" stroke="white" stroke-width="3" d="M621.5,-53.3998C621.5,-61.4986 621.5,-70.4727 621.5,-78.6944"/>
<polygon fill="white" stroke="white" stroke-width="3" points="618,-78.9322 621.5,-88.9323 625,-78.9323 618,-78.9322"/>
</g>
</g>
</svg>
