<?xml version="1.0" encoding="UTF-8" standalone="no"?>
<!DOCTYPE svg PUBLIC "-//W3C//DTD SVG 1.1//EN"
 "http://www.w3.org/Graphics/SVG/1.1/DTD/svg11.dtd">
<!-- Generated by graphviz version 2.38.0 (20140413.2041)
 -->
<!-- Title: %3 Pages: 1 -->
<svg width="1557pt" height="681pt"
 viewBox="0.00 0.00 1556.50 680.88" xmlns="http://www.w3.org/2000/svg" xmlns:xlink="http://www.w3.org/1999/xlink">
<g id="graph0" class="graph" transform="scale(1 1) rotate(0) translate(4 676.875)">
<title>%3</title>
<polygon fill="white" stroke="none" points="-4,4 -4,-676.875 1552.5,-676.875 1552.5,4 -4,4"/>
<!-- 3866286995600044672 -->
<g id="node1" class="node"><title>3866286995600044672</title>
<polygon fill="none" stroke="black" points="128,-321.687 0,-321.687 0,-285.687 128,-285.687 128,-321.687"/>
<text text-anchor="middle" x="64" y="-299.987" font-family="Times,serif" font-size="14.00">(&#39;transpose&#45;#0&#39;, 1, 1)</text>
</g>
<!-- 3929930007558143049 -->
<g id="node24" class="node"><title>3929930007558143049</title>
<ellipse fill="none" stroke="black" cx="101" cy="-401.884" rx="23.2963" ry="23.2963"/>
<text text-anchor="middle" x="101" y="-398.184" font-family="Times,serif" font-size="14.00">add</text>
</g>
<!-- 3866286995600044672&#45;&gt;3929930007558143049 -->
<g id="edge19" class="edge"><title>3866286995600044672&#45;&gt;3929930007558143049</title>
<path fill="none" stroke="black" d="M70.6149,-321.885C75.7789,-335.311 83.0856,-354.308 89.2397,-370.308"/>
<polygon fill="black" stroke="black" points="86.0364,-371.729 92.8931,-379.806 92.5698,-369.216 86.0364,-371.729"/>
</g>
<!-- 8364493641520581 -->
<g id="node2" class="node"><title>8364493641520581</title>
<ellipse fill="none" stroke="black" cx="74" cy="-205.491" rx="44.393" ry="44.393"/>
<text text-anchor="middle" x="74" y="-201.791" font-family="Times,serif" font-size="14.00">transpose</text>
</g>
<!-- 8364493641520581&#45;&gt;3866286995600044672 -->
<g id="edge1" class="edge"><title>8364493641520581&#45;&gt;3866286995600044672</title>
<path fill="none" stroke="black" d="M69.5265,-249.525C68.6255,-258.192 67.7015,-267.08 66.8732,-275.048"/>
<polygon fill="black" stroke="black" points="63.367,-274.927 65.8142,-285.236 70.3295,-275.651 63.367,-274.927"/>
</g>
<!-- 2458708697450988457 -->
<g id="node3" class="node"><title>2458708697450988457</title>
<polygon fill="none" stroke="black" points="155.5,-125.295 32.5,-125.295 32.5,-89.2953 155.5,-89.2953 155.5,-125.295"/>
<text text-anchor="middle" x="94" y="-103.595" font-family="Times,serif" font-size="14.00">(&#39;wrapped&#45;#1&#39;, 1, 1)</text>
</g>
<!-- 2458708697450988457&#45;&gt;8364493641520581 -->
<g id="edge2" class="edge"><title>2458708697450988457&#45;&gt;8364493641520581</title>
<path fill="none" stroke="black" d="M90.4244,-125.493C88.8567,-133.034 86.9236,-142.331 84.9408,-151.868"/>
<polygon fill="black" stroke="black" points="81.4786,-151.327 82.8696,-161.83 88.332,-152.752 81.4786,-151.327"/>
</g>
<!-- 2458708697450988457&#45;&gt;3929930007558143049 -->
<g id="edge20" class="edge"><title>2458708697450988457&#45;&gt;3929930007558143049</title>
<path fill="none" stroke="black" d="M107.578,-125.382C114.661,-135.283 122.723,-148.325 127,-161.295 149.37,-229.126 152.121,-251.883 137,-321.687 133.171,-339.366 125.045,-357.837 117.481,-372.489"/>
<polygon fill="black" stroke="black" points="114.28,-371.052 112.642,-381.52 120.45,-374.358 114.28,-371.052"/>
</g>
<!-- &#45;6100705686690173823 -->
<g id="node4" class="node"><title>&#45;6100705686690173823</title>
<polygon fill="none" stroke="black" points="357,-518.08 261,-518.08 261,-482.08 357,-482.08 357,-518.08"/>
<text text-anchor="middle" x="309" y="-496.38" font-family="Times,serif" font-size="14.00">(&#39;add&#45;#2&#39;, 0, 1)</text>
</g>
<!-- &#45;8781134799977585560 -->
<g id="node5" class="node"><title>&#45;8781134799977585560</title>
<ellipse fill="none" stroke="black" cx="309" cy="-401.884" rx="23.2963" ry="23.2963"/>
<text text-anchor="middle" x="309" y="-398.184" font-family="Times,serif" font-size="14.00">add</text>
</g>
<!-- &#45;8781134799977585560&#45;&gt;&#45;6100705686690173823 -->
<g id="edge3" class="edge"><title>&#45;8781134799977585560&#45;&gt;&#45;6100705686690173823</title>
<path fill="none" stroke="black" d="M309,-425.681C309,-439.406 309,-456.973 309,-471.48"/>
<polygon fill="black" stroke="black" points="305.5,-471.863 309,-481.863 312.5,-471.863 305.5,-471.863"/>
</g>
<!-- 2458707436256319732 -->
<g id="node6" class="node"><title>2458707436256319732</title>
<polygon fill="none" stroke="black" points="510.5,-321.687 387.5,-321.687 387.5,-285.687 510.5,-285.687 510.5,-321.687"/>
<text text-anchor="middle" x="449" y="-299.987" font-family="Times,serif" font-size="14.00">(&#39;wrapped&#45;#1&#39;, 0, 1)</text>
</g>
<!-- 2458707436256319732&#45;&gt;&#45;8781134799977585560 -->
<g id="edge4" class="edge"><title>2458707436256319732&#45;&gt;&#45;8781134799977585560</title>
<path fill="none" stroke="black" d="M423.971,-321.885C399.346,-338.805 361.847,-364.572 336.426,-382.039"/>
<polygon fill="black" stroke="black" points="334.239,-379.295 327.979,-387.843 338.203,-385.064 334.239,-379.295"/>
</g>
<!-- 7900461713843460806 -->
<g id="node17" class="node"><title>7900461713843460806</title>
<ellipse fill="none" stroke="black" cx="449" cy="-401.884" rx="44.393" ry="44.393"/>
<text text-anchor="middle" x="449" y="-398.184" font-family="Times,serif" font-size="14.00">transpose</text>
</g>
<!-- 2458707436256319732&#45;&gt;7900461713843460806 -->
<g id="edge13" class="edge"><title>2458707436256319732&#45;&gt;7900461713843460806</title>
<path fill="none" stroke="black" d="M449,-321.885C449,-329.188 449,-338.138 449,-347.358"/>
<polygon fill="black" stroke="black" points="445.5,-347.403 449,-357.403 452.5,-347.403 445.5,-347.403"/>
</g>
<!-- 3866288256794713397 -->
<g id="node7" class="node"><title>3866288256794713397</title>
<polygon fill="none" stroke="black" points="369,-321.687 241,-321.687 241,-285.687 369,-285.687 369,-321.687"/>
<text text-anchor="middle" x="305" y="-299.987" font-family="Times,serif" font-size="14.00">(&#39;transpose&#45;#0&#39;, 0, 1)</text>
</g>
<!-- 3866288256794713397&#45;&gt;&#45;8781134799977585560 -->
<g id="edge5" class="edge"><title>3866288256794713397&#45;&gt;&#45;8781134799977585560</title>
<path fill="none" stroke="black" d="M305.715,-321.885C306.248,-334.707 306.993,-352.608 307.638,-368.129"/>
<polygon fill="black" stroke="black" points="304.153,-368.556 308.065,-378.402 311.147,-368.265 304.153,-368.556"/>
</g>
<!-- 2458709958650317378 -->
<g id="node8" class="node"><title>2458709958650317378</title>
<polygon fill="none" stroke="black" points="837.5,-321.687 714.5,-321.687 714.5,-285.687 837.5,-285.687 837.5,-321.687"/>
<text text-anchor="middle" x="776" y="-299.987" font-family="Times,serif" font-size="14.00">(&#39;wrapped&#45;#1&#39;, 2, 1)</text>
</g>
<!-- 64819262435437502 -->
<g id="node26" class="node"><title>64819262435437502</title>
<ellipse fill="none" stroke="black" cx="636" cy="-401.884" rx="23.2963" ry="23.2963"/>
<text text-anchor="middle" x="636" y="-398.184" font-family="Times,serif" font-size="14.00">add</text>
</g>
<!-- 2458709958650317378&#45;&gt;64819262435437502 -->
<g id="edge22" class="edge"><title>2458709958650317378&#45;&gt;64819262435437502</title>
<path fill="none" stroke="black" d="M750.971,-321.885C726.346,-338.805 688.847,-364.572 663.426,-382.039"/>
<polygon fill="black" stroke="black" points="661.239,-379.295 654.979,-387.843 665.203,-385.064 661.239,-379.295"/>
</g>
<!-- &#45;7363074903565188560 -->
<g id="node50" class="node"><title>&#45;7363074903565188560</title>
<ellipse fill="none" stroke="black" cx="776" cy="-401.884" rx="44.393" ry="44.393"/>
<text text-anchor="middle" x="776" y="-398.184" font-family="Times,serif" font-size="14.00">transpose</text>
</g>
<!-- 2458709958650317378&#45;&gt;&#45;7363074903565188560 -->
<g id="edge48" class="edge"><title>2458709958650317378&#45;&gt;&#45;7363074903565188560</title>
<path fill="none" stroke="black" d="M776,-321.885C776,-329.188 776,-338.138 776,-347.358"/>
<polygon fill="black" stroke="black" points="772.5,-347.403 776,-357.403 779.5,-347.403 772.5,-347.403"/>
</g>
<!-- 6360120593955235903 -->
<g id="node9" class="node"><title>6360120593955235903</title>
<ellipse fill="none" stroke="black" cx="776" cy="-205.491" rx="26.7961" ry="26.7961"/>
<text text-anchor="middle" x="776" y="-201.791" font-family="Times,serif" font-size="14.00">ones</text>
</g>
<!-- 6360120593955235903&#45;&gt;2458709958650317378 -->
<g id="edge6" class="edge"><title>6360120593955235903&#45;&gt;2458709958650317378</title>
<path fill="none" stroke="black" d="M776,-232.27C776,-245.62 776,-261.917 776,-275.47"/>
<polygon fill="black" stroke="black" points="772.5,-275.642 776,-285.642 779.5,-275.642 772.5,-275.642"/>
</g>
<!-- 3866290779188711043 -->
<g id="node10" class="node"><title>3866290779188711043</title>
<polygon fill="none" stroke="black" points="696,-321.687 568,-321.687 568,-285.687 696,-285.687 696,-321.687"/>
<text text-anchor="middle" x="632" y="-299.987" font-family="Times,serif" font-size="14.00">(&#39;transpose&#45;#0&#39;, 2, 1)</text>
</g>
<!-- 3866290779188711043&#45;&gt;64819262435437502 -->
<g id="edge23" class="edge"><title>3866290779188711043&#45;&gt;64819262435437502</title>
<path fill="none" stroke="black" d="M632.715,-321.885C633.248,-334.707 633.993,-352.608 634.638,-368.129"/>
<polygon fill="black" stroke="black" points="631.153,-368.556 635.065,-378.402 638.147,-368.265 631.153,-368.556"/>
</g>
<!-- 1051862460223341882 -->
<g id="node11" class="node"><title>1051862460223341882</title>
<ellipse fill="none" stroke="black" cx="622" cy="-205.491" rx="44.393" ry="44.393"/>
<text text-anchor="middle" x="622" y="-201.791" font-family="Times,serif" font-size="14.00">transpose</text>
</g>
<!-- 1051862460223341882&#45;&gt;3866290779188711043 -->
<g id="edge7" class="edge"><title>1051862460223341882&#45;&gt;3866290779188711043</title>
<path fill="none" stroke="black" d="M626.474,-249.525C627.374,-258.192 628.298,-267.08 629.127,-275.048"/>
<polygon fill="black" stroke="black" points="625.671,-275.651 630.186,-285.236 632.633,-274.927 625.671,-275.651"/>
</g>
<!-- 2458708697449823408 -->
<g id="node12" class="node"><title>2458708697449823408</title>
<polygon fill="none" stroke="black" points="637.5,-125.295 514.5,-125.295 514.5,-89.2953 637.5,-89.2953 637.5,-125.295"/>
<text text-anchor="middle" x="576" y="-103.595" font-family="Times,serif" font-size="14.00">(&#39;wrapped&#45;#1&#39;, 1, 2)</text>
</g>
<!-- 2458708697449823408&#45;&gt;1051862460223341882 -->
<g id="edge8" class="edge"><title>2458708697449823408&#45;&gt;1051862460223341882</title>
<path fill="none" stroke="black" d="M584.224,-125.493C588.342,-134.106 593.557,-145.011 598.787,-155.948"/>
<polygon fill="black" stroke="black" points="595.688,-157.58 603.159,-165.092 602.003,-154.56 595.688,-157.58"/>
</g>
<!-- &#45;3952598546894838476 -->
<g id="node14" class="node"><title>&#45;3952598546894838476</title>
<ellipse fill="none" stroke="black" cx="651" cy="-577.478" rx="23.2963" ry="23.2963"/>
<text text-anchor="middle" x="651" y="-573.778" font-family="Times,serif" font-size="14.00">add</text>
</g>
<!-- 2458708697449823408&#45;&gt;&#45;3952598546894838476 -->
<g id="edge10" class="edge"><title>2458708697449823408&#45;&gt;&#45;3952598546894838476</title>
<path fill="none" stroke="black" d="M570.61,-125.522C560.568,-159.198 540,-236.273 540,-302.687 540,-302.687 540,-302.687 540,-402.884 540,-456.936 548.129,-473.71 579,-518.08 590.449,-534.535 607.802,-548.802 622.602,-559.115"/>
<polygon fill="black" stroke="black" points="620.703,-562.055 630.958,-564.717 624.601,-556.241 620.703,-562.055"/>
</g>
<!-- &#45;6100706947883677499 -->
<g id="node13" class="node"><title>&#45;6100706947883677499</title>
<polygon fill="none" stroke="black" points="699,-672.875 603,-672.875 603,-636.875 699,-636.875 699,-672.875"/>
<text text-anchor="middle" x="651" y="-651.175" font-family="Times,serif" font-size="14.00">(&#39;add&#45;#2&#39;, 1, 2)</text>
</g>
<!-- &#45;3952598546894838476&#45;&gt;&#45;6100706947883677499 -->
<g id="edge9" class="edge"><title>&#45;3952598546894838476&#45;&gt;&#45;6100706947883677499</title>
<path fill="none" stroke="black" d="M651,-601.099C651,-609.151 651,-618.302 651,-626.696"/>
<polygon fill="black" stroke="black" points="647.5,-626.784 651,-636.784 654.5,-626.784 647.5,-626.784"/>
</g>
<!-- 3866286995601209721 -->
<g id="node15" class="node"><title>3866286995601209721</title>
<polygon fill="none" stroke="black" points="836,-518.08 708,-518.08 708,-482.08 836,-482.08 836,-518.08"/>
<text text-anchor="middle" x="772" y="-496.38" font-family="Times,serif" font-size="14.00">(&#39;transpose&#45;#0&#39;, 1, 2)</text>
</g>
<!-- 3866286995601209721&#45;&gt;&#45;3952598546894838476 -->
<g id="edge11" class="edge"><title>3866286995601209721&#45;&gt;&#45;3952598546894838476</title>
<path fill="none" stroke="black" d="M744.543,-518.189C724.952,-530.396 698.693,-546.759 678.984,-559.04"/>
<polygon fill="black" stroke="black" points="677.073,-556.107 670.437,-564.366 680.775,-562.048 677.073,-556.107"/>
</g>
<!-- 3866286995598879623 -->
<g id="node16" class="node"><title>3866286995598879623</title>
<polygon fill="none" stroke="black" points="509,-518.08 381,-518.08 381,-482.08 509,-482.08 509,-518.08"/>
<text text-anchor="middle" x="445" y="-496.38" font-family="Times,serif" font-size="14.00">(&#39;transpose&#45;#0&#39;, 1, 0)</text>
</g>
<!-- &#45;8139581179758402326 -->
<g id="node28" class="node"><title>&#45;8139581179758402326</title>
<ellipse fill="none" stroke="black" cx="329" cy="-577.478" rx="23.2963" ry="23.2963"/>
<text text-anchor="middle" x="329" y="-573.778" font-family="Times,serif" font-size="14.00">add</text>
</g>
<!-- 3866286995598879623&#45;&gt;&#45;8139581179758402326 -->
<g id="edge26" class="edge"><title>3866286995598879623&#45;&gt;&#45;8139581179758402326</title>
<path fill="none" stroke="black" d="M418.678,-518.189C400.212,-530.191 375.566,-546.211 356.785,-558.418"/>
<polygon fill="black" stroke="black" points="354.828,-555.516 348.35,-563.9 358.642,-561.385 354.828,-555.516"/>
</g>
<!-- 7900461713843460806&#45;&gt;3866286995598879623 -->
<g id="edge12" class="edge"><title>7900461713843460806&#45;&gt;3866286995598879623</title>
<path fill="none" stroke="black" d="M447.199,-446.198C446.84,-454.837 446.472,-463.685 446.142,-471.611"/>
<polygon fill="black" stroke="black" points="442.64,-471.604 445.721,-481.741 449.633,-471.895 442.64,-471.604"/>
</g>
<!-- &#45;6100703164295011128 -->
<g id="node18" class="node"><title>&#45;6100703164295011128</title>
<polygon fill="none" stroke="black" points="1009,-518.08 913,-518.08 913,-482.08 1009,-482.08 1009,-518.08"/>
<text text-anchor="middle" x="961" y="-496.38" font-family="Times,serif" font-size="14.00">(&#39;add&#45;#2&#39;, 2, 0)</text>
</g>
<!-- 591843064895538877 -->
<g id="node19" class="node"><title>591843064895538877</title>
<ellipse fill="none" stroke="black" cx="961" cy="-401.884" rx="23.2963" ry="23.2963"/>
<text text-anchor="middle" x="961" y="-398.184" font-family="Times,serif" font-size="14.00">add</text>
</g>
<!-- 591843064895538877&#45;&gt;&#45;6100703164295011128 -->
<g id="edge14" class="edge"><title>591843064895538877&#45;&gt;&#45;6100703164295011128</title>
<path fill="none" stroke="black" d="M961,-425.681C961,-439.406 961,-456.973 961,-471.48"/>
<polygon fill="black" stroke="black" points="957.5,-471.863 961,-481.863 964.5,-471.863 957.5,-471.863"/>
</g>
<!-- 2458709958649152329 -->
<g id="node20" class="node"><title>2458709958649152329</title>
<polygon fill="none" stroke="black" points="1164.5,-321.687 1041.5,-321.687 1041.5,-285.687 1164.5,-285.687 1164.5,-321.687"/>
<text text-anchor="middle" x="1103" y="-299.987" font-family="Times,serif" font-size="14.00">(&#39;wrapped&#45;#1&#39;, 2, 0)</text>
</g>
<!-- 2458709958649152329&#45;&gt;591843064895538877 -->
<g id="edge15" class="edge"><title>2458709958649152329&#45;&gt;591843064895538877</title>
<path fill="none" stroke="black" d="M1077.61,-321.885C1052.64,-338.805 1014.6,-364.572 988.818,-382.039"/>
<polygon fill="black" stroke="black" points="986.566,-379.337 980.25,-387.843 990.492,-385.132 986.566,-379.337"/>
</g>
<!-- 5913296078764707033 -->
<g id="node54" class="node"><title>5913296078764707033</title>
<ellipse fill="none" stroke="black" cx="1100" cy="-401.884" rx="44.393" ry="44.393"/>
<text text-anchor="middle" x="1100" y="-398.184" font-family="Times,serif" font-size="14.00">transpose</text>
</g>
<!-- 2458709958649152329&#45;&gt;5913296078764707033 -->
<g id="edge54" class="edge"><title>2458709958649152329&#45;&gt;5913296078764707033</title>
<path fill="none" stroke="black" d="M1102.46,-321.885C1102.24,-329.188 1101.96,-338.138 1101.67,-347.358"/>
<polygon fill="black" stroke="black" points="1098.17,-347.299 1101.36,-357.403 1105.17,-347.517 1098.17,-347.299"/>
</g>
<!-- 3866290779189876092 -->
<g id="node21" class="node"><title>3866290779189876092</title>
<polygon fill="none" stroke="black" points="1023,-321.687 895,-321.687 895,-285.687 1023,-285.687 1023,-321.687"/>
<text text-anchor="middle" x="959" y="-299.987" font-family="Times,serif" font-size="14.00">(&#39;transpose&#45;#0&#39;, 2, 0)</text>
</g>
<!-- 3866290779189876092&#45;&gt;591843064895538877 -->
<g id="edge16" class="edge"><title>3866290779189876092&#45;&gt;591843064895538877</title>
<path fill="none" stroke="black" d="M959.358,-321.885C959.624,-334.707 959.996,-352.608 960.319,-368.129"/>
<polygon fill="black" stroke="black" points="956.825,-368.477 960.533,-378.402 963.824,-368.331 956.825,-368.477"/>
</g>
<!-- &#45;6182292363326903072 -->
<g id="node22" class="node"><title>&#45;6182292363326903072</title>
<ellipse fill="none" stroke="black" cx="1103" cy="-205.491" rx="26.7961" ry="26.7961"/>
<text text-anchor="middle" x="1103" y="-201.791" font-family="Times,serif" font-size="14.00">ones</text>
</g>
<!-- &#45;6182292363326903072&#45;&gt;2458709958649152329 -->
<g id="edge17" class="edge"><title>&#45;6182292363326903072&#45;&gt;2458709958649152329</title>
<path fill="none" stroke="black" d="M1103,-232.27C1103,-245.62 1103,-261.917 1103,-275.47"/>
<polygon fill="black" stroke="black" points="1099.5,-275.642 1103,-285.642 1106.5,-275.642 1099.5,-275.642"/>
</g>
<!-- &#45;6100706947884842548 -->
<g id="node23" class="node"><title>&#45;6100706947884842548</title>
<polygon fill="none" stroke="black" points="149,-518.08 53,-518.08 53,-482.08 149,-482.08 149,-518.08"/>
<text text-anchor="middle" x="101" y="-496.38" font-family="Times,serif" font-size="14.00">(&#39;add&#45;#2&#39;, 1, 1)</text>
</g>
<!-- 3929930007558143049&#45;&gt;&#45;6100706947884842548 -->
<g id="edge18" class="edge"><title>3929930007558143049&#45;&gt;&#45;6100706947884842548</title>
<path fill="none" stroke="black" d="M101,-425.681C101,-439.406 101,-456.973 101,-471.48"/>
<polygon fill="black" stroke="black" points="97.5001,-471.863 101,-481.863 104.5,-471.863 97.5001,-471.863"/>
</g>
<!-- &#45;6100703164296176177 -->
<g id="node25" class="node"><title>&#45;6100703164296176177</title>
<polygon fill="none" stroke="black" points="684,-518.08 588,-518.08 588,-482.08 684,-482.08 684,-518.08"/>
<text text-anchor="middle" x="636" y="-496.38" font-family="Times,serif" font-size="14.00">(&#39;add&#45;#2&#39;, 2, 1)</text>
</g>
<!-- 64819262435437502&#45;&gt;&#45;6100703164296176177 -->
<g id="edge21" class="edge"><title>64819262435437502&#45;&gt;&#45;6100703164296176177</title>
<path fill="none" stroke="black" d="M636,-425.681C636,-439.406 636,-456.973 636,-471.48"/>
<polygon fill="black" stroke="black" points="632.5,-471.863 636,-481.863 639.5,-471.863 632.5,-471.863"/>
</g>
<!-- &#45;6100706947886007597 -->
<g id="node27" class="node"><title>&#45;6100706947886007597</title>
<polygon fill="none" stroke="black" points="377,-672.875 281,-672.875 281,-636.875 377,-636.875 377,-672.875"/>
<text text-anchor="middle" x="329" y="-651.175" font-family="Times,serif" font-size="14.00">(&#39;add&#45;#2&#39;, 1, 0)</text>
</g>
<!-- &#45;8139581179758402326&#45;&gt;&#45;6100706947886007597 -->
<g id="edge24" class="edge"><title>&#45;8139581179758402326&#45;&gt;&#45;6100706947886007597</title>
<path fill="none" stroke="black" d="M329,-601.099C329,-609.151 329,-618.302 329,-626.696"/>
<polygon fill="black" stroke="black" points="325.5,-626.784 329,-636.784 332.5,-626.784 325.5,-626.784"/>
</g>
<!-- 2458708697452153506 -->
<g id="node29" class="node"><title>2458708697452153506</title>
<polygon fill="none" stroke="black" points="336.5,-125.295 213.5,-125.295 213.5,-89.2953 336.5,-89.2953 336.5,-125.295"/>
<text text-anchor="middle" x="275" y="-103.595" font-family="Times,serif" font-size="14.00">(&#39;wrapped&#45;#1&#39;, 1, 0)</text>
</g>
<!-- 2458708697452153506&#45;&gt;&#45;8139581179758402326 -->
<g id="edge25" class="edge"><title>2458708697452153506&#45;&gt;&#45;8139581179758402326</title>
<path fill="none" stroke="black" d="M262.028,-125.603C255.134,-135.573 247.061,-148.61 242,-161.295 218.23,-220.878 213,-238.538 213,-302.687 213,-302.687 213,-302.687 213,-402.884 213,-456.936 220.41,-474.219 252,-518.08 264.576,-535.54 283.876,-550.162 300.008,-560.408"/>
<polygon fill="black" stroke="black" points="298.221,-563.418 308.581,-565.64 301.868,-557.443 298.221,-563.418"/>
</g>
<!-- 7993169416646138308 -->
<g id="node49" class="node"><title>7993169416646138308</title>
<ellipse fill="none" stroke="black" cx="295" cy="-205.491" rx="44.393" ry="44.393"/>
<text text-anchor="middle" x="295" y="-201.791" font-family="Times,serif" font-size="14.00">transpose</text>
</g>
<!-- 2458708697452153506&#45;&gt;7993169416646138308 -->
<g id="edge46" class="edge"><title>2458708697452153506&#45;&gt;7993169416646138308</title>
<path fill="none" stroke="black" d="M278.576,-125.493C280.143,-133.034 282.076,-142.331 284.059,-151.868"/>
<polygon fill="black" stroke="black" points="280.668,-152.752 286.13,-161.83 287.521,-151.327 280.668,-152.752"/>
</g>
<!-- 3866290779192206190 -->
<g id="node30" class="node"><title>3866290779192206190</title>
<polygon fill="none" stroke="black" points="1311,-321.687 1183,-321.687 1183,-285.687 1311,-285.687 1311,-321.687"/>
<text text-anchor="middle" x="1247" y="-299.987" font-family="Times,serif" font-size="14.00">(&#39;transpose&#45;#0&#39;, 2, 2)</text>
</g>
<!-- 2040951148049038727 -->
<g id="node35" class="node"><title>2040951148049038727</title>
<ellipse fill="none" stroke="black" cx="1290" cy="-401.884" rx="23.2963" ry="23.2963"/>
<text text-anchor="middle" x="1290" y="-398.184" font-family="Times,serif" font-size="14.00">add</text>
</g>
<!-- 3866290779192206190&#45;&gt;2040951148049038727 -->
<g id="edge31" class="edge"><title>3866290779192206190&#45;&gt;2040951148049038727</title>
<path fill="none" stroke="black" d="M1254.69,-321.885C1260.73,-335.401 1269.29,-354.561 1276.48,-370.627"/>
<polygon fill="black" stroke="black" points="1273.46,-372.452 1280.73,-380.153 1279.85,-369.595 1273.46,-372.452"/>
</g>
<!-- 4306654237787513107 -->
<g id="node31" class="node"><title>4306654237787513107</title>
<ellipse fill="none" stroke="black" cx="1257" cy="-205.491" rx="44.393" ry="44.393"/>
<text text-anchor="middle" x="1257" y="-201.791" font-family="Times,serif" font-size="14.00">transpose</text>
</g>
<!-- 4306654237787513107&#45;&gt;3866290779192206190 -->
<g id="edge27" class="edge"><title>4306654237787513107&#45;&gt;3866290779192206190</title>
<path fill="none" stroke="black" d="M1252.53,-249.525C1251.63,-258.192 1250.7,-267.08 1249.87,-275.048"/>
<polygon fill="black" stroke="black" points="1246.37,-274.927 1248.81,-285.236 1253.33,-275.651 1246.37,-274.927"/>
</g>
<!-- 2458709958646822231 -->
<g id="node32" class="node"><title>2458709958646822231</title>
<polygon fill="none" stroke="black" points="1386.5,-125.295 1263.5,-125.295 1263.5,-89.2953 1386.5,-89.2953 1386.5,-125.295"/>
<text text-anchor="middle" x="1325" y="-103.595" font-family="Times,serif" font-size="14.00">(&#39;wrapped&#45;#1&#39;, 2, 2)</text>
</g>
<!-- 2458709958646822231&#45;&gt;4306654237787513107 -->
<g id="edge28" class="edge"><title>2458709958646822231&#45;&gt;4306654237787513107</title>
<path fill="none" stroke="black" d="M1312.84,-125.493C1305.95,-135.241 1296.99,-147.925 1288.26,-160.267"/>
<polygon fill="black" stroke="black" points="1285.2,-158.53 1282.29,-168.716 1290.92,-162.571 1285.2,-158.53"/>
</g>
<!-- 2458709958646822231&#45;&gt;2040951148049038727 -->
<g id="edge32" class="edge"><title>2458709958646822231&#45;&gt;2040951148049038727</title>
<path fill="none" stroke="black" d="M1326.53,-125.379C1329.38,-161.849 1334.02,-249.855 1320,-321.687 1316.7,-338.571 1310.15,-356.564 1304.01,-371.126"/>
<polygon fill="black" stroke="black" points="1300.67,-370.039 1299.87,-380.604 1307.08,-372.841 1300.67,-370.039"/>
</g>
<!-- 1375788376194245878 -->
<g id="node33" class="node"><title>1375788376194245878</title>
<ellipse fill="none" stroke="black" cx="1325" cy="-26.6476" rx="26.7961" ry="26.7961"/>
<text text-anchor="middle" x="1325" y="-22.9476" font-family="Times,serif" font-size="14.00">ones</text>
</g>
<!-- 1375788376194245878&#45;&gt;2458709958646822231 -->
<g id="edge29" class="edge"><title>1375788376194245878&#45;&gt;2458709958646822231</title>
<path fill="none" stroke="black" d="M1325,-53.3998C1325,-61.4986 1325,-70.4727 1325,-78.6944"/>
<polygon fill="black" stroke="black" points="1321.5,-78.9322 1325,-88.9323 1328.5,-78.9323 1321.5,-78.9322"/>
</g>
<!-- &#45;6100703164292681030 -->
<g id="node34" class="node"><title>&#45;6100703164292681030</title>
<polygon fill="none" stroke="black" points="1338,-518.08 1242,-518.08 1242,-482.08 1338,-482.08 1338,-518.08"/>
<text text-anchor="middle" x="1290" y="-496.38" font-family="Times,serif" font-size="14.00">(&#39;add&#45;#2&#39;, 2, 2)</text>
</g>
<!-- 2040951148049038727&#45;&gt;&#45;6100703164292681030 -->
<g id="edge30" class="edge"><title>2040951148049038727&#45;&gt;&#45;6100703164292681030</title>
<path fill="none" stroke="black" d="M1290,-425.681C1290,-439.406 1290,-456.973 1290,-471.48"/>
<polygon fill="black" stroke="black" points="1286.5,-471.863 1290,-481.863 1293.5,-471.863 1286.5,-471.863"/>
</g>
<!-- 7503709287334733279 -->
<g id="node36" class="node"><title>7503709287334733279</title>
<ellipse fill="none" stroke="black" cx="275" cy="-26.6476" rx="26.7961" ry="26.7961"/>
<text text-anchor="middle" x="275" y="-22.9476" font-family="Times,serif" font-size="14.00">ones</text>
</g>
<!-- 7503709287334733279&#45;&gt;2458708697452153506 -->
<g id="edge33" class="edge"><title>7503709287334733279&#45;&gt;2458708697452153506</title>
<path fill="none" stroke="black" d="M275,-53.3998C275,-61.4986 275,-70.4727 275,-78.6944"/>
<polygon fill="black" stroke="black" points="271.5,-78.9322 275,-88.9323 278.5,-78.9323 271.5,-78.9322"/>
</g>
<!-- 1289531553139448857 -->
<g id="node37" class="node"><title>1289531553139448857</title>
<ellipse fill="none" stroke="black" cx="949" cy="-205.491" rx="44.393" ry="44.393"/>
<text text-anchor="middle" x="949" y="-201.791" font-family="Times,serif" font-size="14.00">transpose</text>
</g>
<!-- 1289531553139448857&#45;&gt;3866290779189876092 -->
<g id="edge34" class="edge"><title>1289531553139448857&#45;&gt;3866290779189876092</title>
<path fill="none" stroke="black" d="M953.474,-249.525C954.374,-258.192 955.298,-267.08 956.127,-275.048"/>
<polygon fill="black" stroke="black" points="952.671,-275.651 957.186,-285.236 959.633,-274.927 952.671,-275.651"/>
</g>
<!-- 2458707436257484781 -->
<g id="node38" class="node"><title>2458707436257484781</title>
<polygon fill="none" stroke="black" points="964.5,-125.295 841.5,-125.295 841.5,-89.2953 964.5,-89.2953 964.5,-125.295"/>
<text text-anchor="middle" x="903" y="-103.595" font-family="Times,serif" font-size="14.00">(&#39;wrapped&#45;#1&#39;, 0, 2)</text>
</g>
<!-- 2458707436257484781&#45;&gt;1289531553139448857 -->
<g id="edge35" class="edge"><title>2458707436257484781&#45;&gt;1289531553139448857</title>
<path fill="none" stroke="black" d="M911.224,-125.493C915.342,-134.106 920.557,-145.011 925.787,-155.948"/>
<polygon fill="black" stroke="black" points="922.688,-157.58 930.159,-165.092 929.003,-154.56 922.688,-157.58"/>
</g>
<!-- 7346057017712960381 -->
<g id="node46" class="node"><title>7346057017712960381</title>
<ellipse fill="none" stroke="black" cx="876" cy="-577.478" rx="23.2963" ry="23.2963"/>
<text text-anchor="middle" x="876" y="-573.778" font-family="Times,serif" font-size="14.00">add</text>
</g>
<!-- 2458707436257484781&#45;&gt;7346057017712960381 -->
<g id="edge43" class="edge"><title>2458707436257484781&#45;&gt;7346057017712960381</title>
<path fill="none" stroke="black" d="M897.61,-125.522C887.568,-159.198 867,-236.273 867,-302.687 867,-302.687 867,-302.687 867,-402.884 867,-452.112 870.654,-509.088 873.306,-543.949"/>
<polygon fill="black" stroke="black" points="869.825,-544.328 874.091,-554.025 876.803,-543.784 869.825,-544.328"/>
</g>
<!-- &#45;4762820567749917696 -->
<g id="node39" class="node"><title>&#45;4762820567749917696</title>
<ellipse fill="none" stroke="black" cx="94" cy="-26.6476" rx="26.7961" ry="26.7961"/>
<text text-anchor="middle" x="94" y="-22.9476" font-family="Times,serif" font-size="14.00">ones</text>
</g>
<!-- &#45;4762820567749917696&#45;&gt;2458708697450988457 -->
<g id="edge36" class="edge"><title>&#45;4762820567749917696&#45;&gt;2458708697450988457</title>
<path fill="none" stroke="black" d="M94,-53.3998C94,-61.4986 94,-70.4727 94,-78.6944"/>
<polygon fill="black" stroke="black" points="90.5001,-78.9322 94,-88.9323 97.5001,-78.9323 90.5001,-78.9322"/>
</g>
<!-- 2606778553207649484 -->
<g id="node40" class="node"><title>2606778553207649484</title>
<ellipse fill="none" stroke="black" cx="903" cy="-26.6476" rx="26.7961" ry="26.7961"/>
<text text-anchor="middle" x="903" y="-22.9476" font-family="Times,serif" font-size="14.00">ones</text>
</g>
<!-- 2606778553207649484&#45;&gt;2458707436257484781 -->
<g id="edge37" class="edge"><title>2606778553207649484&#45;&gt;2458707436257484781</title>
<path fill="none" stroke="black" d="M903,-53.3998C903,-61.4986 903,-70.4727 903,-78.6944"/>
<polygon fill="black" stroke="black" points="899.5,-78.9322 903,-88.9323 906.5,-78.9323 899.5,-78.9322"/>
</g>
<!-- 3866288256795878446 -->
<g id="node41" class="node"><title>3866288256795878446</title>
<polygon fill="none" stroke="black" points="1506,-321.687 1378,-321.687 1378,-285.687 1506,-285.687 1506,-321.687"/>
<text text-anchor="middle" x="1442" y="-299.987" font-family="Times,serif" font-size="14.00">(&#39;transpose&#45;#0&#39;, 0, 0)</text>
</g>
<!-- 1571536656933897031 -->
<g id="node52" class="node"><title>1571536656933897031</title>
<ellipse fill="none" stroke="black" cx="1447" cy="-401.884" rx="23.2963" ry="23.2963"/>
<text text-anchor="middle" x="1447" y="-398.184" font-family="Times,serif" font-size="14.00">add</text>
</g>
<!-- 3866288256795878446&#45;&gt;1571536656933897031 -->
<g id="edge51" class="edge"><title>3866288256795878446&#45;&gt;1571536656933897031</title>
<path fill="none" stroke="black" d="M1442.89,-321.885C1443.56,-334.707 1444.49,-352.608 1445.3,-368.129"/>
<polygon fill="black" stroke="black" points="1441.82,-368.597 1445.83,-378.402 1448.81,-368.234 1441.82,-368.597"/>
</g>
<!-- 8800088372427657683 -->
<g id="node42" class="node"><title>8800088372427657683</title>
<ellipse fill="none" stroke="black" cx="1452" cy="-205.491" rx="44.393" ry="44.393"/>
<text text-anchor="middle" x="1452" y="-201.791" font-family="Times,serif" font-size="14.00">transpose</text>
</g>
<!-- 8800088372427657683&#45;&gt;3866288256795878446 -->
<g id="edge38" class="edge"><title>8800088372427657683&#45;&gt;3866288256795878446</title>
<path fill="none" stroke="black" d="M1447.53,-249.525C1446.63,-258.192 1445.7,-267.08 1444.87,-275.048"/>
<polygon fill="black" stroke="black" points="1441.37,-274.927 1443.81,-285.236 1448.33,-275.651 1441.37,-274.927"/>
</g>
<!-- 2458707436255154683 -->
<g id="node43" class="node"><title>2458707436255154683</title>
<polygon fill="none" stroke="black" points="1548.5,-125.295 1425.5,-125.295 1425.5,-89.2953 1548.5,-89.2953 1548.5,-125.295"/>
<text text-anchor="middle" x="1487" y="-103.595" font-family="Times,serif" font-size="14.00">(&#39;wrapped&#45;#1&#39;, 0, 0)</text>
</g>
<!-- 2458707436255154683&#45;&gt;8800088372427657683 -->
<g id="edge39" class="edge"><title>2458707436255154683&#45;&gt;8800088372427657683</title>
<path fill="none" stroke="black" d="M1480.74,-125.493C1477.79,-133.603 1474.1,-143.745 1470.36,-154.031"/>
<polygon fill="black" stroke="black" points="1467.06,-152.87 1466.93,-163.464 1473.64,-155.264 1467.06,-152.87"/>
</g>
<!-- 2458707436255154683&#45;&gt;1571536656933897031 -->
<g id="edge50" class="edge"><title>2458707436255154683&#45;&gt;1571536656933897031</title>
<path fill="none" stroke="black" d="M1494.62,-125.509C1509.89,-162.599 1540.7,-252.312 1515,-321.687 1506.53,-344.552 1488.18,-365.259 1472.67,-379.76"/>
<polygon fill="black" stroke="black" points="1469.99,-377.468 1464.89,-386.756 1474.67,-382.673 1469.99,-377.468"/>
</g>
<!-- 4522639284081956629 -->
<g id="node44" class="node"><title>4522639284081956629</title>
<ellipse fill="none" stroke="black" cx="576" cy="-26.6476" rx="26.7961" ry="26.7961"/>
<text text-anchor="middle" x="576" y="-22.9476" font-family="Times,serif" font-size="14.00">ones</text>
</g>
<!-- 4522639284081956629&#45;&gt;2458708697449823408 -->
<g id="edge40" class="edge"><title>4522639284081956629&#45;&gt;2458708697449823408</title>
<path fill="none" stroke="black" d="M576,-53.3998C576,-61.4986 576,-70.4727 576,-78.6944"/>
<polygon fill="black" stroke="black" points="572.5,-78.9322 576,-88.9323 579.5,-78.9323 572.5,-78.9322"/>
</g>
<!-- &#45;6100705686691338872 -->
<g id="node45" class="node"><title>&#45;6100705686691338872</title>
<polygon fill="none" stroke="black" points="924,-672.875 828,-672.875 828,-636.875 924,-636.875 924,-672.875"/>
<text text-anchor="middle" x="876" y="-651.175" font-family="Times,serif" font-size="14.00">(&#39;add&#45;#2&#39;, 0, 2)</text>
</g>
<!-- 7346057017712960381&#45;&gt;&#45;6100705686691338872 -->
<g id="edge41" class="edge"><title>7346057017712960381&#45;&gt;&#45;6100705686691338872</title>
<path fill="none" stroke="black" d="M876,-601.099C876,-609.151 876,-618.302 876,-626.696"/>
<polygon fill="black" stroke="black" points="872.5,-626.784 876,-636.784 879.5,-626.784 872.5,-626.784"/>
</g>
<!-- 3866288256793548348 -->
<g id="node47" class="node"><title>3866288256793548348</title>
<polygon fill="none" stroke="black" points="1157,-518.08 1029,-518.08 1029,-482.08 1157,-482.08 1157,-518.08"/>
<text text-anchor="middle" x="1093" y="-496.38" font-family="Times,serif" font-size="14.00">(&#39;transpose&#45;#0&#39;, 0, 2)</text>
</g>
<!-- 3866288256793548348&#45;&gt;7346057017712960381 -->
<g id="edge42" class="edge"><title>3866288256793548348&#45;&gt;7346057017712960381</title>
<path fill="none" stroke="black" d="M1044.03,-518.094C1002.21,-532.625 943.302,-553.093 907.491,-565.536"/>
<polygon fill="black" stroke="black" points="906.334,-562.232 898.037,-568.821 908.632,-568.845 906.334,-562.232"/>
</g>
<!-- &#45;8457665052944869407 -->
<g id="node48" class="node"><title>&#45;8457665052944869407</title>
<ellipse fill="none" stroke="black" cx="449" cy="-205.491" rx="26.7961" ry="26.7961"/>
<text text-anchor="middle" x="449" y="-201.791" font-family="Times,serif" font-size="14.00">ones</text>
</g>
<!-- &#45;8457665052944869407&#45;&gt;2458707436256319732 -->
<g id="edge44" class="edge"><title>&#45;8457665052944869407&#45;&gt;2458707436256319732</title>
<path fill="none" stroke="black" d="M449,-232.27C449,-245.62 449,-261.917 449,-275.47"/>
<polygon fill="black" stroke="black" points="445.5,-275.642 449,-285.642 452.5,-275.642 445.5,-275.642"/>
</g>
<!-- 7993169416646138308&#45;&gt;3866288256794713397 -->
<g id="edge45" class="edge"><title>7993169416646138308&#45;&gt;3866288256794713397</title>
<path fill="none" stroke="black" d="M299.474,-249.525C300.374,-258.192 301.298,-267.08 302.127,-275.048"/>
<polygon fill="black" stroke="black" points="298.671,-275.651 303.186,-285.236 305.633,-274.927 298.671,-275.651"/>
</g>
<!-- &#45;7363074903565188560&#45;&gt;3866286995601209721 -->
<g id="edge47" class="edge"><title>&#45;7363074903565188560&#45;&gt;3866286995601209721</title>
<path fill="none" stroke="black" d="M774.199,-446.198C773.84,-454.837 773.472,-463.685 773.142,-471.611"/>
<polygon fill="black" stroke="black" points="769.64,-471.604 772.721,-481.741 776.633,-471.895 769.64,-471.604"/>
</g>
<!-- &#45;6100705686689008774 -->
<g id="node51" class="node"><title>&#45;6100705686689008774</title>
<polygon fill="none" stroke="black" points="1495,-518.08 1399,-518.08 1399,-482.08 1495,-482.08 1495,-518.08"/>
<text text-anchor="middle" x="1447" y="-496.38" font-family="Times,serif" font-size="14.00">(&#39;add&#45;#2&#39;, 0, 0)</text>
</g>
<!-- 1571536656933897031&#45;&gt;&#45;6100705686689008774 -->
<g id="edge49" class="edge"><title>1571536656933897031&#45;&gt;&#45;6100705686689008774</title>
<path fill="none" stroke="black" d="M1447,-425.681C1447,-439.406 1447,-456.973 1447,-471.48"/>
<polygon fill="black" stroke="black" points="1443.5,-471.863 1447,-481.863 1450.5,-471.863 1443.5,-471.863"/>
</g>
<!-- 8777363215335906434 -->
<g id="node53" class="node"><title>8777363215335906434</title>
<ellipse fill="none" stroke="black" cx="1487" cy="-26.6476" rx="26.7961" ry="26.7961"/>
<text text-anchor="middle" x="1487" y="-22.9476" font-family="Times,serif" font-size="14.00">ones</text>
</g>
<!-- 8777363215335906434&#45;&gt;2458707436255154683 -->
<g id="edge52" class="edge"><title>8777363215335906434&#45;&gt;2458707436255154683</title>
<path fill="none" stroke="black" d="M1487,-53.3998C1487,-61.4986 1487,-70.4727 1487,-78.6944"/>
<polygon fill="black" stroke="black" points="1483.5,-78.9322 1487,-88.9323 1490.5,-78.9323 1483.5,-78.9322"/>
</g>
<!-- 5913296078764707033&#45;&gt;3866288256793548348 -->
<g id="edge53" class="edge"><title>5913296078764707033&#45;&gt;3866288256793548348</title>
<path fill="none" stroke="black" d="M1096.85,-446.198C1096.22,-454.837 1095.58,-463.685 1095,-471.611"/>
<polygon fill="black" stroke="black" points="1091.5,-471.513 1094.26,-481.741 1098.48,-472.021 1091.5,-471.513"/>
</g>
</g>
</svg>
