<?xml version="1.0" encoding="UTF-8" standalone="no"?>
<!DOCTYPE svg PUBLIC "-//W3C//DTD SVG 1.1//EN"
 "http://www.w3.org/Graphics/SVG/1.1/DTD/svg11.dtd">
<!-- Generated by graphviz version 2.40.1 (20161225.0304)
 -->
<!-- Title: %3 Pages: 1 -->
<svg width="638pt" height="527pt"
 viewBox="0.00 0.00 638.00 527.38" xmlns="http://www.w3.org/2000/svg" xmlns:xlink="http://www.w3.org/1999/xlink">
<g id="graph0" class="graph" transform="scale(1 1) rotate(0) translate(4 523.3795)">
<title>%3</title>
<polygon fill="transparent" stroke="transparent" points="-4,4 -4,-523.3795 634,-523.3795 634,4 -4,4"/>
<!-- &#45;2644760537804561042 -->
<g id="node1" class="node">
<title>&#45;2644760537804561042</title>
<polygon fill="none" stroke="#ffffff" stroke-width="3" points="198,-285.2907 144,-285.2907 144,-249.2907 198,-249.2907 198,-285.2907"/>
</g>
<!-- &#45;4317270292660229100 -->
<g id="node38" class="node">
<title>&#45;4317270292660229100</title>
<ellipse fill="none" stroke="#ffffff" stroke-width="3" cx="99" cy="-384.3351" rx="63.0888" ry="63.0888"/>
<text text-anchor="middle" x="99" y="-380.6351" font-family="Times,serif" font-size="14.00" fill="#ffffff">sum&#45;aggregate</text>
</g>
<!-- &#45;2644760537804561042&#45;&gt;&#45;4317270292660229100 -->
<g id="edge31" class="edge">
<title>&#45;2644760537804561042&#45;&gt;&#45;4317270292660229100</title>
<path fill="none" stroke="#ffffff" stroke-width="3" d="M159.9078,-285.3223C153.7597,-295.3168 145.7106,-308.4016 137.4875,-321.7691"/>
<polygon fill="#ffffff" stroke="#ffffff" stroke-width="3" points="134.3354,-320.2133 132.0769,-330.5647 140.2976,-323.881 134.3354,-320.2133"/>
</g>
<!-- 2493316615832145995 -->
<g id="node2" class="node">
<title>2493316615832145995</title>
<ellipse fill="none" stroke="#ffffff" stroke-width="3" cx="171" cy="-187.293" rx="25.9954" ry="25.9954"/>
<text text-anchor="middle" x="171" y="-183.593" font-family="Times,serif" font-size="14.00" fill="#ffffff">sum</text>
</g>
<!-- 2493316615832145995&#45;&gt;&#45;2644760537804561042 -->
<g id="edge1" class="edge">
<title>2493316615832145995&#45;&gt;&#45;2644760537804561042</title>
<path fill="none" stroke="#ffffff" stroke-width="3" d="M171,-213.4872C171,-221.6894 171,-230.7743 171,-239.1076"/>
<polygon fill="#ffffff" stroke="#ffffff" stroke-width="3" points="167.5001,-239.1379 171,-249.1379 174.5001,-239.138 167.5001,-239.1379"/>
</g>
<!-- &#45;6735225936691046854 -->
<g id="node3" class="node">
<title>&#45;6735225936691046854</title>
<polygon fill="none" stroke="#ffffff" stroke-width="3" points="198,-125.2953 144,-125.2953 144,-89.2953 198,-89.2953 198,-125.2953"/>
</g>
<!-- &#45;6735225936691046854&#45;&gt;2493316615832145995 -->
<g id="edge2" class="edge">
<title>&#45;6735225936691046854&#45;&gt;2493316615832145995</title>
<path fill="none" stroke="#ffffff" stroke-width="3" d="M171,-125.448C171,-133.0025 171,-142.0567 171,-150.8767"/>
<polygon fill="#ffffff" stroke="#ffffff" stroke-width="3" points="167.5001,-151.0191 171,-161.0191 174.5001,-151.0191 167.5001,-151.0191"/>
</g>
<!-- &#45;2644760537805726091 -->
<g id="node4" class="node">
<title>&#45;2644760537805726091</title>
<polygon fill="none" stroke="#ffffff" stroke-width="3" points="54,-285.2907 0,-285.2907 0,-249.2907 54,-249.2907 54,-285.2907"/>
</g>
<!-- &#45;2644760537805726091&#45;&gt;&#45;4317270292660229100 -->
<g id="edge30" class="edge">
<title>&#45;2644760537805726091&#45;&gt;&#45;4317270292660229100</title>
<path fill="none" stroke="#ffffff" stroke-width="3" d="M38.0922,-285.3223C44.2403,-295.3168 52.2894,-308.4016 60.5125,-321.7691"/>
<polygon fill="#ffffff" stroke="#ffffff" stroke-width="3" points="57.7024,-323.881 65.9231,-330.5647 63.6646,-320.2133 57.7024,-323.881"/>
</g>
<!-- 993079064235121020 -->
<g id="node5" class="node">
<title>993079064235121020</title>
<ellipse fill="none" stroke="#ffffff" stroke-width="3" cx="27" cy="-187.293" rx="25.9954" ry="25.9954"/>
<text text-anchor="middle" x="27" y="-183.593" font-family="Times,serif" font-size="14.00" fill="#ffffff">sum</text>
</g>
<!-- 993079064235121020&#45;&gt;&#45;2644760537805726091 -->
<g id="edge3" class="edge">
<title>993079064235121020&#45;&gt;&#45;2644760537805726091</title>
<path fill="none" stroke="#ffffff" stroke-width="3" d="M27,-213.4872C27,-221.6894 27,-230.7743 27,-239.1076"/>
<polygon fill="#ffffff" stroke="#ffffff" stroke-width="3" points="23.5001,-239.1379 27,-249.1379 30.5001,-239.138 23.5001,-239.1379"/>
</g>
<!-- &#45;6735225936692211903 -->
<g id="node6" class="node">
<title>&#45;6735225936692211903</title>
<polygon fill="none" stroke="#ffffff" stroke-width="3" points="54,-125.2953 0,-125.2953 0,-89.2953 54,-89.2953 54,-125.2953"/>
</g>
<!-- &#45;6735225936692211903&#45;&gt;993079064235121020 -->
<g id="edge4" class="edge">
<title>&#45;6735225936692211903&#45;&gt;993079064235121020</title>
<path fill="none" stroke="#ffffff" stroke-width="3" d="M27,-125.448C27,-133.0025 27,-142.0567 27,-150.8767"/>
<polygon fill="#ffffff" stroke="#ffffff" stroke-width="3" points="23.5001,-151.0191 27,-161.0191 30.5001,-151.0191 23.5001,-151.0191"/>
</g>
<!-- &#45;2644760537806891140 -->
<g id="node7" class="node">
<title>&#45;2644760537806891140</title>
<polygon fill="none" stroke="#ffffff" stroke-width="3" points="126,-285.2907 72,-285.2907 72,-249.2907 126,-249.2907 126,-285.2907"/>
</g>
<!-- &#45;2644760537806891140&#45;&gt;&#45;4317270292660229100 -->
<g id="edge29" class="edge">
<title>&#45;2644760537806891140&#45;&gt;&#45;4317270292660229100</title>
<path fill="none" stroke="#ffffff" stroke-width="3" d="M99,-285.3223C99,-292.604 99,-301.5261 99,-311.0028"/>
<polygon fill="#ffffff" stroke="#ffffff" stroke-width="3" points="95.5001,-311.0337 99,-321.0337 102.5001,-311.0337 95.5001,-311.0337"/>
</g>
<!-- &#45;2424999946136437855 -->
<g id="node8" class="node">
<title>&#45;2424999946136437855</title>
<ellipse fill="none" stroke="#ffffff" stroke-width="3" cx="99" cy="-187.293" rx="25.9954" ry="25.9954"/>
<text text-anchor="middle" x="99" y="-183.593" font-family="Times,serif" font-size="14.00" fill="#ffffff">sum</text>
</g>
<!-- &#45;2424999946136437855&#45;&gt;&#45;2644760537806891140 -->
<g id="edge5" class="edge">
<title>&#45;2424999946136437855&#45;&gt;&#45;2644760537806891140</title>
<path fill="none" stroke="#ffffff" stroke-width="3" d="M99,-213.4872C99,-221.6894 99,-230.7743 99,-239.1076"/>
<polygon fill="#ffffff" stroke="#ffffff" stroke-width="3" points="95.5001,-239.1379 99,-249.1379 102.5001,-239.138 95.5001,-239.1379"/>
</g>
<!-- &#45;6735225936693376952 -->
<g id="node9" class="node">
<title>&#45;6735225936693376952</title>
<polygon fill="none" stroke="#ffffff" stroke-width="3" points="126,-125.2953 72,-125.2953 72,-89.2953 126,-89.2953 126,-125.2953"/>
</g>
<!-- &#45;6735225936693376952&#45;&gt;&#45;2424999946136437855 -->
<g id="edge6" class="edge">
<title>&#45;6735225936693376952&#45;&gt;&#45;2424999946136437855</title>
<path fill="none" stroke="#ffffff" stroke-width="3" d="M99,-125.448C99,-133.0025 99,-142.0567 99,-150.8767"/>
<polygon fill="#ffffff" stroke="#ffffff" stroke-width="3" points="95.5001,-151.0191 99,-161.0191 102.5001,-151.0191 95.5001,-151.0191"/>
</g>
<!-- &#45;2644761799001559865 -->
<g id="node10" class="node">
<title>&#45;2644761799001559865</title>
<polygon fill="none" stroke="#ffffff" stroke-width="3" points="414,-285.2907 360,-285.2907 360,-249.2907 414,-249.2907 414,-285.2907"/>
</g>
<!-- &#45;2661622651982388625 -->
<g id="node40" class="node">
<title>&#45;2661622651982388625</title>
<ellipse fill="none" stroke="#ffffff" stroke-width="3" cx="315" cy="-384.3351" rx="63.0888" ry="63.0888"/>
<text text-anchor="middle" x="315" y="-380.6351" font-family="Times,serif" font-size="14.00" fill="#ffffff">sum&#45;aggregate</text>
</g>
<!-- &#45;2644761799001559865&#45;&gt;&#45;2661622651982388625 -->
<g id="edge35" class="edge">
<title>&#45;2644761799001559865&#45;&gt;&#45;2661622651982388625</title>
<path fill="none" stroke="#ffffff" stroke-width="3" d="M375.9078,-285.3223C369.7597,-295.3168 361.7106,-308.4016 353.4875,-321.7691"/>
<polygon fill="#ffffff" stroke="#ffffff" stroke-width="3" points="350.3354,-320.2133 348.0769,-330.5647 356.2976,-323.881 350.3354,-320.2133"/>
</g>
<!-- 9144067785985066062 -->
<g id="node11" class="node">
<title>9144067785985066062</title>
<ellipse fill="none" stroke="#ffffff" stroke-width="3" cx="387" cy="-187.293" rx="25.9954" ry="25.9954"/>
<text text-anchor="middle" x="387" y="-183.593" font-family="Times,serif" font-size="14.00" fill="#ffffff">sum</text>
</g>
<!-- 9144067785985066062&#45;&gt;&#45;2644761799001559865 -->
<g id="edge7" class="edge">
<title>9144067785985066062&#45;&gt;&#45;2644761799001559865</title>
<path fill="none" stroke="#ffffff" stroke-width="3" d="M387,-213.4872C387,-221.6894 387,-230.7743 387,-239.1076"/>
<polygon fill="#ffffff" stroke="#ffffff" stroke-width="3" points="383.5001,-239.1379 387,-249.1379 390.5001,-239.138 383.5001,-239.1379"/>
</g>
<!-- &#45;6735227197888045677 -->
<g id="node12" class="node">
<title>&#45;6735227197888045677</title>
<polygon fill="none" stroke="#ffffff" stroke-width="3" points="414,-125.2953 360,-125.2953 360,-89.2953 414,-89.2953 414,-125.2953"/>
</g>
<!-- &#45;6735227197888045677&#45;&gt;9144067785985066062 -->
<g id="edge8" class="edge">
<title>&#45;6735227197888045677&#45;&gt;9144067785985066062</title>
<path fill="none" stroke="#ffffff" stroke-width="3" d="M387,-125.448C387,-133.0025 387,-142.0567 387,-150.8767"/>
<polygon fill="#ffffff" stroke="#ffffff" stroke-width="3" points="383.5001,-151.0191 387,-161.0191 390.5001,-151.0191 383.5001,-151.0191"/>
</g>
<!-- &#45;2644761799000394816 -->
<g id="node13" class="node">
<title>&#45;2644761799000394816</title>
<polygon fill="none" stroke="#ffffff" stroke-width="3" points="270,-285.2907 216,-285.2907 216,-249.2907 270,-249.2907 270,-285.2907"/>
</g>
<!-- &#45;2644761799000394816&#45;&gt;&#45;2661622651982388625 -->
<g id="edge33" class="edge">
<title>&#45;2644761799000394816&#45;&gt;&#45;2661622651982388625</title>
<path fill="none" stroke="#ffffff" stroke-width="3" d="M254.0922,-285.3223C260.2403,-295.3168 268.2894,-308.4016 276.5125,-321.7691"/>
<polygon fill="#ffffff" stroke="#ffffff" stroke-width="3" points="273.7024,-323.881 281.9231,-330.5647 279.6646,-320.2133 273.7024,-323.881"/>
</g>
<!-- 2294056726272383437 -->
<g id="node14" class="node">
<title>2294056726272383437</title>
<ellipse fill="none" stroke="#ffffff" stroke-width="3" cx="243" cy="-187.293" rx="25.9954" ry="25.9954"/>
<text text-anchor="middle" x="243" y="-183.593" font-family="Times,serif" font-size="14.00" fill="#ffffff">sum</text>
</g>
<!-- 2294056726272383437&#45;&gt;&#45;2644761799000394816 -->
<g id="edge9" class="edge">
<title>2294056726272383437&#45;&gt;&#45;2644761799000394816</title>
<path fill="none" stroke="#ffffff" stroke-width="3" d="M243,-213.4872C243,-221.6894 243,-230.7743 243,-239.1076"/>
<polygon fill="#ffffff" stroke="#ffffff" stroke-width="3" points="239.5001,-239.1379 243,-249.1379 246.5001,-239.138 239.5001,-239.1379"/>
</g>
<!-- &#45;6735227197886880628 -->
<g id="node15" class="node">
<title>&#45;6735227197886880628</title>
<polygon fill="none" stroke="#ffffff" stroke-width="3" points="270,-125.2953 216,-125.2953 216,-89.2953 270,-89.2953 270,-125.2953"/>
</g>
<!-- &#45;6735227197886880628&#45;&gt;2294056726272383437 -->
<g id="edge10" class="edge">
<title>&#45;6735227197886880628&#45;&gt;2294056726272383437</title>
<path fill="none" stroke="#ffffff" stroke-width="3" d="M243,-125.448C243,-133.0025 243,-142.0567 243,-150.8767"/>
<polygon fill="#ffffff" stroke="#ffffff" stroke-width="3" points="239.5001,-151.0191 243,-161.0191 246.5001,-151.0191 239.5001,-151.0191"/>
</g>
<!-- &#45;2644761798999229767 -->
<g id="node16" class="node">
<title>&#45;2644761798999229767</title>
<polygon fill="none" stroke="#ffffff" stroke-width="3" points="342,-285.2907 288,-285.2907 288,-249.2907 342,-249.2907 342,-285.2907"/>
</g>
<!-- &#45;2644761798999229767&#45;&gt;&#45;2661622651982388625 -->
<g id="edge34" class="edge">
<title>&#45;2644761798999229767&#45;&gt;&#45;2661622651982388625</title>
<path fill="none" stroke="#ffffff" stroke-width="3" d="M315,-285.3223C315,-292.604 315,-301.5261 315,-311.0028"/>
<polygon fill="#ffffff" stroke="#ffffff" stroke-width="3" points="311.5001,-311.0337 315,-321.0337 318.5001,-311.0337 311.5001,-311.0337"/>
</g>
<!-- 4973969618732175912 -->
<g id="node17" class="node">
<title>4973969618732175912</title>
<ellipse fill="none" stroke="#ffffff" stroke-width="3" cx="315" cy="-187.293" rx="25.9954" ry="25.9954"/>
<text text-anchor="middle" x="315" y="-183.593" font-family="Times,serif" font-size="14.00" fill="#ffffff">sum</text>
</g>
<!-- 4973969618732175912&#45;&gt;&#45;2644761798999229767 -->
<g id="edge11" class="edge">
<title>4973969618732175912&#45;&gt;&#45;2644761798999229767</title>
<path fill="none" stroke="#ffffff" stroke-width="3" d="M315,-213.4872C315,-221.6894 315,-230.7743 315,-239.1076"/>
<polygon fill="#ffffff" stroke="#ffffff" stroke-width="3" points="311.5001,-239.1379 315,-249.1379 318.5001,-239.138 311.5001,-239.1379"/>
</g>
<!-- &#45;6735227197885715579 -->
<g id="node18" class="node">
<title>&#45;6735227197885715579</title>
<polygon fill="none" stroke="#ffffff" stroke-width="3" points="342,-125.2953 288,-125.2953 288,-89.2953 342,-89.2953 342,-125.2953"/>
</g>
<!-- &#45;6735227197885715579&#45;&gt;4973969618732175912 -->
<g id="edge12" class="edge">
<title>&#45;6735227197885715579&#45;&gt;4973969618732175912</title>
<path fill="none" stroke="#ffffff" stroke-width="3" d="M315,-125.448C315,-133.0025 315,-142.0567 315,-150.8767"/>
<polygon fill="#ffffff" stroke="#ffffff" stroke-width="3" points="311.5001,-151.0191 315,-161.0191 318.5001,-151.0191 311.5001,-151.0191"/>
</g>
<!-- &#45;2644758015410563396 -->
<g id="node19" class="node">
<title>&#45;2644758015410563396</title>
<polygon fill="none" stroke="#ffffff" stroke-width="3" points="630,-285.2907 576,-285.2907 576,-249.2907 630,-249.2907 630,-285.2907"/>
</g>
<!-- 1367864249702474882 -->
<g id="node42" class="node">
<title>1367864249702474882</title>
<ellipse fill="none" stroke="#ffffff" stroke-width="3" cx="531" cy="-384.3351" rx="63.0888" ry="63.0888"/>
<text text-anchor="middle" x="531" y="-380.6351" font-family="Times,serif" font-size="14.00" fill="#ffffff">sum&#45;aggregate</text>
</g>
<!-- &#45;2644758015410563396&#45;&gt;1367864249702474882 -->
<g id="edge38" class="edge">
<title>&#45;2644758015410563396&#45;&gt;1367864249702474882</title>
<path fill="none" stroke="#ffffff" stroke-width="3" d="M591.9078,-285.3223C585.7597,-295.3168 577.7106,-308.4016 569.4875,-321.7691"/>
<polygon fill="#ffffff" stroke="#ffffff" stroke-width="3" points="566.3354,-320.2133 564.0769,-330.5647 572.2976,-323.881 566.3354,-320.2133"/>
</g>
<!-- 5761391653575488865 -->
<g id="node20" class="node">
<title>5761391653575488865</title>
<ellipse fill="none" stroke="#ffffff" stroke-width="3" cx="603" cy="-187.293" rx="25.9954" ry="25.9954"/>
<text text-anchor="middle" x="603" y="-183.593" font-family="Times,serif" font-size="14.00" fill="#ffffff">sum</text>
</g>
<!-- 5761391653575488865&#45;&gt;&#45;2644758015410563396 -->
<g id="edge13" class="edge">
<title>5761391653575488865&#45;&gt;&#45;2644758015410563396</title>
<path fill="none" stroke="#ffffff" stroke-width="3" d="M603,-213.4872C603,-221.6894 603,-230.7743 603,-239.1076"/>
<polygon fill="#ffffff" stroke="#ffffff" stroke-width="3" points="599.5001,-239.1379 603,-249.1379 606.5001,-239.138 599.5001,-239.1379"/>
</g>
<!-- &#45;6735223414297049208 -->
<g id="node21" class="node">
<title>&#45;6735223414297049208</title>
<polygon fill="none" stroke="#ffffff" stroke-width="3" points="630,-125.2953 576,-125.2953 576,-89.2953 630,-89.2953 630,-125.2953"/>
</g>
<!-- &#45;6735223414297049208&#45;&gt;5761391653575488865 -->
<g id="edge14" class="edge">
<title>&#45;6735223414297049208&#45;&gt;5761391653575488865</title>
<path fill="none" stroke="#ffffff" stroke-width="3" d="M603,-125.448C603,-133.0025 603,-142.0567 603,-150.8767"/>
<polygon fill="#ffffff" stroke="#ffffff" stroke-width="3" points="599.5001,-151.0191 603,-161.0191 606.5001,-151.0191 599.5001,-151.0191"/>
</g>
<!-- &#45;2644758015411728445 -->
<g id="node22" class="node">
<title>&#45;2644758015411728445</title>
<polygon fill="none" stroke="#ffffff" stroke-width="3" points="486,-285.2907 432,-285.2907 432,-249.2907 486,-249.2907 486,-285.2907"/>
</g>
<!-- &#45;2644758015411728445&#45;&gt;1367864249702474882 -->
<g id="edge37" class="edge">
<title>&#45;2644758015411728445&#45;&gt;1367864249702474882</title>
<path fill="none" stroke="#ffffff" stroke-width="3" d="M470.0922,-285.3223C476.2403,-295.3168 484.2894,-308.4016 492.5125,-321.7691"/>
<polygon fill="#ffffff" stroke="#ffffff" stroke-width="3" points="489.7024,-323.881 497.9231,-330.5647 495.6646,-320.2133 489.7024,-323.881"/>
</g>
<!-- 5999310052685416690 -->
<g id="node23" class="node">
<title>5999310052685416690</title>
<ellipse fill="none" stroke="#ffffff" stroke-width="3" cx="459" cy="-187.293" rx="25.9954" ry="25.9954"/>
<text text-anchor="middle" x="459" y="-183.593" font-family="Times,serif" font-size="14.00" fill="#ffffff">sum</text>
</g>
<!-- 5999310052685416690&#45;&gt;&#45;2644758015411728445 -->
<g id="edge15" class="edge">
<title>5999310052685416690&#45;&gt;&#45;2644758015411728445</title>
<path fill="none" stroke="#ffffff" stroke-width="3" d="M459,-213.4872C459,-221.6894 459,-230.7743 459,-239.1076"/>
<polygon fill="#ffffff" stroke="#ffffff" stroke-width="3" points="455.5001,-239.1379 459,-249.1379 462.5001,-239.138 455.5001,-239.1379"/>
</g>
<!-- &#45;6735223414298214257 -->
<g id="node24" class="node">
<title>&#45;6735223414298214257</title>
<polygon fill="none" stroke="#ffffff" stroke-width="3" points="486,-125.2953 432,-125.2953 432,-89.2953 486,-89.2953 486,-125.2953"/>
</g>
<!-- &#45;6735223414298214257&#45;&gt;5999310052685416690 -->
<g id="edge16" class="edge">
<title>&#45;6735223414298214257&#45;&gt;5999310052685416690</title>
<path fill="none" stroke="#ffffff" stroke-width="3" d="M459,-125.448C459,-133.0025 459,-142.0567 459,-150.8767"/>
<polygon fill="#ffffff" stroke="#ffffff" stroke-width="3" points="455.5001,-151.0191 459,-161.0191 462.5001,-151.0191 455.5001,-151.0191"/>
</g>
<!-- &#45;2644758015408233298 -->
<g id="node25" class="node">
<title>&#45;2644758015408233298</title>
<polygon fill="none" stroke="#ffffff" stroke-width="3" points="558,-285.2907 504,-285.2907 504,-249.2907 558,-249.2907 558,-285.2907"/>
</g>
<!-- &#45;2644758015408233298&#45;&gt;1367864249702474882 -->
<g id="edge39" class="edge">
<title>&#45;2644758015408233298&#45;&gt;1367864249702474882</title>
<path fill="none" stroke="#ffffff" stroke-width="3" d="M531,-285.3223C531,-292.604 531,-301.5261 531,-311.0028"/>
<polygon fill="#ffffff" stroke="#ffffff" stroke-width="3" points="527.5001,-311.0337 531,-321.0337 534.5001,-311.0337 527.5001,-311.0337"/>
</g>
<!-- 8411820189808539915 -->
<g id="node26" class="node">
<title>8411820189808539915</title>
<ellipse fill="none" stroke="#ffffff" stroke-width="3" cx="531" cy="-187.293" rx="25.9954" ry="25.9954"/>
<text text-anchor="middle" x="531" y="-183.593" font-family="Times,serif" font-size="14.00" fill="#ffffff">sum</text>
</g>
<!-- 8411820189808539915&#45;&gt;&#45;2644758015408233298 -->
<g id="edge17" class="edge">
<title>8411820189808539915&#45;&gt;&#45;2644758015408233298</title>
<path fill="none" stroke="#ffffff" stroke-width="3" d="M531,-213.4872C531,-221.6894 531,-230.7743 531,-239.1076"/>
<polygon fill="#ffffff" stroke="#ffffff" stroke-width="3" points="527.5001,-239.1379 531,-249.1379 534.5001,-239.138 527.5001,-239.1379"/>
</g>
<!-- &#45;6735223414294719110 -->
<g id="node27" class="node">
<title>&#45;6735223414294719110</title>
<polygon fill="none" stroke="#ffffff" stroke-width="3" points="558,-125.2953 504,-125.2953 504,-89.2953 558,-89.2953 558,-125.2953"/>
</g>
<!-- &#45;6735223414294719110&#45;&gt;8411820189808539915 -->
<g id="edge18" class="edge">
<title>&#45;6735223414294719110&#45;&gt;8411820189808539915</title>
<path fill="none" stroke="#ffffff" stroke-width="3" d="M531,-125.448C531,-133.0025 531,-142.0567 531,-150.8767"/>
<polygon fill="#ffffff" stroke="#ffffff" stroke-width="3" points="527.5001,-151.0191 531,-161.0191 534.5001,-151.0191 527.5001,-151.0191"/>
</g>
<!-- &#45;719930549219696321 -->
<g id="node28" class="node">
<title>&#45;719930549219696321</title>
<ellipse fill="none" stroke="#ffffff" stroke-width="3" cx="171" cy="-26.6476" rx="26.7961" ry="26.7961"/>
<text text-anchor="middle" x="171" y="-22.9476" font-family="Times,serif" font-size="14.00" fill="#ffffff">ones</text>
</g>
<!-- &#45;719930549219696321&#45;&gt;&#45;6735225936691046854 -->
<g id="edge19" class="edge">
<title>&#45;719930549219696321&#45;&gt;&#45;6735225936691046854</title>
<path fill="none" stroke="#ffffff" stroke-width="3" d="M171,-53.5021C171,-61.7499 171,-70.8471 171,-79.1771"/>
<polygon fill="#ffffff" stroke="#ffffff" stroke-width="3" points="167.5001,-79.1963 171,-89.1964 174.5001,-79.1964 167.5001,-79.1963"/>
</g>
<!-- 9059696796925653104 -->
<g id="node29" class="node">
<title>9059696796925653104</title>
<ellipse fill="none" stroke="#ffffff" stroke-width="3" cx="27" cy="-26.6476" rx="26.7961" ry="26.7961"/>
<text text-anchor="middle" x="27" y="-22.9476" font-family="Times,serif" font-size="14.00" fill="#ffffff">ones</text>
</g>
<!-- 9059696796925653104&#45;&gt;&#45;6735225936692211903 -->
<g id="edge20" class="edge">
<title>9059696796925653104&#45;&gt;&#45;6735225936692211903</title>
<path fill="none" stroke="#ffffff" stroke-width="3" d="M27,-53.5021C27,-61.7499 27,-70.8471 27,-79.1771"/>
<polygon fill="#ffffff" stroke="#ffffff" stroke-width="3" points="23.5001,-79.1963 27,-89.1964 30.5001,-79.1964 23.5001,-79.1963"/>
</g>
<!-- &#45;7963585242701010187 -->
<g id="node30" class="node">
<title>&#45;7963585242701010187</title>
<ellipse fill="none" stroke="#ffffff" stroke-width="3" cx="99" cy="-26.6476" rx="26.7961" ry="26.7961"/>
<text text-anchor="middle" x="99" y="-22.9476" font-family="Times,serif" font-size="14.00" fill="#ffffff">ones</text>
</g>
<!-- &#45;7963585242701010187&#45;&gt;&#45;6735225936693376952 -->
<g id="edge21" class="edge">
<title>&#45;7963585242701010187&#45;&gt;&#45;6735225936693376952</title>
<path fill="none" stroke="#ffffff" stroke-width="3" d="M99,-53.5021C99,-61.7499 99,-70.8471 99,-79.1771"/>
<polygon fill="#ffffff" stroke="#ffffff" stroke-width="3" points="95.5001,-79.1963 99,-89.1964 102.5001,-79.1964 95.5001,-79.1963"/>
</g>
<!-- &#45;5506088444772593822 -->
<g id="node31" class="node">
<title>&#45;5506088444772593822</title>
<ellipse fill="none" stroke="#ffffff" stroke-width="3" cx="387" cy="-26.6476" rx="26.7961" ry="26.7961"/>
<text text-anchor="middle" x="387" y="-22.9476" font-family="Times,serif" font-size="14.00" fill="#ffffff">ones</text>
</g>
<!-- &#45;5506088444772593822&#45;&gt;&#45;6735227197888045677 -->
<g id="edge22" class="edge">
<title>&#45;5506088444772593822&#45;&gt;&#45;6735227197888045677</title>
<path fill="none" stroke="#ffffff" stroke-width="3" d="M387,-53.5021C387,-61.7499 387,-70.8471 387,-79.1771"/>
<polygon fill="#ffffff" stroke="#ffffff" stroke-width="3" points="383.5001,-79.1963 387,-89.1964 390.5001,-79.1964 383.5001,-79.1963"/>
</g>
<!-- &#45;2156414224237835247 -->
<g id="node32" class="node">
<title>&#45;2156414224237835247</title>
<ellipse fill="none" stroke="#ffffff" stroke-width="3" cx="243" cy="-26.6476" rx="26.7961" ry="26.7961"/>
<text text-anchor="middle" x="243" y="-22.9476" font-family="Times,serif" font-size="14.00" fill="#ffffff">ones</text>
</g>
<!-- &#45;2156414224237835247&#45;&gt;&#45;6735227197886880628 -->
<g id="edge23" class="edge">
<title>&#45;2156414224237835247&#45;&gt;&#45;6735227197886880628</title>
<path fill="none" stroke="#ffffff" stroke-width="3" d="M243,-53.5021C243,-61.7499 243,-70.8471 243,-79.1771"/>
<polygon fill="#ffffff" stroke="#ffffff" stroke-width="3" points="239.5001,-79.1963 243,-89.1964 246.5001,-79.1964 239.5001,-79.1963"/>
</g>
<!-- &#45;1665408741582199572 -->
<g id="node33" class="node">
<title>&#45;1665408741582199572</title>
<ellipse fill="none" stroke="#ffffff" stroke-width="3" cx="315" cy="-26.6476" rx="26.7961" ry="26.7961"/>
<text text-anchor="middle" x="315" y="-22.9476" font-family="Times,serif" font-size="14.00" fill="#ffffff">ones</text>
</g>
<!-- &#45;1665408741582199572&#45;&gt;&#45;6735227197885715579 -->
<g id="edge24" class="edge">
<title>&#45;1665408741582199572&#45;&gt;&#45;6735227197885715579</title>
<path fill="none" stroke="#ffffff" stroke-width="3" d="M315,-53.5021C315,-61.7499 315,-70.8471 315,-79.1771"/>
<polygon fill="#ffffff" stroke="#ffffff" stroke-width="3" points="311.5001,-79.1963 315,-89.1964 318.5001,-79.1964 311.5001,-79.1963"/>
</g>
<!-- 8597084228375072949 -->
<g id="node34" class="node">
<title>8597084228375072949</title>
<ellipse fill="none" stroke="#ffffff" stroke-width="3" cx="603" cy="-26.6476" rx="26.7961" ry="26.7961"/>
<text text-anchor="middle" x="603" y="-22.9476" font-family="Times,serif" font-size="14.00" fill="#ffffff">ones</text>
</g>
<!-- 8597084228375072949&#45;&gt;&#45;6735223414297049208 -->
<g id="edge25" class="edge">
<title>8597084228375072949&#45;&gt;&#45;6735223414297049208</title>
<path fill="none" stroke="#ffffff" stroke-width="3" d="M603,-53.5021C603,-61.7499 603,-70.8471 603,-79.1771"/>
<polygon fill="#ffffff" stroke="#ffffff" stroke-width="3" points="599.5001,-79.1963 603,-89.1964 606.5001,-79.1964 599.5001,-79.1963"/>
</g>
<!-- &#45;8504272300363503242 -->
<g id="node35" class="node">
<title>&#45;8504272300363503242</title>
<ellipse fill="none" stroke="#ffffff" stroke-width="3" cx="459" cy="-26.6476" rx="26.7961" ry="26.7961"/>
<text text-anchor="middle" x="459" y="-22.9476" font-family="Times,serif" font-size="14.00" fill="#ffffff">ones</text>
</g>
<!-- &#45;8504272300363503242&#45;&gt;&#45;6735223414298214257 -->
<g id="edge26" class="edge">
<title>&#45;8504272300363503242&#45;&gt;&#45;6735223414298214257</title>
<path fill="none" stroke="#ffffff" stroke-width="3" d="M459,-53.5021C459,-61.7499 459,-70.8471 459,-79.1771"/>
<polygon fill="#ffffff" stroke="#ffffff" stroke-width="3" points="455.5001,-79.1963 459,-89.1964 462.5001,-79.1964 455.5001,-79.1963"/>
</g>
<!-- 4502569550705196799 -->
<g id="node36" class="node">
<title>4502569550705196799</title>
<ellipse fill="none" stroke="#ffffff" stroke-width="3" cx="531" cy="-26.6476" rx="26.7961" ry="26.7961"/>
<text text-anchor="middle" x="531" y="-22.9476" font-family="Times,serif" font-size="14.00" fill="#ffffff">ones</text>
</g>
<!-- 4502569550705196799&#45;&gt;&#45;6735223414294719110 -->
<g id="edge27" class="edge">
<title>4502569550705196799&#45;&gt;&#45;6735223414294719110</title>
<path fill="none" stroke="#ffffff" stroke-width="3" d="M531,-53.5021C531,-61.7499 531,-70.8471 531,-79.1771"/>
<polygon fill="#ffffff" stroke="#ffffff" stroke-width="3" points="527.5001,-79.1963 531,-89.1964 534.5001,-79.1964 527.5001,-79.1963"/>
</g>
<!-- 4941837524870868717 -->
<g id="node37" class="node">
<title>4941837524870868717</title>
<polygon fill="none" stroke="#ffffff" stroke-width="3" points="126,-519.3795 72,-519.3795 72,-483.3795 126,-483.3795 126,-519.3795"/>
</g>
<!-- &#45;4317270292660229100&#45;&gt;4941837524870868717 -->
<g id="edge28" class="edge">
<title>&#45;4317270292660229100&#45;&gt;4941837524870868717</title>
<path fill="none" stroke="#ffffff" stroke-width="3" d="M99,-447.6531C99,-456.4396 99,-465.081 99,-472.7778"/>
<polygon fill="#ffffff" stroke="#ffffff" stroke-width="3" points="95.5001,-472.9464 99,-482.9464 102.5001,-472.9464 95.5001,-472.9464"/>
</g>
<!-- 4941837524871951242 -->
<g id="node39" class="node">
<title>4941837524871951242</title>
<polygon fill="none" stroke="#ffffff" stroke-width="3" points="342,-519.3795 288,-519.3795 288,-483.3795 342,-483.3795 342,-519.3795"/>
</g>
<!-- &#45;2661622651982388625&#45;&gt;4941837524871951242 -->
<g id="edge32" class="edge">
<title>&#45;2661622651982388625&#45;&gt;4941837524871951242</title>
<path fill="none" stroke="#ffffff" stroke-width="3" d="M315,-447.6531C315,-456.4396 315,-465.081 315,-472.7778"/>
<polygon fill="#ffffff" stroke="#ffffff" stroke-width="3" points="311.5001,-472.9464 315,-482.9464 318.5001,-472.9464 311.5001,-472.9464"/>
</g>
<!-- 4941837524868703667 -->
<g id="node41" class="node">
<title>4941837524868703667</title>
<polygon fill="none" stroke="#ffffff" stroke-width="3" points="558,-519.3795 504,-519.3795 504,-483.3795 558,-483.3795 558,-519.3795"/>
</g>
<!-- 1367864249702474882&#45;&gt;4941837524868703667 -->
<g id="edge36" class="edge">
<title>1367864249702474882&#45;&gt;4941837524868703667</title>
<path fill="none" stroke="#ffffff" stroke-width="3" d="M531,-447.6531C531,-456.4396 531,-465.081 531,-472.7778"/>
<polygon fill="#ffffff" stroke="#ffffff" stroke-width="3" points="527.5001,-472.9464 531,-482.9464 534.5001,-472.9464 527.5001,-472.9464"/>
</g>
</g>
</svg>
