<?xml version="1.0" encoding="UTF-8" standalone="no"?>
<!DOCTYPE svg PUBLIC "-//W3C//DTD SVG 1.1//EN"
 "http://www.w3.org/Graphics/SVG/1.1/DTD/svg11.dtd">
<!-- Generated by graphviz version 2.38.0 (20140413.2041)
 -->
<!-- Title: %3 Pages: 1 -->
<svg width="371pt" height="133pt"
 viewBox="0.00 0.00 371.00 133.30" xmlns="http://www.w3.org/2000/svg" xmlns:xlink="http://www.w3.org/1999/xlink">
<g id="graph0" class="graph" transform="scale(1 1) rotate(0) translate(4 129.295)">
<title>%3</title>
<polygon fill="none" stroke="none" points="-4,4 -4,-129.295 367,-129.295 367,4 -4,4"/>
<!-- 1773734913428241880 -->
<g id="node1" class="node"><title>1773734913428241880</title>
<polygon fill="none" stroke="white" stroke-width="3" points="109,-125.295 0,-125.295 0,-89.2953 109,-89.2953 109,-125.295"/>
<text text-anchor="middle" x="54.5" y="-103.595" font-family="Times,serif" font-size="14.00" fill="#ffffff">(&#39;wrapped&#45;#0&#39;, 0)</text>
</g>
<!-- 5959401966845107742 -->
<g id="node2" class="node"><title>5959401966845107742</title>
<ellipse fill="none" stroke="white" stroke-width="3" cx="54.5" cy="-26.6476" rx="26.7961" ry="26.7961"/>
<text text-anchor="middle" x="54.5" y="-22.9476" font-family="Times,serif" font-size="14.00" fill="#ffffff">ones</text>
</g>
<!-- 5959401966845107742&#45;&gt;1773734913428241880 -->
<g id="edge1" class="edge"><title>5959401966845107742&#45;&gt;1773734913428241880</title>
<path fill="none" stroke="white" stroke-width="3" d="M54.5,-53.3998C54.5,-61.4986 54.5,-70.4727 54.5,-78.6944"/>
<polygon fill="white" stroke="white" stroke-width="3" points="51.0001,-78.9322 54.5,-88.9323 58.0001,-78.9323 51.0001,-78.9322"/>
</g>
<!-- 1773734913427159355 -->
<g id="node3" class="node"><title>1773734913427159355</title>
<polygon fill="none" stroke="white" stroke-width="3" points="236,-125.295 127,-125.295 127,-89.2953 236,-89.2953 236,-125.295"/>
<text text-anchor="middle" x="181.5" y="-103.595" font-family="Times,serif" font-size="14.00" fill="#ffffff">(&#39;wrapped&#45;#0&#39;, 1)</text>
</g>
<!-- 7239378701587586617 -->
<g id="node4" class="node"><title>7239378701587586617</title>
<ellipse fill="none" stroke="white" stroke-width="3" cx="181.5" cy="-26.6476" rx="26.7961" ry="26.7961"/>
<text text-anchor="middle" x="181.5" y="-22.9476" font-family="Times,serif" font-size="14.00" fill="#ffffff">ones</text>
</g>
<!-- 7239378701587586617&#45;&gt;1773734913427159355 -->
<g id="edge2" class="edge"><title>7239378701587586617&#45;&gt;1773734913427159355</title>
<path fill="none" stroke="white" stroke-width="3" d="M181.5,-53.3998C181.5,-61.4986 181.5,-70.4727 181.5,-78.6944"/>
<polygon fill="white" stroke="white" stroke-width="3" points="178,-78.9322 181.5,-88.9323 185,-78.9323 178,-78.9322"/>
</g>
<!-- 1773734913430406930 -->
<g id="node5" class="node"><title>1773734913430406930</title>
<polygon fill="none" stroke="white" stroke-width="3" points="363,-125.295 254,-125.295 254,-89.2953 363,-89.2953 363,-125.295"/>
<text text-anchor="middle" x="308.5" y="-103.595" font-family="Times,serif" font-size="14.00" fill="#ffffff">(&#39;wrapped&#45;#0&#39;, 2)</text>
</g>
<!-- 3329786574717919992 -->
<g id="node6" class="node"><title>3329786574717919992</title>
<ellipse fill="none" stroke="white" stroke-width="3" cx="308.5" cy="-26.6476" rx="26.7961" ry="26.7961"/>
<text text-anchor="middle" x="308.5" y="-22.9476" font-family="Times,serif" font-size="14.00" fill="#ffffff">ones</text>
</g>
<!-- 3329786574717919992&#45;&gt;1773734913430406930 -->
<g id="edge3" class="edge"><title>3329786574717919992&#45;&gt;1773734913430406930</title>
<path fill="none" stroke="white" stroke-width="3" d="M308.5,-53.3998C308.5,-61.4986 308.5,-70.4727 308.5,-78.6944"/>
<polygon fill="white" stroke="white" stroke-width="3" points="305,-78.9322 308.5,-88.9323 312,-78.9323 305,-78.9322"/>
</g>
</g>
</svg>
