<?xml version="1.0" encoding="UTF-8" standalone="no"?>
<!DOCTYPE svg PUBLIC "-//W3C//DTD SVG 1.1//EN"
 "http://www.w3.org/Graphics/SVG/1.1/DTD/svg11.dtd">
<!-- Generated by graphviz version 2.38.0 (20140413.2041)
 -->
<!-- Title: %3 Pages: 1 -->
<svg width="371pt" height="453pt"
 viewBox="0.00 0.00 371.00 453.29" xmlns="http://www.w3.org/2000/svg" xmlns:xlink="http://www.w3.org/1999/xlink">
<g id="graph0" class="graph" transform="scale(1 1) rotate(0) translate(4 449.286)">
<title>%3</title>
<polygon fill="none" stroke="none" points="-4,4 -4,-449.286 367,-449.286 367,4 -4,4"/>
<!-- &#45;2094172368569646791 -->
<g id="node1" class="node"><title>&#45;2094172368569646791</title>
<polygon fill="none" stroke="white" stroke-width="3" points="334.5,-285.291 248.5,-285.291 248.5,-249.291 334.5,-249.291 334.5,-285.291"/>
<text text-anchor="middle" x="291.5" y="-263.591" font-family="Times,serif" font-size="14.00" fill="#ffffff">(&#39;sum&#45;#0&#39;, 0)</text>
</g>
<!-- &#45;7800964414829473550 -->
<g id="node14" class="node"><title>&#45;7800964414829473550</title>
<ellipse fill="none" stroke="white" stroke-width="3" cx="181.5" cy="-347.288" rx="25.9954" ry="25.9954"/>
<text text-anchor="middle" x="181.5" y="-343.588" font-family="Times,serif" font-size="14.00" fill="#ffffff">sum</text>
</g>
<!-- &#45;2094172368569646791&#45;&gt;&#45;7800964414829473550 -->
<g id="edge11" class="edge"><title>&#45;2094172368569646791&#45;&gt;&#45;7800964414829473550</title>
<path fill="none" stroke="white" stroke-width="3" d="M267.36,-285.408C250.62,-297.277 228.242,-313.145 210.529,-325.705"/>
<polygon fill="white" stroke="white" stroke-width="3" points="208.386,-322.934 202.253,-331.573 212.435,-328.644 208.386,-322.934"/>
</g>
<!-- &#45;5387270884359299225 -->
<g id="node2" class="node"><title>&#45;5387270884359299225</title>
<ellipse fill="none" stroke="white" stroke-width="3" cx="302.5" cy="-187.293" rx="25.9954" ry="25.9954"/>
<text text-anchor="middle" x="302.5" y="-183.593" font-family="Times,serif" font-size="14.00" fill="#ffffff">sum</text>
</g>
<!-- &#45;5387270884359299225&#45;&gt;&#45;2094172368569646791 -->
<g id="edge1" class="edge"><title>&#45;5387270884359299225&#45;&gt;&#45;2094172368569646791</title>
<path fill="none" stroke="white" stroke-width="3" d="M298.959,-213.401C297.811,-221.543 296.532,-230.613 295.361,-238.911"/>
<polygon fill="white" stroke="white" stroke-width="3" points="291.886,-238.49 293.955,-248.881 298.818,-239.467 291.886,-238.49"/>
</g>
<!-- 1773734913428241880 -->
<g id="node3" class="node"><title>1773734913428241880</title>
<polygon fill="none" stroke="white" stroke-width="3" points="363,-125.295 254,-125.295 254,-89.2953 363,-89.2953 363,-125.295"/>
<text text-anchor="middle" x="308.5" y="-103.595" font-family="Times,serif" font-size="14.00" fill="#ffffff">(&#39;wrapped&#45;#1&#39;, 0)</text>
</g>
<!-- 1773734913428241880&#45;&gt;&#45;5387270884359299225 -->
<g id="edge2" class="edge"><title>1773734913428241880&#45;&gt;&#45;5387270884359299225</title>
<path fill="none" stroke="white" stroke-width="3" d="M307.168,-125.605C306.588,-133.154 305.885,-142.292 305.203,-151.16"/>
<polygon fill="white" stroke="white" stroke-width="3" points="301.697,-151.097 304.42,-161.336 308.677,-151.634 301.697,-151.097"/>
</g>
<!-- &#45;2094172368568564266 -->
<g id="node4" class="node"><title>&#45;2094172368568564266</title>
<polygon fill="none" stroke="white" stroke-width="3" points="114.5,-285.291 28.5,-285.291 28.5,-249.291 114.5,-249.291 114.5,-285.291"/>
<text text-anchor="middle" x="71.5" y="-263.591" font-family="Times,serif" font-size="14.00" fill="#ffffff">(&#39;sum&#45;#0&#39;, 1)</text>
</g>
<!-- &#45;2094172368568564266&#45;&gt;&#45;7800964414829473550 -->
<g id="edge12" class="edge"><title>&#45;2094172368568564266&#45;&gt;&#45;7800964414829473550</title>
<path fill="none" stroke="white" stroke-width="3" d="M95.64,-285.408C112.38,-297.277 134.758,-313.145 152.471,-325.705"/>
<polygon fill="white" stroke="white" stroke-width="3" points="150.565,-328.644 160.747,-331.573 154.614,-322.934 150.565,-328.644"/>
</g>
<!-- 3007419523570764700 -->
<g id="node5" class="node"><title>3007419523570764700</title>
<ellipse fill="none" stroke="white" stroke-width="3" cx="60.5" cy="-187.293" rx="25.9954" ry="25.9954"/>
<text text-anchor="middle" x="60.5" y="-183.593" font-family="Times,serif" font-size="14.00" fill="#ffffff">sum</text>
</g>
<!-- 3007419523570764700&#45;&gt;&#45;2094172368568564266 -->
<g id="edge3" class="edge"><title>3007419523570764700&#45;&gt;&#45;2094172368568564266</title>
<path fill="none" stroke="white" stroke-width="3" d="M64.041,-213.401C65.1892,-221.543 66.4684,-230.613 67.6386,-238.911"/>
<polygon fill="white" stroke="white" stroke-width="3" points="64.1824,-239.467 69.0446,-248.881 71.1138,-238.49 64.1824,-239.467"/>
</g>
<!-- 1773734913427159355 -->
<g id="node6" class="node"><title>1773734913427159355</title>
<polygon fill="none" stroke="white" stroke-width="3" points="109,-125.295 0,-125.295 0,-89.2953 109,-89.2953 109,-125.295"/>
<text text-anchor="middle" x="54.5" y="-103.595" font-family="Times,serif" font-size="14.00" fill="#ffffff">(&#39;wrapped&#45;#1&#39;, 1)</text>
</g>
<!-- 1773734913427159355&#45;&gt;3007419523570764700 -->
<g id="edge4" class="edge"><title>1773734913427159355&#45;&gt;3007419523570764700</title>
<path fill="none" stroke="white" stroke-width="3" d="M55.8316,-125.605C56.4123,-133.154 57.1152,-142.292 57.7974,-151.16"/>
<polygon fill="white" stroke="white" stroke-width="3" points="54.3234,-151.634 58.5802,-161.336 61.3028,-151.097 54.3234,-151.634"/>
</g>
<!-- &#45;2094172368571811841 -->
<g id="node7" class="node"><title>&#45;2094172368571811841</title>
<polygon fill="none" stroke="white" stroke-width="3" points="224.5,-285.291 138.5,-285.291 138.5,-249.291 224.5,-249.291 224.5,-285.291"/>
<text text-anchor="middle" x="181.5" y="-263.591" font-family="Times,serif" font-size="14.00" fill="#ffffff">(&#39;sum&#45;#0&#39;, 2)</text>
</g>
<!-- &#45;2094172368571811841&#45;&gt;&#45;7800964414829473550 -->
<g id="edge13" class="edge"><title>&#45;2094172368571811841&#45;&gt;&#45;7800964414829473550</title>
<path fill="none" stroke="white" stroke-width="3" d="M181.5,-285.601C181.5,-293.085 181.5,-302.131 181.5,-310.928"/>
<polygon fill="white" stroke="white" stroke-width="3" points="178,-311.032 181.5,-321.032 185,-311.032 178,-311.032"/>
</g>
<!-- &#45;2567339299565403875 -->
<g id="node8" class="node"><title>&#45;2567339299565403875</title>
<ellipse fill="none" stroke="white" stroke-width="3" cx="181.5" cy="-187.293" rx="25.9954" ry="25.9954"/>
<text text-anchor="middle" x="181.5" y="-183.593" font-family="Times,serif" font-size="14.00" fill="#ffffff">sum</text>
</g>
<!-- &#45;2567339299565403875&#45;&gt;&#45;2094172368571811841 -->
<g id="edge5" class="edge"><title>&#45;2567339299565403875&#45;&gt;&#45;2094172368571811841</title>
<path fill="none" stroke="white" stroke-width="3" d="M181.5,-213.401C181.5,-221.452 181.5,-230.411 181.5,-238.634"/>
<polygon fill="white" stroke="white" stroke-width="3" points="178,-238.88 181.5,-248.881 185,-238.881 178,-238.88"/>
</g>
<!-- 1773734913430406930 -->
<g id="node9" class="node"><title>1773734913430406930</title>
<polygon fill="none" stroke="white" stroke-width="3" points="236,-125.295 127,-125.295 127,-89.2953 236,-89.2953 236,-125.295"/>
<text text-anchor="middle" x="181.5" y="-103.595" font-family="Times,serif" font-size="14.00" fill="#ffffff">(&#39;wrapped&#45;#1&#39;, 2)</text>
</g>
<!-- 1773734913430406930&#45;&gt;&#45;2567339299565403875 -->
<g id="edge6" class="edge"><title>1773734913430406930&#45;&gt;&#45;2567339299565403875</title>
<path fill="none" stroke="white" stroke-width="3" d="M181.5,-125.605C181.5,-133.089 181.5,-142.135 181.5,-150.933"/>
<polygon fill="white" stroke="white" stroke-width="3" points="178,-151.037 181.5,-161.037 185,-151.037 178,-151.037"/>
</g>
<!-- 5959401966845107742 -->
<g id="node10" class="node"><title>5959401966845107742</title>
<ellipse fill="none" stroke="white" stroke-width="3" cx="308.5" cy="-26.6476" rx="26.7961" ry="26.7961"/>
<text text-anchor="middle" x="308.5" y="-22.9476" font-family="Times,serif" font-size="14.00" fill="#ffffff">ones</text>
</g>
<!-- 5959401966845107742&#45;&gt;1773734913428241880 -->
<g id="edge7" class="edge"><title>5959401966845107742&#45;&gt;1773734913428241880</title>
<path fill="none" stroke="white" stroke-width="3" d="M308.5,-53.3998C308.5,-61.4986 308.5,-70.4727 308.5,-78.6944"/>
<polygon fill="white" stroke="white" stroke-width="3" points="305,-78.9322 308.5,-88.9323 312,-78.9323 305,-78.9322"/>
</g>
<!-- 7239378701587586617 -->
<g id="node11" class="node"><title>7239378701587586617</title>
<ellipse fill="none" stroke="white" stroke-width="3" cx="54.5" cy="-26.6476" rx="26.7961" ry="26.7961"/>
<text text-anchor="middle" x="54.5" y="-22.9476" font-family="Times,serif" font-size="14.00" fill="#ffffff">ones</text>
</g>
<!-- 7239378701587586617&#45;&gt;1773734913427159355 -->
<g id="edge8" class="edge"><title>7239378701587586617&#45;&gt;1773734913427159355</title>
<path fill="none" stroke="white" stroke-width="3" d="M54.5,-53.3998C54.5,-61.4986 54.5,-70.4727 54.5,-78.6944"/>
<polygon fill="white" stroke="white" stroke-width="3" points="51.0001,-78.9322 54.5,-88.9323 58.0001,-78.9323 51.0001,-78.9322"/>
</g>
<!-- 3329786574717919992 -->
<g id="node12" class="node"><title>3329786574717919992</title>
<ellipse fill="none" stroke="white" stroke-width="3" cx="181.5" cy="-26.6476" rx="26.7961" ry="26.7961"/>
<text text-anchor="middle" x="181.5" y="-22.9476" font-family="Times,serif" font-size="14.00" fill="#ffffff">ones</text>
</g>
<!-- 3329786574717919992&#45;&gt;1773734913430406930 -->
<g id="edge9" class="edge"><title>3329786574717919992&#45;&gt;1773734913430406930</title>
<path fill="none" stroke="white" stroke-width="3" d="M181.5,-53.3998C181.5,-61.4986 181.5,-70.4727 181.5,-78.6944"/>
<polygon fill="white" stroke="white" stroke-width="3" points="178,-78.9322 181.5,-88.9323 185,-78.9323 178,-78.9322"/>
</g>
<!-- 8233562414747938092 -->
<g id="node13" class="node"><title>8233562414747938092</title>
<polygon fill="none" stroke="white" stroke-width="3" points="247.5,-445.286 115.5,-445.286 115.5,-409.286 247.5,-409.286 247.5,-445.286"/>
<text text-anchor="middle" x="181.5" y="-423.586" font-family="Times,serif" font-size="14.00" fill="#ffffff">(&#39;sum&#45;aggregate&#45;#2&#39;,)</text>
</g>
<!-- &#45;7800964414829473550&#45;&gt;8233562414747938092 -->
<g id="edge10" class="edge"><title>&#45;7800964414829473550&#45;&gt;8233562414747938092</title>
<path fill="none" stroke="white" stroke-width="3" d="M181.5,-373.397C181.5,-381.447 181.5,-390.407 181.5,-398.629"/>
<polygon fill="white" stroke="white" stroke-width="3" points="178,-398.876 181.5,-408.876 185,-398.876 178,-398.876"/>
</g>
</g>
</svg>
