<?xml version="1.0" encoding="UTF-8" standalone="no"?>
<!DOCTYPE svg PUBLIC "-//W3C//DTD SVG 1.1//EN"
 "http://www.w3.org/Graphics/SVG/1.1/DTD/svg11.dtd">
<!-- Generated by graphviz version 2.40.1 (20161225.0304)
 -->
<!-- Title: %3 Pages: 1 -->
<svg width="206pt" height="527pt"
 viewBox="0.00 0.00 206.00 527.38" xmlns="http://www.w3.org/2000/svg" xmlns:xlink="http://www.w3.org/1999/xlink">
<g id="graph0" class="graph" transform="scale(1 1) rotate(0) translate(4 523.3795)">
<title>%3</title>
<polygon fill="transparent" stroke="transparent" points="-4,4 -4,-523.3795 202,-523.3795 202,4 -4,4"/>
<!-- &#45;8341693979926308507 -->
<g id="node1" class="node">
<title>&#45;8341693979926308507</title>
<polygon fill="none" stroke="#ffffff" stroke-width="3" points="198,-285.2907 144,-285.2907 144,-249.2907 198,-249.2907 198,-285.2907"/>
</g>
<!-- 4486338440330492075 -->
<g id="node14" class="node">
<title>4486338440330492075</title>
<ellipse fill="none" stroke="#ffffff" stroke-width="3" cx="99" cy="-384.3351" rx="63.0888" ry="63.0888"/>
<text text-anchor="middle" x="99" y="-380.6351" font-family="Times,serif" font-size="14.00" fill="#ffffff">sum&#45;aggregate</text>
</g>
<!-- &#45;8341693979926308507&#45;&gt;4486338440330492075 -->
<g id="edge13" class="edge">
<title>&#45;8341693979926308507&#45;&gt;4486338440330492075</title>
<path fill="none" stroke="#ffffff" stroke-width="3" d="M159.9078,-285.3223C153.7597,-295.3168 145.7106,-308.4016 137.4875,-321.7691"/>
<polygon fill="#ffffff" stroke="#ffffff" stroke-width="3" points="134.3354,-320.2133 132.0769,-330.5647 140.2976,-323.881 134.3354,-320.2133"/>
</g>
<!-- 2061641805199962316 -->
<g id="node2" class="node">
<title>2061641805199962316</title>
<ellipse fill="none" stroke="#ffffff" stroke-width="3" cx="171" cy="-187.293" rx="25.9954" ry="25.9954"/>
<text text-anchor="middle" x="171" y="-183.593" font-family="Times,serif" font-size="14.00" fill="#ffffff">sum</text>
</g>
<!-- 2061641805199962316&#45;&gt;&#45;8341693979926308507 -->
<g id="edge1" class="edge">
<title>2061641805199962316&#45;&gt;&#45;8341693979926308507</title>
<path fill="none" stroke="#ffffff" stroke-width="3" d="M171,-213.4872C171,-221.6894 171,-230.7743 171,-239.1076"/>
<polygon fill="#ffffff" stroke="#ffffff" stroke-width="3" points="167.5001,-239.1379 171,-249.1379 174.5001,-239.138 167.5001,-239.1379"/>
</g>
<!-- &#45;161063749712243312 -->
<g id="node3" class="node">
<title>&#45;161063749712243312</title>
<polygon fill="none" stroke="#ffffff" stroke-width="3" points="198,-125.2953 144,-125.2953 144,-89.2953 198,-89.2953 198,-125.2953"/>
</g>
<!-- &#45;161063749712243312&#45;&gt;2061641805199962316 -->
<g id="edge2" class="edge">
<title>&#45;161063749712243312&#45;&gt;2061641805199962316</title>
<path fill="none" stroke="#ffffff" stroke-width="3" d="M171,-125.448C171,-133.0025 171,-142.0567 171,-150.8767"/>
<polygon fill="#ffffff" stroke="#ffffff" stroke-width="3" points="167.5001,-151.0191 171,-161.0191 174.5001,-151.0191 167.5001,-151.0191"/>
</g>
<!-- &#45;8341693979925225982 -->
<g id="node4" class="node">
<title>&#45;8341693979925225982</title>
<polygon fill="none" stroke="#ffffff" stroke-width="3" points="54,-285.2907 0,-285.2907 0,-249.2907 54,-249.2907 54,-285.2907"/>
</g>
<!-- &#45;8341693979925225982&#45;&gt;4486338440330492075 -->
<g id="edge11" class="edge">
<title>&#45;8341693979925225982&#45;&gt;4486338440330492075</title>
<path fill="none" stroke="#ffffff" stroke-width="3" d="M38.0922,-285.3223C44.2403,-295.3168 52.2894,-308.4016 60.5125,-321.7691"/>
<polygon fill="#ffffff" stroke="#ffffff" stroke-width="3" points="57.7024,-323.881 65.9231,-330.5647 63.6646,-320.2133 57.7024,-323.881"/>
</g>
<!-- &#45;7064279888917504441 -->
<g id="node5" class="node">
<title>&#45;7064279888917504441</title>
<ellipse fill="none" stroke="#ffffff" stroke-width="3" cx="27" cy="-187.293" rx="25.9954" ry="25.9954"/>
<text text-anchor="middle" x="27" y="-183.593" font-family="Times,serif" font-size="14.00" fill="#ffffff">sum</text>
</g>
<!-- &#45;7064279888917504441&#45;&gt;&#45;8341693979925225982 -->
<g id="edge3" class="edge">
<title>&#45;7064279888917504441&#45;&gt;&#45;8341693979925225982</title>
<path fill="none" stroke="#ffffff" stroke-width="3" d="M27,-213.4872C27,-221.6894 27,-230.7743 27,-239.1076"/>
<polygon fill="#ffffff" stroke="#ffffff" stroke-width="3" points="23.5001,-239.1379 27,-249.1379 30.5001,-239.138 23.5001,-239.1379"/>
</g>
<!-- &#45;161063749713325837 -->
<g id="node6" class="node">
<title>&#45;161063749713325837</title>
<polygon fill="none" stroke="#ffffff" stroke-width="3" points="54,-125.2953 0,-125.2953 0,-89.2953 54,-89.2953 54,-125.2953"/>
</g>
<!-- &#45;161063749713325837&#45;&gt;&#45;7064279888917504441 -->
<g id="edge4" class="edge">
<title>&#45;161063749713325837&#45;&gt;&#45;7064279888917504441</title>
<path fill="none" stroke="#ffffff" stroke-width="3" d="M27,-125.448C27,-133.0025 27,-142.0567 27,-150.8767"/>
<polygon fill="#ffffff" stroke="#ffffff" stroke-width="3" points="23.5001,-151.0191 27,-161.0191 30.5001,-151.0191 23.5001,-151.0191"/>
</g>
<!-- &#45;8341693979928473557 -->
<g id="node7" class="node">
<title>&#45;8341693979928473557</title>
<polygon fill="none" stroke="#ffffff" stroke-width="3" points="126,-285.2907 72,-285.2907 72,-249.2907 126,-249.2907 126,-285.2907"/>
</g>
<!-- &#45;8341693979928473557&#45;&gt;4486338440330492075 -->
<g id="edge12" class="edge">
<title>&#45;8341693979928473557&#45;&gt;4486338440330492075</title>
<path fill="none" stroke="#ffffff" stroke-width="3" d="M99,-285.3223C99,-292.604 99,-301.5261 99,-311.0028"/>
<polygon fill="#ffffff" stroke="#ffffff" stroke-width="3" points="95.5001,-311.0337 99,-321.0337 102.5001,-311.0337 95.5001,-311.0337"/>
</g>
<!-- 1063919406544791834 -->
<g id="node8" class="node">
<title>1063919406544791834</title>
<ellipse fill="none" stroke="#ffffff" stroke-width="3" cx="99" cy="-187.293" rx="25.9954" ry="25.9954"/>
<text text-anchor="middle" x="99" y="-183.593" font-family="Times,serif" font-size="14.00" fill="#ffffff">sum</text>
</g>
<!-- 1063919406544791834&#45;&gt;&#45;8341693979928473557 -->
<g id="edge5" class="edge">
<title>1063919406544791834&#45;&gt;&#45;8341693979928473557</title>
<path fill="none" stroke="#ffffff" stroke-width="3" d="M99,-213.4872C99,-221.6894 99,-230.7743 99,-239.1076"/>
<polygon fill="#ffffff" stroke="#ffffff" stroke-width="3" points="95.5001,-239.1379 99,-249.1379 102.5001,-239.138 95.5001,-239.1379"/>
</g>
<!-- &#45;161063749710078262 -->
<g id="node9" class="node">
<title>&#45;161063749710078262</title>
<polygon fill="none" stroke="#ffffff" stroke-width="3" points="126,-125.2953 72,-125.2953 72,-89.2953 126,-89.2953 126,-125.2953"/>
</g>
<!-- &#45;161063749710078262&#45;&gt;1063919406544791834 -->
<g id="edge6" class="edge">
<title>&#45;161063749710078262&#45;&gt;1063919406544791834</title>
<path fill="none" stroke="#ffffff" stroke-width="3" d="M99,-125.448C99,-133.0025 99,-142.0567 99,-150.8767"/>
<polygon fill="#ffffff" stroke="#ffffff" stroke-width="3" points="95.5001,-151.0191 99,-161.0191 102.5001,-151.0191 95.5001,-151.0191"/>
</g>
<!-- &#45;8870902669034341251 -->
<g id="node10" class="node">
<title>&#45;8870902669034341251</title>
<ellipse fill="none" stroke="#ffffff" stroke-width="3" cx="171" cy="-26.6476" rx="26.7961" ry="26.7961"/>
<text text-anchor="middle" x="171" y="-22.9476" font-family="Times,serif" font-size="14.00" fill="#ffffff">ones</text>
</g>
<!-- &#45;8870902669034341251&#45;&gt;&#45;161063749712243312 -->
<g id="edge7" class="edge">
<title>&#45;8870902669034341251&#45;&gt;&#45;161063749712243312</title>
<path fill="none" stroke="#ffffff" stroke-width="3" d="M171,-53.5021C171,-61.7499 171,-70.8471 171,-79.1771"/>
<polygon fill="#ffffff" stroke="#ffffff" stroke-width="3" points="167.5001,-79.1963 171,-89.1964 174.5001,-79.1964 167.5001,-79.1963"/>
</g>
<!-- &#45;8737863957135182526 -->
<g id="node11" class="node">
<title>&#45;8737863957135182526</title>
<ellipse fill="none" stroke="#ffffff" stroke-width="3" cx="27" cy="-26.6476" rx="26.7961" ry="26.7961"/>
<text text-anchor="middle" x="27" y="-22.9476" font-family="Times,serif" font-size="14.00" fill="#ffffff">ones</text>
</g>
<!-- &#45;8737863957135182526&#45;&gt;&#45;161063749713325837 -->
<g id="edge8" class="edge">
<title>&#45;8737863957135182526&#45;&gt;&#45;161063749713325837</title>
<path fill="none" stroke="#ffffff" stroke-width="3" d="M27,-53.5021C27,-61.7499 27,-70.8471 27,-79.1771"/>
<polygon fill="#ffffff" stroke="#ffffff" stroke-width="3" points="23.5001,-79.1963 27,-89.1964 30.5001,-79.1964 23.5001,-79.1963"/>
</g>
<!-- 6267049466374381615 -->
<g id="node12" class="node">
<title>6267049466374381615</title>
<ellipse fill="none" stroke="#ffffff" stroke-width="3" cx="99" cy="-26.6476" rx="26.7961" ry="26.7961"/>
<text text-anchor="middle" x="99" y="-22.9476" font-family="Times,serif" font-size="14.00" fill="#ffffff">ones</text>
</g>
<!-- 6267049466374381615&#45;&gt;&#45;161063749710078262 -->
<g id="edge9" class="edge">
<title>6267049466374381615&#45;&gt;&#45;161063749710078262</title>
<path fill="none" stroke="#ffffff" stroke-width="3" d="M99,-53.5021C99,-61.7499 99,-70.8471 99,-79.1771"/>
<polygon fill="#ffffff" stroke="#ffffff" stroke-width="3" points="95.5001,-79.1963 99,-89.1964 102.5001,-79.1964 95.5001,-79.1963"/>
</g>
<!-- 2099879666786507342 -->
<g id="node13" class="node">
<title>2099879666786507342</title>
<polygon fill="none" stroke="#ffffff" stroke-width="3" points="126,-519.3795 72,-519.3795 72,-483.3795 126,-483.3795 126,-519.3795"/>
</g>
<!-- 4486338440330492075&#45;&gt;2099879666786507342 -->
<g id="edge10" class="edge">
<title>4486338440330492075&#45;&gt;2099879666786507342</title>
<path fill="none" stroke="#ffffff" stroke-width="3" d="M99,-447.6531C99,-456.4396 99,-465.081 99,-472.7778"/>
<polygon fill="#ffffff" stroke="#ffffff" stroke-width="3" points="95.5001,-472.9464 99,-482.9464 102.5001,-472.9464 95.5001,-472.9464"/>
</g>
</g>
</svg>
