<?xml version="1.0" encoding="UTF-8" standalone="no"?>
<!DOCTYPE svg PUBLIC "-//W3C//DTD SVG 1.1//EN"
 "http://www.w3.org/Graphics/SVG/1.1/DTD/svg11.dtd">
<!-- Generated by graphviz version 2.40.1 (20161225.0304)
 -->
<!-- Title: %3 Pages: 1 -->
<svg width="206pt" height="133pt"
 viewBox="0.00 0.00 206.00 133.30" xmlns="http://www.w3.org/2000/svg" xmlns:xlink="http://www.w3.org/1999/xlink">
<g id="graph0" class="graph" transform="scale(1 1) rotate(0) translate(4 129.2953)">
<title>%3</title>
<polygon fill="transparent" stroke="transparent" points="-4,4 -4,-129.2953 202,-129.2953 202,4 -4,4"/>
<!-- &#45;161063749712243312 -->
<g id="node1" class="node">
<title>&#45;161063749712243312</title>
<polygon fill="none" stroke="#ffffff" stroke-width="3" points="54,-125.2953 0,-125.2953 0,-89.2953 54,-89.2953 54,-125.2953"/>
</g>
<!-- &#45;8870902669034341251 -->
<g id="node2" class="node">
<title>&#45;8870902669034341251</title>
<ellipse fill="none" stroke="#ffffff" stroke-width="3" cx="27" cy="-26.6476" rx="26.7961" ry="26.7961"/>
<text text-anchor="middle" x="27" y="-22.9476" font-family="Times,serif" font-size="14.00" fill="#ffffff">ones</text>
</g>
<!-- &#45;8870902669034341251&#45;&gt;&#45;161063749712243312 -->
<g id="edge1" class="edge">
<title>&#45;8870902669034341251&#45;&gt;&#45;161063749712243312</title>
<path fill="none" stroke="#ffffff" stroke-width="3" d="M27,-53.5021C27,-61.7499 27,-70.8471 27,-79.1771"/>
<polygon fill="#ffffff" stroke="#ffffff" stroke-width="3" points="23.5001,-79.1963 27,-89.1964 30.5001,-79.1964 23.5001,-79.1963"/>
</g>
<!-- &#45;161063749713325837 -->
<g id="node3" class="node">
<title>&#45;161063749713325837</title>
<polygon fill="none" stroke="#ffffff" stroke-width="3" points="126,-125.2953 72,-125.2953 72,-89.2953 126,-89.2953 126,-125.2953"/>
</g>
<!-- &#45;8737863957135182526 -->
<g id="node4" class="node">
<title>&#45;8737863957135182526</title>
<ellipse fill="none" stroke="#ffffff" stroke-width="3" cx="99" cy="-26.6476" rx="26.7961" ry="26.7961"/>
<text text-anchor="middle" x="99" y="-22.9476" font-family="Times,serif" font-size="14.00" fill="#ffffff">ones</text>
</g>
<!-- &#45;8737863957135182526&#45;&gt;&#45;161063749713325837 -->
<g id="edge2" class="edge">
<title>&#45;8737863957135182526&#45;&gt;&#45;161063749713325837</title>
<path fill="none" stroke="#ffffff" stroke-width="3" d="M99,-53.5021C99,-61.7499 99,-70.8471 99,-79.1771"/>
<polygon fill="#ffffff" stroke="#ffffff" stroke-width="3" points="95.5001,-79.1963 99,-89.1964 102.5001,-79.1964 95.5001,-79.1963"/>
</g>
<!-- &#45;161063749710078262 -->
<g id="node5" class="node">
<title>&#45;161063749710078262</title>
<polygon fill="none" stroke="#ffffff" stroke-width="3" points="198,-125.2953 144,-125.2953 144,-89.2953 198,-89.2953 198,-125.2953"/>
</g>
<!-- 6267049466374381615 -->
<g id="node6" class="node">
<title>6267049466374381615</title>
<ellipse fill="none" stroke="#ffffff" stroke-width="3" cx="171" cy="-26.6476" rx="26.7961" ry="26.7961"/>
<text text-anchor="middle" x="171" y="-22.9476" font-family="Times,serif" font-size="14.00" fill="#ffffff">ones</text>
</g>
<!-- 6267049466374381615&#45;&gt;&#45;161063749710078262 -->
<g id="edge3" class="edge">
<title>6267049466374381615&#45;&gt;&#45;161063749710078262</title>
<path fill="none" stroke="#ffffff" stroke-width="3" d="M171,-53.5021C171,-61.7499 171,-70.8471 171,-79.1771"/>
<polygon fill="#ffffff" stroke="#ffffff" stroke-width="3" points="167.5001,-79.1963 171,-89.1964 174.5001,-79.1964 167.5001,-79.1963"/>
</g>
</g>
</svg>
