<?xml version="1.0" encoding="UTF-8" standalone="no"?>
<!DOCTYPE svg PUBLIC "-//W3C//DTD SVG 1.1//EN"
 "http://www.w3.org/Graphics/SVG/1.1/DTD/svg11.dtd">
<!-- Generated by graphviz version 2.38.0 (20140413.2041)
 -->
<!-- Title: %3 Pages: 1 -->
<svg width="134pt" height="260pt"
 viewBox="0.00 0.00 134.00 260.00" xmlns="http://www.w3.org/2000/svg" xmlns:xlink="http://www.w3.org/1999/xlink">
<g id="graph0" class="graph" transform="scale(1 1) rotate(0) translate(4 256)">
<title>%3</title>
<polygon fill="none" stroke="none" points="-4,4 -4,-256 130,-256 130,4 -4,4"/>
<!-- x -->
<g id="node1" class="node"><title>x</title>
<polygon fill="none" stroke="white" points="54,-108 0,-108 0,-72 54,-72 54,-108"/>
<text text-anchor="middle" x="27" y="-86.3" font-family="Times,serif" font-size="14.00" fill="#ffffff">x</text>
</g>
<!-- g -->
<g id="node6" class="node"><title>g</title>
<ellipse fill="none" stroke="white" cx="27" cy="-162" rx="18" ry="18"/>
<text text-anchor="middle" x="27" y="-158.3" font-family="Times,serif" font-size="14.00" fill="#ffffff">g</text>
</g>
<!-- x&#45;&gt;g -->
<g id="edge2" class="edge"><title>x&#45;&gt;g</title>
<path fill="none" stroke="white" d="M27,-108.303C27,-116.017 27,-125.288 27,-133.888"/>
<polygon fill="white" stroke="white" points="23.5001,-133.896 27,-143.896 30.5001,-133.896 23.5001,-133.896"/>
</g>
<!-- y -->
<g id="node2" class="node"><title>y</title>
<polygon fill="none" stroke="white" points="126,-108 72,-108 72,-72 126,-72 126,-108"/>
<text text-anchor="middle" x="99" y="-86.3" font-family="Times,serif" font-size="14.00" fill="#ffffff">y</text>
</g>
<!-- z -->
<g id="node3" class="node"><title>z</title>
<polygon fill="none" stroke="white" points="54,-252 0,-252 0,-216 54,-216 54,-252"/>
<text text-anchor="middle" x="27" y="-230.3" font-family="Times,serif" font-size="14.00" fill="#ffffff">z</text>
</g>
<!-- f1 -->
<g id="node4" class="node"><title>f1</title>
<ellipse fill="none" stroke="white" cx="27" cy="-18" rx="18" ry="18"/>
<text text-anchor="middle" x="27" y="-14.3" font-family="Times,serif" font-size="14.00" fill="#ffffff">f</text>
</g>
<!-- f1&#45;&gt;x -->
<g id="edge1" class="edge"><title>f1&#45;&gt;x</title>
<path fill="none" stroke="white" d="M27,-36.3034C27,-44.0173 27,-53.2875 27,-61.8876"/>
<polygon fill="white" stroke="white" points="23.5001,-61.8956 27,-71.8957 30.5001,-61.8957 23.5001,-61.8956"/>
</g>
<!-- f2 -->
<g id="node5" class="node"><title>f2</title>
<ellipse fill="none" stroke="white" cx="99" cy="-18" rx="18" ry="18"/>
<text text-anchor="middle" x="99" y="-14.3" font-family="Times,serif" font-size="14.00" fill="#ffffff">f</text>
</g>
<!-- f2&#45;&gt;y -->
<g id="edge4" class="edge"><title>f2&#45;&gt;y</title>
<path fill="none" stroke="white" d="M99,-36.3034C99,-44.0173 99,-53.2875 99,-61.8876"/>
<polygon fill="white" stroke="white" points="95.5001,-61.8956 99,-71.8957 102.5,-61.8957 95.5001,-61.8956"/>
</g>
<!-- g&#45;&gt;z -->
<g id="edge3" class="edge"><title>g&#45;&gt;z</title>
<path fill="none" stroke="white" d="M27,-180.303C27,-188.017 27,-197.288 27,-205.888"/>
<polygon fill="white" stroke="white" points="23.5001,-205.896 27,-215.896 30.5001,-205.896 23.5001,-205.896"/>
</g>
</g>
</svg>
