<?xml version="1.0" encoding="UTF-8" standalone="no"?>
<!DOCTYPE svg PUBLIC "-//W3C//DTD SVG 1.1//EN"
 "http://www.w3.org/Graphics/SVG/1.1/DTD/svg11.dtd">
<!-- Generated by graphviz version 2.38.0 (20140413.2041)
 -->
<!-- Title: %3 Pages: 1 -->
<svg width="963pt" height="387pt"
 viewBox="0.00 0.00 962.50 386.88" xmlns="http://www.w3.org/2000/svg" xmlns:xlink="http://www.w3.org/1999/xlink">
<g id="graph0" class="graph" transform="scale(1 1) rotate(0) translate(4 382.882)">
<title>%3</title>
<polygon fill="none" stroke="none" points="-4,4 -4,-382.882 958.5,-382.882 958.5,4 -4,4"/>
<!-- &#45;5707788780915198655 -->
<g id="node1" class="node"><title>&#45;5707788780915198655</title>
<polygon fill="none" stroke="white" points="75,-378.882 7.10543e-15,-378.882 7.10543e-15,-342.882 75,-342.882 75,-378.882"/>
<text text-anchor="middle" x="37.5" y="-357.182" font-family="Times,serif" font-size="14.00" fill="#ffffff">process&#45;#0</text>
</g>
<!-- 5125476025040418077 -->
<g id="node2" class="node"><title>5125476025040418077</title>
<ellipse fill="none" stroke="white" cx="37.5" cy="-269.836" rx="37.0935" ry="37.0935"/>
<text text-anchor="middle" x="37.5" y="-266.136" font-family="Times,serif" font-size="14.00" fill="#ffffff">process</text>
</g>
<!-- 5125476025040418077&#45;&gt;&#45;5707788780915198655 -->
<g id="edge1" class="edge"><title>5125476025040418077&#45;&gt;&#45;5707788780915198655</title>
<path fill="none" stroke="white" d="M37.5,-307.054C37.5,-315.625 37.5,-324.622 37.5,-332.712"/>
<polygon fill="white" stroke="white" points="34.0001,-332.713 37.5,-342.713 41.0001,-332.713 34.0001,-332.713"/>
</g>
<!-- 154915682550125149 -->
<g id="node3" class="node"><title>154915682550125149</title>
<polygon fill="none" stroke="white" points="66.5,-196.789 8.5,-196.789 8.5,-160.789 66.5,-160.789 66.5,-196.789"/>
<text text-anchor="middle" x="37.5" y="-175.089" font-family="Times,serif" font-size="14.00" fill="#ffffff">load&#45;#1</text>
</g>
<!-- 154915682550125149&#45;&gt;5125476025040418077 -->
<g id="edge2" class="edge"><title>154915682550125149&#45;&gt;5125476025040418077</title>
<path fill="none" stroke="white" d="M37.5,-196.958C37.5,-204.302 37.5,-213.267 37.5,-222.341"/>
<polygon fill="white" stroke="white" points="34.0001,-222.553 37.5,-232.553 41.0001,-222.553 34.0001,-222.553"/>
</g>
<!-- 4356808130089702653 -->
<g id="node4" class="node"><title>4356808130089702653</title>
<polygon fill="none" stroke="white" points="523.5,-196.789 409.5,-196.789 409.5,-160.789 523.5,-160.789 523.5,-196.789"/>
<text text-anchor="middle" x="466.5" y="-175.089" font-family="Times,serif" font-size="14.00" fill="#ffffff">load_from_sql&#45;#2</text>
</g>
<!-- 4356808130089702653&#45;&gt;5125476025040418077 -->
<g id="edge3" class="edge"><title>4356808130089702653&#45;&gt;5125476025040418077</title>
<path fill="none" stroke="white" d="M409.23,-194.86C405.947,-195.556 402.687,-196.205 399.5,-196.789 260.894,-222.174 215.148,-179.995 84.5,-232.789 80.585,-234.371 76.7167,-236.373 72.9809,-238.619"/>
<polygon fill="white" stroke="white" points="70.9385,-235.774 64.5446,-244.222 74.8112,-241.605 70.9385,-235.774"/>
</g>
<!-- &#45;3725613262647318197 -->
<g id="node6" class="node"><title>&#45;3725613262647318197</title>
<ellipse fill="none" stroke="white" cx="130.5" cy="-269.836" rx="37.0935" ry="37.0935"/>
<text text-anchor="middle" x="130.5" y="-266.136" font-family="Times,serif" font-size="14.00" fill="#ffffff">process</text>
</g>
<!-- 4356808130089702653&#45;&gt;&#45;3725613262647318197 -->
<g id="edge5" class="edge"><title>4356808130089702653&#45;&gt;&#45;3725613262647318197</title>
<path fill="none" stroke="white" d="M409.195,-194.681C405.921,-195.422 402.673,-196.131 399.5,-196.789 301.63,-217.1 269.27,-193.174 177.5,-232.789 173.623,-234.462 169.781,-236.527 166.062,-238.813"/>
<polygon fill="white" stroke="white" points="163.993,-235.986 157.649,-244.471 167.9,-241.794 163.993,-235.986"/>
</g>
<!-- 3100207005645900154 -->
<g id="node9" class="node"><title>3100207005645900154</title>
<ellipse fill="none" stroke="white" cx="223.5" cy="-269.836" rx="37.0935" ry="37.0935"/>
<text text-anchor="middle" x="223.5" y="-266.136" font-family="Times,serif" font-size="14.00" fill="#ffffff">process</text>
</g>
<!-- 4356808130089702653&#45;&gt;3100207005645900154 -->
<g id="edge9" class="edge"><title>4356808130089702653&#45;&gt;3100207005645900154</title>
<path fill="none" stroke="white" d="M409.474,-194.632C353.925,-209.179 276.909,-229.62 270.5,-232.789 266.767,-234.635 263.038,-236.799 259.407,-239.134"/>
<polygon fill="white" stroke="white" points="257.398,-236.267 251.152,-244.825 261.372,-242.031 257.398,-236.267"/>
</g>
<!-- &#45;3732885326863520508 -->
<g id="node14" class="node"><title>&#45;3732885326863520508</title>
<ellipse fill="none" stroke="white" cx="316.5" cy="-269.836" rx="37.0935" ry="37.0935"/>
<text text-anchor="middle" x="316.5" y="-266.136" font-family="Times,serif" font-size="14.00" fill="#ffffff">process</text>
</g>
<!-- 4356808130089702653&#45;&gt;&#45;3732885326863520508 -->
<g id="edge13" class="edge"><title>4356808130089702653&#45;&gt;&#45;3732885326863520508</title>
<path fill="none" stroke="white" d="M432.007,-196.922C412.707,-206.837 388.398,-219.878 367.5,-232.789 363.172,-235.463 358.717,-238.368 354.327,-241.329"/>
<polygon fill="white" stroke="white" points="352.271,-238.495 346.016,-247.046 356.239,-244.262 352.271,-238.495"/>
</g>
<!-- 223902034369400982 -->
<g id="node17" class="node"><title>223902034369400982</title>
<ellipse fill="none" stroke="white" cx="413.5" cy="-269.836" rx="37.0935" ry="37.0935"/>
<text text-anchor="middle" x="413.5" y="-266.136" font-family="Times,serif" font-size="14.00" fill="#ffffff">process</text>
</g>
<!-- 4356808130089702653&#45;&gt;223902034369400982 -->
<g id="edge15" class="edge"><title>4356808130089702653&#45;&gt;223902034369400982</title>
<path fill="none" stroke="white" d="M456.281,-196.958C450.869,-206.05 443.979,-217.627 437.317,-228.821"/>
<polygon fill="white" stroke="white" points="434.162,-227.277 432.055,-237.66 440.178,-230.857 434.162,-227.277"/>
</g>
<!-- 1435607200138629779 -->
<g id="node20" class="node"><title>1435607200138629779</title>
<ellipse fill="none" stroke="white" cx="513.5" cy="-269.836" rx="37.0935" ry="37.0935"/>
<text text-anchor="middle" x="513.5" y="-266.136" font-family="Times,serif" font-size="14.00" fill="#ffffff">process</text>
</g>
<!-- 4356808130089702653&#45;&gt;1435607200138629779 -->
<g id="edge18" class="edge"><title>4356808130089702653&#45;&gt;1435607200138629779</title>
<path fill="none" stroke="white" d="M475.562,-196.958C480.189,-205.723 486.034,-216.798 491.742,-227.612"/>
<polygon fill="white" stroke="white" points="488.711,-229.368 496.474,-236.578 494.901,-226.1 488.711,-229.368"/>
</g>
<!-- 8327512840823460446 -->
<g id="node28" class="node"><title>8327512840823460446</title>
<ellipse fill="none" stroke="white" cx="613.5" cy="-269.836" rx="37.0935" ry="37.0935"/>
<text text-anchor="middle" x="613.5" y="-266.136" font-family="Times,serif" font-size="14.00" fill="#ffffff">process</text>
</g>
<!-- 4356808130089702653&#45;&gt;8327512840823460446 -->
<g id="edge25" class="edge"><title>4356808130089702653&#45;&gt;8327512840823460446</title>
<path fill="none" stroke="white" d="M497.821,-196.914C516.012,-207.039 539.262,-220.289 559.5,-232.789 564.476,-235.863 569.654,-239.171 574.747,-242.493"/>
<polygon fill="white" stroke="white" points="572.912,-245.476 583.187,-248.058 576.765,-239.631 572.912,-245.476"/>
</g>
<!-- 8466967321539346485 -->
<g id="node34" class="node"><title>8466967321539346485</title>
<ellipse fill="none" stroke="white" cx="713.5" cy="-269.836" rx="37.0935" ry="37.0935"/>
<text text-anchor="middle" x="713.5" y="-266.136" font-family="Times,serif" font-size="14.00" fill="#ffffff">process</text>
</g>
<!-- 4356808130089702653&#45;&gt;8466967321539346485 -->
<g id="edge32" class="edge"><title>4356808130089702653&#45;&gt;8466967321539346485</title>
<path fill="none" stroke="white" d="M523.711,-194.508C575.976,-208.116 646.975,-227.07 659.5,-232.789 664.886,-235.248 670.336,-238.216 675.596,-241.38"/>
<polygon fill="white" stroke="white" points="673.902,-244.45 684.225,-246.835 677.643,-238.533 673.902,-244.45"/>
</g>
<!-- 6798525554454821304 -->
<g id="node36" class="node"><title>6798525554454821304</title>
<ellipse fill="none" stroke="white" cx="813.5" cy="-269.836" rx="37.0935" ry="37.0935"/>
<text text-anchor="middle" x="813.5" y="-266.136" font-family="Times,serif" font-size="14.00" fill="#ffffff">process</text>
</g>
<!-- 4356808130089702653&#45;&gt;6798525554454821304 -->
<g id="edge34" class="edge"><title>4356808130089702653&#45;&gt;6798525554454821304</title>
<path fill="none" stroke="white" d="M523.66,-194.866C526.644,-195.542 529.604,-196.188 532.5,-196.789 632.517,-217.552 664.372,-195.57 759.5,-232.789 765.081,-234.973 770.674,-237.804 776.032,-240.921"/>
<polygon fill="white" stroke="white" points="774.446,-244.056 784.785,-246.37 778.145,-238.113 774.446,-244.056"/>
</g>
<!-- 3354314299463647989 -->
<g id="node39" class="node"><title>3354314299463647989</title>
<ellipse fill="none" stroke="white" cx="909.5" cy="-269.836" rx="37.0935" ry="37.0935"/>
<text text-anchor="middle" x="909.5" y="-266.136" font-family="Times,serif" font-size="14.00" fill="#ffffff">process</text>
</g>
<!-- 4356808130089702653&#45;&gt;3354314299463647989 -->
<g id="edge38" class="edge"><title>4356808130089702653&#45;&gt;3354314299463647989</title>
<path fill="none" stroke="white" d="M523.627,-195.034C526.619,-195.666 529.59,-196.257 532.5,-196.789 676.326,-223.091 723.033,-180.306 859.5,-232.789 864.066,-234.545 868.596,-236.824 872.958,-239.382"/>
<polygon fill="white" stroke="white" points="871.323,-242.492 881.63,-244.949 875.105,-236.601 871.323,-242.492"/>
</g>
<!-- &#45;4028867747634640829 -->
<g id="node5" class="node"><title>&#45;4028867747634640829</title>
<polygon fill="none" stroke="white" points="168,-378.882 93,-378.882 93,-342.882 168,-342.882 168,-378.882"/>
<text text-anchor="middle" x="130.5" y="-357.182" font-family="Times,serif" font-size="14.00" fill="#ffffff">process&#45;#3</text>
</g>
<!-- &#45;3725613262647318197&#45;&gt;&#45;4028867747634640829 -->
<g id="edge4" class="edge"><title>&#45;3725613262647318197&#45;&gt;&#45;4028867747634640829</title>
<path fill="none" stroke="white" d="M130.5,-307.054C130.5,-315.625 130.5,-324.622 130.5,-332.712"/>
<polygon fill="white" stroke="white" points="127,-332.713 130.5,-342.713 134,-332.713 127,-332.713"/>
</g>
<!-- 3566211049487213918 -->
<g id="node7" class="node"><title>3566211049487213918</title>
<polygon fill="none" stroke="white" points="155.5,-196.789 97.5,-196.789 97.5,-160.789 155.5,-160.789 155.5,-196.789"/>
<text text-anchor="middle" x="126.5" y="-175.089" font-family="Times,serif" font-size="14.00" fill="#ffffff">load&#45;#4</text>
</g>
<!-- 3566211049487213918&#45;&gt;&#45;3725613262647318197 -->
<g id="edge6" class="edge"><title>3566211049487213918&#45;&gt;&#45;3725613262647318197</title>
<path fill="none" stroke="white" d="M127.271,-196.958C127.601,-204.302 128.004,-213.267 128.411,-222.341"/>
<polygon fill="white" stroke="white" points="124.925,-222.72 128.87,-232.553 131.918,-222.406 124.925,-222.72"/>
</g>
<!-- &#45;3899275855780377354 -->
<g id="node8" class="node"><title>&#45;3899275855780377354</title>
<polygon fill="none" stroke="white" points="261,-378.882 186,-378.882 186,-342.882 261,-342.882 261,-378.882"/>
<text text-anchor="middle" x="223.5" y="-357.182" font-family="Times,serif" font-size="14.00" fill="#ffffff">process&#45;#5</text>
</g>
<!-- 3100207005645900154&#45;&gt;&#45;3899275855780377354 -->
<g id="edge7" class="edge"><title>3100207005645900154&#45;&gt;&#45;3899275855780377354</title>
<path fill="none" stroke="white" d="M223.5,-307.054C223.5,-315.625 223.5,-324.622 223.5,-332.712"/>
<polygon fill="white" stroke="white" points="220,-332.713 223.5,-342.713 227,-332.713 220,-332.713"/>
</g>
<!-- &#45;5406964700558448652 -->
<g id="node10" class="node"><title>&#45;5406964700558448652</title>
<polygon fill="none" stroke="white" points="231.5,-196.789 173.5,-196.789 173.5,-160.789 231.5,-160.789 231.5,-196.789"/>
<text text-anchor="middle" x="202.5" y="-175.089" font-family="Times,serif" font-size="14.00" fill="#ffffff">load&#45;#6</text>
</g>
<!-- &#45;5406964700558448652&#45;&gt;3100207005645900154 -->
<g id="edge8" class="edge"><title>&#45;5406964700558448652&#45;&gt;3100207005645900154</title>
<path fill="none" stroke="white" d="M206.549,-196.958C208.371,-204.685 210.617,-214.207 212.87,-223.762"/>
<polygon fill="white" stroke="white" points="209.502,-224.728 215.204,-233.658 216.315,-223.122 209.502,-224.728"/>
</g>
<!-- &#45;4797212972871638104 -->
<g id="node11" class="node"><title>&#45;4797212972871638104</title>
<polygon fill="none" stroke="white" points="766.5,-196.789 708.5,-196.789 708.5,-160.789 766.5,-160.789 766.5,-196.789"/>
<text text-anchor="middle" x="737.5" y="-175.089" font-family="Times,serif" font-size="14.00" fill="#ffffff">load&#45;#7</text>
</g>
<!-- &#45;4797212972871638104&#45;&gt;8466967321539346485 -->
<g id="edge31" class="edge"><title>&#45;4797212972871638104&#45;&gt;8466967321539346485</title>
<path fill="none" stroke="white" d="M732.873,-196.958C730.79,-204.685 728.224,-214.207 725.648,-223.762"/>
<polygon fill="white" stroke="white" points="722.204,-223.092 722.981,-233.658 728.963,-224.913 722.204,-223.092"/>
</g>
<!-- 6841945076518957032 -->
<g id="node12" class="node"><title>6841945076518957032</title>
<ellipse fill="none" stroke="white" cx="737.5" cy="-62.3945" rx="25.9954" ry="25.9954"/>
<text text-anchor="middle" x="737.5" y="-58.6945" font-family="Times,serif" font-size="14.00" fill="#ffffff">load</text>
</g>
<!-- 6841945076518957032&#45;&gt;&#45;4797212972871638104 -->
<g id="edge10" class="edge"><title>6841945076518957032&#45;&gt;&#45;4797212972871638104</title>
<path fill="none" stroke="white" d="M737.5,-88.4988C737.5,-106.837 737.5,-131.683 737.5,-150.51"/>
<polygon fill="white" stroke="white" points="734,-150.537 737.5,-160.537 741,-150.537 734,-150.537"/>
</g>
<!-- 3017001079435879660 -->
<g id="node13" class="node"><title>3017001079435879660</title>
<polygon fill="none" stroke="white" points="354,-378.882 279,-378.882 279,-342.882 354,-342.882 354,-378.882"/>
<text text-anchor="middle" x="316.5" y="-357.182" font-family="Times,serif" font-size="14.00" fill="#ffffff">process&#45;#8</text>
</g>
<!-- &#45;3732885326863520508&#45;&gt;3017001079435879660 -->
<g id="edge11" class="edge"><title>&#45;3732885326863520508&#45;&gt;3017001079435879660</title>
<path fill="none" stroke="white" d="M316.5,-307.054C316.5,-315.625 316.5,-324.622 316.5,-332.712"/>
<polygon fill="white" stroke="white" points="313,-332.713 316.5,-342.713 320,-332.713 313,-332.713"/>
</g>
<!-- 5371209919592357490 -->
<g id="node15" class="node"><title>5371209919592357490</title>
<polygon fill="none" stroke="white" points="307.5,-196.789 249.5,-196.789 249.5,-160.789 307.5,-160.789 307.5,-196.789"/>
<text text-anchor="middle" x="278.5" y="-175.089" font-family="Times,serif" font-size="14.00" fill="#ffffff">load&#45;#9</text>
</g>
<!-- 5371209919592357490&#45;&gt;&#45;3732885326863520508 -->
<g id="edge12" class="edge"><title>5371209919592357490&#45;&gt;&#45;3732885326863520508</title>
<path fill="none" stroke="white" d="M285.827,-196.958C289.393,-205.316 293.856,-215.773 298.264,-226.102"/>
<polygon fill="white" stroke="white" points="295.125,-227.664 302.269,-235.488 301.563,-224.917 295.125,-227.664"/>
</g>
<!-- 3714961303337142058 -->
<g id="node16" class="node"><title>3714961303337142058</title>
<polygon fill="none" stroke="white" points="454.5,-378.882 372.5,-378.882 372.5,-342.882 454.5,-342.882 454.5,-378.882"/>
<text text-anchor="middle" x="413.5" y="-357.182" font-family="Times,serif" font-size="14.00" fill="#ffffff">process&#45;#10</text>
</g>
<!-- 223902034369400982&#45;&gt;3714961303337142058 -->
<g id="edge14" class="edge"><title>223902034369400982&#45;&gt;3714961303337142058</title>
<path fill="none" stroke="white" d="M413.5,-307.054C413.5,-315.625 413.5,-324.622 413.5,-332.712"/>
<polygon fill="white" stroke="white" points="410,-332.713 413.5,-342.713 417,-332.713 410,-332.713"/>
</g>
<!-- 4024811116954015566 -->
<g id="node18" class="node"><title>4024811116954015566</title>
<polygon fill="none" stroke="white" points="391,-196.789 326,-196.789 326,-160.789 391,-160.789 391,-196.789"/>
<text text-anchor="middle" x="358.5" y="-175.089" font-family="Times,serif" font-size="14.00" fill="#ffffff">load&#45;#11</text>
</g>
<!-- 4024811116954015566&#45;&gt;223902034369400982 -->
<g id="edge16" class="edge"><title>4024811116954015566&#45;&gt;223902034369400982</title>
<path fill="none" stroke="white" d="M369.105,-196.958C374.826,-206.221 382.14,-218.063 389.173,-229.45"/>
<polygon fill="white" stroke="white" points="386.233,-231.351 394.466,-238.019 392.189,-227.672 386.233,-231.351"/>
</g>
<!-- 7812594569105457291 -->
<g id="node19" class="node"><title>7812594569105457291</title>
<polygon fill="none" stroke="white" points="554.5,-378.882 472.5,-378.882 472.5,-342.882 554.5,-342.882 554.5,-378.882"/>
<text text-anchor="middle" x="513.5" y="-357.182" font-family="Times,serif" font-size="14.00" fill="#ffffff">process&#45;#12</text>
</g>
<!-- 1435607200138629779&#45;&gt;7812594569105457291 -->
<g id="edge17" class="edge"><title>1435607200138629779&#45;&gt;7812594569105457291</title>
<path fill="none" stroke="white" d="M513.5,-307.054C513.5,-315.625 513.5,-324.622 513.5,-332.712"/>
<polygon fill="white" stroke="white" points="510,-332.713 513.5,-342.713 517,-332.713 510,-332.713"/>
</g>
<!-- &#45;3767874708811007249 -->
<g id="node21" class="node"><title>&#45;3767874708811007249</title>
<polygon fill="none" stroke="white" points="607,-196.789 542,-196.789 542,-160.789 607,-160.789 607,-196.789"/>
<text text-anchor="middle" x="574.5" y="-175.089" font-family="Times,serif" font-size="14.00" fill="#ffffff">load&#45;#13</text>
</g>
<!-- &#45;3767874708811007249&#45;&gt;1435607200138629779 -->
<g id="edge19" class="edge"><title>&#45;3767874708811007249&#45;&gt;1435607200138629779</title>
<path fill="none" stroke="white" d="M562.739,-196.958C556.22,-206.474 547.836,-218.713 539.841,-230.384"/>
<polygon fill="white" stroke="white" points="536.884,-228.507 534.12,-238.735 542.659,-232.463 536.884,-228.507"/>
</g>
<!-- 9185467824943410284 -->
<g id="node22" class="node"><title>9185467824943410284</title>
<polygon fill="none" stroke="white" points="942,-196.789 877,-196.789 877,-160.789 942,-160.789 942,-196.789"/>
<text text-anchor="middle" x="909.5" y="-175.089" font-family="Times,serif" font-size="14.00" fill="#ffffff">load&#45;#14</text>
</g>
<!-- 9185467824943410284&#45;&gt;3354314299463647989 -->
<g id="edge37" class="edge"><title>9185467824943410284&#45;&gt;3354314299463647989</title>
<path fill="none" stroke="white" d="M909.5,-196.958C909.5,-204.302 909.5,-213.267 909.5,-222.341"/>
<polygon fill="white" stroke="white" points="906,-222.553 909.5,-232.553 913,-222.553 906,-222.553"/>
</g>
<!-- &#45;510487755501021052 -->
<g id="node23" class="node"><title>&#45;510487755501021052</title>
<ellipse fill="none" stroke="white" cx="909.5" cy="-62.3945" rx="25.9954" ry="25.9954"/>
<text text-anchor="middle" x="909.5" y="-58.6945" font-family="Times,serif" font-size="14.00" fill="#ffffff">load</text>
</g>
<!-- &#45;510487755501021052&#45;&gt;9185467824943410284 -->
<g id="edge20" class="edge"><title>&#45;510487755501021052&#45;&gt;9185467824943410284</title>
<path fill="none" stroke="white" d="M909.5,-88.4988C909.5,-106.837 909.5,-131.683 909.5,-150.51"/>
<polygon fill="white" stroke="white" points="906,-150.537 909.5,-160.537 913,-150.537 906,-150.537"/>
</g>
<!-- 4175777131868055518 -->
<g id="node24" class="node"><title>4175777131868055518</title>
<ellipse fill="none" stroke="white" cx="278.5" cy="-62.3945" rx="25.9954" ry="25.9954"/>
<text text-anchor="middle" x="278.5" y="-58.6945" font-family="Times,serif" font-size="14.00" fill="#ffffff">load</text>
</g>
<!-- 4175777131868055518&#45;&gt;5371209919592357490 -->
<g id="edge21" class="edge"><title>4175777131868055518&#45;&gt;5371209919592357490</title>
<path fill="none" stroke="white" d="M278.5,-88.4988C278.5,-106.837 278.5,-131.683 278.5,-150.51"/>
<polygon fill="white" stroke="white" points="275,-150.537 278.5,-160.537 282,-150.537 275,-150.537"/>
</g>
<!-- 375508773891763858 -->
<g id="node25" class="node"><title>375508773891763858</title>
<ellipse fill="none" stroke="white" cx="358.5" cy="-62.3945" rx="25.9954" ry="25.9954"/>
<text text-anchor="middle" x="358.5" y="-58.6945" font-family="Times,serif" font-size="14.00" fill="#ffffff">load</text>
</g>
<!-- 375508773891763858&#45;&gt;4024811116954015566 -->
<g id="edge22" class="edge"><title>375508773891763858&#45;&gt;4024811116954015566</title>
<path fill="none" stroke="white" d="M358.5,-88.4988C358.5,-106.837 358.5,-131.683 358.5,-150.51"/>
<polygon fill="white" stroke="white" points="355,-150.537 358.5,-160.537 362,-150.537 355,-150.537"/>
</g>
<!-- &#45;6586628831604300721 -->
<g id="node26" class="node"><title>&#45;6586628831604300721</title>
<ellipse fill="none" stroke="white" cx="574.5" cy="-62.3945" rx="25.9954" ry="25.9954"/>
<text text-anchor="middle" x="574.5" y="-58.6945" font-family="Times,serif" font-size="14.00" fill="#ffffff">load</text>
</g>
<!-- &#45;6586628831604300721&#45;&gt;&#45;3767874708811007249 -->
<g id="edge23" class="edge"><title>&#45;6586628831604300721&#45;&gt;&#45;3767874708811007249</title>
<path fill="none" stroke="white" d="M574.5,-88.4988C574.5,-106.837 574.5,-131.683 574.5,-150.51"/>
<polygon fill="white" stroke="white" points="571,-150.537 574.5,-160.537 578,-150.537 571,-150.537"/>
</g>
<!-- 3696707800515043570 -->
<g id="node27" class="node"><title>3696707800515043570</title>
<polygon fill="none" stroke="white" points="654.5,-378.882 572.5,-378.882 572.5,-342.882 654.5,-342.882 654.5,-378.882"/>
<text text-anchor="middle" x="613.5" y="-357.182" font-family="Times,serif" font-size="14.00" fill="#ffffff">process&#45;#15</text>
</g>
<!-- 8327512840823460446&#45;&gt;3696707800515043570 -->
<g id="edge24" class="edge"><title>8327512840823460446&#45;&gt;3696707800515043570</title>
<path fill="none" stroke="white" d="M613.5,-307.054C613.5,-315.625 613.5,-324.622 613.5,-332.712"/>
<polygon fill="white" stroke="white" points="610,-332.713 613.5,-342.713 617,-332.713 610,-332.713"/>
</g>
<!-- &#45;9024481686164246474 -->
<g id="node29" class="node"><title>&#45;9024481686164246474</title>
<polygon fill="none" stroke="white" points="690,-196.789 625,-196.789 625,-160.789 690,-160.789 690,-196.789"/>
<text text-anchor="middle" x="657.5" y="-175.089" font-family="Times,serif" font-size="14.00" fill="#ffffff">load&#45;#16</text>
</g>
<!-- &#45;9024481686164246474&#45;&gt;8327512840823460446 -->
<g id="edge26" class="edge"><title>&#45;9024481686164246474&#45;&gt;8327512840823460446</title>
<path fill="none" stroke="white" d="M649.016,-196.958C644.767,-205.558 639.42,-216.38 634.173,-226.998"/>
<polygon fill="white" stroke="white" points="630.911,-225.699 629.619,-236.215 637.186,-228.8 630.911,-225.699"/>
</g>
<!-- &#45;7354284458164707508 -->
<g id="node30" class="node"><title>&#45;7354284458164707508</title>
<ellipse fill="none" stroke="white" cx="202.5" cy="-62.3945" rx="25.9954" ry="25.9954"/>
<text text-anchor="middle" x="202.5" y="-58.6945" font-family="Times,serif" font-size="14.00" fill="#ffffff">load</text>
</g>
<!-- &#45;7354284458164707508&#45;&gt;&#45;5406964700558448652 -->
<g id="edge27" class="edge"><title>&#45;7354284458164707508&#45;&gt;&#45;5406964700558448652</title>
<path fill="none" stroke="white" d="M202.5,-88.4988C202.5,-106.837 202.5,-131.683 202.5,-150.51"/>
<polygon fill="white" stroke="white" points="199,-150.537 202.5,-160.537 206,-150.537 199,-150.537"/>
</g>
<!-- 4453475727943710114 -->
<g id="node31" class="node"><title>4453475727943710114</title>
<ellipse fill="none" stroke="white" cx="126.5" cy="-62.3945" rx="25.9954" ry="25.9954"/>
<text text-anchor="middle" x="126.5" y="-58.6945" font-family="Times,serif" font-size="14.00" fill="#ffffff">load</text>
</g>
<!-- 4453475727943710114&#45;&gt;3566211049487213918 -->
<g id="edge28" class="edge"><title>4453475727943710114&#45;&gt;3566211049487213918</title>
<path fill="none" stroke="white" d="M126.5,-88.4988C126.5,-106.837 126.5,-131.683 126.5,-150.51"/>
<polygon fill="white" stroke="white" points="123,-150.537 126.5,-160.537 130,-150.537 123,-150.537"/>
</g>
<!-- &#45;1233938754015587526 -->
<g id="node32" class="node"><title>&#45;1233938754015587526</title>
<ellipse fill="none" stroke="white" cx="657.5" cy="-62.3945" rx="25.9954" ry="25.9954"/>
<text text-anchor="middle" x="657.5" y="-58.6945" font-family="Times,serif" font-size="14.00" fill="#ffffff">load</text>
</g>
<!-- &#45;1233938754015587526&#45;&gt;&#45;9024481686164246474 -->
<g id="edge29" class="edge"><title>&#45;1233938754015587526&#45;&gt;&#45;9024481686164246474</title>
<path fill="none" stroke="white" d="M657.5,-88.4988C657.5,-106.837 657.5,-131.683 657.5,-150.51"/>
<polygon fill="white" stroke="white" points="654,-150.537 657.5,-160.537 661,-150.537 654,-150.537"/>
</g>
<!-- 905301352536369561 -->
<g id="node33" class="node"><title>905301352536369561</title>
<polygon fill="none" stroke="white" points="754.5,-378.882 672.5,-378.882 672.5,-342.882 754.5,-342.882 754.5,-378.882"/>
<text text-anchor="middle" x="713.5" y="-357.182" font-family="Times,serif" font-size="14.00" fill="#ffffff">process&#45;#17</text>
</g>
<!-- 8466967321539346485&#45;&gt;905301352536369561 -->
<g id="edge30" class="edge"><title>8466967321539346485&#45;&gt;905301352536369561</title>
<path fill="none" stroke="white" d="M713.5,-307.054C713.5,-315.625 713.5,-324.622 713.5,-332.712"/>
<polygon fill="white" stroke="white" points="710,-332.713 713.5,-342.713 717,-332.713 710,-332.713"/>
</g>
<!-- 3986118026635663288 -->
<g id="node35" class="node"><title>3986118026635663288</title>
<polygon fill="none" stroke="white" points="854.5,-378.882 772.5,-378.882 772.5,-342.882 854.5,-342.882 854.5,-378.882"/>
<text text-anchor="middle" x="813.5" y="-357.182" font-family="Times,serif" font-size="14.00" fill="#ffffff">process&#45;#18</text>
</g>
<!-- 6798525554454821304&#45;&gt;3986118026635663288 -->
<g id="edge33" class="edge"><title>6798525554454821304&#45;&gt;3986118026635663288</title>
<path fill="none" stroke="white" d="M813.5,-307.054C813.5,-315.625 813.5,-324.622 813.5,-332.712"/>
<polygon fill="white" stroke="white" points="810,-332.713 813.5,-342.713 817,-332.713 810,-332.713"/>
</g>
<!-- 2334339082383236766 -->
<g id="node37" class="node"><title>2334339082383236766</title>
<polygon fill="none" stroke="white" points="850,-196.789 785,-196.789 785,-160.789 850,-160.789 850,-196.789"/>
<text text-anchor="middle" x="817.5" y="-175.089" font-family="Times,serif" font-size="14.00" fill="#ffffff">load&#45;#19</text>
</g>
<!-- 2334339082383236766&#45;&gt;6798525554454821304 -->
<g id="edge35" class="edge"><title>2334339082383236766&#45;&gt;6798525554454821304</title>
<path fill="none" stroke="white" d="M816.729,-196.958C816.399,-204.302 815.996,-213.267 815.589,-222.341"/>
<polygon fill="white" stroke="white" points="812.082,-222.406 815.13,-232.553 819.075,-222.72 812.082,-222.406"/>
</g>
<!-- &#45;3937231054247468327 -->
<g id="node38" class="node"><title>&#45;3937231054247468327</title>
<polygon fill="none" stroke="white" points="954.5,-378.882 872.5,-378.882 872.5,-342.882 954.5,-342.882 954.5,-378.882"/>
<text text-anchor="middle" x="913.5" y="-357.182" font-family="Times,serif" font-size="14.00" fill="#ffffff">process&#45;#20</text>
</g>
<!-- 3354314299463647989&#45;&gt;&#45;3937231054247468327 -->
<g id="edge36" class="edge"><title>3354314299463647989&#45;&gt;&#45;3937231054247468327</title>
<path fill="none" stroke="white" d="M911.127,-307.054C911.512,-315.625 911.916,-324.622 912.279,-332.712"/>
<polygon fill="white" stroke="white" points="908.783,-332.88 912.729,-342.713 915.776,-332.566 908.783,-332.88"/>
</g>
<!-- &#45;3554978206181001007 -->
<g id="node40" class="node"><title>&#45;3554978206181001007</title>
<ellipse fill="none" stroke="white" cx="37.5" cy="-62.3945" rx="25.9954" ry="25.9954"/>
<text text-anchor="middle" x="37.5" y="-58.6945" font-family="Times,serif" font-size="14.00" fill="#ffffff">load</text>
</g>
<!-- &#45;3554978206181001007&#45;&gt;154915682550125149 -->
<g id="edge39" class="edge"><title>&#45;3554978206181001007&#45;&gt;154915682550125149</title>
<path fill="none" stroke="white" d="M37.5,-88.4988C37.5,-106.837 37.5,-131.683 37.5,-150.51"/>
<polygon fill="white" stroke="white" points="34.0001,-150.537 37.5,-160.537 41.0001,-150.537 34.0001,-150.537"/>
</g>
<!-- 726602608798193201 -->
<g id="node41" class="node"><title>726602608798193201</title>
<ellipse fill="none" stroke="white" cx="466.5" cy="-62.3945" rx="62.2891" ry="62.2891"/>
<text text-anchor="middle" x="466.5" y="-58.6945" font-family="Times,serif" font-size="14.00" fill="#ffffff">load_from_sql</text>
</g>
<!-- 726602608798193201&#45;&gt;4356808130089702653 -->
<g id="edge40" class="edge"><title>726602608798193201&#45;&gt;4356808130089702653</title>
<path fill="none" stroke="white" d="M466.5,-124.945C466.5,-133.859 466.5,-142.631 466.5,-150.389"/>
<polygon fill="white" stroke="white" points="463,-150.589 466.5,-160.589 470,-150.589 463,-150.589"/>
</g>
<!-- &#45;4732772106144130718 -->
<g id="node42" class="node"><title>&#45;4732772106144130718</title>
<ellipse fill="none" stroke="white" cx="817.5" cy="-62.3945" rx="25.9954" ry="25.9954"/>
<text text-anchor="middle" x="817.5" y="-58.6945" font-family="Times,serif" font-size="14.00" fill="#ffffff">load</text>
</g>
<!-- &#45;4732772106144130718&#45;&gt;2334339082383236766 -->
<g id="edge41" class="edge"><title>&#45;4732772106144130718&#45;&gt;2334339082383236766</title>
<path fill="none" stroke="white" d="M817.5,-88.4988C817.5,-106.837 817.5,-131.683 817.5,-150.51"/>
<polygon fill="white" stroke="white" points="814,-150.537 817.5,-160.537 821,-150.537 814,-150.537"/>
</g>
</g>
</svg>
