<?xml version="1.0" encoding="UTF-8" standalone="no"?>
<!DOCTYPE svg PUBLIC "-//W3C//DTD SVG 1.1//EN"
 "http://www.w3.org/Graphics/SVG/1.1/DTD/svg11.dtd">
<!-- Generated by graphviz version 2.38.0 (20140413.2041)
 -->
<!-- Title: %3 Pages: 1 -->
<svg width="957pt" height="540pt"
 viewBox="0.00 0.00 956.50 540.38" xmlns="http://www.w3.org/2000/svg" xmlns:xlink="http://www.w3.org/1999/xlink">
<g id="graph0" class="graph" transform="scale(1 1) rotate(0) translate(4 536.378)">
<title>%3</title>
<polygon fill="none" stroke="none" points="-4,4 -4,-536.378 952.5,-536.378 952.5,4 -4,4"/>
<!-- &#45;5707788780915198655 -->
<g id="node1" class="node"><title>&#45;5707788780915198655</title>
<polygon fill="none" stroke="white" points="261,-378.882 186,-378.882 186,-342.882 261,-342.882 261,-378.882"/>
<text text-anchor="middle" x="223.5" y="-357.182" font-family="Times,serif" font-size="14.00" fill="#ffffff">process&#45;#0</text>
</g>
<!-- &#45;5867205703665532498 -->
<g id="node6" class="node"><title>&#45;5867205703665532498</title>
<ellipse fill="none" stroke="white" cx="223.5" cy="-437.63" rx="22.9987" ry="22.9987"/>
<text text-anchor="middle" x="223.5" y="-433.93" font-family="Times,serif" font-size="14.00" fill="#ffffff">roll</text>
</g>
<!-- &#45;5707788780915198655&#45;&gt;&#45;5867205703665532498 -->
<g id="edge5" class="edge"><title>&#45;5707788780915198655&#45;&gt;&#45;5867205703665532498</title>
<path fill="none" stroke="white" d="M223.5,-379.219C223.5,-386.762 223.5,-395.85 223.5,-404.548"/>
<polygon fill="white" stroke="white" points="220,-404.834 223.5,-414.834 227,-404.834 220,-404.834"/>
</g>
<!-- 1836360980617729258 -->
<g id="node37" class="node"><title>1836360980617729258</title>
<ellipse fill="none" stroke="white" cx="130.5" cy="-437.63" rx="22.9987" ry="22.9987"/>
<text text-anchor="middle" x="130.5" y="-433.93" font-family="Times,serif" font-size="14.00" fill="#ffffff">roll</text>
</g>
<!-- &#45;5707788780915198655&#45;&gt;1836360980617729258 -->
<g id="edge36" class="edge"><title>&#45;5707788780915198655&#45;&gt;1836360980617729258</title>
<path fill="none" stroke="white" d="M201.93,-379.219C188.205,-390.251 170.364,-404.59 155.947,-416.178"/>
<polygon fill="white" stroke="white" points="153.513,-413.644 147.911,-422.637 157.898,-419.1 153.513,-413.644"/>
</g>
<!-- &#45;4641164811982604467 -->
<g id="node46" class="node"><title>&#45;4641164811982604467</title>
<ellipse fill="none" stroke="white" cx="316.5" cy="-437.63" rx="22.9987" ry="22.9987"/>
<text text-anchor="middle" x="316.5" y="-433.93" font-family="Times,serif" font-size="14.00" fill="#ffffff">roll</text>
</g>
<!-- &#45;5707788780915198655&#45;&gt;&#45;4641164811982604467 -->
<g id="edge50" class="edge"><title>&#45;5707788780915198655&#45;&gt;&#45;4641164811982604467</title>
<path fill="none" stroke="white" d="M245.07,-379.219C258.795,-390.251 276.636,-404.59 291.053,-416.178"/>
<polygon fill="white" stroke="white" points="289.102,-419.1 299.089,-422.637 293.487,-413.644 289.102,-419.1"/>
</g>
<!-- 5125476025040418077 -->
<g id="node2" class="node"><title>5125476025040418077</title>
<ellipse fill="none" stroke="white" cx="223.5" cy="-269.836" rx="37.0935" ry="37.0935"/>
<text text-anchor="middle" x="223.5" y="-266.136" font-family="Times,serif" font-size="14.00" fill="#ffffff">process</text>
</g>
<!-- 5125476025040418077&#45;&gt;&#45;5707788780915198655 -->
<g id="edge1" class="edge"><title>5125476025040418077&#45;&gt;&#45;5707788780915198655</title>
<path fill="none" stroke="white" d="M223.5,-307.054C223.5,-315.625 223.5,-324.622 223.5,-332.712"/>
<polygon fill="white" stroke="white" points="220,-332.713 223.5,-342.713 227,-332.713 220,-332.713"/>
</g>
<!-- 154915682550125149 -->
<g id="node3" class="node"><title>154915682550125149</title>
<polygon fill="none" stroke="white" points="228.5,-196.789 170.5,-196.789 170.5,-160.789 228.5,-160.789 228.5,-196.789"/>
<text text-anchor="middle" x="199.5" y="-175.089" font-family="Times,serif" font-size="14.00" fill="#ffffff">load&#45;#1</text>
</g>
<!-- 154915682550125149&#45;&gt;5125476025040418077 -->
<g id="edge2" class="edge"><title>154915682550125149&#45;&gt;5125476025040418077</title>
<path fill="none" stroke="white" d="M204.127,-196.958C206.21,-204.685 208.776,-214.207 211.352,-223.762"/>
<polygon fill="white" stroke="white" points="208.037,-224.913 214.019,-233.658 214.796,-223.092 208.037,-224.913"/>
</g>
<!-- 4356808130089702653 -->
<g id="node4" class="node"><title>4356808130089702653</title>
<polygon fill="none" stroke="white" points="527.5,-196.789 413.5,-196.789 413.5,-160.789 527.5,-160.789 527.5,-196.789"/>
<text text-anchor="middle" x="470.5" y="-175.089" font-family="Times,serif" font-size="14.00" fill="#ffffff">load_from_sql&#45;#2</text>
</g>
<!-- 4356808130089702653&#45;&gt;5125476025040418077 -->
<g id="edge3" class="edge"><title>4356808130089702653&#45;&gt;5125476025040418077</title>
<path fill="none" stroke="white" d="M413.355,-194.346C356.598,-208.894 277.079,-229.557 270.5,-232.789 266.762,-234.625 263.03,-236.783 259.397,-239.114"/>
<polygon fill="white" stroke="white" points="257.391,-236.245 251.139,-244.799 261.361,-242.011 257.391,-236.245"/>
</g>
<!-- &#45;3725613262647318197 -->
<g id="node10" class="node"><title>&#45;3725613262647318197</title>
<ellipse fill="none" stroke="white" cx="710.5" cy="-269.836" rx="37.0935" ry="37.0935"/>
<text text-anchor="middle" x="710.5" y="-266.136" font-family="Times,serif" font-size="14.00" fill="#ffffff">process</text>
</g>
<!-- 4356808130089702653&#45;&gt;&#45;3725613262647318197 -->
<g id="edge9" class="edge"><title>4356808130089702653&#45;&gt;&#45;3725613262647318197</title>
<path fill="none" stroke="white" d="M527.529,-194.728C578.638,-208.289 647.385,-227.021 659.5,-232.789 664.153,-235.004 668.837,-237.64 673.379,-240.463"/>
<polygon fill="white" stroke="white" points="671.615,-243.492 681.894,-246.062 675.461,-237.643 671.615,-243.492"/>
</g>
<!-- 3100207005645900154 -->
<g id="node13" class="node"><title>3100207005645900154</title>
<ellipse fill="none" stroke="white" cx="37.5" cy="-269.836" rx="37.0935" ry="37.0935"/>
<text text-anchor="middle" x="37.5" y="-266.136" font-family="Times,serif" font-size="14.00" fill="#ffffff">process</text>
</g>
<!-- 4356808130089702653&#45;&gt;3100207005645900154 -->
<g id="edge13" class="edge"><title>4356808130089702653&#45;&gt;3100207005645900154</title>
<path fill="none" stroke="white" d="M413.231,-194.866C409.948,-195.56 406.688,-196.207 403.5,-196.789 263.138,-222.393 216.823,-179.427 84.5,-232.789 80.5839,-234.368 76.7148,-236.368 72.9785,-238.613"/>
<polygon fill="white" stroke="white" points="70.9369,-235.768 64.5416,-244.215 74.8086,-241.6 70.9369,-235.768"/>
</g>
<!-- &#45;3732885326863520508 -->
<g id="node15" class="node"><title>&#45;3732885326863520508</title>
<ellipse fill="none" stroke="white" cx="130.5" cy="-269.836" rx="37.0935" ry="37.0935"/>
<text text-anchor="middle" x="130.5" y="-266.136" font-family="Times,serif" font-size="14.00" fill="#ffffff">process</text>
</g>
<!-- 4356808130089702653&#45;&gt;&#45;3732885326863520508 -->
<g id="edge16" class="edge"><title>4356808130089702653&#45;&gt;&#45;3732885326863520508</title>
<path fill="none" stroke="white" d="M413.197,-194.692C409.923,-195.43 406.673,-196.135 403.5,-196.789 303.882,-217.317 270.938,-192.609 177.5,-232.789 173.621,-234.457 169.777,-236.517 166.057,-238.801"/>
<polygon fill="white" stroke="white" points="163.99,-235.974 157.642,-244.457 167.894,-241.783 163.99,-235.974"/>
</g>
<!-- 1435607200138629779 -->
<g id="node18" class="node"><title>1435607200138629779</title>
<ellipse fill="none" stroke="white" cx="413.5" cy="-269.836" rx="37.0935" ry="37.0935"/>
<text text-anchor="middle" x="413.5" y="-266.136" font-family="Times,serif" font-size="14.00" fill="#ffffff">process</text>
</g>
<!-- 4356808130089702653&#45;&gt;1435607200138629779 -->
<g id="edge18" class="edge"><title>4356808130089702653&#45;&gt;1435607200138629779</title>
<path fill="none" stroke="white" d="M459.51,-196.958C453.581,-206.221 446,-218.063 438.711,-229.45"/>
<polygon fill="white" stroke="white" points="435.669,-227.71 433.226,-238.019 441.565,-231.484 435.669,-227.71"/>
</g>
<!-- 3354314299463647989 -->
<g id="node24" class="node"><title>3354314299463647989</title>
<ellipse fill="none" stroke="white" cx="905.5" cy="-269.836" rx="37.0935" ry="37.0935"/>
<text text-anchor="middle" x="905.5" y="-266.136" font-family="Times,serif" font-size="14.00" fill="#ffffff">process</text>
</g>
<!-- 4356808130089702653&#45;&gt;3354314299463647989 -->
<g id="edge24" class="edge"><title>4356808130089702653&#45;&gt;3354314299463647989</title>
<path fill="none" stroke="white" d="M527.629,-195.022C530.621,-195.657 533.591,-196.252 536.5,-196.789 675.937,-222.535 720.776,-182.889 853.5,-232.789 858.641,-234.722 863.758,-237.275 868.663,-240.132"/>
<polygon fill="white" stroke="white" points="866.9,-243.158 877.224,-245.535 870.635,-237.238 866.9,-243.158"/>
</g>
<!-- 8466967321539346485 -->
<g id="node27" class="node"><title>8466967321539346485</title>
<ellipse fill="none" stroke="white" cx="613.5" cy="-269.836" rx="37.0935" ry="37.0935"/>
<text text-anchor="middle" x="613.5" y="-266.136" font-family="Times,serif" font-size="14.00" fill="#ffffff">process</text>
</g>
<!-- 4356808130089702653&#45;&gt;8466967321539346485 -->
<g id="edge27" class="edge"><title>4356808130089702653&#45;&gt;8466967321539346485</title>
<path fill="none" stroke="white" d="M499.992,-196.839C517.434,-207.049 539.88,-220.41 559.5,-232.789 564.447,-235.91 569.607,-239.247 574.69,-242.584"/>
<polygon fill="white" stroke="white" points="572.851,-245.563 583.122,-248.161 576.713,-239.725 572.851,-245.563"/>
</g>
<!-- 223902034369400982 -->
<g id="node39" class="node"><title>223902034369400982</title>
<ellipse fill="none" stroke="white" cx="513.5" cy="-269.836" rx="37.0935" ry="37.0935"/>
<text text-anchor="middle" x="513.5" y="-266.136" font-family="Times,serif" font-size="14.00" fill="#ffffff">process</text>
</g>
<!-- 4356808130089702653&#45;&gt;223902034369400982 -->
<g id="edge41" class="edge"><title>4356808130089702653&#45;&gt;223902034369400982</title>
<path fill="none" stroke="white" d="M478.791,-196.958C482.943,-205.558 488.17,-216.38 493.297,-226.998"/>
<polygon fill="white" stroke="white" points="490.247,-228.732 497.748,-236.215 496.551,-225.688 490.247,-228.732"/>
</g>
<!-- 8327512840823460446 -->
<g id="node47" class="node"><title>8327512840823460446</title>
<ellipse fill="none" stroke="white" cx="316.5" cy="-269.836" rx="37.0935" ry="37.0935"/>
<text text-anchor="middle" x="316.5" y="-266.136" font-family="Times,serif" font-size="14.00" fill="#ffffff">process</text>
</g>
<!-- 4356808130089702653&#45;&gt;8327512840823460446 -->
<g id="edge54" class="edge"><title>4356808130089702653&#45;&gt;8327512840823460446</title>
<path fill="none" stroke="white" d="M434.074,-196.979C414.054,-206.81 388.993,-219.751 367.5,-232.789 363.15,-235.427 358.682,-238.31 354.284,-241.258"/>
<polygon fill="white" stroke="white" points="352.233,-238.42 345.964,-246.961 356.191,-244.194 352.233,-238.42"/>
</g>
<!-- 6798525554454821304 -->
<g id="node52" class="node"><title>6798525554454821304</title>
<ellipse fill="none" stroke="white" cx="807.5" cy="-269.836" rx="37.0935" ry="37.0935"/>
<text text-anchor="middle" x="807.5" y="-266.136" font-family="Times,serif" font-size="14.00" fill="#ffffff">process</text>
</g>
<!-- 4356808130089702653&#45;&gt;6798525554454821304 -->
<g id="edge60" class="edge"><title>4356808130089702653&#45;&gt;6798525554454821304</title>
<path fill="none" stroke="white" d="M527.664,-194.848C530.646,-195.529 533.605,-196.181 536.5,-196.789 633.46,-217.166 664.814,-195.236 756.5,-232.789 761.33,-234.767 766.147,-237.276 770.785,-240.046"/>
<polygon fill="white" stroke="white" points="769.139,-243.149 779.44,-245.624 772.931,-237.265 769.139,-243.149"/>
</g>
<!-- &#45;7170975097950538366 -->
<g id="node5" class="node"><title>&#45;7170975097950538366</title>
<polygon fill="none" stroke="white" points="250.5,-532.378 196.5,-532.378 196.5,-496.378 250.5,-496.378 250.5,-532.378"/>
<text text-anchor="middle" x="223.5" y="-510.678" font-family="Times,serif" font-size="14.00" fill="#ffffff">roll&#45;#3</text>
</g>
<!-- &#45;5867205703665532498&#45;&gt;&#45;7170975097950538366 -->
<g id="edge4" class="edge"><title>&#45;5867205703665532498&#45;&gt;&#45;7170975097950538366</title>
<path fill="none" stroke="white" d="M223.5,-460.653C223.5,-468.647 223.5,-477.774 223.5,-486.163"/>
<polygon fill="white" stroke="white" points="220,-486.253 223.5,-496.253 227,-486.253 220,-486.253"/>
</g>
<!-- 3696707800515043570 -->
<g id="node7" class="node"><title>3696707800515043570</title>
<polygon fill="none" stroke="white" points="354,-378.882 279,-378.882 279,-342.882 354,-342.882 354,-378.882"/>
<text text-anchor="middle" x="316.5" y="-357.182" font-family="Times,serif" font-size="14.00" fill="#ffffff">process&#45;#4</text>
</g>
<!-- 3696707800515043570&#45;&gt;&#45;5867205703665532498 -->
<g id="edge6" class="edge"><title>3696707800515043570&#45;&gt;&#45;5867205703665532498</title>
<path fill="none" stroke="white" d="M294.93,-379.219C281.205,-390.251 263.364,-404.59 248.947,-416.178"/>
<polygon fill="white" stroke="white" points="246.513,-413.644 240.911,-422.637 250.898,-419.1 246.513,-413.644"/>
</g>
<!-- 2819429887634466091 -->
<g id="node34" class="node"><title>2819429887634466091</title>
<ellipse fill="none" stroke="white" cx="413.5" cy="-437.63" rx="22.9987" ry="22.9987"/>
<text text-anchor="middle" x="413.5" y="-433.93" font-family="Times,serif" font-size="14.00" fill="#ffffff">roll</text>
</g>
<!-- 3696707800515043570&#45;&gt;2819429887634466091 -->
<g id="edge32" class="edge"><title>3696707800515043570&#45;&gt;2819429887634466091</title>
<path fill="none" stroke="white" d="M338.998,-379.219C353.636,-390.499 372.762,-405.238 387.97,-416.957"/>
<polygon fill="white" stroke="white" points="385.905,-419.784 395.962,-423.116 390.177,-414.239 385.905,-419.784"/>
</g>
<!-- 3696707800515043570&#45;&gt;&#45;4641164811982604467 -->
<g id="edge51" class="edge"><title>3696707800515043570&#45;&gt;&#45;4641164811982604467</title>
<path fill="none" stroke="white" d="M316.5,-379.219C316.5,-386.762 316.5,-395.85 316.5,-404.548"/>
<polygon fill="white" stroke="white" points="313,-404.834 316.5,-414.834 320,-404.834 313,-404.834"/>
</g>
<!-- 3017001079435879660 -->
<g id="node8" class="node"><title>3017001079435879660</title>
<polygon fill="none" stroke="white" points="168,-378.882 93,-378.882 93,-342.882 168,-342.882 168,-378.882"/>
<text text-anchor="middle" x="130.5" y="-357.182" font-family="Times,serif" font-size="14.00" fill="#ffffff">process&#45;#5</text>
</g>
<!-- 3017001079435879660&#45;&gt;&#45;5867205703665532498 -->
<g id="edge7" class="edge"><title>3017001079435879660&#45;&gt;&#45;5867205703665532498</title>
<path fill="none" stroke="white" d="M152.07,-379.219C165.795,-390.251 183.636,-404.59 198.053,-416.178"/>
<polygon fill="white" stroke="white" points="196.102,-419.1 206.089,-422.637 200.487,-413.644 196.102,-419.1"/>
</g>
<!-- 3017001079435879660&#45;&gt;1836360980617729258 -->
<g id="edge37" class="edge"><title>3017001079435879660&#45;&gt;1836360980617729258</title>
<path fill="none" stroke="white" d="M130.5,-379.219C130.5,-386.762 130.5,-395.85 130.5,-404.548"/>
<polygon fill="white" stroke="white" points="127,-404.834 130.5,-414.834 134,-404.834 127,-404.834"/>
</g>
<!-- &#45;4028867747634640829 -->
<g id="node9" class="node"><title>&#45;4028867747634640829</title>
<polygon fill="none" stroke="white" points="748,-378.882 673,-378.882 673,-342.882 748,-342.882 748,-378.882"/>
<text text-anchor="middle" x="710.5" y="-357.182" font-family="Times,serif" font-size="14.00" fill="#ffffff">process&#45;#6</text>
</g>
<!-- 7929481904723926095 -->
<g id="node43" class="node"><title>7929481904723926095</title>
<ellipse fill="none" stroke="white" cx="710.5" cy="-437.63" rx="22.9987" ry="22.9987"/>
<text text-anchor="middle" x="710.5" y="-433.93" font-family="Times,serif" font-size="14.00" fill="#ffffff">roll</text>
</g>
<!-- &#45;4028867747634640829&#45;&gt;7929481904723926095 -->
<g id="edge48" class="edge"><title>&#45;4028867747634640829&#45;&gt;7929481904723926095</title>
<path fill="none" stroke="white" d="M710.5,-379.219C710.5,-386.762 710.5,-395.85 710.5,-404.548"/>
<polygon fill="white" stroke="white" points="707,-404.834 710.5,-414.834 714,-404.834 707,-404.834"/>
</g>
<!-- 6776140168533427092 -->
<g id="node54" class="node"><title>6776140168533427092</title>
<ellipse fill="none" stroke="white" cx="807.5" cy="-437.63" rx="22.9987" ry="22.9987"/>
<text text-anchor="middle" x="807.5" y="-433.93" font-family="Times,serif" font-size="14.00" fill="#ffffff">roll</text>
</g>
<!-- &#45;4028867747634640829&#45;&gt;6776140168533427092 -->
<g id="edge65" class="edge"><title>&#45;4028867747634640829&#45;&gt;6776140168533427092</title>
<path fill="none" stroke="white" d="M732.998,-379.219C747.636,-390.499 766.762,-405.238 781.97,-416.957"/>
<polygon fill="white" stroke="white" points="779.905,-419.784 789.962,-423.116 784.177,-414.239 779.905,-419.784"/>
</g>
<!-- &#45;230148080655910718 -->
<g id="node58" class="node"><title>&#45;230148080655910718</title>
<ellipse fill="none" stroke="white" cx="613.5" cy="-437.63" rx="22.9987" ry="22.9987"/>
<text text-anchor="middle" x="613.5" y="-433.93" font-family="Times,serif" font-size="14.00" fill="#ffffff">roll</text>
</g>
<!-- &#45;4028867747634640829&#45;&gt;&#45;230148080655910718 -->
<g id="edge73" class="edge"><title>&#45;4028867747634640829&#45;&gt;&#45;230148080655910718</title>
<path fill="none" stroke="white" d="M688.002,-379.219C673.364,-390.499 654.238,-405.238 639.03,-416.957"/>
<polygon fill="white" stroke="white" points="636.823,-414.239 631.038,-423.116 641.095,-419.784 636.823,-414.239"/>
</g>
<!-- &#45;3725613262647318197&#45;&gt;&#45;4028867747634640829 -->
<g id="edge8" class="edge"><title>&#45;3725613262647318197&#45;&gt;&#45;4028867747634640829</title>
<path fill="none" stroke="white" d="M710.5,-307.054C710.5,-315.625 710.5,-324.622 710.5,-332.712"/>
<polygon fill="white" stroke="white" points="707,-332.713 710.5,-342.713 714,-332.713 707,-332.713"/>
</g>
<!-- 3566211049487213918 -->
<g id="node11" class="node"><title>3566211049487213918</title>
<polygon fill="none" stroke="white" points="770.5,-196.789 712.5,-196.789 712.5,-160.789 770.5,-160.789 770.5,-196.789"/>
<text text-anchor="middle" x="741.5" y="-175.089" font-family="Times,serif" font-size="14.00" fill="#ffffff">load&#45;#7</text>
</g>
<!-- 3566211049487213918&#45;&gt;&#45;3725613262647318197 -->
<g id="edge10" class="edge"><title>3566211049487213918&#45;&gt;&#45;3725613262647318197</title>
<path fill="none" stroke="white" d="M735.523,-196.958C732.723,-205.001 729.246,-214.988 725.784,-224.934"/>
<polygon fill="white" stroke="white" points="722.473,-223.797 722.491,-234.392 729.084,-226.099 722.473,-223.797"/>
</g>
<!-- &#45;3899275855780377354 -->
<g id="node12" class="node"><title>&#45;3899275855780377354</title>
<polygon fill="none" stroke="white" points="75,-378.882 7.10543e-15,-378.882 7.10543e-15,-342.882 75,-342.882 75,-378.882"/>
<text text-anchor="middle" x="37.5" y="-357.182" font-family="Times,serif" font-size="14.00" fill="#ffffff">process&#45;#8</text>
</g>
<!-- &#45;3899275855780377354&#45;&gt;1836360980617729258 -->
<g id="edge38" class="edge"><title>&#45;3899275855780377354&#45;&gt;1836360980617729258</title>
<path fill="none" stroke="white" d="M59.0698,-379.219C72.7955,-390.251 90.6356,-404.59 105.053,-416.178"/>
<polygon fill="white" stroke="white" points="103.102,-419.1 113.089,-422.637 107.487,-413.644 103.102,-419.1"/>
</g>
<!-- 3100207005645900154&#45;&gt;&#45;3899275855780377354 -->
<g id="edge11" class="edge"><title>3100207005645900154&#45;&gt;&#45;3899275855780377354</title>
<path fill="none" stroke="white" d="M37.5,-307.054C37.5,-315.625 37.5,-324.622 37.5,-332.712"/>
<polygon fill="white" stroke="white" points="34.0001,-332.713 37.5,-342.713 41.0001,-332.713 34.0001,-332.713"/>
</g>
<!-- &#45;5406964700558448652 -->
<g id="node14" class="node"><title>&#45;5406964700558448652</title>
<polygon fill="none" stroke="white" points="66.5,-196.789 8.5,-196.789 8.5,-160.789 66.5,-160.789 66.5,-196.789"/>
<text text-anchor="middle" x="37.5" y="-175.089" font-family="Times,serif" font-size="14.00" fill="#ffffff">load&#45;#9</text>
</g>
<!-- &#45;5406964700558448652&#45;&gt;3100207005645900154 -->
<g id="edge12" class="edge"><title>&#45;5406964700558448652&#45;&gt;3100207005645900154</title>
<path fill="none" stroke="white" d="M37.5,-196.958C37.5,-204.302 37.5,-213.267 37.5,-222.341"/>
<polygon fill="white" stroke="white" points="34.0001,-222.553 37.5,-232.553 41.0001,-222.553 34.0001,-222.553"/>
</g>
<!-- &#45;3732885326863520508&#45;&gt;3017001079435879660 -->
<g id="edge14" class="edge"><title>&#45;3732885326863520508&#45;&gt;3017001079435879660</title>
<path fill="none" stroke="white" d="M130.5,-307.054C130.5,-315.625 130.5,-324.622 130.5,-332.712"/>
<polygon fill="white" stroke="white" points="127,-332.713 130.5,-342.713 134,-332.713 127,-332.713"/>
</g>
<!-- 5371209919592357490 -->
<g id="node16" class="node"><title>5371209919592357490</title>
<polygon fill="none" stroke="white" points="152,-196.789 87,-196.789 87,-160.789 152,-160.789 152,-196.789"/>
<text text-anchor="middle" x="119.5" y="-175.089" font-family="Times,serif" font-size="14.00" fill="#ffffff">load&#45;#10</text>
</g>
<!-- 5371209919592357490&#45;&gt;&#45;3732885326863520508 -->
<g id="edge15" class="edge"><title>5371209919592357490&#45;&gt;&#45;3732885326863520508</title>
<path fill="none" stroke="white" d="M121.621,-196.958C122.547,-204.455 123.682,-213.642 124.827,-222.91"/>
<polygon fill="white" stroke="white" points="121.364,-223.426 126.064,-232.922 128.311,-222.568 121.364,-223.426"/>
</g>
<!-- 7812594569105457291 -->
<g id="node17" class="node"><title>7812594569105457291</title>
<polygon fill="none" stroke="white" points="454.5,-378.882 372.5,-378.882 372.5,-342.882 454.5,-342.882 454.5,-378.882"/>
<text text-anchor="middle" x="413.5" y="-357.182" font-family="Times,serif" font-size="14.00" fill="#ffffff">process&#45;#11</text>
</g>
<!-- 7812594569105457291&#45;&gt;2819429887634466091 -->
<g id="edge33" class="edge"><title>7812594569105457291&#45;&gt;2819429887634466091</title>
<path fill="none" stroke="white" d="M413.5,-379.219C413.5,-386.762 413.5,-395.85 413.5,-404.548"/>
<polygon fill="white" stroke="white" points="410,-404.834 413.5,-414.834 417,-404.834 410,-404.834"/>
</g>
<!-- 7812594569105457291&#45;&gt;&#45;4641164811982604467 -->
<g id="edge52" class="edge"><title>7812594569105457291&#45;&gt;&#45;4641164811982604467</title>
<path fill="none" stroke="white" d="M391.002,-379.219C376.364,-390.499 357.238,-405.238 342.03,-416.957"/>
<polygon fill="white" stroke="white" points="339.823,-414.239 334.038,-423.116 344.095,-419.784 339.823,-414.239"/>
</g>
<!-- &#45;4532389404055321551 -->
<g id="node56" class="node"><title>&#45;4532389404055321551</title>
<ellipse fill="none" stroke="white" cx="513.5" cy="-437.63" rx="22.9987" ry="22.9987"/>
<text text-anchor="middle" x="513.5" y="-433.93" font-family="Times,serif" font-size="14.00" fill="#ffffff">roll</text>
</g>
<!-- 7812594569105457291&#45;&gt;&#45;4532389404055321551 -->
<g id="edge69" class="edge"><title>7812594569105457291&#45;&gt;&#45;4532389404055321551</title>
<path fill="none" stroke="white" d="M436.693,-379.219C451.882,-390.572 471.757,-405.428 487.483,-417.183"/>
<polygon fill="white" stroke="white" points="485.632,-420.169 495.737,-423.353 489.823,-414.563 485.632,-420.169"/>
</g>
<!-- 1435607200138629779&#45;&gt;7812594569105457291 -->
<g id="edge17" class="edge"><title>1435607200138629779&#45;&gt;7812594569105457291</title>
<path fill="none" stroke="white" d="M413.5,-307.054C413.5,-315.625 413.5,-324.622 413.5,-332.712"/>
<polygon fill="white" stroke="white" points="410,-332.713 413.5,-342.713 417,-332.713 410,-332.713"/>
</g>
<!-- &#45;3767874708811007249 -->
<g id="node19" class="node"><title>&#45;3767874708811007249</title>
<polygon fill="none" stroke="white" points="395,-196.789 330,-196.789 330,-160.789 395,-160.789 395,-196.789"/>
<text text-anchor="middle" x="362.5" y="-175.089" font-family="Times,serif" font-size="14.00" fill="#ffffff">load&#45;#12</text>
</g>
<!-- &#45;3767874708811007249&#45;&gt;1435607200138629779 -->
<g id="edge19" class="edge"><title>&#45;3767874708811007249&#45;&gt;1435607200138629779</title>
<path fill="none" stroke="white" d="M372.333,-196.958C377.495,-205.971 384.055,-217.425 390.413,-228.526"/>
<polygon fill="white" stroke="white" points="387.431,-230.362 395.439,-237.3 393.506,-226.883 387.431,-230.362"/>
</g>
<!-- 4024811116954015566 -->
<g id="node20" class="node"><title>4024811116954015566</title>
<polygon fill="none" stroke="white" points="611,-196.789 546,-196.789 546,-160.789 611,-160.789 611,-196.789"/>
<text text-anchor="middle" x="578.5" y="-175.089" font-family="Times,serif" font-size="14.00" fill="#ffffff">load&#45;#13</text>
</g>
<!-- 4024811116954015566&#45;&gt;223902034369400982 -->
<g id="edge42" class="edge"><title>4024811116954015566&#45;&gt;223902034369400982</title>
<path fill="none" stroke="white" d="M565.967,-196.958C558.834,-206.731 549.604,-219.375 540.88,-231.327"/>
<polygon fill="white" stroke="white" points="538.021,-229.306 534.952,-239.447 543.675,-233.434 538.021,-229.306"/>
</g>
<!-- 375508773891763858 -->
<g id="node21" class="node"><title>375508773891763858</title>
<ellipse fill="none" stroke="white" cx="578.5" cy="-62.3945" rx="25.9954" ry="25.9954"/>
<text text-anchor="middle" x="578.5" y="-58.6945" font-family="Times,serif" font-size="14.00" fill="#ffffff">load</text>
</g>
<!-- 375508773891763858&#45;&gt;4024811116954015566 -->
<g id="edge20" class="edge"><title>375508773891763858&#45;&gt;4024811116954015566</title>
<path fill="none" stroke="white" d="M578.5,-88.4988C578.5,-106.837 578.5,-131.683 578.5,-150.51"/>
<polygon fill="white" stroke="white" points="575,-150.537 578.5,-160.537 582,-150.537 575,-150.537"/>
</g>
<!-- 726602608798193201 -->
<g id="node22" class="node"><title>726602608798193201</title>
<ellipse fill="none" stroke="white" cx="470.5" cy="-62.3945" rx="62.2891" ry="62.2891"/>
<text text-anchor="middle" x="470.5" y="-58.6945" font-family="Times,serif" font-size="14.00" fill="#ffffff">load_from_sql</text>
</g>
<!-- 726602608798193201&#45;&gt;4356808130089702653 -->
<g id="edge21" class="edge"><title>726602608798193201&#45;&gt;4356808130089702653</title>
<path fill="none" stroke="white" d="M470.5,-124.945C470.5,-133.859 470.5,-142.631 470.5,-150.389"/>
<polygon fill="white" stroke="white" points="467,-150.589 470.5,-160.589 474,-150.589 467,-150.589"/>
</g>
<!-- &#45;3937231054247468327 -->
<g id="node23" class="node"><title>&#45;3937231054247468327</title>
<polygon fill="none" stroke="white" points="948.5,-378.882 866.5,-378.882 866.5,-342.882 948.5,-342.882 948.5,-378.882"/>
<text text-anchor="middle" x="907.5" y="-357.182" font-family="Times,serif" font-size="14.00" fill="#ffffff">process&#45;#14</text>
</g>
<!-- &#45;3937231054247468327&#45;&gt;6776140168533427092 -->
<g id="edge64" class="edge"><title>&#45;3937231054247468327&#45;&gt;6776140168533427092</title>
<path fill="none" stroke="white" d="M884.307,-379.219C869.118,-390.572 849.243,-405.428 833.517,-417.183"/>
<polygon fill="white" stroke="white" points="831.177,-414.563 825.263,-423.353 835.368,-420.169 831.177,-414.563"/>
</g>
<!-- 3354314299463647989&#45;&gt;&#45;3937231054247468327 -->
<g id="edge22" class="edge"><title>3354314299463647989&#45;&gt;&#45;3937231054247468327</title>
<path fill="none" stroke="white" d="M906.313,-307.054C906.506,-315.625 906.708,-324.622 906.89,-332.712"/>
<polygon fill="white" stroke="white" points="903.391,-332.794 907.114,-342.713 910.389,-332.637 903.391,-332.794"/>
</g>
<!-- 9185467824943410284 -->
<g id="node25" class="node"><title>9185467824943410284</title>
<polygon fill="none" stroke="white" points="938,-196.789 873,-196.789 873,-160.789 938,-160.789 938,-196.789"/>
<text text-anchor="middle" x="905.5" y="-175.089" font-family="Times,serif" font-size="14.00" fill="#ffffff">load&#45;#15</text>
</g>
<!-- 9185467824943410284&#45;&gt;3354314299463647989 -->
<g id="edge23" class="edge"><title>9185467824943410284&#45;&gt;3354314299463647989</title>
<path fill="none" stroke="white" d="M905.5,-196.958C905.5,-204.302 905.5,-213.267 905.5,-222.341"/>
<polygon fill="white" stroke="white" points="902,-222.553 905.5,-232.553 909,-222.553 902,-222.553"/>
</g>
<!-- 905301352536369561 -->
<g id="node26" class="node"><title>905301352536369561</title>
<polygon fill="none" stroke="white" points="654.5,-378.882 572.5,-378.882 572.5,-342.882 654.5,-342.882 654.5,-378.882"/>
<text text-anchor="middle" x="613.5" y="-357.182" font-family="Times,serif" font-size="14.00" fill="#ffffff">process&#45;#16</text>
</g>
<!-- 905301352536369561&#45;&gt;7929481904723926095 -->
<g id="edge47" class="edge"><title>905301352536369561&#45;&gt;7929481904723926095</title>
<path fill="none" stroke="white" d="M635.998,-379.219C650.636,-390.499 669.762,-405.238 684.97,-416.957"/>
<polygon fill="white" stroke="white" points="682.905,-419.784 692.962,-423.116 687.177,-414.239 682.905,-419.784"/>
</g>
<!-- 905301352536369561&#45;&gt;&#45;4532389404055321551 -->
<g id="edge67" class="edge"><title>905301352536369561&#45;&gt;&#45;4532389404055321551</title>
<path fill="none" stroke="white" d="M590.307,-379.219C575.118,-390.572 555.243,-405.428 539.517,-417.183"/>
<polygon fill="white" stroke="white" points="537.177,-414.563 531.263,-423.353 541.368,-420.169 537.177,-414.563"/>
</g>
<!-- 905301352536369561&#45;&gt;&#45;230148080655910718 -->
<g id="edge71" class="edge"><title>905301352536369561&#45;&gt;&#45;230148080655910718</title>
<path fill="none" stroke="white" d="M613.5,-379.219C613.5,-386.762 613.5,-395.85 613.5,-404.548"/>
<polygon fill="white" stroke="white" points="610,-404.834 613.5,-414.834 617,-404.834 610,-404.834"/>
</g>
<!-- 8466967321539346485&#45;&gt;905301352536369561 -->
<g id="edge25" class="edge"><title>8466967321539346485&#45;&gt;905301352536369561</title>
<path fill="none" stroke="white" d="M613.5,-307.054C613.5,-315.625 613.5,-324.622 613.5,-332.712"/>
<polygon fill="white" stroke="white" points="610,-332.713 613.5,-342.713 617,-332.713 610,-332.713"/>
</g>
<!-- &#45;4797212972871638104 -->
<g id="node28" class="node"><title>&#45;4797212972871638104</title>
<polygon fill="none" stroke="white" points="694,-196.789 629,-196.789 629,-160.789 694,-160.789 694,-196.789"/>
<text text-anchor="middle" x="661.5" y="-175.089" font-family="Times,serif" font-size="14.00" fill="#ffffff">load&#45;#17</text>
</g>
<!-- &#45;4797212972871638104&#45;&gt;8466967321539346485 -->
<g id="edge26" class="edge"><title>&#45;4797212972871638104&#45;&gt;8466967321539346485</title>
<path fill="none" stroke="white" d="M652.245,-196.958C647.478,-205.802 641.443,-216.998 635.564,-227.904"/>
<polygon fill="white" stroke="white" points="632.358,-226.476 630.694,-236.939 638.519,-229.797 632.358,-226.476"/>
</g>
<!-- &#45;6586628831604300721 -->
<g id="node29" class="node"><title>&#45;6586628831604300721</title>
<ellipse fill="none" stroke="white" cx="362.5" cy="-62.3945" rx="25.9954" ry="25.9954"/>
<text text-anchor="middle" x="362.5" y="-58.6945" font-family="Times,serif" font-size="14.00" fill="#ffffff">load</text>
</g>
<!-- &#45;6586628831604300721&#45;&gt;&#45;3767874708811007249 -->
<g id="edge28" class="edge"><title>&#45;6586628831604300721&#45;&gt;&#45;3767874708811007249</title>
<path fill="none" stroke="white" d="M362.5,-88.4988C362.5,-106.837 362.5,-131.683 362.5,-150.51"/>
<polygon fill="white" stroke="white" points="359,-150.537 362.5,-160.537 366,-150.537 359,-150.537"/>
</g>
<!-- &#45;3554978206181001007 -->
<g id="node30" class="node"><title>&#45;3554978206181001007</title>
<ellipse fill="none" stroke="white" cx="199.5" cy="-62.3945" rx="25.9954" ry="25.9954"/>
<text text-anchor="middle" x="199.5" y="-58.6945" font-family="Times,serif" font-size="14.00" fill="#ffffff">load</text>
</g>
<!-- &#45;3554978206181001007&#45;&gt;154915682550125149 -->
<g id="edge29" class="edge"><title>&#45;3554978206181001007&#45;&gt;154915682550125149</title>
<path fill="none" stroke="white" d="M199.5,-88.4988C199.5,-106.837 199.5,-131.683 199.5,-150.51"/>
<polygon fill="white" stroke="white" points="196,-150.537 199.5,-160.537 203,-150.537 196,-150.537"/>
</g>
<!-- 2334339082383236766 -->
<g id="node31" class="node"><title>2334339082383236766</title>
<polygon fill="none" stroke="white" points="854,-196.789 789,-196.789 789,-160.789 854,-160.789 854,-196.789"/>
<text text-anchor="middle" x="821.5" y="-175.089" font-family="Times,serif" font-size="14.00" fill="#ffffff">load&#45;#18</text>
</g>
<!-- 2334339082383236766&#45;&gt;6798525554454821304 -->
<g id="edge61" class="edge"><title>2334339082383236766&#45;&gt;6798525554454821304</title>
<path fill="none" stroke="white" d="M818.801,-196.958C817.622,-204.455 816.178,-213.642 814.721,-222.91"/>
<polygon fill="white" stroke="white" points="811.242,-222.499 813.146,-232.922 818.157,-223.587 811.242,-222.499"/>
</g>
<!-- &#45;4732772106144130718 -->
<g id="node32" class="node"><title>&#45;4732772106144130718</title>
<ellipse fill="none" stroke="white" cx="821.5" cy="-62.3945" rx="25.9954" ry="25.9954"/>
<text text-anchor="middle" x="821.5" y="-58.6945" font-family="Times,serif" font-size="14.00" fill="#ffffff">load</text>
</g>
<!-- &#45;4732772106144130718&#45;&gt;2334339082383236766 -->
<g id="edge30" class="edge"><title>&#45;4732772106144130718&#45;&gt;2334339082383236766</title>
<path fill="none" stroke="white" d="M821.5,-88.4988C821.5,-106.837 821.5,-131.683 821.5,-150.51"/>
<polygon fill="white" stroke="white" points="818,-150.537 821.5,-160.537 825,-150.537 818,-150.537"/>
</g>
<!-- &#45;6501655009977425565 -->
<g id="node33" class="node"><title>&#45;6501655009977425565</title>
<polygon fill="none" stroke="white" points="443.5,-532.378 383.5,-532.378 383.5,-496.378 443.5,-496.378 443.5,-532.378"/>
<text text-anchor="middle" x="413.5" y="-510.678" font-family="Times,serif" font-size="14.00" fill="#ffffff">roll&#45;#19</text>
</g>
<!-- 2819429887634466091&#45;&gt;&#45;6501655009977425565 -->
<g id="edge31" class="edge"><title>2819429887634466091&#45;&gt;&#45;6501655009977425565</title>
<path fill="none" stroke="white" d="M413.5,-460.653C413.5,-468.647 413.5,-477.774 413.5,-486.163"/>
<polygon fill="white" stroke="white" points="410,-486.253 413.5,-496.253 417,-486.253 410,-486.253"/>
</g>
<!-- 3714961303337142058 -->
<g id="node35" class="node"><title>3714961303337142058</title>
<polygon fill="none" stroke="white" points="554.5,-378.882 472.5,-378.882 472.5,-342.882 554.5,-342.882 554.5,-378.882"/>
<text text-anchor="middle" x="513.5" y="-357.182" font-family="Times,serif" font-size="14.00" fill="#ffffff">process&#45;#20</text>
</g>
<!-- 3714961303337142058&#45;&gt;2819429887634466091 -->
<g id="edge34" class="edge"><title>3714961303337142058&#45;&gt;2819429887634466091</title>
<path fill="none" stroke="white" d="M490.307,-379.219C475.118,-390.572 455.243,-405.428 439.517,-417.183"/>
<polygon fill="white" stroke="white" points="437.177,-414.563 431.263,-423.353 441.368,-420.169 437.177,-414.563"/>
</g>
<!-- 3714961303337142058&#45;&gt;&#45;4532389404055321551 -->
<g id="edge68" class="edge"><title>3714961303337142058&#45;&gt;&#45;4532389404055321551</title>
<path fill="none" stroke="white" d="M513.5,-379.219C513.5,-386.762 513.5,-395.85 513.5,-404.548"/>
<polygon fill="white" stroke="white" points="510,-404.834 513.5,-414.834 517,-404.834 510,-404.834"/>
</g>
<!-- 3714961303337142058&#45;&gt;&#45;230148080655910718 -->
<g id="edge72" class="edge"><title>3714961303337142058&#45;&gt;&#45;230148080655910718</title>
<path fill="none" stroke="white" d="M536.693,-379.219C551.882,-390.572 571.757,-405.428 587.483,-417.183"/>
<polygon fill="white" stroke="white" points="585.632,-420.169 595.737,-423.353 589.823,-414.563 585.632,-420.169"/>
</g>
<!-- 9019282070449622950 -->
<g id="node36" class="node"><title>9019282070449622950</title>
<polygon fill="none" stroke="white" points="160.5,-532.378 100.5,-532.378 100.5,-496.378 160.5,-496.378 160.5,-532.378"/>
<text text-anchor="middle" x="130.5" y="-510.678" font-family="Times,serif" font-size="14.00" fill="#ffffff">roll&#45;#21</text>
</g>
<!-- 1836360980617729258&#45;&gt;9019282070449622950 -->
<g id="edge35" class="edge"><title>1836360980617729258&#45;&gt;9019282070449622950</title>
<path fill="none" stroke="white" d="M130.5,-460.653C130.5,-468.647 130.5,-477.774 130.5,-486.163"/>
<polygon fill="white" stroke="white" points="127,-486.253 130.5,-496.253 134,-486.253 127,-486.253"/>
</g>
<!-- 6841945076518957032 -->
<g id="node38" class="node"><title>6841945076518957032</title>
<ellipse fill="none" stroke="white" cx="661.5" cy="-62.3945" rx="25.9954" ry="25.9954"/>
<text text-anchor="middle" x="661.5" y="-58.6945" font-family="Times,serif" font-size="14.00" fill="#ffffff">load</text>
</g>
<!-- 6841945076518957032&#45;&gt;&#45;4797212972871638104 -->
<g id="edge39" class="edge"><title>6841945076518957032&#45;&gt;&#45;4797212972871638104</title>
<path fill="none" stroke="white" d="M661.5,-88.4988C661.5,-106.837 661.5,-131.683 661.5,-150.51"/>
<polygon fill="white" stroke="white" points="658,-150.537 661.5,-160.537 665,-150.537 658,-150.537"/>
</g>
<!-- 223902034369400982&#45;&gt;3714961303337142058 -->
<g id="edge40" class="edge"><title>223902034369400982&#45;&gt;3714961303337142058</title>
<path fill="none" stroke="white" d="M513.5,-307.054C513.5,-315.625 513.5,-324.622 513.5,-332.712"/>
<polygon fill="white" stroke="white" points="510,-332.713 513.5,-342.713 517,-332.713 510,-332.713"/>
</g>
<!-- &#45;510487755501021052 -->
<g id="node40" class="node"><title>&#45;510487755501021052</title>
<ellipse fill="none" stroke="white" cx="905.5" cy="-62.3945" rx="25.9954" ry="25.9954"/>
<text text-anchor="middle" x="905.5" y="-58.6945" font-family="Times,serif" font-size="14.00" fill="#ffffff">load</text>
</g>
<!-- &#45;510487755501021052&#45;&gt;9185467824943410284 -->
<g id="edge43" class="edge"><title>&#45;510487755501021052&#45;&gt;9185467824943410284</title>
<path fill="none" stroke="white" d="M905.5,-88.4988C905.5,-106.837 905.5,-131.683 905.5,-150.51"/>
<polygon fill="white" stroke="white" points="902,-150.537 905.5,-160.537 909,-150.537 902,-150.537"/>
</g>
<!-- 4175777131868055518 -->
<g id="node41" class="node"><title>4175777131868055518</title>
<ellipse fill="none" stroke="white" cx="119.5" cy="-62.3945" rx="25.9954" ry="25.9954"/>
<text text-anchor="middle" x="119.5" y="-58.6945" font-family="Times,serif" font-size="14.00" fill="#ffffff">load</text>
</g>
<!-- 4175777131868055518&#45;&gt;5371209919592357490 -->
<g id="edge44" class="edge"><title>4175777131868055518&#45;&gt;5371209919592357490</title>
<path fill="none" stroke="white" d="M119.5,-88.4988C119.5,-106.837 119.5,-131.683 119.5,-150.51"/>
<polygon fill="white" stroke="white" points="116,-150.537 119.5,-160.537 123,-150.537 116,-150.537"/>
</g>
<!-- 9090819897725678319 -->
<g id="node42" class="node"><title>9090819897725678319</title>
<polygon fill="none" stroke="white" points="740.5,-532.378 680.5,-532.378 680.5,-496.378 740.5,-496.378 740.5,-532.378"/>
<text text-anchor="middle" x="710.5" y="-510.678" font-family="Times,serif" font-size="14.00" fill="#ffffff">roll&#45;#22</text>
</g>
<!-- 7929481904723926095&#45;&gt;9090819897725678319 -->
<g id="edge45" class="edge"><title>7929481904723926095&#45;&gt;9090819897725678319</title>
<path fill="none" stroke="white" d="M710.5,-460.653C710.5,-468.647 710.5,-477.774 710.5,-486.163"/>
<polygon fill="white" stroke="white" points="707,-486.253 710.5,-496.253 714,-486.253 707,-486.253"/>
</g>
<!-- 3986118026635663288 -->
<g id="node44" class="node"><title>3986118026635663288</title>
<polygon fill="none" stroke="white" points="848.5,-378.882 766.5,-378.882 766.5,-342.882 848.5,-342.882 848.5,-378.882"/>
<text text-anchor="middle" x="807.5" y="-357.182" font-family="Times,serif" font-size="14.00" fill="#ffffff">process&#45;#23</text>
</g>
<!-- 3986118026635663288&#45;&gt;7929481904723926095 -->
<g id="edge46" class="edge"><title>3986118026635663288&#45;&gt;7929481904723926095</title>
<path fill="none" stroke="white" d="M785.002,-379.219C770.364,-390.499 751.238,-405.238 736.03,-416.957"/>
<polygon fill="white" stroke="white" points="733.823,-414.239 728.038,-423.116 738.095,-419.784 733.823,-414.239"/>
</g>
<!-- 3986118026635663288&#45;&gt;6776140168533427092 -->
<g id="edge63" class="edge"><title>3986118026635663288&#45;&gt;6776140168533427092</title>
<path fill="none" stroke="white" d="M807.5,-379.219C807.5,-386.762 807.5,-395.85 807.5,-404.548"/>
<polygon fill="white" stroke="white" points="804,-404.834 807.5,-414.834 811,-404.834 804,-404.834"/>
</g>
<!-- &#45;5192409540184322767 -->
<g id="node45" class="node"><title>&#45;5192409540184322767</title>
<polygon fill="none" stroke="white" points="346.5,-532.378 286.5,-532.378 286.5,-496.378 346.5,-496.378 346.5,-532.378"/>
<text text-anchor="middle" x="316.5" y="-510.678" font-family="Times,serif" font-size="14.00" fill="#ffffff">roll&#45;#24</text>
</g>
<!-- &#45;4641164811982604467&#45;&gt;&#45;5192409540184322767 -->
<g id="edge49" class="edge"><title>&#45;4641164811982604467&#45;&gt;&#45;5192409540184322767</title>
<path fill="none" stroke="white" d="M316.5,-460.653C316.5,-468.647 316.5,-477.774 316.5,-486.163"/>
<polygon fill="white" stroke="white" points="313,-486.253 316.5,-496.253 320,-486.253 313,-486.253"/>
</g>
<!-- 8327512840823460446&#45;&gt;3696707800515043570 -->
<g id="edge53" class="edge"><title>8327512840823460446&#45;&gt;3696707800515043570</title>
<path fill="none" stroke="white" d="M316.5,-307.054C316.5,-315.625 316.5,-324.622 316.5,-332.712"/>
<polygon fill="white" stroke="white" points="313,-332.713 316.5,-342.713 320,-332.713 313,-332.713"/>
</g>
<!-- &#45;9024481686164246474 -->
<g id="node48" class="node"><title>&#45;9024481686164246474</title>
<polygon fill="none" stroke="white" points="312,-196.789 247,-196.789 247,-160.789 312,-160.789 312,-196.789"/>
<text text-anchor="middle" x="279.5" y="-175.089" font-family="Times,serif" font-size="14.00" fill="#ffffff">load&#45;#25</text>
</g>
<!-- &#45;9024481686164246474&#45;&gt;8327512840823460446 -->
<g id="edge55" class="edge"><title>&#45;9024481686164246474&#45;&gt;8327512840823460446</title>
<path fill="none" stroke="white" d="M286.634,-196.958C290.075,-205.239 294.372,-215.58 298.625,-225.815"/>
<polygon fill="white" stroke="white" points="295.423,-227.232 302.492,-235.123 301.887,-224.546 295.423,-227.232"/>
</g>
<!-- &#45;7354284458164707508 -->
<g id="node49" class="node"><title>&#45;7354284458164707508</title>
<ellipse fill="none" stroke="white" cx="37.5" cy="-62.3945" rx="25.9954" ry="25.9954"/>
<text text-anchor="middle" x="37.5" y="-58.6945" font-family="Times,serif" font-size="14.00" fill="#ffffff">load</text>
</g>
<!-- &#45;7354284458164707508&#45;&gt;&#45;5406964700558448652 -->
<g id="edge56" class="edge"><title>&#45;7354284458164707508&#45;&gt;&#45;5406964700558448652</title>
<path fill="none" stroke="white" d="M37.5,-88.4988C37.5,-106.837 37.5,-131.683 37.5,-150.51"/>
<polygon fill="white" stroke="white" points="34.0001,-150.537 37.5,-160.537 41.0001,-150.537 34.0001,-150.537"/>
</g>
<!-- 4453475727943710114 -->
<g id="node50" class="node"><title>4453475727943710114</title>
<ellipse fill="none" stroke="white" cx="741.5" cy="-62.3945" rx="25.9954" ry="25.9954"/>
<text text-anchor="middle" x="741.5" y="-58.6945" font-family="Times,serif" font-size="14.00" fill="#ffffff">load</text>
</g>
<!-- 4453475727943710114&#45;&gt;3566211049487213918 -->
<g id="edge57" class="edge"><title>4453475727943710114&#45;&gt;3566211049487213918</title>
<path fill="none" stroke="white" d="M741.5,-88.4988C741.5,-106.837 741.5,-131.683 741.5,-150.51"/>
<polygon fill="white" stroke="white" points="738,-150.537 741.5,-160.537 745,-150.537 738,-150.537"/>
</g>
<!-- &#45;1233938754015587526 -->
<g id="node51" class="node"><title>&#45;1233938754015587526</title>
<ellipse fill="none" stroke="white" cx="279.5" cy="-62.3945" rx="25.9954" ry="25.9954"/>
<text text-anchor="middle" x="279.5" y="-58.6945" font-family="Times,serif" font-size="14.00" fill="#ffffff">load</text>
</g>
<!-- &#45;1233938754015587526&#45;&gt;&#45;9024481686164246474 -->
<g id="edge58" class="edge"><title>&#45;1233938754015587526&#45;&gt;&#45;9024481686164246474</title>
<path fill="none" stroke="white" d="M279.5,-88.4988C279.5,-106.837 279.5,-131.683 279.5,-150.51"/>
<polygon fill="white" stroke="white" points="276,-150.537 279.5,-160.537 283,-150.537 276,-150.537"/>
</g>
<!-- 6798525554454821304&#45;&gt;3986118026635663288 -->
<g id="edge59" class="edge"><title>6798525554454821304&#45;&gt;3986118026635663288</title>
<path fill="none" stroke="white" d="M807.5,-307.054C807.5,-315.625 807.5,-324.622 807.5,-332.712"/>
<polygon fill="white" stroke="white" points="804,-332.713 807.5,-342.713 811,-332.713 804,-332.713"/>
</g>
<!-- &#45;2496223554231991492 -->
<g id="node53" class="node"><title>&#45;2496223554231991492</title>
<polygon fill="none" stroke="white" points="837.5,-532.378 777.5,-532.378 777.5,-496.378 837.5,-496.378 837.5,-532.378"/>
<text text-anchor="middle" x="807.5" y="-510.678" font-family="Times,serif" font-size="14.00" fill="#ffffff">roll&#45;#26</text>
</g>
<!-- 6776140168533427092&#45;&gt;&#45;2496223554231991492 -->
<g id="edge62" class="edge"><title>6776140168533427092&#45;&gt;&#45;2496223554231991492</title>
<path fill="none" stroke="white" d="M807.5,-460.653C807.5,-468.647 807.5,-477.774 807.5,-486.163"/>
<polygon fill="white" stroke="white" points="804,-486.253 807.5,-496.253 811,-486.253 804,-486.253"/>
</g>
<!-- &#45;8315630896288444675 -->
<g id="node55" class="node"><title>&#45;8315630896288444675</title>
<polygon fill="none" stroke="white" points="543.5,-532.378 483.5,-532.378 483.5,-496.378 543.5,-496.378 543.5,-532.378"/>
<text text-anchor="middle" x="513.5" y="-510.678" font-family="Times,serif" font-size="14.00" fill="#ffffff">roll&#45;#27</text>
</g>
<!-- &#45;4532389404055321551&#45;&gt;&#45;8315630896288444675 -->
<g id="edge66" class="edge"><title>&#45;4532389404055321551&#45;&gt;&#45;8315630896288444675</title>
<path fill="none" stroke="white" d="M513.5,-460.653C513.5,-468.647 513.5,-477.774 513.5,-486.163"/>
<polygon fill="white" stroke="white" points="510,-486.253 513.5,-496.253 517,-486.253 510,-486.253"/>
</g>
<!-- &#45;5545838970821490882 -->
<g id="node57" class="node"><title>&#45;5545838970821490882</title>
<polygon fill="none" stroke="white" points="643.5,-532.378 583.5,-532.378 583.5,-496.378 643.5,-496.378 643.5,-532.378"/>
<text text-anchor="middle" x="613.5" y="-510.678" font-family="Times,serif" font-size="14.00" fill="#ffffff">roll&#45;#28</text>
</g>
<!-- &#45;230148080655910718&#45;&gt;&#45;5545838970821490882 -->
<g id="edge70" class="edge"><title>&#45;230148080655910718&#45;&gt;&#45;5545838970821490882</title>
<path fill="none" stroke="white" d="M613.5,-460.653C613.5,-468.647 613.5,-477.774 613.5,-486.163"/>
<polygon fill="white" stroke="white" points="610,-486.253 613.5,-496.253 617,-486.253 610,-486.253"/>
</g>
</g>
</svg>
