<?xml version="1.0" encoding="UTF-8" standalone="no"?>
<!DOCTYPE svg PUBLIC "-//W3C//DTD SVG 1.1//EN"
 "http://www.w3.org/Graphics/SVG/1.1/DTD/svg11.dtd">
<!-- Generated by graphviz version 2.38.0 (20140413.2041)
 -->
<!-- Title: %3 Pages: 1 -->
<svg width="894pt" height="205pt"
 viewBox="0.00 0.00 893.50 204.79" xmlns="http://www.w3.org/2000/svg" xmlns:xlink="http://www.w3.org/1999/xlink">
<g id="graph0" class="graph" transform="scale(1 1) rotate(0) translate(4 200.789)">
<title>%3</title>
<polygon fill="none" stroke="none" points="-4,4 -4,-200.789 889.5,-200.789 889.5,4 -4,4"/>
<!-- 5371209919592357490 -->
<g id="node1" class="node"><title>5371209919592357490</title>
<polygon fill="none" stroke="white" points="58,-196.789 3.55271e-15,-196.789 3.55271e-15,-160.789 58,-160.789 58,-196.789"/>
<text text-anchor="middle" x="29" y="-175.089" font-family="Times,serif" font-size="14.00" fill="#ffffff">load&#45;#0</text>
</g>
<!-- 4175777131868055518 -->
<g id="node2" class="node"><title>4175777131868055518</title>
<ellipse fill="none" stroke="white" cx="29" cy="-62.3945" rx="25.9954" ry="25.9954"/>
<text text-anchor="middle" x="29" y="-58.6945" font-family="Times,serif" font-size="14.00" fill="#ffffff">load</text>
</g>
<!-- 4175777131868055518&#45;&gt;5371209919592357490 -->
<g id="edge1" class="edge"><title>4175777131868055518&#45;&gt;5371209919592357490</title>
<path fill="none" stroke="white" d="M29,-88.4988C29,-106.837 29,-131.683 29,-150.51"/>
<polygon fill="white" stroke="white" points="25.5001,-150.537 29,-160.537 32.5001,-150.537 25.5001,-150.537"/>
</g>
<!-- 4024811116954015566 -->
<g id="node3" class="node"><title>4024811116954015566</title>
<polygon fill="none" stroke="white" points="134,-196.789 76,-196.789 76,-160.789 134,-160.789 134,-196.789"/>
<text text-anchor="middle" x="105" y="-175.089" font-family="Times,serif" font-size="14.00" fill="#ffffff">load&#45;#1</text>
</g>
<!-- 375508773891763858 -->
<g id="node4" class="node"><title>375508773891763858</title>
<ellipse fill="none" stroke="white" cx="105" cy="-62.3945" rx="25.9954" ry="25.9954"/>
<text text-anchor="middle" x="105" y="-58.6945" font-family="Times,serif" font-size="14.00" fill="#ffffff">load</text>
</g>
<!-- 375508773891763858&#45;&gt;4024811116954015566 -->
<g id="edge2" class="edge"><title>375508773891763858&#45;&gt;4024811116954015566</title>
<path fill="none" stroke="white" d="M105,-88.4988C105,-106.837 105,-131.683 105,-150.51"/>
<polygon fill="white" stroke="white" points="101.5,-150.537 105,-160.537 108.5,-150.537 101.5,-150.537"/>
</g>
<!-- 2334339082383236766 -->
<g id="node5" class="node"><title>2334339082383236766</title>
<polygon fill="none" stroke="white" points="210,-196.789 152,-196.789 152,-160.789 210,-160.789 210,-196.789"/>
<text text-anchor="middle" x="181" y="-175.089" font-family="Times,serif" font-size="14.00" fill="#ffffff">load&#45;#2</text>
</g>
<!-- &#45;4732772106144130718 -->
<g id="node6" class="node"><title>&#45;4732772106144130718</title>
<ellipse fill="none" stroke="white" cx="181" cy="-62.3945" rx="25.9954" ry="25.9954"/>
<text text-anchor="middle" x="181" y="-58.6945" font-family="Times,serif" font-size="14.00" fill="#ffffff">load</text>
</g>
<!-- &#45;4732772106144130718&#45;&gt;2334339082383236766 -->
<g id="edge3" class="edge"><title>&#45;4732772106144130718&#45;&gt;2334339082383236766</title>
<path fill="none" stroke="white" d="M181,-88.4988C181,-106.837 181,-131.683 181,-150.51"/>
<polygon fill="white" stroke="white" points="177.5,-150.537 181,-160.537 184.5,-150.537 177.5,-150.537"/>
</g>
<!-- &#45;9024481686164246474 -->
<g id="node7" class="node"><title>&#45;9024481686164246474</title>
<polygon fill="none" stroke="white" points="286,-196.789 228,-196.789 228,-160.789 286,-160.789 286,-196.789"/>
<text text-anchor="middle" x="257" y="-175.089" font-family="Times,serif" font-size="14.00" fill="#ffffff">load&#45;#3</text>
</g>
<!-- &#45;1233938754015587526 -->
<g id="node8" class="node"><title>&#45;1233938754015587526</title>
<ellipse fill="none" stroke="white" cx="257" cy="-62.3945" rx="25.9954" ry="25.9954"/>
<text text-anchor="middle" x="257" y="-58.6945" font-family="Times,serif" font-size="14.00" fill="#ffffff">load</text>
</g>
<!-- &#45;1233938754015587526&#45;&gt;&#45;9024481686164246474 -->
<g id="edge4" class="edge"><title>&#45;1233938754015587526&#45;&gt;&#45;9024481686164246474</title>
<path fill="none" stroke="white" d="M257,-88.4988C257,-106.837 257,-131.683 257,-150.51"/>
<polygon fill="white" stroke="white" points="253.5,-150.537 257,-160.537 260.5,-150.537 253.5,-150.537"/>
</g>
<!-- &#45;4797212972871638104 -->
<g id="node9" class="node"><title>&#45;4797212972871638104</title>
<polygon fill="none" stroke="white" points="362,-196.789 304,-196.789 304,-160.789 362,-160.789 362,-196.789"/>
<text text-anchor="middle" x="333" y="-175.089" font-family="Times,serif" font-size="14.00" fill="#ffffff">load&#45;#4</text>
</g>
<!-- 6841945076518957032 -->
<g id="node10" class="node"><title>6841945076518957032</title>
<ellipse fill="none" stroke="white" cx="333" cy="-62.3945" rx="25.9954" ry="25.9954"/>
<text text-anchor="middle" x="333" y="-58.6945" font-family="Times,serif" font-size="14.00" fill="#ffffff">load</text>
</g>
<!-- 6841945076518957032&#45;&gt;&#45;4797212972871638104 -->
<g id="edge5" class="edge"><title>6841945076518957032&#45;&gt;&#45;4797212972871638104</title>
<path fill="none" stroke="white" d="M333,-88.4988C333,-106.837 333,-131.683 333,-150.51"/>
<polygon fill="white" stroke="white" points="329.5,-150.537 333,-160.537 336.5,-150.537 329.5,-150.537"/>
</g>
<!-- &#45;5406964700558448652 -->
<g id="node11" class="node"><title>&#45;5406964700558448652</title>
<polygon fill="none" stroke="white" points="438,-196.789 380,-196.789 380,-160.789 438,-160.789 438,-196.789"/>
<text text-anchor="middle" x="409" y="-175.089" font-family="Times,serif" font-size="14.00" fill="#ffffff">load&#45;#5</text>
</g>
<!-- &#45;7354284458164707508 -->
<g id="node12" class="node"><title>&#45;7354284458164707508</title>
<ellipse fill="none" stroke="white" cx="409" cy="-62.3945" rx="25.9954" ry="25.9954"/>
<text text-anchor="middle" x="409" y="-58.6945" font-family="Times,serif" font-size="14.00" fill="#ffffff">load</text>
</g>
<!-- &#45;7354284458164707508&#45;&gt;&#45;5406964700558448652 -->
<g id="edge6" class="edge"><title>&#45;7354284458164707508&#45;&gt;&#45;5406964700558448652</title>
<path fill="none" stroke="white" d="M409,-88.4988C409,-106.837 409,-131.683 409,-150.51"/>
<polygon fill="white" stroke="white" points="405.5,-150.537 409,-160.537 412.5,-150.537 405.5,-150.537"/>
</g>
<!-- 154915682550125149 -->
<g id="node13" class="node"><title>154915682550125149</title>
<polygon fill="none" stroke="white" points="514,-196.789 456,-196.789 456,-160.789 514,-160.789 514,-196.789"/>
<text text-anchor="middle" x="485" y="-175.089" font-family="Times,serif" font-size="14.00" fill="#ffffff">load&#45;#6</text>
</g>
<!-- &#45;3554978206181001007 -->
<g id="node14" class="node"><title>&#45;3554978206181001007</title>
<ellipse fill="none" stroke="white" cx="485" cy="-62.3945" rx="25.9954" ry="25.9954"/>
<text text-anchor="middle" x="485" y="-58.6945" font-family="Times,serif" font-size="14.00" fill="#ffffff">load</text>
</g>
<!-- &#45;3554978206181001007&#45;&gt;154915682550125149 -->
<g id="edge7" class="edge"><title>&#45;3554978206181001007&#45;&gt;154915682550125149</title>
<path fill="none" stroke="white" d="M485,-88.4988C485,-106.837 485,-131.683 485,-150.51"/>
<polygon fill="white" stroke="white" points="481.5,-150.537 485,-160.537 488.5,-150.537 481.5,-150.537"/>
</g>
<!-- 9185467824943410284 -->
<g id="node15" class="node"><title>9185467824943410284</title>
<polygon fill="none" stroke="white" points="590,-196.789 532,-196.789 532,-160.789 590,-160.789 590,-196.789"/>
<text text-anchor="middle" x="561" y="-175.089" font-family="Times,serif" font-size="14.00" fill="#ffffff">load&#45;#7</text>
</g>
<!-- &#45;510487755501021052 -->
<g id="node16" class="node"><title>&#45;510487755501021052</title>
<ellipse fill="none" stroke="white" cx="561" cy="-62.3945" rx="25.9954" ry="25.9954"/>
<text text-anchor="middle" x="561" y="-58.6945" font-family="Times,serif" font-size="14.00" fill="#ffffff">load</text>
</g>
<!-- &#45;510487755501021052&#45;&gt;9185467824943410284 -->
<g id="edge8" class="edge"><title>&#45;510487755501021052&#45;&gt;9185467824943410284</title>
<path fill="none" stroke="white" d="M561,-88.4988C561,-106.837 561,-131.683 561,-150.51"/>
<polygon fill="white" stroke="white" points="557.5,-150.537 561,-160.537 564.5,-150.537 557.5,-150.537"/>
</g>
<!-- 4356808130089702653 -->
<g id="node17" class="node"><title>4356808130089702653</title>
<polygon fill="none" stroke="white" points="724,-196.789 610,-196.789 610,-160.789 724,-160.789 724,-196.789"/>
<text text-anchor="middle" x="667" y="-175.089" font-family="Times,serif" font-size="14.00" fill="#ffffff">load_from_sql&#45;#8</text>
</g>
<!-- 726602608798193201 -->
<g id="node18" class="node"><title>726602608798193201</title>
<ellipse fill="none" stroke="white" cx="667" cy="-62.3945" rx="62.2891" ry="62.2891"/>
<text text-anchor="middle" x="667" y="-58.6945" font-family="Times,serif" font-size="14.00" fill="#ffffff">load_from_sql</text>
</g>
<!-- 726602608798193201&#45;&gt;4356808130089702653 -->
<g id="edge9" class="edge"><title>726602608798193201&#45;&gt;4356808130089702653</title>
<path fill="none" stroke="white" d="M667,-124.945C667,-133.859 667,-142.631 667,-150.389"/>
<polygon fill="white" stroke="white" points="663.5,-150.589 667,-160.589 670.5,-150.589 663.5,-150.589"/>
</g>
<!-- 3566211049487213918 -->
<g id="node19" class="node"><title>3566211049487213918</title>
<polygon fill="none" stroke="white" points="802,-196.789 744,-196.789 744,-160.789 802,-160.789 802,-196.789"/>
<text text-anchor="middle" x="773" y="-175.089" font-family="Times,serif" font-size="14.00" fill="#ffffff">load&#45;#9</text>
</g>
<!-- 4453475727943710114 -->
<g id="node20" class="node"><title>4453475727943710114</title>
<ellipse fill="none" stroke="white" cx="773" cy="-62.3945" rx="25.9954" ry="25.9954"/>
<text text-anchor="middle" x="773" y="-58.6945" font-family="Times,serif" font-size="14.00" fill="#ffffff">load</text>
</g>
<!-- 4453475727943710114&#45;&gt;3566211049487213918 -->
<g id="edge10" class="edge"><title>4453475727943710114&#45;&gt;3566211049487213918</title>
<path fill="none" stroke="white" d="M773,-88.4988C773,-106.837 773,-131.683 773,-150.51"/>
<polygon fill="white" stroke="white" points="769.5,-150.537 773,-160.537 776.5,-150.537 769.5,-150.537"/>
</g>
<!-- &#45;3767874708811007249 -->
<g id="node21" class="node"><title>&#45;3767874708811007249</title>
<polygon fill="none" stroke="white" points="885.5,-196.789 820.5,-196.789 820.5,-160.789 885.5,-160.789 885.5,-196.789"/>
<text text-anchor="middle" x="853" y="-175.089" font-family="Times,serif" font-size="14.00" fill="#ffffff">load&#45;#10</text>
</g>
<!-- &#45;6586628831604300721 -->
<g id="node22" class="node"><title>&#45;6586628831604300721</title>
<ellipse fill="none" stroke="white" cx="853" cy="-62.3945" rx="25.9954" ry="25.9954"/>
<text text-anchor="middle" x="853" y="-58.6945" font-family="Times,serif" font-size="14.00" fill="#ffffff">load</text>
</g>
<!-- &#45;6586628831604300721&#45;&gt;&#45;3767874708811007249 -->
<g id="edge11" class="edge"><title>&#45;6586628831604300721&#45;&gt;&#45;3767874708811007249</title>
<path fill="none" stroke="white" d="M853,-88.4988C853,-106.837 853,-131.683 853,-150.51"/>
<polygon fill="white" stroke="white" points="849.5,-150.537 853,-160.537 856.5,-150.537 849.5,-150.537"/>
</g>
</g>
</svg>
