<?xml version="1.0" encoding="UTF-8" standalone="no"?>
<!DOCTYPE svg PUBLIC "-//W3C//DTD SVG 1.1//EN"
 "http://www.w3.org/Graphics/SVG/1.1/DTD/svg11.dtd">
<!-- Generated by graphviz version 2.38.0 (20140413.2041)
 -->
<!-- Title: %3 Pages: 1 -->
<svg width="750pt" height="132pt"
 viewBox="0.00 0.00 750.00 132.00" xmlns="http://www.w3.org/2000/svg" xmlns:xlink="http://www.w3.org/1999/xlink">
<g id="graph0" class="graph" transform="scale(1 1) rotate(0) translate(4 127.995)">
<title>%3</title>
<polygon fill="none" stroke="none" points="-4,4 -4,-127.995 746,-127.995 746,4 -4,4"/>
<!-- 5371209919592357490 -->
<g id="node1" class="node"><title>5371209919592357490</title>
<polygon fill="none" stroke="white" points="58,-123.995 3.55271e-15,-123.995 3.55271e-15,-87.9954 58,-87.9954 58,-123.995"/>
<text text-anchor="middle" x="29" y="-102.295" font-family="Times,serif" font-size="14.00" fill="#ffffff">load&#45;#0</text>
</g>
<!-- 4175777131868055518 -->
<g id="node2" class="node"><title>4175777131868055518</title>
<ellipse fill="none" stroke="white" cx="29" cy="-25.9977" rx="25.9954" ry="25.9954"/>
<text text-anchor="middle" x="29" y="-22.2977" font-family="Times,serif" font-size="14.00" fill="#ffffff">load</text>
</g>
<!-- 4175777131868055518&#45;&gt;5371209919592357490 -->
<g id="edge1" class="edge"><title>4175777131868055518&#45;&gt;5371209919592357490</title>
<path fill="none" stroke="white" d="M29,-52.106C29,-60.1568 29,-69.1161 29,-77.3387"/>
<polygon fill="white" stroke="white" points="25.5001,-77.5852 29,-87.5852 32.5001,-77.5853 25.5001,-77.5852"/>
</g>
<!-- 2334339082383236766 -->
<g id="node3" class="node"><title>2334339082383236766</title>
<polygon fill="none" stroke="white" points="134,-123.995 76,-123.995 76,-87.9954 134,-87.9954 134,-123.995"/>
<text text-anchor="middle" x="105" y="-102.295" font-family="Times,serif" font-size="14.00" fill="#ffffff">load&#45;#1</text>
</g>
<!-- &#45;4732772106144130718 -->
<g id="node4" class="node"><title>&#45;4732772106144130718</title>
<ellipse fill="none" stroke="white" cx="105" cy="-25.9977" rx="25.9954" ry="25.9954"/>
<text text-anchor="middle" x="105" y="-22.2977" font-family="Times,serif" font-size="14.00" fill="#ffffff">load</text>
</g>
<!-- &#45;4732772106144130718&#45;&gt;2334339082383236766 -->
<g id="edge2" class="edge"><title>&#45;4732772106144130718&#45;&gt;2334339082383236766</title>
<path fill="none" stroke="white" d="M105,-52.106C105,-60.1568 105,-69.1161 105,-77.3387"/>
<polygon fill="white" stroke="white" points="101.5,-77.5852 105,-87.5852 108.5,-77.5853 101.5,-77.5852"/>
</g>
<!-- &#45;5406964700558448652 -->
<g id="node5" class="node"><title>&#45;5406964700558448652</title>
<polygon fill="none" stroke="white" points="210,-123.995 152,-123.995 152,-87.9954 210,-87.9954 210,-123.995"/>
<text text-anchor="middle" x="181" y="-102.295" font-family="Times,serif" font-size="14.00" fill="#ffffff">load&#45;#2</text>
</g>
<!-- &#45;7354284458164707508 -->
<g id="node6" class="node"><title>&#45;7354284458164707508</title>
<ellipse fill="none" stroke="white" cx="181" cy="-25.9977" rx="25.9954" ry="25.9954"/>
<text text-anchor="middle" x="181" y="-22.2977" font-family="Times,serif" font-size="14.00" fill="#ffffff">load</text>
</g>
<!-- &#45;7354284458164707508&#45;&gt;&#45;5406964700558448652 -->
<g id="edge3" class="edge"><title>&#45;7354284458164707508&#45;&gt;&#45;5406964700558448652</title>
<path fill="none" stroke="white" d="M181,-52.106C181,-60.1568 181,-69.1161 181,-77.3387"/>
<polygon fill="white" stroke="white" points="177.5,-77.5852 181,-87.5852 184.5,-77.5853 177.5,-77.5852"/>
</g>
<!-- 3566211049487213918 -->
<g id="node7" class="node"><title>3566211049487213918</title>
<polygon fill="none" stroke="white" points="286,-123.995 228,-123.995 228,-87.9954 286,-87.9954 286,-123.995"/>
<text text-anchor="middle" x="257" y="-102.295" font-family="Times,serif" font-size="14.00" fill="#ffffff">load&#45;#3</text>
</g>
<!-- 4453475727943710114 -->
<g id="node8" class="node"><title>4453475727943710114</title>
<ellipse fill="none" stroke="white" cx="257" cy="-25.9977" rx="25.9954" ry="25.9954"/>
<text text-anchor="middle" x="257" y="-22.2977" font-family="Times,serif" font-size="14.00" fill="#ffffff">load</text>
</g>
<!-- 4453475727943710114&#45;&gt;3566211049487213918 -->
<g id="edge4" class="edge"><title>4453475727943710114&#45;&gt;3566211049487213918</title>
<path fill="none" stroke="white" d="M257,-52.106C257,-60.1568 257,-69.1161 257,-77.3387"/>
<polygon fill="white" stroke="white" points="253.5,-77.5852 257,-87.5852 260.5,-77.5853 253.5,-77.5852"/>
</g>
<!-- &#45;9024481686164246474 -->
<g id="node9" class="node"><title>&#45;9024481686164246474</title>
<polygon fill="none" stroke="white" points="362,-123.995 304,-123.995 304,-87.9954 362,-87.9954 362,-123.995"/>
<text text-anchor="middle" x="333" y="-102.295" font-family="Times,serif" font-size="14.00" fill="#ffffff">load&#45;#4</text>
</g>
<!-- &#45;1233938754015587526 -->
<g id="node10" class="node"><title>&#45;1233938754015587526</title>
<ellipse fill="none" stroke="white" cx="333" cy="-25.9977" rx="25.9954" ry="25.9954"/>
<text text-anchor="middle" x="333" y="-22.2977" font-family="Times,serif" font-size="14.00" fill="#ffffff">load</text>
</g>
<!-- &#45;1233938754015587526&#45;&gt;&#45;9024481686164246474 -->
<g id="edge5" class="edge"><title>&#45;1233938754015587526&#45;&gt;&#45;9024481686164246474</title>
<path fill="none" stroke="white" d="M333,-52.106C333,-60.1568 333,-69.1161 333,-77.3387"/>
<polygon fill="white" stroke="white" points="329.5,-77.5852 333,-87.5852 336.5,-77.5853 329.5,-77.5852"/>
</g>
<!-- &#45;4797212972871638104 -->
<g id="node11" class="node"><title>&#45;4797212972871638104</title>
<polygon fill="none" stroke="white" points="438,-123.995 380,-123.995 380,-87.9954 438,-87.9954 438,-123.995"/>
<text text-anchor="middle" x="409" y="-102.295" font-family="Times,serif" font-size="14.00" fill="#ffffff">load&#45;#5</text>
</g>
<!-- 6841945076518957032 -->
<g id="node12" class="node"><title>6841945076518957032</title>
<ellipse fill="none" stroke="white" cx="409" cy="-25.9977" rx="25.9954" ry="25.9954"/>
<text text-anchor="middle" x="409" y="-22.2977" font-family="Times,serif" font-size="14.00" fill="#ffffff">load</text>
</g>
<!-- 6841945076518957032&#45;&gt;&#45;4797212972871638104 -->
<g id="edge6" class="edge"><title>6841945076518957032&#45;&gt;&#45;4797212972871638104</title>
<path fill="none" stroke="white" d="M409,-52.106C409,-60.1568 409,-69.1161 409,-77.3387"/>
<polygon fill="white" stroke="white" points="405.5,-77.5852 409,-87.5852 412.5,-77.5853 405.5,-77.5852"/>
</g>
<!-- 9185467824943410284 -->
<g id="node13" class="node"><title>9185467824943410284</title>
<polygon fill="none" stroke="white" points="514,-123.995 456,-123.995 456,-87.9954 514,-87.9954 514,-123.995"/>
<text text-anchor="middle" x="485" y="-102.295" font-family="Times,serif" font-size="14.00" fill="#ffffff">load&#45;#6</text>
</g>
<!-- &#45;510487755501021052 -->
<g id="node14" class="node"><title>&#45;510487755501021052</title>
<ellipse fill="none" stroke="white" cx="485" cy="-25.9977" rx="25.9954" ry="25.9954"/>
<text text-anchor="middle" x="485" y="-22.2977" font-family="Times,serif" font-size="14.00" fill="#ffffff">load</text>
</g>
<!-- &#45;510487755501021052&#45;&gt;9185467824943410284 -->
<g id="edge7" class="edge"><title>&#45;510487755501021052&#45;&gt;9185467824943410284</title>
<path fill="none" stroke="white" d="M485,-52.106C485,-60.1568 485,-69.1161 485,-77.3387"/>
<polygon fill="white" stroke="white" points="481.5,-77.5852 485,-87.5852 488.5,-77.5853 481.5,-77.5852"/>
</g>
<!-- 154915682550125149 -->
<g id="node15" class="node"><title>154915682550125149</title>
<polygon fill="none" stroke="white" points="590,-123.995 532,-123.995 532,-87.9954 590,-87.9954 590,-123.995"/>
<text text-anchor="middle" x="561" y="-102.295" font-family="Times,serif" font-size="14.00" fill="#ffffff">load&#45;#7</text>
</g>
<!-- &#45;3554978206181001007 -->
<g id="node16" class="node"><title>&#45;3554978206181001007</title>
<ellipse fill="none" stroke="white" cx="561" cy="-25.9977" rx="25.9954" ry="25.9954"/>
<text text-anchor="middle" x="561" y="-22.2977" font-family="Times,serif" font-size="14.00" fill="#ffffff">load</text>
</g>
<!-- &#45;3554978206181001007&#45;&gt;154915682550125149 -->
<g id="edge8" class="edge"><title>&#45;3554978206181001007&#45;&gt;154915682550125149</title>
<path fill="none" stroke="white" d="M561,-52.106C561,-60.1568 561,-69.1161 561,-77.3387"/>
<polygon fill="white" stroke="white" points="557.5,-77.5852 561,-87.5852 564.5,-77.5853 557.5,-77.5852"/>
</g>
<!-- 4024811116954015566 -->
<g id="node17" class="node"><title>4024811116954015566</title>
<polygon fill="none" stroke="white" points="666,-123.995 608,-123.995 608,-87.9954 666,-87.9954 666,-123.995"/>
<text text-anchor="middle" x="637" y="-102.295" font-family="Times,serif" font-size="14.00" fill="#ffffff">load&#45;#8</text>
</g>
<!-- 375508773891763858 -->
<g id="node18" class="node"><title>375508773891763858</title>
<ellipse fill="none" stroke="white" cx="637" cy="-25.9977" rx="25.9954" ry="25.9954"/>
<text text-anchor="middle" x="637" y="-22.2977" font-family="Times,serif" font-size="14.00" fill="#ffffff">load</text>
</g>
<!-- 375508773891763858&#45;&gt;4024811116954015566 -->
<g id="edge9" class="edge"><title>375508773891763858&#45;&gt;4024811116954015566</title>
<path fill="none" stroke="white" d="M637,-52.106C637,-60.1568 637,-69.1161 637,-77.3387"/>
<polygon fill="white" stroke="white" points="633.5,-77.5852 637,-87.5852 640.5,-77.5853 633.5,-77.5852"/>
</g>
<!-- &#45;3767874708811007249 -->
<g id="node19" class="node"><title>&#45;3767874708811007249</title>
<polygon fill="none" stroke="white" points="742,-123.995 684,-123.995 684,-87.9954 742,-87.9954 742,-123.995"/>
<text text-anchor="middle" x="713" y="-102.295" font-family="Times,serif" font-size="14.00" fill="#ffffff">load&#45;#9</text>
</g>
<!-- &#45;6586628831604300721 -->
<g id="node20" class="node"><title>&#45;6586628831604300721</title>
<ellipse fill="none" stroke="white" cx="713" cy="-25.9977" rx="25.9954" ry="25.9954"/>
<text text-anchor="middle" x="713" y="-22.2977" font-family="Times,serif" font-size="14.00" fill="#ffffff">load</text>
</g>
<!-- &#45;6586628831604300721&#45;&gt;&#45;3767874708811007249 -->
<g id="edge10" class="edge"><title>&#45;6586628831604300721&#45;&gt;&#45;3767874708811007249</title>
<path fill="none" stroke="white" d="M713,-52.106C713,-60.1568 713,-69.1161 713,-77.3387"/>
<polygon fill="white" stroke="white" points="709.5,-77.5852 713,-87.5852 716.5,-77.5853 709.5,-77.5852"/>
</g>
</g>
</svg>
