<?xml version="1.0" encoding="UTF-8" standalone="no"?>
<!DOCTYPE svg PUBLIC "-//W3C//DTD SVG 1.1//EN"
 "http://www.w3.org/Graphics/SVG/1.1/DTD/svg11.dtd">
<!-- Generated by graphviz version 2.38.0 (20140413.2041)
 -->
<!-- Title: %3 Pages: 1 -->
<svg width="409pt" height="295pt"
 viewBox="0.00 0.00 408.89 294.90" xmlns="http://www.w3.org/2000/svg" xmlns:xlink="http://www.w3.org/1999/xlink">
<g id="graph0" class="graph" transform="scale(1 1) rotate(0) translate(4 290.896)">
<title>%3</title>
<polygon fill="none" stroke="none" points="-4,4 -4,-290.896 404.892,-290.896 404.892,4 -4,4"/>
<!-- df1 -->
<g id="node1" class="node"><title>df1</title>
<polygon fill="none" stroke="white" points="54,-283.448 0,-283.448 0,-247.448 54,-247.448 54,-283.448"/>
<text text-anchor="middle" x="27" y="-261.748" font-family="Times,serif" font-size="14.00" fill="#ffffff">df&#45;1</text>
</g>
<!-- f1 -->
<g id="node6" class="node"><title>f1</title>
<ellipse fill="none" stroke="white" cx="111.448" cy="-265.448" rx="21.3963" ry="21.3963"/>
<text text-anchor="middle" x="111.448" y="-261.748" font-family="Times,serif" font-size="14.00" fill="#ffffff">len</text>
</g>
<!-- df1&#45;&gt;f1 -->
<g id="edge1" class="edge"><title>df1&#45;&gt;f1</title>
<path fill="none" stroke="white" d="M54.0871,-265.448C62.1809,-265.448 71.1788,-265.448 79.5661,-265.448"/>
<polygon fill="white" stroke="white" points="79.7494,-268.948 89.7494,-265.448 79.7493,-261.948 79.7494,-268.948"/>
</g>
<!-- df2 -->
<g id="node2" class="node"><title>df2</title>
<polygon fill="none" stroke="white" points="54,-222.448 0,-222.448 0,-186.448 54,-186.448 54,-222.448"/>
<text text-anchor="middle" x="27" y="-200.748" font-family="Times,serif" font-size="14.00" fill="#ffffff">df&#45;2</text>
</g>
<!-- f2 -->
<g id="node7" class="node"><title>f2</title>
<ellipse fill="none" stroke="white" cx="111.448" cy="-204.448" rx="21.3963" ry="21.3963"/>
<text text-anchor="middle" x="111.448" y="-200.748" font-family="Times,serif" font-size="14.00" fill="#ffffff">len</text>
</g>
<!-- df2&#45;&gt;f2 -->
<g id="edge5" class="edge"><title>df2&#45;&gt;f2</title>
<path fill="none" stroke="white" d="M54.0871,-204.448C62.1809,-204.448 71.1788,-204.448 79.5661,-204.448"/>
<polygon fill="white" stroke="white" points="79.7494,-207.948 89.7494,-204.448 79.7493,-200.948 79.7494,-207.948"/>
</g>
<!-- df3 -->
<g id="node3" class="node"><title>df3</title>
<polygon fill="none" stroke="white" points="54,-161.448 0,-161.448 0,-125.448 54,-125.448 54,-161.448"/>
<text text-anchor="middle" x="27" y="-139.748" font-family="Times,serif" font-size="14.00" fill="#ffffff">df&#45;3</text>
</g>
<!-- f3 -->
<g id="node8" class="node"><title>f3</title>
<ellipse fill="none" stroke="white" cx="111.448" cy="-143.448" rx="21.3963" ry="21.3963"/>
<text text-anchor="middle" x="111.448" y="-139.748" font-family="Times,serif" font-size="14.00" fill="#ffffff">len</text>
</g>
<!-- df3&#45;&gt;f3 -->
<g id="edge8" class="edge"><title>df3&#45;&gt;f3</title>
<path fill="none" stroke="white" d="M54.0871,-143.448C62.1809,-143.448 71.1788,-143.448 79.5661,-143.448"/>
<polygon fill="white" stroke="white" points="79.7494,-146.948 89.7494,-143.448 79.7493,-139.948 79.7494,-146.948"/>
</g>
<!-- df4 -->
<g id="node4" class="node"><title>df4</title>
<polygon fill="none" stroke="white" points="54,-100.448 0,-100.448 0,-64.4481 54,-64.4481 54,-100.448"/>
<text text-anchor="middle" x="27" y="-78.7481" font-family="Times,serif" font-size="14.00" fill="#ffffff">df&#45;4</text>
</g>
<!-- f4 -->
<g id="node9" class="node"><title>f4</title>
<ellipse fill="none" stroke="white" cx="111.448" cy="-82.4481" rx="21.3963" ry="21.3963"/>
<text text-anchor="middle" x="111.448" y="-78.7481" font-family="Times,serif" font-size="14.00" fill="#ffffff">len</text>
</g>
<!-- df4&#45;&gt;f4 -->
<g id="edge11" class="edge"><title>df4&#45;&gt;f4</title>
<path fill="none" stroke="white" d="M54.0871,-82.4481C62.1809,-82.4481 71.1788,-82.4481 79.5661,-82.4481"/>
<polygon fill="white" stroke="white" points="79.7494,-85.9482 89.7494,-82.4481 79.7493,-78.9482 79.7494,-85.9482"/>
</g>
<!-- df5 -->
<g id="node5" class="node"><title>df5</title>
<polygon fill="none" stroke="white" points="54,-39.4481 0,-39.4481 0,-3.4481 54,-3.4481 54,-39.4481"/>
<text text-anchor="middle" x="27" y="-17.7481" font-family="Times,serif" font-size="14.00" fill="#ffffff">df&#45;5</text>
</g>
<!-- f5 -->
<g id="node10" class="node"><title>f5</title>
<ellipse fill="none" stroke="white" cx="111.448" cy="-21.4481" rx="21.3963" ry="21.3963"/>
<text text-anchor="middle" x="111.448" y="-17.7481" font-family="Times,serif" font-size="14.00" fill="#ffffff">len</text>
</g>
<!-- df5&#45;&gt;f5 -->
<g id="edge14" class="edge"><title>df5&#45;&gt;f5</title>
<path fill="none" stroke="white" d="M54.0871,-21.4481C62.1809,-21.4481 71.1788,-21.4481 79.5661,-21.4481"/>
<polygon fill="white" stroke="white" points="79.7494,-24.9482 89.7494,-21.4481 79.7493,-17.9482 79.7494,-24.9482"/>
</g>
<!-- l1 -->
<g id="node11" class="node"><title>l1</title>
<polygon fill="none" stroke="white" points="222.896,-277.448 168.896,-277.448 168.896,-241.448 222.896,-241.448 222.896,-277.448"/>
</g>
<!-- f1&#45;&gt;l1 -->
<g id="edge2" class="edge"><title>f1&#45;&gt;l1</title>
<path fill="none" stroke="white" d="M133.253,-263.934C141.002,-263.37 150.039,-262.712 158.766,-262.077"/>
<polygon fill="white" stroke="white" points="159.054,-265.566 168.774,-261.349 158.546,-258.584 159.054,-265.566"/>
</g>
<!-- l2 -->
<g id="node12" class="node"><title>l2</title>
<polygon fill="none" stroke="white" points="222.896,-218.448 168.896,-218.448 168.896,-182.448 222.896,-182.448 222.896,-218.448"/>
</g>
<!-- f2&#45;&gt;l2 -->
<g id="edge6" class="edge"><title>f2&#45;&gt;l2</title>
<path fill="none" stroke="white" d="M133.253,-203.439C141.002,-203.063 150.039,-202.624 158.766,-202.201"/>
<polygon fill="white" stroke="white" points="158.955,-205.696 168.774,-201.715 158.616,-198.704 158.955,-205.696"/>
</g>
<!-- l3 -->
<g id="node13" class="node"><title>l3</title>
<polygon fill="none" stroke="white" points="222.896,-161.448 168.896,-161.448 168.896,-125.448 222.896,-125.448 222.896,-161.448"/>
</g>
<!-- f3&#45;&gt;l3 -->
<g id="edge9" class="edge"><title>f3&#45;&gt;l3</title>
<path fill="none" stroke="white" d="M133.253,-143.448C141.002,-143.448 150.039,-143.448 158.766,-143.448"/>
<polygon fill="white" stroke="white" points="158.774,-146.948 168.774,-143.448 158.774,-139.948 158.774,-146.948"/>
</g>
<!-- l4 -->
<g id="node14" class="node"><title>l4</title>
<polygon fill="none" stroke="white" points="222.896,-104.448 168.896,-104.448 168.896,-68.4481 222.896,-68.4481 222.896,-104.448"/>
</g>
<!-- f4&#45;&gt;l4 -->
<g id="edge12" class="edge"><title>f4&#45;&gt;l4</title>
<path fill="none" stroke="white" d="M133.253,-83.4575C141.002,-83.8334 150.039,-84.2718 158.766,-84.6952"/>
<polygon fill="white" stroke="white" points="158.616,-88.192 168.774,-85.1808 158.955,-81.2002 158.616,-88.192"/>
</g>
<!-- l5 -->
<g id="node15" class="node"><title>l5</title>
<polygon fill="none" stroke="white" points="222.896,-43.4481 168.896,-43.4481 168.896,-7.4481 222.896,-7.4481 222.896,-43.4481"/>
</g>
<!-- f5&#45;&gt;l5 -->
<g id="edge15" class="edge"><title>f5&#45;&gt;l5</title>
<path fill="none" stroke="white" d="M133.253,-22.4575C141.002,-22.8334 150.039,-23.2718 158.766,-23.6952"/>
<polygon fill="white" stroke="white" points="158.616,-27.192 168.774,-24.1808 158.955,-20.2002 158.616,-27.192"/>
</g>
<!-- sum -->
<g id="node16" class="node"><title>sum</title>
<ellipse fill="none" stroke="white" cx="284.894" cy="-143.448" rx="25.9954" ry="25.9954"/>
<text text-anchor="middle" x="284.894" y="-139.748" font-family="Times,serif" font-size="14.00" fill="#ffffff">sum</text>
</g>
<!-- l1&#45;&gt;sum -->
<g id="edge3" class="edge"><title>l1&#45;&gt;sum</title>
<path fill="none" stroke="white" d="M211.918,-241.309C215.559,-236.817 219.407,-231.989 222.896,-227.448 236.609,-209.602 251.458,-189.18 263.072,-172.94"/>
<polygon fill="white" stroke="white" points="266.21,-174.567 269.163,-164.392 260.509,-170.504 266.21,-174.567"/>
</g>
<!-- l2&#45;&gt;sum -->
<g id="edge7" class="edge"><title>l2&#45;&gt;sum</title>
<path fill="none" stroke="white" d="M222.998,-183.346C232.831,-176.904 244.083,-169.532 254.218,-162.891"/>
<polygon fill="white" stroke="white" points="256.327,-165.694 262.773,-157.286 252.491,-159.839 256.327,-165.694"/>
</g>
<!-- l3&#45;&gt;sum -->
<g id="edge10" class="edge"><title>l3&#45;&gt;sum</title>
<path fill="none" stroke="white" d="M222.998,-143.448C231.04,-143.448 240.031,-143.448 248.585,-143.448"/>
<polygon fill="white" stroke="white" points="248.707,-146.948 258.707,-143.448 248.707,-139.948 248.707,-146.948"/>
</g>
<!-- l4&#45;&gt;sum -->
<g id="edge13" class="edge"><title>l4&#45;&gt;sum</title>
<path fill="none" stroke="white" d="M222.998,-103.55C232.831,-109.992 244.083,-117.365 254.218,-124.005"/>
<polygon fill="white" stroke="white" points="252.491,-127.057 262.773,-129.61 256.327,-121.202 252.491,-127.057"/>
</g>
<!-- l5&#45;&gt;sum -->
<g id="edge16" class="edge"><title>l5&#45;&gt;sum</title>
<path fill="none" stroke="white" d="M211.013,-43.7362C214.89,-48.8056 219.077,-54.324 222.896,-59.4481 236.345,-77.4938 251.187,-97.9215 262.863,-114.114"/>
<polygon fill="white" stroke="white" points="260.312,-116.561 268.996,-122.631 265.993,-112.471 260.312,-116.561"/>
</g>
<!-- out -->
<g id="node17" class="node"><title>out</title>
<polygon fill="none" stroke="white" points="400.892,-161.448 346.892,-161.448 346.892,-125.448 400.892,-125.448 400.892,-161.448"/>
<text text-anchor="middle" x="373.892" y="-139.748" font-family="Times,serif" font-size="14.00" fill="#ffffff">result</text>
</g>
<!-- sum&#45;&gt;out -->
<g id="edge4" class="edge"><title>sum&#45;&gt;out</title>
<path fill="none" stroke="white" d="M311.057,-143.448C319.049,-143.448 328.051,-143.448 336.662,-143.448"/>
<polygon fill="white" stroke="white" points="336.878,-146.948 346.878,-143.448 336.878,-139.948 336.878,-146.948"/>
</g>
</g>
</svg>
