<?xml version="1.0" encoding="UTF-8" standalone="no"?>
<!DOCTYPE svg PUBLIC "-//W3C//DTD SVG 1.1//EN"
 "http://www.w3.org/Graphics/SVG/1.1/DTD/svg11.dtd">
<!-- Generated by graphviz version 2.38.0 (20140413.2041)
 -->
<!-- Title: %3 Pages: 1 -->
<svg width="215pt" height="188pt"
 viewBox="0.00 0.00 215.00 188.00" xmlns="http://www.w3.org/2000/svg" xmlns:xlink="http://www.w3.org/1999/xlink">
<g id="graph0" class="graph" transform="scale(1 1) rotate(0) translate(4 184)">
<title>%3</title>
<polygon fill="none" stroke="none" points="-4,4 -4,-184 211,-184 211,4 -4,4"/>
<!-- x -->
<g id="node1" class="node"><title>x</title>
<polygon fill="none" stroke="white" points="99,-108 45,-108 45,-72 99,-72 99,-108"/>
<text text-anchor="middle" x="72" y="-86.3" font-family="Times,serif" font-size="14.00" fill="#ffffff">x</text>
</g>
<!-- g1 -->
<g id="node5" class="node"><title>g1</title>
<ellipse fill="none" stroke="white" cx="18" cy="-162" rx="18" ry="18"/>
<text text-anchor="middle" x="18" y="-158.3" font-family="Times,serif" font-size="14.00" fill="#ffffff">g</text>
</g>
<!-- x&#45;&gt;g1 -->
<g id="edge3" class="edge"><title>x&#45;&gt;g1</title>
<path fill="none" stroke="white" d="M58.6517,-108.303C51.5014,-117.572 42.6178,-129.088 34.9805,-138.988"/>
<polygon fill="white" stroke="white" points="32.0015,-137.12 28.6646,-147.175 37.5439,-141.395 32.0015,-137.12"/>
</g>
<!-- g2 -->
<g id="node6" class="node"><title>g2</title>
<ellipse fill="none" stroke="white" cx="72" cy="-162" rx="18" ry="18"/>
<text text-anchor="middle" x="72" y="-158.3" font-family="Times,serif" font-size="14.00" fill="#ffffff">g</text>
</g>
<!-- x&#45;&gt;g2 -->
<g id="edge4" class="edge"><title>x&#45;&gt;g2</title>
<path fill="none" stroke="white" d="M72,-108.303C72,-116.017 72,-125.288 72,-133.888"/>
<polygon fill="white" stroke="white" points="68.5001,-133.896 72,-143.896 75.5001,-133.896 68.5001,-133.896"/>
</g>
<!-- g3 -->
<g id="node7" class="node"><title>g3</title>
<ellipse fill="none" stroke="white" cx="126" cy="-162" rx="18" ry="18"/>
<text text-anchor="middle" x="126" y="-158.3" font-family="Times,serif" font-size="14.00" fill="#ffffff">g</text>
</g>
<!-- x&#45;&gt;g3 -->
<g id="edge5" class="edge"><title>x&#45;&gt;g3</title>
<path fill="none" stroke="white" d="M85.3483,-108.303C92.4986,-117.572 101.382,-129.088 109.02,-138.988"/>
<polygon fill="white" stroke="white" points="106.456,-141.395 115.335,-147.175 111.999,-137.12 106.456,-141.395"/>
</g>
<!-- y -->
<g id="node2" class="node"><title>y</title>
<polygon fill="none" stroke="white" points="207,-108 153,-108 153,-72 207,-72 207,-108"/>
<text text-anchor="middle" x="180" y="-86.3" font-family="Times,serif" font-size="14.00" fill="#ffffff">y</text>
</g>
<!-- g4 -->
<g id="node8" class="node"><title>g4</title>
<ellipse fill="none" stroke="white" cx="180" cy="-162" rx="18" ry="18"/>
<text text-anchor="middle" x="180" y="-158.3" font-family="Times,serif" font-size="14.00" fill="#ffffff">g</text>
</g>
<!-- y&#45;&gt;g4 -->
<g id="edge6" class="edge"><title>y&#45;&gt;g4</title>
<path fill="none" stroke="white" d="M180,-108.303C180,-116.017 180,-125.288 180,-133.888"/>
<polygon fill="white" stroke="white" points="176.5,-133.896 180,-143.896 183.5,-133.896 176.5,-133.896"/>
</g>
<!-- f1 -->
<g id="node3" class="node"><title>f1</title>
<ellipse fill="none" stroke="#6666ff" cx="72" cy="-18" rx="18" ry="18"/>
<text text-anchor="middle" x="72" y="-14.3" font-family="Times,serif" font-size="14.00" fill="#ffffff">f</text>
</g>
<!-- f1&#45;&gt;x -->
<g id="edge1" class="edge"><title>f1&#45;&gt;x</title>
<path fill="none" stroke="white" d="M72,-36.3034C72,-44.0173 72,-53.2875 72,-61.8876"/>
<polygon fill="white" stroke="white" points="68.5001,-61.8956 72,-71.8957 75.5001,-61.8957 68.5001,-61.8956"/>
</g>
<!-- f2 -->
<g id="node4" class="node"><title>f2</title>
<ellipse fill="none" stroke="white" cx="180" cy="-18" rx="18" ry="18"/>
<text text-anchor="middle" x="180" y="-14.3" font-family="Times,serif" font-size="14.00" fill="#ffffff">f</text>
</g>
<!-- f2&#45;&gt;y -->
<g id="edge2" class="edge"><title>f2&#45;&gt;y</title>
<path fill="none" stroke="white" d="M180,-36.3034C180,-44.0173 180,-53.2875 180,-61.8876"/>
<polygon fill="white" stroke="white" points="176.5,-61.8956 180,-71.8957 183.5,-61.8957 176.5,-61.8956"/>
</g>
</g>
</svg>
