<?xml version="1.0" encoding="UTF-8" standalone="no"?>
<!DOCTYPE svg PUBLIC "-//W3C//DTD SVG 1.1//EN"
 "http://www.w3.org/Graphics/SVG/1.1/DTD/svg11.dtd">
<!-- Generated by graphviz version 2.38.0 (20140413.2041)
 -->
<!-- Title: %3 Pages: 1 -->
<svg width="278pt" height="116pt"
 viewBox="0.00 0.00 278.00 116.00" xmlns="http://www.w3.org/2000/svg" xmlns:xlink="http://www.w3.org/1999/xlink">
<g id="graph0" class="graph" transform="scale(1 1) rotate(0) translate(4 112)">
<title>%3</title>
<polygon fill="none" stroke="none" points="-4,4 -4,-112 274,-112 274,4 -4,4"/>
<!-- w -->
<g id="node1" class="node"><title>w</title>
<polygon fill="none" stroke="white" points="54,-36 0,-36 0,-0 54,-0 54,-36"/>
<text text-anchor="middle" x="27" y="-14.3" font-family="Times,serif" font-size="14.00" fill="#ffffff">w</text>
</g>
<!-- f1 -->
<g id="node5" class="node"><title>f1</title>
<ellipse fill="none" stroke="white" cx="27" cy="-90" rx="18" ry="18"/>
<text text-anchor="middle" x="27" y="-86.3" font-family="Times,serif" font-size="14.00" fill="#ffffff">f</text>
</g>
<!-- w&#45;&gt;f1 -->
<g id="edge1" class="edge"><title>w&#45;&gt;f1</title>
<path fill="none" stroke="white" d="M27,-36.3034C27,-44.0173 27,-53.2875 27,-61.8876"/>
<polygon fill="white" stroke="white" points="23.5001,-61.8956 27,-71.8957 30.5001,-61.8957 23.5001,-61.8956"/>
</g>
<!-- x -->
<g id="node2" class="node"><title>x</title>
<polygon fill="none" stroke="white" points="126,-36 72,-36 72,-0 126,-0 126,-36"/>
<text text-anchor="middle" x="99" y="-14.3" font-family="Times,serif" font-size="14.00" fill="#ffffff">x</text>
</g>
<!-- f2 -->
<g id="node6" class="node"><title>f2</title>
<ellipse fill="none" stroke="white" cx="171" cy="-90" rx="18" ry="18"/>
<text text-anchor="middle" x="171" y="-86.3" font-family="Times,serif" font-size="14.00" fill="#ffffff">f</text>
</g>
<!-- x&#45;&gt;f2 -->
<g id="edge2" class="edge"><title>x&#45;&gt;f2</title>
<path fill="none" stroke="white" d="M116.798,-36.3034C127.253,-46.468 140.487,-59.3349 151.262,-69.8099"/>
<polygon fill="white" stroke="white" points="148.987,-72.4804 158.597,-76.9417 153.867,-67.4614 148.987,-72.4804"/>
</g>
<!-- y -->
<g id="node3" class="node"><title>y</title>
<polygon fill="none" stroke="white" points="198,-36 144,-36 144,-0 198,-0 198,-36"/>
<text text-anchor="middle" x="171" y="-14.3" font-family="Times,serif" font-size="14.00" fill="#ffffff">y</text>
</g>
<!-- y&#45;&gt;f2 -->
<g id="edge3" class="edge"><title>y&#45;&gt;f2</title>
<path fill="none" stroke="white" d="M171,-36.3034C171,-44.0173 171,-53.2875 171,-61.8876"/>
<polygon fill="white" stroke="white" points="167.5,-61.8956 171,-71.8957 174.5,-61.8957 167.5,-61.8956"/>
</g>
<!-- z -->
<g id="node4" class="node"><title>z</title>
<polygon fill="none" stroke="white" points="270,-36 216,-36 216,-0 270,-0 270,-36"/>
<text text-anchor="middle" x="243" y="-14.3" font-family="Times,serif" font-size="14.00" fill="#ffffff">z</text>
</g>
<!-- z&#45;&gt;f2 -->
<g id="edge4" class="edge"><title>z&#45;&gt;f2</title>
<path fill="none" stroke="white" d="M225.202,-36.3034C214.747,-46.468 201.513,-59.3349 190.738,-69.8099"/>
<polygon fill="white" stroke="white" points="188.133,-67.4614 183.403,-76.9417 193.013,-72.4804 188.133,-67.4614"/>
</g>
</g>
</svg>
