<?xml version="1.0" encoding="UTF-8" standalone="no"?>
<!DOCTYPE svg PUBLIC "-//W3C//DTD SVG 1.1//EN"
 "http://www.w3.org/Graphics/SVG/1.1/DTD/svg11.dtd">
<!-- Generated by graphviz version 2.38.0 (20140413.2041)
 -->
<!-- Title: %3 Pages: 1 -->
<svg width="386pt" height="98pt"
 viewBox="0.00 0.00 386.00 98.00" xmlns="http://www.w3.org/2000/svg" xmlns:xlink="http://www.w3.org/1999/xlink">
<g id="graph0" class="graph" transform="scale(1 1) rotate(0) translate(4 94)">
<title>%3</title>
<polygon fill="none" stroke="none" points="-4,4 -4,-94 382,-94 382,4 -4,4"/>
<!-- x1 -->
<g id="node1" class="node"><title>x1</title>
<polygon fill="none" stroke="white" points="54,-90 0,-90 0,-54 54,-54 54,-90"/>
</g>
<!-- f1 -->
<g id="node3" class="node"><title>f1</title>
<ellipse fill="none" stroke="white" cx="108" cy="-72" rx="18" ry="18"/>
<text text-anchor="middle" x="108" y="-68.3" font-family="Times,serif" font-size="14.00" fill="#ffffff">f</text>
</g>
<!-- x1&#45;&gt;f1 -->
<g id="edge1" class="edge"><title>x1&#45;&gt;f1</title>
<path fill="none" stroke="white" d="M54.3059,-72C62.4202,-72 71.3739,-72 79.5625,-72"/>
<polygon fill="white" stroke="white" points="79.7516,-75.5001 89.7516,-72 79.7516,-68.5001 79.7516,-75.5001"/>
</g>
<!-- x2 -->
<g id="node2" class="node"><title>x2</title>
<polygon fill="none" stroke="white" points="216,-36 162,-36 162,-0 216,-0 216,-36"/>
</g>
<!-- f2 -->
<g id="node4" class="node"><title>f2</title>
<ellipse fill="none" stroke="white" cx="270" cy="-45" rx="18" ry="18"/>
<text text-anchor="middle" x="270" y="-41.3" font-family="Times,serif" font-size="14.00" fill="#ffffff">f</text>
</g>
<!-- x2&#45;&gt;f2 -->
<g id="edge3" class="edge"><title>x2&#45;&gt;f2</title>
<path fill="none" stroke="white" d="M216.306,-26.9906C224.952,-29.9456 234.551,-33.2262 243.162,-36.1692"/>
<polygon fill="white" stroke="white" points="242.105,-39.5069 252.7,-39.4291 244.369,-32.8831 242.105,-39.5069"/>
</g>
<!-- y1 -->
<g id="node5" class="node"><title>y1</title>
<polygon fill="none" stroke="white" points="216,-90 162,-90 162,-54 216,-54 216,-90"/>
</g>
<!-- f1&#45;&gt;y1 -->
<g id="edge2" class="edge"><title>f1&#45;&gt;y1</title>
<path fill="none" stroke="white" d="M126.142,-72C133.644,-72 142.75,-72 151.642,-72"/>
<polygon fill="white" stroke="white" points="151.874,-75.5001 161.874,-72 151.874,-68.5001 151.874,-75.5001"/>
</g>
<!-- y2 -->
<g id="node6" class="node"><title>y2</title>
<polygon fill="none" stroke="white" points="378,-63 324,-63 324,-27 378,-27 378,-63"/>
</g>
<!-- f2&#45;&gt;y2 -->
<g id="edge4" class="edge"><title>f2&#45;&gt;y2</title>
<path fill="none" stroke="white" d="M288.142,-45C295.644,-45 304.75,-45 313.642,-45"/>
<polygon fill="white" stroke="white" points="313.874,-48.5001 323.874,-45 313.874,-41.5001 313.874,-48.5001"/>
</g>
<!-- y1&#45;&gt;f2 -->
<g id="edge5" class="edge"><title>y1&#45;&gt;f2</title>
<path fill="none" stroke="white" d="M216.306,-63.0094C224.952,-60.0544 234.551,-56.7738 243.162,-53.8308"/>
<polygon fill="white" stroke="white" points="244.369,-57.1169 252.7,-50.5709 242.105,-50.4931 244.369,-57.1169"/>
</g>
</g>
</svg>
