<?xml version="1.0" encoding="UTF-8" standalone="no"?>
<!DOCTYPE svg PUBLIC "-//W3C//DTD SVG 1.1//EN"
 "http://www.w3.org/Graphics/SVG/1.1/DTD/svg11.dtd">
<!-- Generated by graphviz version 2.38.0 (20140413.2041)
 -->
<!-- Title: %3 Pages: 1 -->
<svg width="2051pt" height="603pt"
 viewBox="0.00 0.00 2050.84 602.89" xmlns="http://www.w3.org/2000/svg" xmlns:xlink="http://www.w3.org/1999/xlink">
<g id="graph0" class="graph" transform="scale(1 1) rotate(0) translate(4 598.894)">
<title>%3</title>
<polygon fill="none" stroke="none" points="-4,4 -4,-598.894 2046.84,-598.894 2046.84,4 -4,4"/>
<!-- &#45;4845215591907649214 -->
<g id="node1" class="node"><title>&#45;4845215591907649214</title>
<polygon fill="none" stroke="white" points="132.896,-52.4469 78.8962,-52.4469 78.8962,-16.4469 132.896,-16.4469 132.896,-52.4469"/>
<text text-anchor="middle" x="105.896" y="-30.7469" font-family="Times,serif" font-size="14.00" fill="white">inc&#45;#0</text>
</g>
<!-- 7090846561610988391 -->
<g id="node47" class="node"><title>7090846561610988391</title>
<ellipse fill="none" stroke="white" cx="203.343" cy="-34.4469" rx="34.394" ry="34.394"/>
<text text-anchor="middle" x="203.343" y="-30.7469" font-family="Times,serif" font-size="14.00" fill="white">double</text>
</g>
<!-- &#45;4845215591907649214&#45;&gt;7090846561610988391 -->
<g id="edge44" class="edge"><title>&#45;4845215591907649214&#45;&gt;7090846561610988391</title>
<path fill="none" stroke="white" d="M132.977,-34.4469C140.912,-34.4469 149.859,-34.4469 158.624,-34.4469"/>
<polygon fill="white" stroke="white" points="158.759,-37.947 168.759,-34.4469 158.759,-30.947 158.759,-37.947"/>
</g>
<!-- &#45;8313579100736172133 -->
<g id="node2" class="node"><title>&#45;8313579100736172133</title>
<ellipse fill="none" stroke="white" cx="21.4481" cy="-34.4469" rx="21.3963" ry="21.3963"/>
<text text-anchor="middle" x="21.4481" y="-30.7469" font-family="Times,serif" font-size="14.00" fill="white">inc</text>
</g>
<!-- &#45;8313579100736172133&#45;&gt;&#45;4845215591907649214 -->
<g id="edge1" class="edge"><title>&#45;8313579100736172133&#45;&gt;&#45;4845215591907649214</title>
<path fill="none" stroke="white" d="M43.2532,-34.4469C51.0022,-34.4469 60.0389,-34.4469 68.7663,-34.4469"/>
<polygon fill="white" stroke="white" points="68.7737,-37.947 78.7737,-34.4469 68.7737,-30.947 68.7737,-37.947"/>
</g>
<!-- &#45;2932621776545760253 -->
<g id="node3" class="node"><title>&#45;2932621776545760253</title>
<polygon fill="none" stroke="white" points="1427.26,-503.447 1373.26,-503.447 1373.26,-467.447 1427.26,-467.447 1427.26,-503.447"/>
<text text-anchor="middle" x="1400.26" y="-481.747" font-family="Times,serif" font-size="14.00" fill="white">inc&#45;#1</text>
</g>
<!-- 6650456310446831855 -->
<g id="node12" class="node"><title>6650456310446831855</title>
<ellipse fill="none" stroke="white" cx="1509.71" cy="-485.447" rx="34.394" ry="34.394"/>
<text text-anchor="middle" x="1509.71" y="-481.747" font-family="Times,serif" font-size="14.00" fill="white">double</text>
</g>
<!-- &#45;2932621776545760253&#45;&gt;6650456310446831855 -->
<g id="edge8" class="edge"><title>&#45;2932621776545760253&#45;&gt;6650456310446831855</title>
<path fill="none" stroke="white" d="M1427.27,-485.447C1438.64,-485.447 1452.29,-485.447 1465.14,-485.447"/>
<polygon fill="white" stroke="white" points="1465.21,-488.947 1475.21,-485.447 1465.21,-481.947 1465.21,-488.947"/>
</g>
<!-- &#45;583104720922971490 -->
<g id="node4" class="node"><title>&#45;583104720922971490</title>
<ellipse fill="none" stroke="white" cx="1290.81" cy="-485.447" rx="21.3963" ry="21.3963"/>
<text text-anchor="middle" x="1290.81" y="-481.747" font-family="Times,serif" font-size="14.00" fill="white">inc</text>
</g>
<!-- &#45;583104720922971490&#45;&gt;&#45;2932621776545760253 -->
<g id="edge2" class="edge"><title>&#45;583104720922971490&#45;&gt;&#45;2932621776545760253</title>
<path fill="none" stroke="white" d="M1312.28,-485.447C1326.6,-485.447 1346.11,-485.447 1363.03,-485.447"/>
<polygon fill="white" stroke="white" points="1363.16,-488.947 1373.16,-485.447 1363.16,-481.947 1363.16,-488.947"/>
</g>
<!-- &#45;3671910165371517034 -->
<g id="node5" class="node"><title>&#45;3671910165371517034</title>
<polygon fill="none" stroke="white" points="1208.37,-428.447 1154.37,-428.447 1154.37,-392.447 1208.37,-392.447 1208.37,-428.447"/>
<text text-anchor="middle" x="1181.37" y="-406.747" font-family="Times,serif" font-size="14.00" fill="white">inc&#45;#2</text>
</g>
<!-- 8873248126739194997 -->
<g id="node46" class="node"><title>8873248126739194997</title>
<ellipse fill="none" stroke="white" cx="1290.81" cy="-410.447" rx="34.394" ry="34.394"/>
<text text-anchor="middle" x="1290.81" y="-406.747" font-family="Times,serif" font-size="14.00" fill="white">double</text>
</g>
<!-- &#45;3671910165371517034&#45;&gt;8873248126739194997 -->
<g id="edge42" class="edge"><title>&#45;3671910165371517034&#45;&gt;8873248126739194997</title>
<path fill="none" stroke="white" d="M1208.38,-410.447C1219.75,-410.447 1233.4,-410.447 1246.24,-410.447"/>
<polygon fill="white" stroke="white" points="1246.31,-413.947 1256.31,-410.447 1246.31,-406.947 1246.31,-413.947"/>
</g>
<!-- 8544868764174783663 -->
<g id="node6" class="node"><title>8544868764174783663</title>
<ellipse fill="none" stroke="white" cx="1071.92" cy="-410.447" rx="21.3963" ry="21.3963"/>
<text text-anchor="middle" x="1071.92" y="-406.747" font-family="Times,serif" font-size="14.00" fill="white">inc</text>
</g>
<!-- 8544868764174783663&#45;&gt;&#45;3671910165371517034 -->
<g id="edge3" class="edge"><title>8544868764174783663&#45;&gt;&#45;3671910165371517034</title>
<path fill="none" stroke="white" d="M1093.38,-410.447C1107.7,-410.447 1127.22,-410.447 1144.14,-410.447"/>
<polygon fill="white" stroke="white" points="1144.27,-413.947 1154.27,-410.447 1144.27,-406.947 1144.27,-413.947"/>
</g>
<!-- 5909975090345451789 -->
<g id="node7" class="node"><title>5909975090345451789</title>
<polygon fill="none" stroke="white" points="1863.05,-572.447 1792.05,-572.447 1792.05,-536.447 1863.05,-536.447 1863.05,-572.447"/>
<text text-anchor="middle" x="1827.55" y="-550.747" font-family="Times,serif" font-size="14.00" fill="white">double&#45;#3</text>
</g>
<!-- &#45;1766710504076584030 -->
<g id="node36" class="node"><title>&#45;1766710504076584030</title>
<ellipse fill="none" stroke="white" cx="1922.45" cy="-524.447" rx="23.2963" ry="23.2963"/>
<text text-anchor="middle" x="1922.45" y="-520.747" font-family="Times,serif" font-size="14.00" fill="white">add</text>
</g>
<!-- 5909975090345451789&#45;&gt;&#45;1766710504076584030 -->
<g id="edge29" class="edge"><title>5909975090345451789&#45;&gt;&#45;1766710504076584030</title>
<path fill="none" stroke="white" d="M1863.14,-543.276C1872.04,-540.402 1881.56,-537.328 1890.27,-534.514"/>
<polygon fill="white" stroke="white" points="1891.6,-537.762 1900.05,-531.358 1889.45,-531.1 1891.6,-537.762"/>
</g>
<!-- 7852463983750797288 -->
<g id="node8" class="node"><title>7852463983750797288</title>
<ellipse fill="none" stroke="white" cx="1721.6" cy="-560.447" rx="34.394" ry="34.394"/>
<text text-anchor="middle" x="1721.6" y="-556.747" font-family="Times,serif" font-size="14.00" fill="white">double</text>
</g>
<!-- 7852463983750797288&#45;&gt;5909975090345451789 -->
<g id="edge4" class="edge"><title>7852463983750797288&#45;&gt;5909975090345451789</title>
<path fill="none" stroke="white" d="M1756.06,-558.515C1764.16,-558.048 1772.95,-557.54 1781.49,-557.048"/>
<polygon fill="white" stroke="white" points="1781.94,-560.528 1791.72,-556.457 1781.53,-553.54 1781.94,-560.528"/>
</g>
<!-- &#45;7580541536527877355 -->
<g id="node9" class="node"><title>&#45;7580541536527877355</title>
<polygon fill="none" stroke="white" points="1642.65,-578.447 1588.65,-578.447 1588.65,-542.447 1642.65,-542.447 1642.65,-578.447"/>
<text text-anchor="middle" x="1615.65" y="-556.747" font-family="Times,serif" font-size="14.00" fill="white">inc&#45;#4</text>
</g>
<!-- &#45;7580541536527877355&#45;&gt;7852463983750797288 -->
<g id="edge5" class="edge"><title>&#45;7580541536527877355&#45;&gt;7852463983750797288</title>
<path fill="none" stroke="white" d="M1642.88,-560.447C1653.11,-560.447 1665.11,-560.447 1676.58,-560.447"/>
<polygon fill="white" stroke="white" points="1676.9,-563.947 1686.9,-560.447 1676.9,-556.947 1676.9,-563.947"/>
</g>
<!-- &#45;4028111000272116992 -->
<g id="node10" class="node"><title>&#45;4028111000272116992</title>
<ellipse fill="none" stroke="white" cx="1509.71" cy="-560.447" rx="21.3963" ry="21.3963"/>
<text text-anchor="middle" x="1509.71" y="-556.747" font-family="Times,serif" font-size="14.00" fill="white">inc</text>
</g>
<!-- &#45;4028111000272116992&#45;&gt;&#45;7580541536527877355 -->
<g id="edge6" class="edge"><title>&#45;4028111000272116992&#45;&gt;&#45;7580541536527877355</title>
<path fill="none" stroke="white" d="M1531.24,-560.447C1544.74,-560.447 1562.76,-560.447 1578.59,-560.447"/>
<polygon fill="white" stroke="white" points="1578.62,-563.947 1588.62,-560.447 1578.62,-556.947 1578.62,-563.947"/>
</g>
<!-- 8961874206552635350 -->
<g id="node11" class="node"><title>8961874206552635350</title>
<polygon fill="none" stroke="white" points="1651.15,-503.447 1580.15,-503.447 1580.15,-467.447 1651.15,-467.447 1651.15,-503.447"/>
<text text-anchor="middle" x="1615.65" y="-481.747" font-family="Times,serif" font-size="14.00" fill="white">double&#45;#5</text>
</g>
<!-- &#45;8742701748244785758 -->
<g id="node32" class="node"><title>&#45;8742701748244785758</title>
<ellipse fill="none" stroke="white" cx="1721.6" cy="-484.447" rx="23.2963" ry="23.2963"/>
<text text-anchor="middle" x="1721.6" y="-480.747" font-family="Times,serif" font-size="14.00" fill="white">add</text>
</g>
<!-- 8961874206552635350&#45;&gt;&#45;8742701748244785758 -->
<g id="edge24" class="edge"><title>8961874206552635350&#45;&gt;&#45;8742701748244785758</title>
<path fill="none" stroke="white" d="M1651.27,-485.114C1663.02,-485.001 1676.12,-484.875 1687.73,-484.763"/>
<polygon fill="white" stroke="white" points="1687.94,-488.261 1697.91,-484.665 1687.87,-481.262 1687.94,-488.261"/>
</g>
<!-- 6650456310446831855&#45;&gt;8961874206552635350 -->
<g id="edge7" class="edge"><title>6650456310446831855&#45;&gt;8961874206552635350</title>
<path fill="none" stroke="white" d="M1544.17,-485.447C1552.27,-485.447 1561.06,-485.447 1569.6,-485.447"/>
<polygon fill="white" stroke="white" points="1569.82,-488.947 1579.82,-485.447 1569.82,-481.947 1569.82,-488.947"/>
</g>
<!-- &#45;4763881768300847143 -->
<g id="node13" class="node"><title>&#45;4763881768300847143</title>
<polygon fill="none" stroke="white" points="989.472,-213.447 935.472,-213.447 935.472,-177.447 989.472,-177.447 989.472,-213.447"/>
<text text-anchor="middle" x="962.472" y="-191.747" font-family="Times,serif" font-size="14.00" fill="white">add&#45;#6</text>
</g>
<!-- &#45;5633112268001268314 -->
<g id="node18" class="node"><title>&#45;5633112268001268314</title>
<ellipse fill="none" stroke="white" cx="1071.92" cy="-259.447" rx="23.2963" ry="23.2963"/>
<text text-anchor="middle" x="1071.92" y="-255.747" font-family="Times,serif" font-size="14.00" fill="white">add</text>
</g>
<!-- &#45;4763881768300847143&#45;&gt;&#45;5633112268001268314 -->
<g id="edge13" class="edge"><title>&#45;4763881768300847143&#45;&gt;&#45;5633112268001268314</title>
<path fill="none" stroke="white" d="M989.482,-210.94C1005.62,-220.553 1026.36,-232.905 1042.87,-242.738"/>
<polygon fill="white" stroke="white" points="1041.16,-245.798 1051.55,-247.908 1044.75,-239.784 1041.16,-245.798"/>
</g>
<!-- 5658005672119638164 -->
<g id="node14" class="node"><title>5658005672119638164</title>
<ellipse fill="none" stroke="white" cx="853.025" cy="-184.447" rx="23.2963" ry="23.2963"/>
<text text-anchor="middle" x="853.025" y="-180.747" font-family="Times,serif" font-size="14.00" fill="white">add</text>
</g>
<!-- 5658005672119638164&#45;&gt;&#45;4763881768300847143 -->
<g id="edge9" class="edge"><title>5658005672119638164&#45;&gt;&#45;4763881768300847143</title>
<path fill="none" stroke="white" d="M876.549,-186.753C890.582,-188.19 908.962,-190.071 925.032,-191.716"/>
<polygon fill="white" stroke="white" points="924.886,-195.22 935.19,-192.756 925.599,-188.256 924.886,-195.22"/>
</g>
<!-- 2499936076758994984 -->
<g id="node15" class="node"><title>2499936076758994984</title>
<polygon fill="none" stroke="white" points="774.078,-138.447 720.078,-138.447 720.078,-102.447 774.078,-102.447 774.078,-138.447"/>
<text text-anchor="middle" x="747.078" y="-116.747" font-family="Times,serif" font-size="14.00" fill="white">add&#45;#7</text>
</g>
<!-- 2499936076758994984&#45;&gt;5658005672119638164 -->
<g id="edge10" class="edge"><title>2499936076758994984&#45;&gt;5658005672119638164</title>
<path fill="none" stroke="white" d="M774.308,-136.597C789.491,-145.945 808.596,-157.708 824.064,-167.232"/>
<polygon fill="white" stroke="white" points="822.344,-170.282 832.694,-172.545 826.014,-164.322 822.344,-170.282"/>
</g>
<!-- 8648709134694916591 -->
<g id="node16" class="node"><title>8648709134694916591</title>
<polygon fill="none" stroke="white" points="782.578,-203.447 711.578,-203.447 711.578,-167.447 782.578,-167.447 782.578,-203.447"/>
<text text-anchor="middle" x="747.078" y="-181.747" font-family="Times,serif" font-size="14.00" fill="white">double&#45;#8</text>
</g>
<!-- 8648709134694916591&#45;&gt;5658005672119638164 -->
<g id="edge11" class="edge"><title>8648709134694916591&#45;&gt;5658005672119638164</title>
<path fill="none" stroke="white" d="M782.691,-185.114C794.447,-185.001 807.542,-184.875 819.159,-184.763"/>
<polygon fill="white" stroke="white" points="819.364,-188.261 829.33,-184.665 819.296,-181.262 819.364,-188.261"/>
</g>
<!-- 1132381255315682587 -->
<g id="node17" class="node"><title>1132381255315682587</title>
<polygon fill="none" stroke="white" points="1208.37,-288.447 1154.37,-288.447 1154.37,-252.447 1208.37,-252.447 1208.37,-288.447"/>
<text text-anchor="middle" x="1181.37" y="-266.747" font-family="Times,serif" font-size="14.00" fill="white">add&#45;#9</text>
</g>
<!-- &#45;4437244350885814326 -->
<g id="node48" class="node"><title>&#45;4437244350885814326</title>
<ellipse fill="none" stroke="white" cx="1290.81" cy="-334.447" rx="23.2963" ry="23.2963"/>
<text text-anchor="middle" x="1290.81" y="-330.747" font-family="Times,serif" font-size="14.00" fill="white">add</text>
</g>
<!-- 1132381255315682587&#45;&gt;&#45;4437244350885814326 -->
<g id="edge47" class="edge"><title>1132381255315682587&#45;&gt;&#45;4437244350885814326</title>
<path fill="none" stroke="white" d="M1208.38,-285.94C1224.52,-295.553 1245.25,-307.905 1261.76,-317.738"/>
<polygon fill="white" stroke="white" points="1260.06,-320.798 1270.44,-322.908 1263.64,-314.784 1260.06,-320.798"/>
</g>
<!-- &#45;5633112268001268314&#45;&gt;1132381255315682587 -->
<g id="edge12" class="edge"><title>&#45;5633112268001268314&#45;&gt;1132381255315682587</title>
<path fill="none" stroke="white" d="M1095.44,-261.753C1109.48,-263.19 1127.86,-265.071 1143.93,-266.716"/>
<polygon fill="white" stroke="white" points="1143.78,-270.22 1154.08,-267.756 1144.49,-263.256 1143.78,-270.22"/>
</g>
<!-- 3646314459716132279 -->
<g id="node19" class="node"><title>3646314459716132279</title>
<polygon fill="none" stroke="white" points="1001.47,-278.447 923.472,-278.447 923.472,-242.447 1001.47,-242.447 1001.47,-278.447"/>
<text text-anchor="middle" x="962.472" y="-256.747" font-family="Times,serif" font-size="14.00" fill="white">double&#45;#10</text>
</g>
<!-- 3646314459716132279&#45;&gt;&#45;5633112268001268314 -->
<g id="edge14" class="edge"><title>3646314459716132279&#45;&gt;&#45;5633112268001268314</title>
<path fill="none" stroke="white" d="M1001.66,-260.092C1013.66,-259.98 1026.8,-259.858 1038.38,-259.75"/>
<polygon fill="white" stroke="white" points="1038.53,-263.249 1048.5,-259.656 1038.46,-256.249 1038.53,-263.249"/>
</g>
<!-- 4360173687504160092 -->
<g id="node20" class="node"><title>4360173687504160092</title>
<polygon fill="none" stroke="white" points="776.078,-278.447 718.078,-278.447 718.078,-242.447 776.078,-242.447 776.078,-278.447"/>
<text text-anchor="middle" x="747.078" y="-256.747" font-family="Times,serif" font-size="14.00" fill="white">inc&#45;#11</text>
</g>
<!-- &#45;7301579139170356110 -->
<g id="node45" class="node"><title>&#45;7301579139170356110</title>
<ellipse fill="none" stroke="white" cx="853.025" cy="-260.447" rx="34.394" ry="34.394"/>
<text text-anchor="middle" x="853.025" y="-256.747" font-family="Times,serif" font-size="14.00" fill="white">double</text>
</g>
<!-- 4360173687504160092&#45;&gt;&#45;7301579139170356110 -->
<g id="edge40" class="edge"><title>4360173687504160092&#45;&gt;&#45;7301579139170356110</title>
<path fill="none" stroke="white" d="M776.207,-260.447C786.049,-260.447 797.347,-260.447 808.165,-260.447"/>
<polygon fill="white" stroke="white" points="808.326,-263.947 818.326,-260.447 808.326,-256.947 808.326,-263.947"/>
</g>
<!-- 7833615537841376789 -->
<g id="node21" class="node"><title>7833615537841376789</title>
<ellipse fill="none" stroke="white" cx="641.131" cy="-260.447" rx="21.3963" ry="21.3963"/>
<text text-anchor="middle" x="641.131" y="-256.747" font-family="Times,serif" font-size="14.00" fill="white">inc</text>
</g>
<!-- 7833615537841376789&#45;&gt;4360173687504160092 -->
<g id="edge15" class="edge"><title>7833615537841376789&#45;&gt;4360173687504160092</title>
<path fill="none" stroke="white" d="M662.667,-260.447C675.455,-260.447 692.309,-260.447 707.518,-260.447"/>
<polygon fill="white" stroke="white" points="707.715,-263.947 717.715,-260.447 707.715,-256.947 707.715,-263.947"/>
</g>
<!-- &#45;9100509612060253347 -->
<g id="node22" class="node"><title>&#45;9100509612060253347</title>
<polygon fill="none" stroke="white" points="562.184,-63.4469 501.184,-63.4469 501.184,-27.4469 562.184,-27.4469 562.184,-63.4469"/>
<text text-anchor="middle" x="531.684" y="-41.7469" font-family="Times,serif" font-size="14.00" fill="white">add&#45;#12</text>
</g>
<!-- 1720976187498150337 -->
<g id="node33" class="node"><title>1720976187498150337</title>
<ellipse fill="none" stroke="white" cx="641.131" cy="-109.447" rx="23.2963" ry="23.2963"/>
<text text-anchor="middle" x="641.131" y="-105.747" font-family="Times,serif" font-size="14.00" fill="white">add</text>
</g>
<!-- &#45;9100509612060253347&#45;&gt;1720976187498150337 -->
<g id="edge26" class="edge"><title>&#45;9100509612060253347&#45;&gt;1720976187498150337</title>
<path fill="none" stroke="white" d="M562.329,-63.1046C577.761,-72.2966 596.535,-83.4794 611.775,-92.5567"/>
<polygon fill="white" stroke="white" points="610.362,-95.7894 620.745,-97.8999 613.945,-89.7754 610.362,-95.7894"/>
</g>
<!-- 4792357282213669048 -->
<g id="node23" class="node"><title>4792357282213669048</title>
<ellipse fill="none" stroke="white" cx="422.237" cy="-34.4469" rx="23.2963" ry="23.2963"/>
<text text-anchor="middle" x="422.237" y="-30.7469" font-family="Times,serif" font-size="14.00" fill="white">add</text>
</g>
<!-- 4792357282213669048&#45;&gt;&#45;9100509612060253347 -->
<g id="edge16" class="edge"><title>4792357282213669048&#45;&gt;&#45;9100509612060253347</title>
<path fill="none" stroke="white" d="M445.761,-36.7529C458.761,-38.0838 475.49,-39.7964 490.659,-41.3493"/>
<polygon fill="white" stroke="white" points="490.541,-44.8555 500.845,-42.3922 491.254,-37.8919 490.541,-44.8555"/>
</g>
<!-- &#45;2108020372042511554 -->
<g id="node24" class="node"><title>&#45;2108020372042511554</title>
<polygon fill="none" stroke="white" points="351.79,-52.4469 273.79,-52.4469 273.79,-16.4469 351.79,-16.4469 351.79,-52.4469"/>
<text text-anchor="middle" x="312.79" y="-30.7469" font-family="Times,serif" font-size="14.00" fill="white">double&#45;#13</text>
</g>
<!-- &#45;2108020372042511554&#45;&gt;4792357282213669048 -->
<g id="edge17" class="edge"><title>&#45;2108020372042511554&#45;&gt;4792357282213669048</title>
<path fill="none" stroke="white" d="M351.974,-34.4469C363.982,-34.4469 377.122,-34.4469 388.699,-34.4469"/>
<polygon fill="white" stroke="white" points="388.815,-37.947 398.815,-34.4469 388.815,-30.947 388.815,-37.947"/>
</g>
<!-- 540123835692979355 -->
<g id="node25" class="node"><title>540123835692979355</title>
<polygon fill="none" stroke="white" points="560.684,-203.447 502.684,-203.447 502.684,-167.447 560.684,-167.447 560.684,-203.447"/>
<text text-anchor="middle" x="531.684" y="-181.747" font-family="Times,serif" font-size="14.00" fill="white">inc&#45;#14</text>
</g>
<!-- &#45;6561839732479386822 -->
<g id="node37" class="node"><title>&#45;6561839732479386822</title>
<ellipse fill="none" stroke="white" cx="641.131" cy="-185.447" rx="34.394" ry="34.394"/>
<text text-anchor="middle" x="641.131" y="-181.747" font-family="Times,serif" font-size="14.00" fill="white">double</text>
</g>
<!-- 540123835692979355&#45;&gt;&#45;6561839732479386822 -->
<g id="edge32" class="edge"><title>540123835692979355&#45;&gt;&#45;6561839732479386822</title>
<path fill="none" stroke="white" d="M560.914,-185.447C571.687,-185.447 584.239,-185.447 596.133,-185.447"/>
<polygon fill="white" stroke="white" points="596.355,-188.947 606.355,-185.447 596.355,-181.947 596.355,-188.947"/>
</g>
<!-- &#45;8143314720187210714 -->
<g id="node26" class="node"><title>&#45;8143314720187210714</title>
<ellipse fill="none" stroke="white" cx="422.237" cy="-185.447" rx="21.3963" ry="21.3963"/>
<text text-anchor="middle" x="422.237" y="-181.747" font-family="Times,serif" font-size="14.00" fill="white">inc</text>
</g>
<!-- &#45;8143314720187210714&#45;&gt;540123835692979355 -->
<g id="edge18" class="edge"><title>&#45;8143314720187210714&#45;&gt;540123835692979355</title>
<path fill="none" stroke="white" d="M443.7,-185.447C457.385,-185.447 475.819,-185.447 492.193,-185.447"/>
<polygon fill="white" stroke="white" points="492.586,-188.947 502.586,-185.447 492.586,-181.947 492.586,-188.947"/>
</g>
<!-- &#45;2853603750561273179 -->
<g id="node27" class="node"><title>&#45;2853603750561273179</title>
<polygon fill="none" stroke="white" points="1646.15,-438.447 1585.15,-438.447 1585.15,-402.447 1646.15,-402.447 1646.15,-438.447"/>
<text text-anchor="middle" x="1615.65" y="-416.747" font-family="Times,serif" font-size="14.00" fill="white">add&#45;#15</text>
</g>
<!-- &#45;2853603750561273179&#45;&gt;&#45;8742701748244785758 -->
<g id="edge23" class="edge"><title>&#45;2853603750561273179&#45;&gt;&#45;8742701748244785758</title>
<path fill="none" stroke="white" d="M1646.16,-438.616C1660.64,-447.528 1677.99,-458.213 1692.3,-467.024"/>
<polygon fill="white" stroke="white" points="1690.85,-470.243 1701.2,-472.505 1694.52,-464.282 1690.85,-470.243"/>
</g>
<!-- &#45;1538772511992573424 -->
<g id="node28" class="node"><title>&#45;1538772511992573424</title>
<ellipse fill="none" stroke="white" cx="1509.71" cy="-409.447" rx="23.2963" ry="23.2963"/>
<text text-anchor="middle" x="1509.71" y="-405.747" font-family="Times,serif" font-size="14.00" fill="white">add</text>
</g>
<!-- &#45;1538772511992573424&#45;&gt;&#45;2853603750561273179 -->
<g id="edge19" class="edge"><title>&#45;1538772511992573424&#45;&gt;&#45;2853603750561273179</title>
<path fill="none" stroke="white" d="M1533.01,-411.807C1545.2,-413.097 1560.67,-414.734 1574.86,-416.235"/>
<polygon fill="white" stroke="white" points="1574.58,-419.726 1584.89,-417.298 1575.32,-412.765 1574.58,-419.726"/>
</g>
<!-- &#45;6083880247080449604 -->
<g id="node29" class="node"><title>&#45;6083880247080449604</title>
<polygon fill="none" stroke="white" points="1439.26,-428.447 1361.26,-428.447 1361.26,-392.447 1439.26,-392.447 1439.26,-428.447"/>
<text text-anchor="middle" x="1400.26" y="-406.747" font-family="Times,serif" font-size="14.00" fill="white">double&#45;#16</text>
</g>
<!-- &#45;6083880247080449604&#45;&gt;&#45;1538772511992573424 -->
<g id="edge20" class="edge"><title>&#45;6083880247080449604&#45;&gt;&#45;1538772511992573424</title>
<path fill="none" stroke="white" d="M1439.44,-410.092C1451.45,-409.98 1464.59,-409.858 1476.17,-409.75"/>
<polygon fill="white" stroke="white" points="1476.32,-413.249 1486.28,-409.656 1476.25,-406.249 1476.32,-413.249"/>
</g>
<!-- &#45;5781100195488513025 -->
<g id="node30" class="node"><title>&#45;5781100195488513025</title>
<polygon fill="none" stroke="white" points="1430.76,-363.447 1369.76,-363.447 1369.76,-327.447 1430.76,-327.447 1430.76,-363.447"/>
<text text-anchor="middle" x="1400.26" y="-341.747" font-family="Times,serif" font-size="14.00" fill="white">add&#45;#17</text>
</g>
<!-- &#45;5781100195488513025&#45;&gt;&#45;1538772511992573424 -->
<g id="edge21" class="edge"><title>&#45;5781100195488513025&#45;&gt;&#45;1538772511992573424</title>
<path fill="none" stroke="white" d="M1430.9,-363.105C1446.34,-372.297 1465.11,-383.479 1480.35,-392.557"/>
<polygon fill="white" stroke="white" points="1478.94,-395.789 1489.32,-397.9 1482.52,-389.775 1478.94,-395.789"/>
</g>
<!-- &#45;1251691801613562265 -->
<g id="node31" class="node"><title>&#45;1251691801613562265</title>
<polygon fill="none" stroke="white" points="1858.05,-513.447 1797.05,-513.447 1797.05,-477.447 1858.05,-477.447 1858.05,-513.447"/>
<text text-anchor="middle" x="1827.55" y="-491.747" font-family="Times,serif" font-size="14.00" fill="white">add&#45;#18</text>
</g>
<!-- &#45;1251691801613562265&#45;&gt;&#45;1766710504076584030 -->
<g id="edge30" class="edge"><title>&#45;1251691801613562265&#45;&gt;&#45;1766710504076584030</title>
<path fill="none" stroke="white" d="M1858.2,-504.702C1868.39,-507.885 1879.83,-511.457 1890.16,-514.679"/>
<polygon fill="white" stroke="white" points="1889.43,-518.118 1900.02,-517.757 1891.51,-511.436 1889.43,-518.118"/>
</g>
<!-- &#45;8742701748244785758&#45;&gt;&#45;1251691801613562265 -->
<g id="edge22" class="edge"><title>&#45;8742701748244785758&#45;&gt;&#45;1251691801613562265</title>
<path fill="none" stroke="white" d="M1744.9,-486.807C1757.09,-488.097 1772.56,-489.734 1786.75,-491.235"/>
<polygon fill="white" stroke="white" points="1786.47,-494.726 1796.79,-492.298 1787.21,-487.765 1786.47,-494.726"/>
</g>
<!-- 1720976187498150337&#45;&gt;2499936076758994984 -->
<g id="edge25" class="edge"><title>1720976187498150337&#45;&gt;2499936076758994984</title>
<path fill="none" stroke="white" d="M664.43,-111.807C677.614,-113.202 694.628,-115.002 709.71,-116.598"/>
<polygon fill="white" stroke="white" points="709.459,-120.091 719.772,-117.663 710.196,-113.13 709.459,-120.091"/>
</g>
<!-- &#45;4690532081989531722 -->
<g id="node34" class="node"><title>&#45;4690532081989531722</title>
<polygon fill="none" stroke="white" points="570.684,-128.447 492.684,-128.447 492.684,-92.4469 570.684,-92.4469 570.684,-128.447"/>
<text text-anchor="middle" x="531.684" y="-106.747" font-family="Times,serif" font-size="14.00" fill="white">double&#45;#19</text>
</g>
<!-- &#45;4690532081989531722&#45;&gt;1720976187498150337 -->
<g id="edge27" class="edge"><title>&#45;4690532081989531722&#45;&gt;1720976187498150337</title>
<path fill="none" stroke="white" d="M570.868,-110.092C582.876,-109.98 596.016,-109.858 607.593,-109.75"/>
<polygon fill="white" stroke="white" points="607.742,-113.249 617.709,-109.656 607.677,-106.249 607.742,-113.249"/>
</g>
<!-- 3989649226275045479 -->
<g id="node35" class="node"><title>3989649226275045479</title>
<polygon fill="none" stroke="white" points="2042.84,-542.447 1981.84,-542.447 1981.84,-506.447 2042.84,-506.447 2042.84,-542.447"/>
<text text-anchor="middle" x="2012.34" y="-520.747" font-family="Times,serif" font-size="14.00" fill="white">add&#45;#20</text>
</g>
<!-- &#45;1766710504076584030&#45;&gt;3989649226275045479 -->
<g id="edge28" class="edge"><title>&#45;1766710504076584030&#45;&gt;3989649226275045479</title>
<path fill="none" stroke="white" d="M1946.08,-524.447C1953.9,-524.447 1962.92,-524.447 1971.7,-524.447"/>
<polygon fill="white" stroke="white" points="1971.82,-527.947 1981.82,-524.447 1971.82,-520.947 1971.82,-527.947"/>
</g>
<!-- &#45;6561839732479386822&#45;&gt;8648709134694916591 -->
<g id="edge31" class="edge"><title>&#45;6561839732479386822&#45;&gt;8648709134694916591</title>
<path fill="none" stroke="white" d="M675.593,-185.447C683.694,-185.447 692.485,-185.447 701.023,-185.447"/>
<polygon fill="white" stroke="white" points="701.248,-188.947 711.248,-185.447 701.248,-181.947 701.248,-188.947"/>
</g>
<!-- 5015101820949461745 -->
<g id="node38" class="node"><title>5015101820949461745</title>
<polygon fill="none" stroke="white" points="991.472,-353.447 933.472,-353.447 933.472,-317.447 991.472,-317.447 991.472,-353.447"/>
<text text-anchor="middle" x="962.472" y="-331.747" font-family="Times,serif" font-size="14.00" fill="white">inc&#45;#21</text>
</g>
<!-- 3734223033919159819 -->
<g id="node41" class="node"><title>3734223033919159819</title>
<ellipse fill="none" stroke="white" cx="1071.92" cy="-335.447" rx="34.394" ry="34.394"/>
<text text-anchor="middle" x="1071.92" y="-331.747" font-family="Times,serif" font-size="14.00" fill="white">double</text>
</g>
<!-- 5015101820949461745&#45;&gt;3734223033919159819 -->
<g id="edge35" class="edge"><title>5015101820949461745&#45;&gt;3734223033919159819</title>
<path fill="none" stroke="white" d="M991.702,-335.447C1002.47,-335.447 1015.03,-335.447 1026.92,-335.447"/>
<polygon fill="white" stroke="white" points="1027.14,-338.947 1037.14,-335.447 1027.14,-331.947 1027.14,-338.947"/>
</g>
<!-- 2571672826146835868 -->
<g id="node39" class="node"><title>2571672826146835868</title>
<ellipse fill="none" stroke="white" cx="853.025" cy="-335.447" rx="21.3963" ry="21.3963"/>
<text text-anchor="middle" x="853.025" y="-331.747" font-family="Times,serif" font-size="14.00" fill="white">inc</text>
</g>
<!-- 2571672826146835868&#45;&gt;5015101820949461745 -->
<g id="edge33" class="edge"><title>2571672826146835868&#45;&gt;5015101820949461745</title>
<path fill="none" stroke="white" d="M874.488,-335.447C888.173,-335.447 906.606,-335.447 922.981,-335.447"/>
<polygon fill="white" stroke="white" points="923.374,-338.947 933.374,-335.447 923.374,-331.947 923.374,-338.947"/>
</g>
<!-- 614840478955043378 -->
<g id="node40" class="node"><title>614840478955043378</title>
<polygon fill="none" stroke="white" points="1220.37,-353.447 1142.37,-353.447 1142.37,-317.447 1220.37,-317.447 1220.37,-353.447"/>
<text text-anchor="middle" x="1181.37" y="-331.747" font-family="Times,serif" font-size="14.00" fill="white">double&#45;#22</text>
</g>
<!-- 614840478955043378&#45;&gt;&#45;4437244350885814326 -->
<g id="edge46" class="edge"><title>614840478955043378&#45;&gt;&#45;4437244350885814326</title>
<path fill="none" stroke="white" d="M1220.55,-335.092C1232.56,-334.98 1245.7,-334.858 1257.27,-334.75"/>
<polygon fill="white" stroke="white" points="1257.42,-338.249 1267.39,-334.656 1257.36,-331.249 1257.42,-338.249"/>
</g>
<!-- 3734223033919159819&#45;&gt;614840478955043378 -->
<g id="edge34" class="edge"><title>3734223033919159819&#45;&gt;614840478955043378</title>
<path fill="none" stroke="white" d="M1106.62,-335.447C1114.76,-335.447 1123.61,-335.447 1132.27,-335.447"/>
<polygon fill="white" stroke="white" points="1132.29,-338.947 1142.29,-335.447 1132.29,-331.947 1132.29,-338.947"/>
</g>
<!-- &#45;5010063918227633357 -->
<g id="node42" class="node"><title>&#45;5010063918227633357</title>
<polygon fill="none" stroke="white" points="341.79,-128.447 283.79,-128.447 283.79,-92.4469 341.79,-92.4469 341.79,-128.447"/>
<text text-anchor="middle" x="312.79" y="-106.747" font-family="Times,serif" font-size="14.00" fill="white">inc&#45;#23</text>
</g>
<!-- 5894247895836097487 -->
<g id="node44" class="node"><title>5894247895836097487</title>
<ellipse fill="none" stroke="white" cx="422.237" cy="-110.447" rx="34.394" ry="34.394"/>
<text text-anchor="middle" x="422.237" y="-106.747" font-family="Times,serif" font-size="14.00" fill="white">double</text>
</g>
<!-- &#45;5010063918227633357&#45;&gt;5894247895836097487 -->
<g id="edge38" class="edge"><title>&#45;5010063918227633357&#45;&gt;5894247895836097487</title>
<path fill="none" stroke="white" d="M342.021,-110.447C352.793,-110.447 365.345,-110.447 377.239,-110.447"/>
<polygon fill="white" stroke="white" points="377.461,-113.947 387.461,-110.447 377.461,-106.947 377.461,-113.947"/>
</g>
<!-- 2876075115956228942 -->
<g id="node43" class="node"><title>2876075115956228942</title>
<ellipse fill="none" stroke="white" cx="203.343" cy="-110.447" rx="21.3963" ry="21.3963"/>
<text text-anchor="middle" x="203.343" y="-106.747" font-family="Times,serif" font-size="14.00" fill="white">inc</text>
</g>
<!-- 2876075115956228942&#45;&gt;&#45;5010063918227633357 -->
<g id="edge36" class="edge"><title>2876075115956228942&#45;&gt;&#45;5010063918227633357</title>
<path fill="none" stroke="white" d="M224.806,-110.447C238.492,-110.447 256.925,-110.447 273.3,-110.447"/>
<polygon fill="white" stroke="white" points="273.692,-113.947 283.692,-110.447 273.692,-106.947 273.692,-113.947"/>
</g>
<!-- 5894247895836097487&#45;&gt;&#45;4690532081989531722 -->
<g id="edge37" class="edge"><title>5894247895836097487&#45;&gt;&#45;4690532081989531722</title>
<path fill="none" stroke="white" d="M456.939,-110.447C465.078,-110.447 473.933,-110.447 482.591,-110.447"/>
<polygon fill="white" stroke="white" points="482.608,-113.947 492.608,-110.447 482.608,-106.947 482.608,-113.947"/>
</g>
<!-- &#45;7301579139170356110&#45;&gt;3646314459716132279 -->
<g id="edge39" class="edge"><title>&#45;7301579139170356110&#45;&gt;3646314459716132279</title>
<path fill="none" stroke="white" d="M887.727,-260.447C895.866,-260.447 904.721,-260.447 913.378,-260.447"/>
<polygon fill="white" stroke="white" points="913.396,-263.947 923.396,-260.447 913.396,-256.947 913.396,-263.947"/>
</g>
<!-- 8873248126739194997&#45;&gt;&#45;6083880247080449604 -->
<g id="edge41" class="edge"><title>8873248126739194997&#45;&gt;&#45;6083880247080449604</title>
<path fill="none" stroke="white" d="M1325.51,-410.447C1333.65,-410.447 1342.51,-410.447 1351.17,-410.447"/>
<polygon fill="white" stroke="white" points="1351.18,-413.947 1361.18,-410.447 1351.18,-406.947 1351.18,-413.947"/>
</g>
<!-- 7090846561610988391&#45;&gt;&#45;2108020372042511554 -->
<g id="edge43" class="edge"><title>7090846561610988391&#45;&gt;&#45;2108020372042511554</title>
<path fill="none" stroke="white" d="M238.045,-34.4469C246.184,-34.4469 255.039,-34.4469 263.697,-34.4469"/>
<polygon fill="white" stroke="white" points="263.715,-37.947 273.715,-34.4469 263.715,-30.947 263.715,-37.947"/>
</g>
<!-- &#45;4437244350885814326&#45;&gt;&#45;5781100195488513025 -->
<g id="edge45" class="edge"><title>&#45;4437244350885814326&#45;&gt;&#45;5781100195488513025</title>
<path fill="none" stroke="white" d="M1314.34,-336.753C1327.34,-338.084 1344.07,-339.796 1359.23,-341.349"/>
<polygon fill="white" stroke="white" points="1359.12,-344.855 1369.42,-342.392 1359.83,-337.892 1359.12,-344.855"/>
</g>
</g>
</svg>
