<?xml version="1.0" encoding="UTF-8" standalone="no"?>
<!-- Created with Inkscape (http://www.inkscape.org/) -->

<svg
   xmlns:dc="http://purl.org/dc/elements/1.1/"
   xmlns:cc="http://creativecommons.org/ns#"
   xmlns:rdf="http://www.w3.org/1999/02/22-rdf-syntax-ns#"
   xmlns:svg="http://www.w3.org/2000/svg"
   xmlns="http://www.w3.org/2000/svg"
   xmlns:sodipodi="http://sodipodi.sourceforge.net/DTD/sodipodi-0.dtd"
   xmlns:inkscape="http://www.inkscape.org/namespaces/inkscape"
   width="466.12955"
   height="376.31738"
   id="svg2"
   version="1.1"
   inkscape:version="0.48.4 r9939"
   sodipodi:docname="modularity-1.svg">
  <defs
     id="defs4" />
  <sodipodi:namedview
     id="base"
     pagecolor="#ffffff"
     bordercolor="#666666"
     borderopacity="1.0"
     inkscape:pageopacity="0.0"
     inkscape:pageshadow="2"
     inkscape:zoom="2"
     inkscape:cx="301.16244"
     inkscape:cy="197.51888"
     inkscape:document-units="px"
     inkscape:current-layer="layer1"
     showgrid="false"
     fit-margin-top="0"
     fit-margin-left="0"
     fit-margin-right="0"
     fit-margin-bottom="0"
     inkscape:window-width="1600"
     inkscape:window-height="876"
     inkscape:window-x="0"
     inkscape:window-y="24"
     inkscape:window-maximized="1" />
  <metadata
     id="metadata7">
    <rdf:RDF>
      <cc:Work
         rdf:about="">
        <dc:format>image/svg+xml</dc:format>
        <dc:type
           rdf:resource="http://purl.org/dc/dcmitype/StillImage" />
        <dc:title></dc:title>
      </cc:Work>
    </rdf:RDF>
  </metadata>
  <g
     inkscape:label="Layer 1"
     inkscape:groupmode="layer"
     id="layer1"
     transform="translate(-76.781755,-235.60815)">
    <path
       sodipodi:type="arc"
       style="opacity:0.6;fill:none;stroke:#000000;stroke-width:2;stroke-miterlimit:4;stroke-opacity:1;stroke-dasharray:none;stroke-dashoffset:0"
       id="path2985"
       sodipodi:cx="152.02795"
       sodipodi:cy="341.71988"
       sodipodi:rx="3.5355339"
       sodipodi:ry="3.5355339"
       d="m 155.56349,341.71988 c 0,1.95262 -1.58291,3.53553 -3.53554,3.53553 -1.95262,0 -3.53553,-1.58291 -3.53553,-3.53553 0,-1.95262 1.58291,-3.53553 3.53553,-3.53553 1.95263,0 3.53554,1.58291 3.53554,3.53553 z" />
    <path
       transform="translate(-43.941632,33.840098)"
       sodipodi:type="arc"
       style="opacity:0.6;fill:none;stroke:#000000;stroke-width:2;stroke-miterlimit:4;stroke-opacity:1;stroke-dasharray:none;stroke-dashoffset:0"
       id="path2985-2"
       sodipodi:cx="152.02795"
       sodipodi:cy="341.71988"
       sodipodi:rx="3.5355339"
       sodipodi:ry="3.5355339"
       d="m 155.56349,341.71988 c 0,1.95262 -1.58291,3.53553 -3.53554,3.53553 -1.95262,0 -3.53553,-1.58291 -3.53553,-3.53553 0,-1.95262 1.58291,-3.53553 3.53553,-3.53553 1.95263,0 3.53554,1.58291 3.53554,3.53553 z" />
    <path
       transform="translate(27.779199,46.972081)"
       sodipodi:type="arc"
       style="opacity:0.6;fill:none;stroke:#000000;stroke-width:2;stroke-miterlimit:4;stroke-opacity:1;stroke-dasharray:none;stroke-dashoffset:0"
       id="path2985-3"
       sodipodi:cx="152.02795"
       sodipodi:cy="341.71988"
       sodipodi:rx="3.5355339"
       sodipodi:ry="3.5355339"
       d="m 155.56349,341.71988 c 0,1.95262 -1.58291,3.53553 -3.53554,3.53553 -1.95262,0 -3.53553,-1.58291 -3.53553,-3.53553 0,-1.95262 1.58291,-3.53553 3.53553,-3.53553 1.95263,0 3.53554,1.58291 3.53554,3.53553 z" />
    <path
       transform="translate(-23.738581,108.59139)"
       sodipodi:type="arc"
       style="opacity:0.6;fill:none;stroke:#000000;stroke-width:2;stroke-miterlimit:4;stroke-opacity:1;stroke-dasharray:none;stroke-dashoffset:0"
       id="path2985-30"
       sodipodi:cx="152.02795"
       sodipodi:cy="341.71988"
       sodipodi:rx="3.5355339"
       sodipodi:ry="3.5355339"
       d="m 155.56349,341.71988 c 0,1.95262 -1.58291,3.53553 -3.53554,3.53553 -1.95262,0 -3.53553,-1.58291 -3.53553,-3.53553 0,-1.95262 1.58291,-3.53553 3.53553,-3.53553 1.95263,0 3.53554,1.58291 3.53554,3.53553 z" />
    <path
       transform="translate(286.37825,-59.093936)"
       sodipodi:type="arc"
       style="opacity:0.6;fill:none;stroke:#000000;stroke-width:2;stroke-miterlimit:4;stroke-opacity:1;stroke-dasharray:none;stroke-dashoffset:0"
       id="path2985-6"
       sodipodi:cx="152.02795"
       sodipodi:cy="341.71988"
       sodipodi:rx="3.5355339"
       sodipodi:ry="3.5355339"
       d="m 155.56349,341.71988 c 0,1.95262 -1.58291,3.53553 -3.53554,3.53553 -1.95262,0 -3.53553,-1.58291 -3.53553,-3.53553 0,-1.95262 1.58291,-3.53553 3.53553,-3.53553 1.95263,0 3.53554,1.58291 3.53554,3.53553 z" />
    <path
       transform="translate(344.9671,-81.317292)"
       sodipodi:type="arc"
       style="opacity:0.6;fill:none;stroke:#000000;stroke-width:2;stroke-miterlimit:4;stroke-opacity:1;stroke-dasharray:none;stroke-dashoffset:0"
       id="path2985-67"
       sodipodi:cx="152.02795"
       sodipodi:cy="341.71988"
       sodipodi:rx="3.5355339"
       sodipodi:ry="3.5355339"
       d="m 155.56349,341.71988 c 0,1.95262 -1.58291,3.53553 -3.53554,3.53553 -1.95262,0 -3.53553,-1.58291 -3.53553,-3.53553 0,-1.95262 1.58291,-3.53553 3.53553,-3.53553 1.95263,0 3.53554,1.58291 3.53554,3.53553 z" />
    <path
       transform="translate(318.75364,-17.425143)"
       sodipodi:type="arc"
       style="opacity:0.6;fill:none;stroke:#000000;stroke-width:2;stroke-miterlimit:4;stroke-opacity:1;stroke-dasharray:none;stroke-dashoffset:0"
       id="path2985-0"
       sodipodi:cx="152.02795"
       sodipodi:cy="341.71988"
       sodipodi:rx="3.5355339"
       sodipodi:ry="3.5355339"
       d="m 155.56349,341.71988 c 0,1.95262 -1.58291,3.53553 -3.53554,3.53553 -1.95262,0 -3.53553,-1.58291 -3.53553,-3.53553 0,-1.95262 1.58291,-3.53553 3.53553,-3.53553 1.95263,0 3.53554,1.58291 3.53554,3.53553 z" />
    <path
       transform="translate(272.23611,151.01779)"
       sodipodi:type="arc"
       style="opacity:0.6;fill:none;stroke:#000000;stroke-width:2;stroke-miterlimit:4;stroke-opacity:1;stroke-dasharray:none;stroke-dashoffset:0"
       id="path2985-8"
       sodipodi:cx="152.02795"
       sodipodi:cy="341.71988"
       sodipodi:rx="3.5355339"
       sodipodi:ry="3.5355339"
       d="m 155.56349,341.71988 c 0,1.95262 -1.58291,3.53553 -3.53554,3.53553 -1.95262,0 -3.53553,-1.58291 -3.53553,-3.53553 0,-1.95262 1.58291,-3.53553 3.53553,-3.53553 1.95263,0 3.53554,1.58291 3.53554,3.53553 z" />
    <path
       transform="translate(315.67267,173.24115)"
       sodipodi:type="arc"
       style="opacity:0.6;fill:none;stroke:#000000;stroke-width:2;stroke-miterlimit:4;stroke-opacity:1;stroke-dasharray:none;stroke-dashoffset:0"
       id="path2985-65"
       sodipodi:cx="152.02795"
       sodipodi:cy="341.71988"
       sodipodi:rx="3.5355339"
       sodipodi:ry="3.5355339"
       d="m 155.56349,341.71988 c 0,1.95262 -1.58291,3.53553 -3.53554,3.53553 -1.95262,0 -3.53553,-1.58291 -3.53553,-3.53553 0,-1.95262 1.58291,-3.53553 3.53553,-3.53553 1.95263,0 3.53554,1.58291 3.53554,3.53553 z" />
    <path
       transform="translate(229.80971,175.26145)"
       sodipodi:type="arc"
       style="opacity:0.6;fill:none;stroke:#000000;stroke-width:2;stroke-miterlimit:4;stroke-opacity:1;stroke-dasharray:none;stroke-dashoffset:0"
       id="path2985-66"
       sodipodi:cx="152.02795"
       sodipodi:cy="341.71988"
       sodipodi:rx="3.5355339"
       sodipodi:ry="3.5355339"
       d="m 155.56349,341.71988 c 0,1.95262 -1.58291,3.53553 -3.53554,3.53553 -1.95262,0 -3.53553,-1.58291 -3.53553,-3.53553 0,-1.95262 1.58291,-3.53553 3.53553,-3.53553 1.95263,0 3.53554,1.58291 3.53554,3.53553 z" />
    <path
       transform="translate(269.20566,228.79954)"
       sodipodi:type="arc"
       style="opacity:0.6;fill:none;stroke:#000000;stroke-width:2;stroke-miterlimit:4;stroke-opacity:1;stroke-dasharray:none;stroke-dashoffset:0"
       id="path2985-63"
       sodipodi:cx="152.02795"
       sodipodi:cy="341.71988"
       sodipodi:rx="3.5355339"
       sodipodi:ry="3.5355339"
       d="m 155.56349,341.71988 c 0,1.95262 -1.58291,3.53553 -3.53554,3.53553 -1.95262,0 -3.53553,-1.58291 -3.53553,-3.53553 0,-1.95262 1.58291,-3.53553 3.53553,-3.53553 1.95263,0 3.53554,1.58291 3.53554,3.53553 z" />
    <path
       transform="translate(215.66757,219.70817)"
       sodipodi:type="arc"
       style="opacity:0.6;fill:none;stroke:#000000;stroke-width:2;stroke-miterlimit:4;stroke-opacity:1;stroke-dasharray:none;stroke-dashoffset:0"
       id="path2985-06"
       sodipodi:cx="152.02795"
       sodipodi:cy="341.71988"
       sodipodi:rx="3.5355339"
       sodipodi:ry="3.5355339"
       d="m 155.56349,341.71988 c 0,1.95262 -1.58291,3.53553 -3.53554,3.53553 -1.95262,0 -3.53553,-1.58291 -3.53553,-3.53553 0,-1.95262 1.58291,-3.53553 3.53553,-3.53553 1.95263,0 3.53554,1.58291 3.53554,3.53553 z" />
    <path
       style="fill:none;stroke:#000000;stroke-width:1px;stroke-linecap:butt;stroke-linejoin:miter;stroke-opacity:1"
       d="m 33.335034,144.93661 c 68.690376,14.14214 68.690376,14.14214 68.690376,14.14214"
       id="path3092"
       inkscape:connector-curvature="0"
       transform="translate(76.781755,230.10815)" />
    <path
       style="fill:none;stroke:#000000;stroke-width:1px;stroke-linecap:butt;stroke-linejoin:miter;stroke-opacity:1"
       d="M 74.246212,111.0965 C 33.335034,142.91631 33.335034,142.91631 33.335034,142.91631"
       id="path3094"
       inkscape:connector-curvature="0"
       transform="translate(76.781755,230.10815)" />
    <path
       style="fill:none;stroke:#000000;stroke-width:1px;stroke-linecap:butt;stroke-linejoin:miter;stroke-opacity:1"
       d="m 77.781746,113.11681 c 23.738584,40.4061 23.738584,39.90102 23.738584,39.90102"
       id="path3096"
       inkscape:connector-curvature="0"
       transform="translate(76.781755,230.10815)" />
    <path
       style="fill:none;stroke:#000000;stroke-width:1px;stroke-linecap:butt;stroke-linejoin:miter;stroke-opacity:1"
       d="M 53.033009,219.6879 C 32.324881,145.94676 30.809653,145.94676 30.809653,145.94676"
       id="path3098"
       inkscape:connector-curvature="0"
       transform="translate(76.781755,230.10815)" />
    <path
       style="fill:none;stroke:#000000;stroke-width:1px;stroke-linecap:butt;stroke-linejoin:miter;stroke-opacity:1"
       d="m 101.52033,161.09905 c -49.497474,57.5787 -49.497474,57.5787 -49.497474,57.5787"
       id="path3100"
       inkscape:connector-curvature="0"
       transform="translate(76.781755,230.10815)" />
    <path
       style="fill:none;stroke:#000000;stroke-width:1px;stroke-linecap:butt;stroke-linejoin:miter;stroke-opacity:1"
       d="M 364.66507,50.487348 C 417.69808,29.274144 417.69808,29.274144 417.69808,29.274144"
       id="path3102"
       inkscape:connector-curvature="0"
       transform="translate(76.781755,230.10815)" />
    <path
       transform="translate(364.22067,-44.103311)"
       sodipodi:type="arc"
       style="opacity:0.6;fill:none;stroke:#000000;stroke-width:2;stroke-miterlimit:4;stroke-opacity:1;stroke-dasharray:none;stroke-dashoffset:0"
       id="path2985-0-7"
       sodipodi:cx="152.02795"
       sodipodi:cy="341.71988"
       sodipodi:rx="3.5355339"
       sodipodi:ry="3.5355339"
       d="m 155.56349,341.71988 c 0,1.95262 -1.58291,3.53553 -3.53554,3.53553 -1.95262,0 -3.53553,-1.58291 -3.53553,-3.53553 0,-1.95262 1.58291,-3.53553 3.53553,-3.53553 1.95263,0 3.53554,1.58291 3.53554,3.53553 z" />
    <path
       style="fill:none;stroke:#000000;stroke-width:1px;stroke-linecap:butt;stroke-linejoin:miter;stroke-opacity:1"
       d="m 363.80644,55.13405 c 28.28427,36.062446 28.28427,36.062446 28.28427,36.062446"
       id="path3126"
       inkscape:connector-curvature="0"
       transform="translate(76.781755,230.10815)" />
    <path
       style="fill:none;stroke:#000000;stroke-width:1px;stroke-linecap:butt;stroke-linejoin:miter;stroke-opacity:1"
       d="M 398.45467,93.317816 C 435.93133,69.629739 435.93133,69.629739 435.93133,69.629739"
       id="path3128"
       inkscape:connector-curvature="0"
       transform="translate(76.781755,230.10815)" />
    <path
       style="fill:none;stroke:#000000;stroke-width:1px;stroke-linecap:butt;stroke-linejoin:miter;stroke-opacity:1"
       d="m 308.65211,286.00441 c 36.416,-22.27386 36.416,-22.27386 36.416,-22.27386"
       id="path3130"
       inkscape:connector-curvature="0"
       transform="translate(76.781755,230.10815)" />
    <path
       style="fill:none;stroke:#000000;stroke-width:1px;stroke-linecap:butt;stroke-linejoin:miter;stroke-opacity:1"
       d="m 303.70236,289.8935 c -12.02081,37.12311 -12.02081,37.12311 -12.02081,37.12311"
       id="path3132"
       inkscape:connector-curvature="0"
       transform="translate(76.781755,230.10815)" />
    <path
       style="fill:none;stroke:#000000;stroke-width:1px;stroke-linecap:butt;stroke-linejoin:miter;stroke-opacity:1"
       d="M 344.71456,337.97676 C 307.945,289.8935 307.59145,289.8935 307.59145,289.8935"
       id="path3134"
       inkscape:connector-curvature="0"
       transform="translate(76.781755,230.10815)" />
    <path
       style="fill:none;stroke:#000000;stroke-width:1px;stroke-linecap:butt;stroke-linejoin:miter;stroke-opacity:1"
       d="m 293.09576,332.67346 c 46.66905,6.71752 46.66905,6.71752 46.66905,6.71752"
       id="path3136"
       inkscape:connector-curvature="0"
       transform="translate(76.781755,230.10815)" />
    <path
       style="fill:none;stroke:#000000;stroke-width:1px;stroke-linecap:butt;stroke-linejoin:miter;stroke-opacity:1"
       d="m 387.49452,286.71152 c -92.98455,42.77996 -92.98455,43.13351 -92.98455,43.13351"
       id="path3138"
       inkscape:connector-curvature="0"
       transform="translate(76.781755,230.10815)" />
    <path
       style="fill:none;stroke:#000000;stroke-width:1px;stroke-linecap:butt;stroke-linejoin:miter;stroke-opacity:1"
       d="M 347.54298,266.55898 C 344.361,335.85544 344.361,336.209 344.361,336.209"
       id="path3140"
       inkscape:connector-curvature="0"
       transform="translate(76.781755,230.10815)" />
    <path
       style="fill:none;stroke:#000000;stroke-width:1px;stroke-linecap:butt;stroke-linejoin:miter;stroke-opacity:1"
       d="m 53.5,215.31738 c 233.5,108 233.5,108 233.5,108"
       id="path3251"
       inkscape:connector-curvature="0"
       transform="translate(76.781755,235.60815)" />
    <path
       style="fill:none;stroke:#000000;stroke-width:1px;stroke-linecap:butt;stroke-linejoin:miter;stroke-opacity:1"
       d="m 79.5,105.31738 c 266.5,148 266.5,148 266.5,148"
       id="path3253"
       inkscape:connector-curvature="0"
       transform="translate(76.781755,235.60815)" />
    <path
       style="fill:none;stroke:#000000;stroke-width:1px;stroke-linecap:butt;stroke-linejoin:miter;stroke-opacity:1"
       d="M 78,102.81738 C 357.5,46.817383 357.5,46.817383 357.5,46.817383"
       id="path3255"
       inkscape:connector-curvature="0"
       transform="translate(76.781755,235.60815)" />
    <path
       style="fill:none;stroke:#000000;stroke-width:1px;stroke-linecap:butt;stroke-linejoin:miter;stroke-opacity:1"
       d="M 391,89.817383 C 77.5,103.81738 77.5,103.81738 77.5,103.81738"
       id="path3257"
       inkscape:connector-curvature="0"
       transform="translate(76.781755,235.60815)" />
    <path
       style="fill:none;stroke:#000000;stroke-width:1px;stroke-linecap:butt;stroke-linejoin:miter;stroke-opacity:1"
       d="m 421,27.817383 c -25.5,57 -25.5,57 -25.5,57"
       id="path3278"
       inkscape:connector-curvature="0"
       transform="translate(76.781755,235.60815)" />
    <path
       style="fill:none;stroke:#000000;stroke-width:1px;stroke-linecap:butt;stroke-linejoin:miter;stroke-opacity:1"
       d="m 364.5,49.317383 c 71,10.5 71,11 71,11"
       id="path3280"
       inkscape:connector-curvature="0"
       transform="translate(76.781755,235.60815)" />
  </g>
</svg>
