<?xml version="1.0" encoding="UTF-8" standalone="no"?>
<!-- Created with Inkscape (http://www.inkscape.org/) -->

<svg
   xmlns:dc="http://purl.org/dc/elements/1.1/"
   xmlns:cc="http://creativecommons.org/ns#"
   xmlns:rdf="http://www.w3.org/1999/02/22-rdf-syntax-ns#"
   xmlns:svg="http://www.w3.org/2000/svg"
   xmlns="http://www.w3.org/2000/svg"
   xmlns:sodipodi="http://sodipodi.sourceforge.net/DTD/sodipodi-0.dtd"
   xmlns:inkscape="http://www.inkscape.org/namespaces/inkscape"
   width="466.12955"
   height="376.31738"
   id="svg2"
   version="1.1"
   inkscape:version="0.48.4 r9939"
   sodipodi:docname="modularity.svg">
  <defs
     id="defs4" />
  <sodipodi:namedview
     id="base"
     pagecolor="#ffffff"
     bordercolor="#666666"
     borderopacity="1.0"
     inkscape:pageopacity="0.0"
     inkscape:pageshadow="2"
     inkscape:zoom="2"
     inkscape:cx="301.16244"
     inkscape:cy="197.51888"
     inkscape:document-units="px"
     inkscape:current-layer="layer1"
     showgrid="false"
     fit-margin-top="0"
     fit-margin-left="0"
     fit-margin-right="0"
     fit-margin-bottom="0"
     inkscape:window-width="1600"
     inkscape:window-height="876"
     inkscape:window-x="0"
     inkscape:window-y="24"
     inkscape:window-maximized="1" />
  <metadata
     id="metadata7">
    <rdf:RDF>
      <cc:Work
         rdf:about="">
        <dc:format>image/svg+xml</dc:format>
        <dc:type
           rdf:resource="http://purl.org/dc/dcmitype/StillImage" />
        <dc:title></dc:title>
      </cc:Work>
    </rdf:RDF>
  </metadata>
  <g
     inkscape:label="Layer 1"
     inkscape:groupmode="layer"
     id="layer1"
     transform="translate(-76.781755,-235.60815)">
    <path
       sodipodi:type="arc"
       style="opacity:0.6;fill:none;stroke:#000000;stroke-width:2;stroke-miterlimit:4;stroke-opacity:1;stroke-dasharray:none;stroke-dashoffset:0"
       id="path2985"
       sodipodi:cx="152.02795"
       sodipodi:cy="341.71988"
       sodipodi:rx="3.5355339"
       sodipodi:ry="3.5355339"
       d="m 155.56349,341.71988 c 0,1.95262 -1.58291,3.53553 -3.53554,3.53553 -1.95262,0 -3.53553,-1.58291 -3.53553,-3.53553 0,-1.95262 1.58291,-3.53553 3.53553,-3.53553 1.95263,0 3.53554,1.58291 3.53554,3.53553 z" />
    <path
       transform="translate(-43.941632,33.840098)"
       sodipodi:type="arc"
       style="opacity:0.6;fill:none;stroke:#000000;stroke-width:2;stroke-miterlimit:4;stroke-opacity:1;stroke-dasharray:none;stroke-dashoffset:0"
       id="path2985-2"
       sodipodi:cx="152.02795"
       sodipodi:cy="341.71988"
       sodipodi:rx="3.5355339"
       sodipodi:ry="3.5355339"
       d="m 155.56349,341.71988 c 0,1.95262 -1.58291,3.53553 -3.53554,3.53553 -1.95262,0 -3.53553,-1.58291 -3.53553,-3.53553 0,-1.95262 1.58291,-3.53553 3.53553,-3.53553 1.95263,0 3.53554,1.58291 3.53554,3.53553 z" />
    <path
       transform="translate(27.779199,46.972081)"
       sodipodi:type="arc"
       style="opacity:0.6;fill:none;stroke:#000000;stroke-width:2;stroke-miterlimit:4;stroke-opacity:1;stroke-dasharray:none;stroke-dashoffset:0"
       id="path2985-3"
       sodipodi:cx="152.02795"
       sodipodi:cy="341.71988"
       sodipodi:rx="3.5355339"
       sodipodi:ry="3.5355339"
       d="m 155.56349,341.71988 c 0,1.95262 -1.58291,3.53553 -3.53554,3.53553 -1.95262,0 -3.53553,-1.58291 -3.53553,-3.53553 0,-1.95262 1.58291,-3.53553 3.53553,-3.53553 1.95263,0 3.53554,1.58291 3.53554,3.53553 z" />
    <path
       transform="translate(-23.738581,108.59139)"
       sodipodi:type="arc"
       style="opacity:0.6;fill:none;stroke:#000000;stroke-width:2;stroke-miterlimit:4;stroke-opacity:1;stroke-dasharray:none;stroke-dashoffset:0"
       id="path2985-30"
       sodipodi:cx="152.02795"
       sodipodi:cy="341.71988"
       sodipodi:rx="3.5355339"
       sodipodi:ry="3.5355339"
       d="m 155.56349,341.71988 c 0,1.95262 -1.58291,3.53553 -3.53554,3.53553 -1.95262,0 -3.53553,-1.58291 -3.53553,-3.53553 0,-1.95262 1.58291,-3.53553 3.53553,-3.53553 1.95263,0 3.53554,1.58291 3.53554,3.53553 z" />
    <path
       transform="translate(286.37825,-59.093936)"
       sodipodi:type="arc"
       style="opacity:0.6;fill:none;stroke:#000000;stroke-width:2;stroke-miterlimit:4;stroke-opacity:1;stroke-dasharray:none;stroke-dashoffset:0"
       id="path2985-6"
       sodipodi:cx="152.02795"
       sodipodi:cy="341.71988"
       sodipodi:rx="3.5355339"
       sodipodi:ry="3.5355339"
       d="m 155.56349,341.71988 c 0,1.95262 -1.58291,3.53553 -3.53554,3.53553 -1.95262,0 -3.53553,-1.58291 -3.53553,-3.53553 0,-1.95262 1.58291,-3.53553 3.53553,-3.53553 1.95263,0 3.53554,1.58291 3.53554,3.53553 z" />
    <path
       transform="translate(344.9671,-81.317292)"
       sodipodi:type="arc"
       style="opacity:0.6;fill:none;stroke:#000000;stroke-width:2;stroke-miterlimit:4;stroke-opacity:1;stroke-dasharray:none;stroke-dashoffset:0"
       id="path2985-67"
       sodipodi:cx="152.02795"
       sodipodi:cy="341.71988"
       sodipodi:rx="3.5355339"
       sodipodi:ry="3.5355339"
       d="m 155.56349,341.71988 c 0,1.95262 -1.58291,3.53553 -3.53554,3.53553 -1.95262,0 -3.53553,-1.58291 -3.53553,-3.53553 0,-1.95262 1.58291,-3.53553 3.53553,-3.53553 1.95263,0 3.53554,1.58291 3.53554,3.53553 z" />
    <path
       transform="translate(318.75364,-17.425143)"
       sodipodi:type="arc"
       style="opacity:0.6;fill:none;stroke:#000000;stroke-width:2;stroke-miterlimit:4;stroke-opacity:1;stroke-dasharray:none;stroke-dashoffset:0"
       id="path2985-0"
       sodipodi:cx="152.02795"
       sodipodi:cy="341.71988"
       sodipodi:rx="3.5355339"
       sodipodi:ry="3.5355339"
       d="m 155.56349,341.71988 c 0,1.95262 -1.58291,3.53553 -3.53554,3.53553 -1.95262,0 -3.53553,-1.58291 -3.53553,-3.53553 0,-1.95262 1.58291,-3.53553 3.53553,-3.53553 1.95263,0 3.53554,1.58291 3.53554,3.53553 z" />
    <path
       transform="translate(272.23611,151.01779)"
       sodipodi:type="arc"
       style="opacity:0.6;fill:none;stroke:#000000;stroke-width:2;stroke-miterlimit:4;stroke-opacity:1;stroke-dasharray:none;stroke-dashoffset:0"
       id="path2985-8"
       sodipodi:cx="152.02795"
       sodipodi:cy="341.71988"
       sodipodi:rx="3.5355339"
       sodipodi:ry="3.5355339"
       d="m 155.56349,341.71988 c 0,1.95262 -1.58291,3.53553 -3.53554,3.53553 -1.95262,0 -3.53553,-1.58291 -3.53553,-3.53553 0,-1.95262 1.58291,-3.53553 3.53553,-3.53553 1.95263,0 3.53554,1.58291 3.53554,3.53553 z" />
    <path
       transform="translate(315.67267,173.24115)"
       sodipodi:type="arc"
       style="opacity:0.6;fill:none;stroke:#000000;stroke-width:2;stroke-miterlimit:4;stroke-opacity:1;stroke-dasharray:none;stroke-dashoffset:0"
       id="path2985-65"
       sodipodi:cx="152.02795"
       sodipodi:cy="341.71988"
       sodipodi:rx="3.5355339"
       sodipodi:ry="3.5355339"
       d="m 155.56349,341.71988 c 0,1.95262 -1.58291,3.53553 -3.53554,3.53553 -1.95262,0 -3.53553,-1.58291 -3.53553,-3.53553 0,-1.95262 1.58291,-3.53553 3.53553,-3.53553 1.95263,0 3.53554,1.58291 3.53554,3.53553 z" />
    <path
       transform="translate(229.80971,175.26145)"
       sodipodi:type="arc"
       style="opacity:0.6;fill:none;stroke:#000000;stroke-width:2;stroke-miterlimit:4;stroke-opacity:1;stroke-dasharray:none;stroke-dashoffset:0"
       id="path2985-66"
       sodipodi:cx="152.02795"
       sodipodi:cy="341.71988"
       sodipodi:rx="3.5355339"
       sodipodi:ry="3.5355339"
       d="m 155.56349,341.71988 c 0,1.95262 -1.58291,3.53553 -3.53554,3.53553 -1.95262,0 -3.53553,-1.58291 -3.53553,-3.53553 0,-1.95262 1.58291,-3.53553 3.53553,-3.53553 1.95263,0 3.53554,1.58291 3.53554,3.53553 z" />
    <path
       transform="translate(269.20566,228.79954)"
       sodipodi:type="arc"
       style="opacity:0.6;fill:none;stroke:#000000;stroke-width:2;stroke-miterlimit:4;stroke-opacity:1;stroke-dasharray:none;stroke-dashoffset:0"
       id="path2985-63"
       sodipodi:cx="152.02795"
       sodipodi:cy="341.71988"
       sodipodi:rx="3.5355339"
       sodipodi:ry="3.5355339"
       d="m 155.56349,341.71988 c 0,1.95262 -1.58291,3.53553 -3.53554,3.53553 -1.95262,0 -3.53553,-1.58291 -3.53553,-3.53553 0,-1.95262 1.58291,-3.53553 3.53553,-3.53553 1.95263,0 3.53554,1.58291 3.53554,3.53553 z" />
    <path
       transform="translate(215.66757,219.70817)"
       sodipodi:type="arc"
       style="opacity:0.6;fill:none;stroke:#000000;stroke-width:2;stroke-miterlimit:4;stroke-opacity:1;stroke-dasharray:none;stroke-dashoffset:0"
       id="path2985-06"
       sodipodi:cx="152.02795"
       sodipodi:cy="341.71988"
       sodipodi:rx="3.5355339"
       sodipodi:ry="3.5355339"
       d="m 155.56349,341.71988 c 0,1.95262 -1.58291,3.53553 -3.53554,3.53553 -1.95262,0 -3.53553,-1.58291 -3.53553,-3.53553 0,-1.95262 1.58291,-3.53553 3.53553,-3.53553 1.95263,0 3.53554,1.58291 3.53554,3.53553 z" />
    <path
       sodipodi:type="arc"
       style="opacity:0.6;fill:none;stroke:#000000;stroke-width:2;stroke-miterlimit:4;stroke-opacity:1;stroke-dasharray:none;stroke-dashoffset:0"
       id="path3086"
       sodipodi:cx="474.26663"
       sodipodi:cy="284.64624"
       sodipodi:rx="64.144684"
       sodipodi:ry="53.538086"
       d="m 538.41132,284.64624 c 0,29.56827 -28.71856,53.53809 -64.14469,53.53809 -35.42613,0 -64.14468,-23.96982 -64.14468,-53.53809 0,-29.56827 28.71855,-53.53809 64.14468,-53.53809 35.42613,0 64.14469,23.96982 64.14469,53.53809 z"
       transform="translate(3.5,5.5)" />
    <path
       sodipodi:type="arc"
       style="opacity:0.6;fill:none;stroke:#000000;stroke-width:2;stroke-miterlimit:4;stroke-opacity:1;stroke-dasharray:none;stroke-dashoffset:0"
       id="path3088"
       sodipodi:cx="417.69809"
       sodipodi:cy="536.17426"
       sodipodi:rx="77.276672"
       sodipodi:ry="74.751289"
       d="m 494.97476,536.17426 c 0,41.28399 -34.59794,74.75128 -77.27667,74.75128 -42.67873,0 -77.27667,-33.46729 -77.27667,-74.75128 0,-41.284 34.59794,-74.75129 77.27667,-74.75129 42.67873,0 77.27667,33.46729 77.27667,74.75129 z" />
    <path
       sodipodi:type="arc"
       style="opacity:0.6;fill:none;stroke:#000000;stroke-width:2;stroke-miterlimit:4;stroke-opacity:1;stroke-dasharray:none;stroke-dashoffset:0"
       id="path3090"
       sodipodi:cx="140.41121"
       sodipodi:cy="401.82394"
       sodipodi:rx="65.659912"
       sodipodi:ry="96.97464"
       d="m 206.07112,401.82394 c 0,53.55762 -29.39694,96.97464 -65.65991,96.97464 -36.26297,0 -65.659913,-43.41702 -65.659913,-96.97464 0,-53.55761 29.396943,-96.97464 65.659913,-96.97464 36.26297,0 65.65991,43.41703 65.65991,96.97464 z"
       transform="translate(3.0304576,-3.0304576)" />
    <path
       style="fill:none;stroke:#000000;stroke-width:1px;stroke-linecap:butt;stroke-linejoin:miter;stroke-opacity:1"
       d="m 33.335034,144.93661 c 68.690376,14.14214 68.690376,14.14214 68.690376,14.14214"
       id="path3092"
       inkscape:connector-curvature="0"
       transform="translate(76.781755,230.10815)" />
    <path
       style="fill:none;stroke:#000000;stroke-width:1px;stroke-linecap:butt;stroke-linejoin:miter;stroke-opacity:1"
       d="M 74.246212,111.0965 C 33.335034,142.91631 33.335034,142.91631 33.335034,142.91631"
       id="path3094"
       inkscape:connector-curvature="0"
       transform="translate(76.781755,230.10815)" />
    <path
       style="fill:none;stroke:#000000;stroke-width:1px;stroke-linecap:butt;stroke-linejoin:miter;stroke-opacity:1"
       d="m 77.781746,113.11681 c 23.738584,40.4061 23.738584,39.90102 23.738584,39.90102"
       id="path3096"
       inkscape:connector-curvature="0"
       transform="translate(76.781755,230.10815)" />
    <path
       style="fill:none;stroke:#000000;stroke-width:1px;stroke-linecap:butt;stroke-linejoin:miter;stroke-opacity:1"
       d="M 53.033009,219.6879 C 32.324881,145.94676 30.809653,145.94676 30.809653,145.94676"
       id="path3098"
       inkscape:connector-curvature="0"
       transform="translate(76.781755,230.10815)" />
    <path
       style="fill:none;stroke:#000000;stroke-width:1px;stroke-linecap:butt;stroke-linejoin:miter;stroke-opacity:1"
       d="m 101.52033,161.09905 c -49.497474,57.5787 -49.497474,57.5787 -49.497474,57.5787"
       id="path3100"
       inkscape:connector-curvature="0"
       transform="translate(76.781755,230.10815)" />
    <path
       style="fill:none;stroke:#000000;stroke-width:1px;stroke-linecap:butt;stroke-linejoin:miter;stroke-opacity:1"
       d="M 364.66507,50.487348 C 417.69808,29.274144 417.69808,29.274144 417.69808,29.274144"
       id="path3102"
       inkscape:connector-curvature="0"
       transform="translate(76.781755,230.10815)" />
    <path
       transform="translate(364.22067,-44.103311)"
       sodipodi:type="arc"
       style="opacity:0.6;fill:none;stroke:#000000;stroke-width:2;stroke-miterlimit:4;stroke-opacity:1;stroke-dasharray:none;stroke-dashoffset:0"
       id="path2985-0-7"
       sodipodi:cx="152.02795"
       sodipodi:cy="341.71988"
       sodipodi:rx="3.5355339"
       sodipodi:ry="3.5355339"
       d="m 155.56349,341.71988 c 0,1.95262 -1.58291,3.53553 -3.53554,3.53553 -1.95262,0 -3.53553,-1.58291 -3.53553,-3.53553 0,-1.95262 1.58291,-3.53553 3.53553,-3.53553 1.95263,0 3.53554,1.58291 3.53554,3.53553 z" />
    <path
       style="fill:none;stroke:#000000;stroke-width:1px;stroke-linecap:butt;stroke-linejoin:miter;stroke-opacity:1"
       d="m 363.80644,55.13405 c 28.28427,36.062446 28.28427,36.062446 28.28427,36.062446"
       id="path3126"
       inkscape:connector-curvature="0"
       transform="translate(76.781755,230.10815)" />
    <path
       style="fill:none;stroke:#000000;stroke-width:1px;stroke-linecap:butt;stroke-linejoin:miter;stroke-opacity:1"
       d="M 398.45467,93.317816 C 435.93133,69.629739 435.93133,69.629739 435.93133,69.629739"
       id="path3128"
       inkscape:connector-curvature="0"
       transform="translate(76.781755,230.10815)" />
    <path
       style="fill:none;stroke:#000000;stroke-width:1px;stroke-linecap:butt;stroke-linejoin:miter;stroke-opacity:1"
       d="m 308.65211,286.00441 c 36.416,-22.27386 36.416,-22.27386 36.416,-22.27386"
       id="path3130"
       inkscape:connector-curvature="0"
       transform="translate(76.781755,230.10815)" />
    <path
       style="fill:none;stroke:#000000;stroke-width:1px;stroke-linecap:butt;stroke-linejoin:miter;stroke-opacity:1"
       d="m 303.70236,289.8935 c -12.02081,37.12311 -12.02081,37.12311 -12.02081,37.12311"
       id="path3132"
       inkscape:connector-curvature="0"
       transform="translate(76.781755,230.10815)" />
    <path
       style="fill:none;stroke:#000000;stroke-width:1px;stroke-linecap:butt;stroke-linejoin:miter;stroke-opacity:1"
       d="M 344.71456,337.97676 C 307.945,289.8935 307.59145,289.8935 307.59145,289.8935"
       id="path3134"
       inkscape:connector-curvature="0"
       transform="translate(76.781755,230.10815)" />
    <path
       style="fill:none;stroke:#000000;stroke-width:1px;stroke-linecap:butt;stroke-linejoin:miter;stroke-opacity:1"
       d="m 293.09576,332.67346 c 46.66905,6.71752 46.66905,6.71752 46.66905,6.71752"
       id="path3136"
       inkscape:connector-curvature="0"
       transform="translate(76.781755,230.10815)" />
    <path
       style="fill:none;stroke:#000000;stroke-width:1px;stroke-linecap:butt;stroke-linejoin:miter;stroke-opacity:1"
       d="m 387.49452,286.71152 c -92.98455,42.77996 -92.98455,43.13351 -92.98455,43.13351"
       id="path3138"
       inkscape:connector-curvature="0"
       transform="translate(76.781755,230.10815)" />
    <path
       style="fill:none;stroke:#000000;stroke-width:1px;stroke-linecap:butt;stroke-linejoin:miter;stroke-opacity:1"
       d="M 347.54298,266.55898 C 344.361,335.85544 344.361,336.209 344.361,336.209"
       id="path3140"
       inkscape:connector-curvature="0"
       transform="translate(76.781755,230.10815)" />
    <path
       style="fill:none;stroke:#000000;stroke-width:1px;stroke-linecap:butt;stroke-linejoin:miter;stroke-opacity:1"
       d="M 126,121.81738 C 340,70.317383 340,70.317383 340,70.317383"
       id="path3161"
       inkscape:connector-curvature="0"
       transform="translate(76.781755,235.60815)" />
    <path
       style="fill:none;stroke:#000000;stroke-width:1px;stroke-linecap:butt;stroke-linejoin:miter;stroke-opacity:1"
       d="m 132,182.31738 c 163.5,56.5 163.5,56.5 163.5,56.5"
       id="path3163"
       inkscape:connector-curvature="0"
       transform="translate(76.781755,235.60815)" />
    <path
       style="fill:none;stroke:#000000;stroke-width:1px;stroke-linecap:butt;stroke-linejoin:miter;stroke-opacity:1"
       d="m 109.5,237.81738 c 154.5,51.5 154.5,51.5 154.5,51.5"
       id="path3165"
       inkscape:connector-curvature="0"
       transform="translate(76.781755,235.60815)" />
  </g>
</svg>
