<?xml version="1.0" encoding="UTF-8" standalone="no"?>
<!-- Created with Inkscape (http://www.inkscape.org/) -->

<svg
   xmlns:dc="http://purl.org/dc/elements/1.1/"
   xmlns:cc="http://creativecommons.org/ns#"
   xmlns:rdf="http://www.w3.org/1999/02/22-rdf-syntax-ns#"
   xmlns:svg="http://www.w3.org/2000/svg"
   xmlns="http://www.w3.org/2000/svg"
   xmlns:sodipodi="http://sodipodi.sourceforge.net/DTD/sodipodi-0.dtd"
   xmlns:inkscape="http://www.inkscape.org/namespaces/inkscape"
   width="351.42953mm"
   height="85.738251mm"
   viewBox="0 0 1245.2228 303.79695"
   id="svg9291"
   version="1.1"
   inkscape:version="0.91 r13725"
   sodipodi:docname="numpy-inverted.svg">
  <defs
     id="defs9293">
    <marker
       inkscape:stockid="Arrow1Lend"
       orient="auto"
       refY="0.0"
       refX="0.0"
       id="Arrow1Lend"
       style="overflow:visible;"
       inkscape:isstock="true">
      <path
         id="path7320"
         d="M 0.0,0.0 L 5.0,-5.0 L -12.5,0.0 L 5.0,5.0 L 0.0,0.0 z "
         style="fill-rule:evenodd;stroke:#ffffff;stroke-width:1pt;stroke-opacity:1;fill:#ffffff;fill-opacity:1"
         transform="scale(0.8) rotate(180) translate(12.5,0)" />
    </marker>
  </defs>
  <sodipodi:namedview
     id="base"
     pagecolor="#ffffff"
     bordercolor="#666666"
     borderopacity="1.0"
     inkscape:pageopacity="0.0"
     inkscape:pageshadow="2"
     inkscape:zoom="1.4"
     inkscape:cx="608.37734"
     inkscape:cy="125.55878"
     inkscape:document-units="px"
     inkscape:current-layer="layer1"
     showgrid="true"
     inkscape:window-width="2560"
     inkscape:window-height="1416"
     inkscape:window-x="0"
     inkscape:window-y="24"
     inkscape:window-maximized="1"
     fit-margin-top="0"
     fit-margin-left="0"
     fit-margin-right="0"
     fit-margin-bottom="0">
    <inkscape:grid
       type="xygrid"
       id="grid9465"
       originx="155.49392"
       originy="-429.61149" />
  </sodipodi:namedview>
  <metadata
     id="metadata9296">
    <rdf:RDF>
      <cc:Work
         rdf:about="">
        <dc:format>image/svg+xml</dc:format>
        <dc:type
           rdf:resource="http://purl.org/dc/dcmitype/StillImage" />
        <dc:title></dc:title>
      </cc:Work>
    </rdf:RDF>
  </metadata>
  <g
     inkscape:label="Layer 1"
     inkscape:groupmode="layer"
     id="layer1"
     transform="translate(155.49391,-318.95374)">
    <g
       transform="translate(-153.57876,188.59154)"
       id="g5022-2-9"
       style="stroke:#ffffff;stroke-opacity:1">
      <path
         inkscape:connector-curvature="0"
         id="path3364-99-7"
         d="m 81.388959,190.97324 c 0,239.29187 0,239.29187 0,239.29187"
         style="fill:none;fill-rule:evenodd;stroke:#ffffff;stroke-width:3.83740187;stroke-linecap:butt;stroke-linejoin:miter;stroke-miterlimit:4;stroke-dasharray:none;stroke-opacity:1" />
      <path
         inkscape:connector-curvature="0"
         id="path3366-6-4"
         d="m 80.505075,432.15915 c 320.000005,0 320.000005,0 320.000005,0"
         style="fill:none;fill-rule:evenodd;stroke:#ffffff;stroke-width:4;stroke-linecap:butt;stroke-linejoin:miter;stroke-miterlimit:4;stroke-dasharray:none;stroke-opacity:1" />
      <path
         inkscape:connector-curvature="0"
         id="path3370-0-3"
         d="m 0,132.3622 c 79.999999,60 79.999999,60 79.999999,60"
         style="fill:none;fill-rule:evenodd;stroke:#ffffff;stroke-width:4;stroke-linecap:butt;stroke-linejoin:miter;stroke-miterlimit:4;stroke-dasharray:none;stroke-opacity:1" />
      <path
         inkscape:connector-curvature="0"
         id="path3372-2-5"
         d="m 0.55558394,369.94944 c 79.99999806,60 79.99999806,60 79.99999806,60"
         style="fill:none;fill-rule:evenodd;stroke:#ffffff;stroke-width:4;stroke-linecap:butt;stroke-linejoin:miter;stroke-miterlimit:4;stroke-dasharray:none;stroke-opacity:1" />
      <path
         inkscape:connector-curvature="0"
         id="path3374-7-6"
         d="m 320,132.3622 c 80,60 80,60 80,60"
         style="fill:none;fill-rule:evenodd;stroke:#ffffff;stroke-width:4;stroke-linecap:butt;stroke-linejoin:miter;stroke-miterlimit:4;stroke-dasharray:none;stroke-opacity:1" />
      <path
         inkscape:connector-curvature="0"
         id="path3376-6-1"
         d="m 0,132.3622 c 320,0 320,0 320,0"
         style="fill:none;fill-rule:evenodd;stroke:#ffffff;stroke-width:4;stroke-linecap:butt;stroke-linejoin:miter;stroke-miterlimit:4;stroke-dasharray:none;stroke-opacity:1" />
      <path
         inkscape:connector-curvature="0"
         id="path3378-1-4"
         d="M 0,370.77019 C 0,132.3622 0,132.3622 0,132.3622"
         style="fill:none;fill-rule:evenodd;stroke:#ffffff;stroke-width:3.8303082;stroke-linecap:butt;stroke-linejoin:miter;stroke-miterlimit:4;stroke-dasharray:none;stroke-opacity:1" />
      <path
         inkscape:connector-curvature="0"
         id="path4180-32-0"
         d="M 79.999999,312.3622 C 400,312.3622 400,312.3622 400,312.3622"
         style="fill:none;fill-rule:evenodd;stroke:#ffffff;stroke-width:1px;stroke-linecap:butt;stroke-linejoin:miter;stroke-opacity:1" />
      <path
         inkscape:connector-curvature="0"
         id="path4180-6-1-3"
         d="M 79.999999,272.3622 C 400,272.3622 400,272.3622 400,272.3622"
         style="fill:none;fill-rule:evenodd;stroke:#ffffff;stroke-width:1px;stroke-linecap:butt;stroke-linejoin:miter;stroke-opacity:1" />
      <path
         inkscape:connector-curvature="0"
         id="path4180-7-5-1"
         d="M 79.999999,232.3622 C 400,232.3622 400,232.3622 400,232.3622"
         style="fill:none;fill-rule:evenodd;stroke:#ffffff;stroke-width:1px;stroke-linecap:butt;stroke-linejoin:miter;stroke-opacity:1" />
      <path
         inkscape:connector-curvature="0"
         id="path4180-5-9-2"
         d="M 79.999999,352.3622 C 400,352.3622 400,352.3622 400,352.3622"
         style="fill:none;fill-rule:evenodd;stroke:#ffffff;stroke-width:1px;stroke-linecap:butt;stroke-linejoin:miter;stroke-opacity:1" />
      <path
         inkscape:connector-curvature="0"
         id="path4180-3-9-7"
         d="m 79.999999,392.36221 c 320.000001,0 320.000001,0 320.000001,0"
         style="fill:none;fill-rule:evenodd;stroke:#ffffff;stroke-width:1px;stroke-linecap:butt;stroke-linejoin:miter;stroke-opacity:1" />
      <path
         inkscape:connector-curvature="0"
         id="path3366-5-1-7"
         d="m 80.505075,192.15915 c 320.000005,0 320.000005,0 320.000005,0"
         style="fill:none;fill-rule:evenodd;stroke:#ffffff;stroke-width:4;stroke-linecap:butt;stroke-linejoin:miter;stroke-miterlimit:4;stroke-dasharray:none;stroke-opacity:1" />
      <path
         inkscape:connector-curvature="0"
         id="path3364-9-4-9"
         d="m 401.38896,190.97324 c 0,239.29187 0,239.29187 0,239.29187"
         style="fill:none;fill-rule:evenodd;stroke:#ffffff;stroke-width:3.83740187;stroke-linecap:butt;stroke-linejoin:miter;stroke-miterlimit:4;stroke-dasharray:none;stroke-opacity:1" />
      <path
         inkscape:connector-curvature="0"
         id="path4263-9-8"
         d="M 79.999999,232.3622 C 0,172.3622 0,172.3622 0,172.3622"
         style="fill:none;fill-rule:evenodd;stroke:#ffffff;stroke-width:1px;stroke-linecap:butt;stroke-linejoin:miter;stroke-opacity:1" />
      <path
         inkscape:connector-curvature="0"
         id="path4265-1-1"
         d="M 79.999999,272.3622 C 0,212.3622 0,212.3622 0,212.3622"
         style="fill:none;fill-rule:evenodd;stroke:#ffffff;stroke-width:1px;stroke-linecap:butt;stroke-linejoin:miter;stroke-opacity:1" />
      <path
         inkscape:connector-curvature="0"
         id="path4267-0-0"
         d="M 79.999999,312.3622 C 0,252.3622 0,252.3622 0,252.3622"
         style="fill:none;fill-rule:evenodd;stroke:#ffffff;stroke-width:1px;stroke-linecap:butt;stroke-linejoin:miter;stroke-opacity:1" />
      <path
         inkscape:connector-curvature="0"
         id="path4269-7-7"
         d="M 79.999999,352.3622 C 0,292.3622 0,292.3622 0,292.3622"
         style="fill:none;fill-rule:evenodd;stroke:#ffffff;stroke-width:1px;stroke-linecap:butt;stroke-linejoin:miter;stroke-opacity:1" />
      <path
         inkscape:connector-curvature="0"
         id="path4271-5-6"
         d="M 79.999999,392.3622 C 0,332.3622 0,332.3622 0,332.3622"
         style="fill:none;fill-rule:evenodd;stroke:#ffffff;stroke-width:1px;stroke-linecap:butt;stroke-linejoin:miter;stroke-opacity:1" />
      <path
         inkscape:connector-curvature="0"
         id="path4273-8-0"
         d="m 120,192.3622 c 0,240 0,240 0,240"
         style="fill:none;fill-rule:evenodd;stroke:#ffffff;stroke-width:1px;stroke-linecap:butt;stroke-linejoin:miter;stroke-opacity:1" />
      <path
         inkscape:connector-curvature="0"
         id="path4275-7-1"
         d="m 160,192.3622 c 0,240 0,240 0,240"
         style="fill:none;fill-rule:evenodd;stroke:#ffffff;stroke-width:1px;stroke-linecap:butt;stroke-linejoin:miter;stroke-opacity:1" />
      <path
         inkscape:connector-curvature="0"
         id="path4273-1-0-0"
         d="m 200,192.3622 c 0,240 0,240 0,240"
         style="fill:none;fill-rule:evenodd;stroke:#ffffff;stroke-width:1px;stroke-linecap:butt;stroke-linejoin:miter;stroke-opacity:1" />
      <path
         inkscape:connector-curvature="0"
         id="path4273-2-4-2"
         d="m 240,192.3622 c 0,240 0,240 0,240"
         style="fill:none;fill-rule:evenodd;stroke:#ffffff;stroke-width:1px;stroke-linecap:butt;stroke-linejoin:miter;stroke-opacity:1" />
      <path
         inkscape:connector-curvature="0"
         id="path4273-7-8-5"
         d="m 280,192.3622 c 0,240 0,240 0,240"
         style="fill:none;fill-rule:evenodd;stroke:#ffffff;stroke-width:1px;stroke-linecap:butt;stroke-linejoin:miter;stroke-opacity:1" />
      <path
         inkscape:connector-curvature="0"
         id="path4273-0-0-1"
         d="m 320,192.3622 c 0,240 0,240 0,240"
         style="fill:none;fill-rule:evenodd;stroke:#ffffff;stroke-width:1px;stroke-linecap:butt;stroke-linejoin:miter;stroke-opacity:1" />
      <path
         inkscape:connector-curvature="0"
         id="path4273-9-4-9"
         d="m 360,192.3622 c 0,240 0,240 0,240"
         style="fill:none;fill-rule:evenodd;stroke:#ffffff;stroke-width:1px;stroke-linecap:butt;stroke-linejoin:miter;stroke-opacity:1" />
      <path
         inkscape:connector-curvature="0"
         id="path4316-29-7"
         d="m 120,192.3622 c -80,-60 -80,-60 -80,-60"
         style="fill:none;fill-rule:evenodd;stroke:#ffffff;stroke-width:1px;stroke-linecap:butt;stroke-linejoin:miter;stroke-opacity:1" />
      <path
         inkscape:connector-curvature="0"
         id="path4316-2-6-1"
         d="m 160,192.3622 c -80,-60 -80,-60 -80,-60"
         style="fill:none;fill-rule:evenodd;stroke:#ffffff;stroke-width:1px;stroke-linecap:butt;stroke-linejoin:miter;stroke-opacity:1" />
      <path
         inkscape:connector-curvature="0"
         id="path4316-0-1-3"
         d="m 200,192.3622 c -80,-60 -80,-60 -80,-60"
         style="fill:none;fill-rule:evenodd;stroke:#ffffff;stroke-width:1px;stroke-linecap:butt;stroke-linejoin:miter;stroke-opacity:1" />
      <path
         inkscape:connector-curvature="0"
         id="path4316-7-0-1"
         d="m 240,192.3622 c -80,-60 -80,-60 -80,-60"
         style="fill:none;fill-rule:evenodd;stroke:#ffffff;stroke-width:1px;stroke-linecap:butt;stroke-linejoin:miter;stroke-opacity:1" />
      <path
         inkscape:connector-curvature="0"
         id="path4316-5-4-2"
         d="m 280,192.3622 c -80,-60 -80,-60 -80,-60"
         style="fill:none;fill-rule:evenodd;stroke:#ffffff;stroke-width:1px;stroke-linecap:butt;stroke-linejoin:miter;stroke-opacity:1" />
      <path
         inkscape:connector-curvature="0"
         id="path4316-9-2-0"
         d="m 320,192.3622 c -80,-60 -80,-60 -80,-60"
         style="fill:none;fill-rule:evenodd;stroke:#ffffff;stroke-width:1px;stroke-linecap:butt;stroke-linejoin:miter;stroke-opacity:1" />
      <path
         inkscape:connector-curvature="0"
         id="path4316-22-2-6"
         d="m 360,192.3622 c -80,-60 -80,-60 -80,-60"
         style="fill:none;fill-rule:evenodd;stroke:#ffffff;stroke-width:1px;stroke-linecap:butt;stroke-linejoin:miter;stroke-opacity:1" />
      <path
         inkscape:connector-curvature="0"
         id="path4180-7-9-2-8"
         d="M 54.937499,172.3622 C 374,172.3622 374,172.3622 374,172.3622"
         style="fill:none;fill-rule:evenodd;stroke:#ffffff;stroke-width:0.99853408px;stroke-linecap:butt;stroke-linejoin:miter;stroke-opacity:1" />
      <path
         inkscape:connector-curvature="0"
         id="path4180-7-7-0-7"
         d="m 25.562499,152.4872 c 321.312501,0 321.312501,0 321.312501,0"
         style="fill:none;fill-rule:evenodd;stroke:#ffffff;stroke-width:1.00204861px;stroke-linecap:butt;stroke-linejoin:miter;stroke-opacity:1" />
      <path
         inkscape:connector-curvature="0"
         id="path4273-3-5-4"
         d="m 60.0625,177.2372 c 0,235.4375 0,235.4375 0,235.4375"
         style="fill:none;fill-rule:evenodd;stroke:#ffffff;stroke-width:0.99044919px;stroke-linecap:butt;stroke-linejoin:miter;stroke-opacity:1" />
      <path
         inkscape:connector-curvature="0"
         id="path4273-6-5-9"
         d="m 40.000001,161.9247 c 0,236.6875 0,236.6875 0,236.6875"
         style="fill:none;fill-rule:evenodd;stroke:#ffffff;stroke-width:0.99307495px;stroke-linecap:butt;stroke-linejoin:miter;stroke-opacity:1" />
      <path
         inkscape:connector-curvature="0"
         id="path4273-12-2-2"
         d="m 19.937501,146.4872 c 0,235.625 0,235.625 0,235.625"
         style="fill:none;fill-rule:evenodd;stroke:#ffffff;stroke-width:0.99084347px;stroke-linecap:butt;stroke-linejoin:miter;stroke-opacity:1" />
    </g>
    <g
       transform="translate(686.42124,188.59154)"
       id="g5022-2-9-9"
       style="stroke:#ffffff;stroke-opacity:1">
      <path
         inkscape:connector-curvature="0"
         id="path3364-99-7-4"
         d="m 81.388959,190.97324 c 0,239.29187 0,239.29187 0,239.29187"
         style="fill:none;fill-rule:evenodd;stroke:#ffffff;stroke-width:3.83740187;stroke-linecap:butt;stroke-linejoin:miter;stroke-miterlimit:4;stroke-dasharray:none;stroke-opacity:1" />
      <path
         inkscape:connector-curvature="0"
         id="path3366-6-4-6"
         d="m 80.505075,432.15915 c 320.000005,0 320.000005,0 320.000005,0"
         style="fill:none;fill-rule:evenodd;stroke:#ffffff;stroke-width:4;stroke-linecap:butt;stroke-linejoin:miter;stroke-miterlimit:4;stroke-dasharray:none;stroke-opacity:1" />
      <path
         inkscape:connector-curvature="0"
         id="path3370-0-3-4"
         d="m 0,132.3622 c 79.999999,60 79.999999,60 79.999999,60"
         style="fill:none;fill-rule:evenodd;stroke:#ffffff;stroke-width:4;stroke-linecap:butt;stroke-linejoin:miter;stroke-miterlimit:4;stroke-dasharray:none;stroke-opacity:1" />
      <path
         inkscape:connector-curvature="0"
         id="path3372-2-5-5"
         d="m 0.55558394,369.94944 c 79.99999806,60 79.99999806,60 79.99999806,60"
         style="fill:none;fill-rule:evenodd;stroke:#ffffff;stroke-width:4;stroke-linecap:butt;stroke-linejoin:miter;stroke-miterlimit:4;stroke-dasharray:none;stroke-opacity:1" />
      <path
         inkscape:connector-curvature="0"
         id="path3374-7-6-5"
         d="m 320,132.3622 c 80,60 80,60 80,60"
         style="fill:none;fill-rule:evenodd;stroke:#ffffff;stroke-width:4;stroke-linecap:butt;stroke-linejoin:miter;stroke-miterlimit:4;stroke-dasharray:none;stroke-opacity:1" />
      <path
         inkscape:connector-curvature="0"
         id="path3376-6-1-5"
         d="m 0,132.3622 c 320,0 320,0 320,0"
         style="fill:none;fill-rule:evenodd;stroke:#ffffff;stroke-width:4;stroke-linecap:butt;stroke-linejoin:miter;stroke-miterlimit:4;stroke-dasharray:none;stroke-opacity:1" />
      <path
         inkscape:connector-curvature="0"
         id="path3378-1-4-6"
         d="M 0,370.77019 C 0,132.3622 0,132.3622 0,132.3622"
         style="fill:none;fill-rule:evenodd;stroke:#ffffff;stroke-width:3.8303082;stroke-linecap:butt;stroke-linejoin:miter;stroke-miterlimit:4;stroke-dasharray:none;stroke-opacity:1" />
      <path
         inkscape:connector-curvature="0"
         id="path4180-32-0-0"
         d="M 79.999999,312.3622 C 400,312.3622 400,312.3622 400,312.3622"
         style="fill:none;fill-rule:evenodd;stroke:#ffffff;stroke-width:1px;stroke-linecap:butt;stroke-linejoin:miter;stroke-opacity:1" />
      <path
         inkscape:connector-curvature="0"
         id="path4180-6-1-3-6"
         d="M 79.999999,272.3622 C 400,272.3622 400,272.3622 400,272.3622"
         style="fill:none;fill-rule:evenodd;stroke:#ffffff;stroke-width:1px;stroke-linecap:butt;stroke-linejoin:miter;stroke-opacity:1" />
      <path
         inkscape:connector-curvature="0"
         id="path4180-7-5-1-2"
         d="M 79.999999,232.3622 C 400,232.3622 400,232.3622 400,232.3622"
         style="fill:none;fill-rule:evenodd;stroke:#ffffff;stroke-width:1px;stroke-linecap:butt;stroke-linejoin:miter;stroke-opacity:1" />
      <path
         inkscape:connector-curvature="0"
         id="path4180-5-9-2-6"
         d="M 79.999999,352.3622 C 400,352.3622 400,352.3622 400,352.3622"
         style="fill:none;fill-rule:evenodd;stroke:#ffffff;stroke-width:1px;stroke-linecap:butt;stroke-linejoin:miter;stroke-opacity:1" />
      <path
         inkscape:connector-curvature="0"
         id="path4180-3-9-7-9"
         d="m 79.999999,392.36221 c 320.000001,0 320.000001,0 320.000001,0"
         style="fill:none;fill-rule:evenodd;stroke:#ffffff;stroke-width:1px;stroke-linecap:butt;stroke-linejoin:miter;stroke-opacity:1" />
      <path
         inkscape:connector-curvature="0"
         id="path3366-5-1-7-9"
         d="m 80.505075,192.15915 c 320.000005,0 320.000005,0 320.000005,0"
         style="fill:none;fill-rule:evenodd;stroke:#ffffff;stroke-width:4;stroke-linecap:butt;stroke-linejoin:miter;stroke-miterlimit:4;stroke-dasharray:none;stroke-opacity:1" />
      <path
         inkscape:connector-curvature="0"
         id="path3364-9-4-9-2"
         d="m 401.38896,190.97324 c 0,239.29187 0,239.29187 0,239.29187"
         style="fill:none;fill-rule:evenodd;stroke:#ffffff;stroke-width:3.83740187;stroke-linecap:butt;stroke-linejoin:miter;stroke-miterlimit:4;stroke-dasharray:none;stroke-opacity:1" />
      <path
         inkscape:connector-curvature="0"
         id="path4263-9-8-9"
         d="M 79.999999,232.3622 C 0,172.3622 0,172.3622 0,172.3622"
         style="fill:none;fill-rule:evenodd;stroke:#ffffff;stroke-width:1px;stroke-linecap:butt;stroke-linejoin:miter;stroke-opacity:1" />
      <path
         inkscape:connector-curvature="0"
         id="path4265-1-1-6"
         d="M 79.999999,272.3622 C 0,212.3622 0,212.3622 0,212.3622"
         style="fill:none;fill-rule:evenodd;stroke:#ffffff;stroke-width:1px;stroke-linecap:butt;stroke-linejoin:miter;stroke-opacity:1" />
      <path
         inkscape:connector-curvature="0"
         id="path4267-0-0-5"
         d="M 79.999999,312.3622 C 0,252.3622 0,252.3622 0,252.3622"
         style="fill:none;fill-rule:evenodd;stroke:#ffffff;stroke-width:1px;stroke-linecap:butt;stroke-linejoin:miter;stroke-opacity:1" />
      <path
         inkscape:connector-curvature="0"
         id="path4269-7-7-5"
         d="M 79.999999,352.3622 C 0,292.3622 0,292.3622 0,292.3622"
         style="fill:none;fill-rule:evenodd;stroke:#ffffff;stroke-width:1px;stroke-linecap:butt;stroke-linejoin:miter;stroke-opacity:1" />
      <path
         inkscape:connector-curvature="0"
         id="path4271-5-6-3"
         d="M 79.999999,392.3622 C 0,332.3622 0,332.3622 0,332.3622"
         style="fill:none;fill-rule:evenodd;stroke:#ffffff;stroke-width:1px;stroke-linecap:butt;stroke-linejoin:miter;stroke-opacity:1" />
      <path
         inkscape:connector-curvature="0"
         id="path4273-8-0-8"
         d="m 120,192.3622 c 0,240 0,240 0,240"
         style="fill:none;fill-rule:evenodd;stroke:#ffffff;stroke-width:1px;stroke-linecap:butt;stroke-linejoin:miter;stroke-opacity:1" />
      <path
         inkscape:connector-curvature="0"
         id="path4275-7-1-6"
         d="m 160,192.3622 c 0,240 0,240 0,240"
         style="fill:none;fill-rule:evenodd;stroke:#ffffff;stroke-width:1px;stroke-linecap:butt;stroke-linejoin:miter;stroke-opacity:1" />
      <path
         inkscape:connector-curvature="0"
         id="path4273-1-0-0-7"
         d="m 200,192.3622 c 0,240 0,240 0,240"
         style="fill:none;fill-rule:evenodd;stroke:#ffffff;stroke-width:1px;stroke-linecap:butt;stroke-linejoin:miter;stroke-opacity:1" />
      <path
         inkscape:connector-curvature="0"
         id="path4273-2-4-2-3"
         d="m 240,192.3622 c 0,240 0,240 0,240"
         style="fill:none;fill-rule:evenodd;stroke:#ffffff;stroke-width:1px;stroke-linecap:butt;stroke-linejoin:miter;stroke-opacity:1" />
      <path
         inkscape:connector-curvature="0"
         id="path4273-7-8-5-6"
         d="m 280,192.3622 c 0,240 0,240 0,240"
         style="fill:none;fill-rule:evenodd;stroke:#ffffff;stroke-width:1px;stroke-linecap:butt;stroke-linejoin:miter;stroke-opacity:1" />
      <path
         inkscape:connector-curvature="0"
         id="path4273-0-0-1-0"
         d="m 320,192.3622 c 0,240 0,240 0,240"
         style="fill:none;fill-rule:evenodd;stroke:#ffffff;stroke-width:1px;stroke-linecap:butt;stroke-linejoin:miter;stroke-opacity:1" />
      <path
         inkscape:connector-curvature="0"
         id="path4273-9-4-9-2"
         d="m 360,192.3622 c 0,240 0,240 0,240"
         style="fill:none;fill-rule:evenodd;stroke:#ffffff;stroke-width:1px;stroke-linecap:butt;stroke-linejoin:miter;stroke-opacity:1" />
      <path
         inkscape:connector-curvature="0"
         id="path4316-29-7-6"
         d="m 120,192.3622 c -80,-60 -80,-60 -80,-60"
         style="fill:none;fill-rule:evenodd;stroke:#ffffff;stroke-width:1px;stroke-linecap:butt;stroke-linejoin:miter;stroke-opacity:1" />
      <path
         inkscape:connector-curvature="0"
         id="path4316-2-6-1-9"
         d="m 160,192.3622 c -80,-60 -80,-60 -80,-60"
         style="fill:none;fill-rule:evenodd;stroke:#ffffff;stroke-width:1px;stroke-linecap:butt;stroke-linejoin:miter;stroke-opacity:1" />
      <path
         inkscape:connector-curvature="0"
         id="path4316-0-1-3-3"
         d="m 200,192.3622 c -80,-60 -80,-60 -80,-60"
         style="fill:none;fill-rule:evenodd;stroke:#ffffff;stroke-width:1px;stroke-linecap:butt;stroke-linejoin:miter;stroke-opacity:1" />
      <path
         inkscape:connector-curvature="0"
         id="path4316-7-0-1-0"
         d="m 240,192.3622 c -80,-60 -80,-60 -80,-60"
         style="fill:none;fill-rule:evenodd;stroke:#ffffff;stroke-width:1px;stroke-linecap:butt;stroke-linejoin:miter;stroke-opacity:1" />
      <path
         inkscape:connector-curvature="0"
         id="path4316-5-4-2-8"
         d="m 280,192.3622 c -80,-60 -80,-60 -80,-60"
         style="fill:none;fill-rule:evenodd;stroke:#ffffff;stroke-width:1px;stroke-linecap:butt;stroke-linejoin:miter;stroke-opacity:1" />
      <path
         inkscape:connector-curvature="0"
         id="path4316-9-2-0-7"
         d="m 320,192.3622 c -80,-60 -80,-60 -80,-60"
         style="fill:none;fill-rule:evenodd;stroke:#ffffff;stroke-width:1px;stroke-linecap:butt;stroke-linejoin:miter;stroke-opacity:1" />
      <path
         inkscape:connector-curvature="0"
         id="path4316-22-2-6-6"
         d="m 360,192.3622 c -80,-60 -80,-60 -80,-60"
         style="fill:none;fill-rule:evenodd;stroke:#ffffff;stroke-width:1px;stroke-linecap:butt;stroke-linejoin:miter;stroke-opacity:1" />
      <path
         inkscape:connector-curvature="0"
         id="path4180-7-9-2-8-5"
         d="M 54.937499,172.3622 C 374,172.3622 374,172.3622 374,172.3622"
         style="fill:none;fill-rule:evenodd;stroke:#ffffff;stroke-width:0.99853408px;stroke-linecap:butt;stroke-linejoin:miter;stroke-opacity:1" />
      <path
         inkscape:connector-curvature="0"
         id="path4180-7-7-0-7-2"
         d="m 25.562499,152.4872 c 321.312501,0 321.312501,0 321.312501,0"
         style="fill:none;fill-rule:evenodd;stroke:#ffffff;stroke-width:1.00204861px;stroke-linecap:butt;stroke-linejoin:miter;stroke-opacity:1" />
      <path
         inkscape:connector-curvature="0"
         id="path4273-3-5-4-4"
         d="m 60.0625,177.2372 c 0,235.4375 0,235.4375 0,235.4375"
         style="fill:none;fill-rule:evenodd;stroke:#ffffff;stroke-width:0.99044919px;stroke-linecap:butt;stroke-linejoin:miter;stroke-opacity:1" />
      <path
         inkscape:connector-curvature="0"
         id="path4273-6-5-9-0"
         d="m 40.000001,161.9247 c 0,236.6875 0,236.6875 0,236.6875"
         style="fill:none;fill-rule:evenodd;stroke:#ffffff;stroke-width:0.99307495px;stroke-linecap:butt;stroke-linejoin:miter;stroke-opacity:1" />
      <path
         inkscape:connector-curvature="0"
         id="path4273-12-2-2-0"
         d="m 19.937501,146.4872 c 0,235.625 0,235.625 0,235.625"
         style="fill:none;fill-rule:evenodd;stroke:#ffffff;stroke-width:0.99084347px;stroke-linecap:butt;stroke-linejoin:miter;stroke-opacity:1" />
    </g>
    <path
       style="fill:none;fill-rule:evenodd;stroke:#ffffff;stroke-width:1px;stroke-linecap:butt;stroke-linejoin:miter;stroke-opacity:1;marker-end:url(#Arrow1Lend)"
       d="m 250.00001,492.36218 c 430,0 430,0 430,0"
       id="path7689"
       inkscape:connector-curvature="0" />
  </g>
</svg>
