<?xml version="1.0" encoding="UTF-8" standalone="no"?>
<!-- Created with Inkscape (http://www.inkscape.org/) -->

<svg
   xmlns:dc="http://purl.org/dc/elements/1.1/"
   xmlns:cc="http://creativecommons.org/ns#"
   xmlns:rdf="http://www.w3.org/1999/02/22-rdf-syntax-ns#"
   xmlns:svg="http://www.w3.org/2000/svg"
   xmlns="http://www.w3.org/2000/svg"
   xmlns:sodipodi="http://sodipodi.sourceforge.net/DTD/sodipodi-0.dtd"
   xmlns:inkscape="http://www.inkscape.org/namespaces/inkscape"
   width="265.92856"
   height="265.92856"
   id="svg3000"
   version="1.1"
   inkscape:version="0.48.4 r9939"
   sodipodi:docname="parallel-programmers.svg">
  <defs
     id="defs3002" />
  <sodipodi:namedview
     id="base"
     pagecolor="#ffffff"
     bordercolor="#666666"
     borderopacity="1.0"
     inkscape:pageopacity="0.0"
     inkscape:pageshadow="2"
     inkscape:zoom="1.4"
     inkscape:cx="129.29539"
     inkscape:cy="107.5758"
     inkscape:document-units="px"
     inkscape:current-layer="layer1"
     showgrid="true"
     inkscape:window-width="1600"
     inkscape:window-height="876"
     inkscape:window-x="0"
     inkscape:window-y="24"
     inkscape:window-maximized="1"
     fit-margin-top="0"
     fit-margin-left="0"
     fit-margin-right="0"
     fit-margin-bottom="0">
    <inkscape:grid
       type="xygrid"
       id="grid3017"
       empspacing="5"
       visible="true"
       enabled="true"
       snapvisiblegridlinesonly="true"
       originx="-126.14287px"
       originy="-554px" />
  </sodipodi:namedview>
  <metadata
     id="metadata3005">
    <rdf:RDF>
      <cc:Work
         rdf:about="">
        <dc:format>image/svg+xml</dc:format>
        <dc:type
           rdf:resource="http://purl.org/dc/dcmitype/StillImage" />
        <dc:title />
      </cc:Work>
    </rdf:RDF>
  </metadata>
  <g
     inkscape:label="Layer 1"
     inkscape:groupmode="layer"
     id="layer1"
     transform="translate(-126.14287,-232.43363)">
    <path
       style="font-size:8px;font-style:normal;font-variant:normal;font-weight:normal;font-stretch:normal;line-height:125%;letter-spacing:0px;word-spacing:0px;fill:#000000;fill-opacity:1;stroke:none;font-family:LMRoman10;-inkscape-font-specification:LMRoman10"
       d="m 239.91518,284.29911 -1.125,0.0937 0,0.25 c 0.56,0 0.625,0.0455 0.625,0.4375 l 0,4.1875 c 0,0.36 -0.089,0.34375 -0.625,0.34375 l 0,0.25 0.875,-0.0312 0.875,0.0312 0,-0.25 c -0.536,0 -0.625,0.0163 -0.625,-0.34375 l 0,-4.96875 z m 2.21875,0 -1.125,0.0937 0,0.25 c 0.56,0 0.625,0.0455 0.625,0.4375 l 0,4.1875 c 0,0.36 -0.089,0.34375 -0.625,0.34375 l 0,0.25 0.875,-0.0312 0.875,0.0312 0,-0.25 c -0.536,0 -0.625,0.0163 -0.625,-0.34375 l 0,-4.96875 z m 5.78125,0 -1.15625,0.0937 0,0.25 c 0.56,0 0.625,0.0455 0.625,0.4375 l 0,4.1875 c 0,0.36 -0.089,0.34375 -0.625,0.34375 l 0,0.25 0.875,-0.0312 0.90625,0.0312 0,-0.25 c -0.536,0 -0.625,0.0163 -0.625,-0.34375 l 0,-4.96875 z m -25.5,0.0937 0,0.25 0.1875,0 c 0.616,0 0.65625,0.087 0.65625,0.375 l 0,4.21875 c 0,0.288 -0.0402,0.375 -0.65625,0.375 l -0.1875,0 0,0.25 c 0.28,-0.024 0.8835,-0.0312 1.1875,-0.0312 0.304,0 0.9075,0.007 1.1875,0.0312 l 0,-0.25 -0.1875,0 c -0.616,0 -0.65625,-0.087 -0.65625,-0.375 l 0,-1.90625 1.375,0 c 0.96,0 1.8125,-0.6375 1.8125,-1.4375 0,-0.784 -0.779,-1.5 -1.875,-1.5 l -2.84375,0 z m 29.25,0 0,0.25 0.1875,0 c 0.616,0 0.625,0.087 0.625,0.375 l 0,4.21875 c 0,0.288 -0.009,0.375 -0.625,0.375 l -0.1875,0 0,0.25 c 0.28,-0.024 0.8835,-0.0312 1.1875,-0.0312 0.304,0 0.9075,0.007 1.1875,0.0312 l 0,-0.25 -0.21875,0 c -0.616,0 -0.625,-0.087 -0.625,-0.375 l 0,-1.90625 1.34375,0 c 0.96,0 1.84375,-0.6375 1.84375,-1.4375 0,-0.784 -0.81025,-1.5 -1.90625,-1.5 l -2.8125,0 z m -27.5625,0.25 c 0.0528,-0.009 0.12475,0 0.21875,0 l 0.71875,0 c 1.272,0 1.28125,0.858 1.28125,1.25 0,0.376 -0.009,1.21875 -1.28125,1.21875 l -1.09375,0 0,-2.15625 c 0,-0.198 -0.002,-0.28648 0.15625,-0.3125 z m 29.25,0 c 0.0557,-0.009 0.12475,0 0.21875,0 l 0.71875,0 c 1.272,0 1.25,0.858 1.25,1.25 0,0.376 0.022,1.21875 -1.25,1.21875 l -1.125,0 0,-2.15625 c 0,-0.198 0.0204,-0.28648 0.1875,-0.3125 z m 14.09375,1.59375 c -0.16,0 -0.50775,0.047 -0.84375,0.375 -0.336,-0.264 -0.66775,-0.28125 -0.84375,-0.28125 -0.744,0 -1.3125,0.54025 -1.3125,1.15625 0,0.352 0.20625,0.67575 0.40625,0.84375 -0.104,0.12 -0.25,0.37625 -0.25,0.65625 0,0.248 0.0957,0.55875 0.34375,0.71875 -0.48,0.136 -0.75,0.46125 -0.75,0.78125 0,0.576 0.80525,1.03125 1.78125,1.03125 0.944,0 1.78125,-0.40725 1.78125,-1.03125 0,-0.28 -0.12325,-0.68225 -0.53125,-0.90625 -0.424,-0.224 -0.887,-0.25 -1.375,-0.25 -0.2,0 -0.53775,0.008 -0.59375,0 -0.256,-0.032 -0.4375,-0.27525 -0.4375,-0.53125 0,-0.032 0.0202,-0.215 0.15625,-0.375 0.312,0.224 0.62925,0.25 0.78125,0.25 0.744,0 1.28125,-0.5715 1.28125,-1.1875 0,-0.296 -0.1125,-0.566 -0.3125,-0.75 0.288,-0.272 0.57475,-0.3125 0.71875,-0.3125 0,0 0.0697,-0.008 0.0937,0 -0.088,0.032 -0.15625,0.12275 -0.15625,0.21875 0,0.136 0.122,0.21875 0.25,0.21875 0.08,0 0.21875,-0.0347 0.21875,-0.21875 0,-0.136 -0.0943,-0.40625 -0.40625,-0.40625 z m -38.375,0.0312 c -0.656,0 -1.21875,0.37825 -1.21875,0.90625 0,0.24 0.167,0.375 0.375,0.375 0.224,0 0.375,-0.13575 0.375,-0.34375 0,-0.096 -0.0383,-0.367 -0.40625,-0.375 0.216,-0.28 0.58775,-0.375 0.84375,-0.375 0.392,0 0.875,0.31925 0.875,1.03125 l 0,0.28125 c -0.408,0.024 -0.996,0.0412 -1.5,0.28125 -0.6,0.272 -0.78125,0.7105 -0.78125,1.0625 0,0.648 0.77725,0.84375 1.28125,0.84375 0.528,0 0.87925,-0.3115 1.03125,-0.6875 0.032,0.32 0.249,0.65625 0.625,0.65625 0.168,0 0.65625,-0.13325 0.65625,-0.78125 l 0,-0.4375 -0.1875,0 0,0.4375 c 0,0.464 -0.19325,0.53125 -0.28125,0.53125 -0.264,0 -0.3125,-0.36625 -0.3125,-0.40625 l 0,-1.59375 c 0,-0.336 0.007,-0.67275 -0.28125,-0.96875 -0.312,-0.312 -0.70975,-0.4375 -1.09375,-0.4375 z m 7.125,0 c -0.656,0 -1.1875,0.37825 -1.1875,0.90625 0,0.24 0.167,0.375 0.375,0.375 0.224,0 0.34375,-0.13575 0.34375,-0.34375 0,-0.096 -0.0383,-0.367 -0.40625,-0.375 0.216,-0.28 0.619,-0.375 0.875,-0.375 0.392,0 0.84375,0.31925 0.84375,1.03125 l 0,0.28125 c -0.408,0.024 -0.96475,0.0412 -1.46875,0.28125 -0.6,0.272 -0.8125,0.7105 -0.8125,1.0625 0,0.648 0.77725,0.84375 1.28125,0.84375 0.528,0 0.9105,-0.3115 1.0625,-0.6875 0.032,0.32 0.249,0.65625 0.625,0.65625 0.168,0 0.65625,-0.13325 0.65625,-0.78125 l 0,-0.4375 -0.21875,0 0,0.4375 c 0,0.464 -0.19325,0.53125 -0.28125,0.53125 -0.264,0 -0.28125,-0.36625 -0.28125,-0.40625 l 0,-1.59375 c 0,-0.336 -0.0245,-0.67275 -0.3125,-0.96875 -0.312,-0.312 -0.70975,-0.4375 -1.09375,-0.4375 z m 8.65625,0 c -0.928,0 -1.6875,0.84375 -1.6875,1.84375 0,1.072 0.86125,1.84375 1.78125,1.84375 0.976,0 1.3125,-0.87925 1.3125,-1.03125 0,-0.08 -0.0537,-0.125 -0.0937,-0.125 -0.072,0 -0.0777,0.061 -0.0937,0.125 -0.28,0.824 -1.01375,0.8125 -1.09375,0.8125 -0.4,0 -0.72225,-0.23525 -0.90625,-0.53125 -0.24,-0.384 -0.21875,-0.8995 -0.21875,-1.1875 l 2.21875,0 c 0.176,0 0.1875,0.0118 0.1875,-0.15625 0,-0.792 -0.40625,-1.59375 -1.40625,-1.59375 z m 17.125,0 c -1,0 -1.78125,0.875 -1.78125,1.875 0,1.032 0.84525,1.8125 1.78125,1.8125 0.968,0 1.78125,-0.7965 1.78125,-1.8125 0,-1.024 -0.81325,-1.875 -1.78125,-1.875 z m 10.84375,0 c -0.656,0 -1.21875,0.37825 -1.21875,0.90625 0,0.24 0.167,0.375 0.375,0.375 0.224,0 0.375,-0.13575 0.375,-0.34375 0,-0.096 -0.0383,-0.367 -0.40625,-0.375 0.216,-0.28 0.58775,-0.375 0.84375,-0.375 0.392,0 0.875,0.31925 0.875,1.03125 l 0,0.28125 c -0.408,0.024 -0.996,0.0412 -1.5,0.28125 -0.6,0.272 -0.78125,0.7105 -0.78125,1.0625 0,0.648 0.77725,0.84375 1.28125,0.84375 0.528,0 0.87925,-0.3115 1.03125,-0.6875 0.032,0.32 0.249,0.65625 0.625,0.65625 0.168,0 0.65625,-0.13325 0.65625,-0.78125 l 0,-0.4375 -0.1875,0 0,0.4375 c 0,0.464 -0.19325,0.53125 -0.28125,0.53125 -0.264,0 -0.3125,-0.36625 -0.3125,-0.40625 l 0,-1.59375 c 0,-0.336 0.007,-0.67275 -0.28125,-0.96875 -0.312,-0.312 -0.70975,-0.4375 -1.09375,-0.4375 z m 17.53125,0 c -0.928,0 -1.65625,0.84375 -1.65625,1.84375 0,1.072 0.83,1.84375 1.75,1.84375 0.976,0 1.34375,-0.87925 1.34375,-1.03125 0,-0.08 -0.0538,-0.125 -0.0937,-0.125 -0.072,0 -0.109,0.061 -0.125,0.125 -0.28,0.824 -0.9825,0.8125 -1.0625,0.8125 -0.4,0 -0.72225,-0.23525 -0.90625,-0.53125 -0.24,-0.384 -0.25,-0.8995 -0.25,-1.1875 l 2.21875,0 c 0.176,0 0.21875,0.0118 0.21875,-0.15625 0,-0.792 -0.4375,-1.59375 -1.4375,-1.59375 z m 6.34375,0 c -0.976,0 -1.28125,0.552 -1.28125,1 0,0.28 0.12775,0.5115 0.34375,0.6875 0.256,0.208 0.4865,0.23175 1.0625,0.34375 0.176,0.032 0.8125,0.174 0.8125,0.75 0,0.408 -0.251,0.71875 -0.875,0.71875 -0.672,0 -0.973,-0.445 -1.125,-1.125 -0.024,-0.104 -0.045,-0.15625 -0.125,-0.15625 -0.104,0 -0.0937,0.0747 -0.0937,0.21875 l 0,1.0625 c 0,0.136 0.006,0.1875 0.0937,0.1875 0.04,0 0.0355,-0.004 0.1875,-0.15625 0.016,-0.016 0.0122,-0.0355 0.15625,-0.1875 0.352,0.336 0.73825,0.34375 0.90625,0.34375 0.92,0 1.28125,-0.549 1.28125,-1.125 0,-0.424 -0.24775,-0.654 -0.34375,-0.75 -0.264,-0.256 -0.57025,-0.311 -0.90625,-0.375 -0.448,-0.088 -1,-0.19225 -1,-0.65625 0,-0.28 0.21825,-0.625 0.90625,-0.625 0.88,0 0.9215,0.72075 0.9375,0.96875 0.008,0.072 0.0937,0.0625 0.0937,0.0625 0.104,0 0.0937,-0.0355 0.0937,-0.1875 l 0,-0.8125 c 0,-0.136 0.0255,-0.1875 -0.0625,-0.1875 -0.04,0 -0.0835,-0.002 -0.1875,0.0937 -0.024,0.032 -0.093,0.101 -0.125,0.125 -0.304,-0.224 -0.63,-0.21875 -0.75,-0.21875 z m -64,0.0625 -1.09375,0.0937 0,0.25 c 0.56,0 0.625,0.0455 0.625,0.4375 l 0,2.15625 c 0,0.36 -0.089,0.34375 -0.625,0.34375 l 0,0.25 0.90625,-0.0312 c 0.32,0 0.68,0.007 1,0.0312 l 0,-0.25 -0.15625,0 c -0.592,0 -0.59375,-0.087 -0.59375,-0.375 l 0,-1.21875 c 0,-0.792 0.3295,-1.53125 0.9375,-1.53125 0.056,0 0.0778,0.0233 0.0937,0.0312 -0.024,0.008 -0.1875,0.1045 -0.1875,0.3125 0,0.224 0.16775,0.34375 0.34375,0.34375 0.144,0 0.34375,-0.119 0.34375,-0.375 0,-0.256 -0.24975,-0.46875 -0.59375,-0.46875 -0.584,0 -0.888,0.531 -1,0.875 l 0,-0.875 z m 25.46875,0 -1.09375,0.0937 0,0.25 c 0.56,0 0.625,0.0455 0.625,0.4375 l 0,2.15625 c 0,0.36 -0.089,0.34375 -0.625,0.34375 l 0,0.25 0.90625,-0.0312 c 0.32,0 0.68,0.007 1,0.0312 l 0,-0.25 -0.15625,0 c -0.592,0 -0.59375,-0.087 -0.59375,-0.375 l 0,-1.21875 c 0,-0.792 0.3295,-1.53125 0.9375,-1.53125 0.056,0 0.0777,0.0233 0.0937,0.0312 -0.024,0.008 -0.1875,0.1045 -0.1875,0.3125 0,0.224 0.16775,0.34375 0.34375,0.34375 0.144,0 0.34375,-0.119 0.34375,-0.375 0,-0.256 -0.24975,-0.46875 -0.59375,-0.46875 -0.584,0 -0.888,0.531 -1,0.875 l 0,-0.875 z m 11.15625,0 -1.125,0.0937 0,0.25 c 0.56,0 0.625,0.0455 0.625,0.4375 l 0,2.15625 c 0,0.36 -0.089,0.34375 -0.625,0.34375 l 0,0.25 0.90625,-0.0312 c 0.32,0 0.71125,0.007 1.03125,0.0312 l 0,-0.25 -0.15625,0 c -0.592,0 -0.625,-0.087 -0.625,-0.375 l 0,-1.21875 c 0,-0.792 0.3295,-1.53125 0.9375,-1.53125 0.056,0 0.0777,0.0233 0.0937,0.0312 -0.024,0.008 -0.1875,0.1045 -0.1875,0.3125 0,0.224 0.16775,0.34375 0.34375,0.34375 0.144,0 0.34375,-0.119 0.34375,-0.375 0,-0.256 -0.24975,-0.46875 -0.59375,-0.46875 -0.584,0 -0.85675,0.531 -0.96875,0.875 l 0,-0.875 z m 7.1875,0 -1.125,0.0937 0,0.25 c 0.56,0 0.625,0.0455 0.625,0.4375 l 0,2.15625 c 0,0.36 -0.089,0.34375 -0.625,0.34375 l 0,0.25 0.90625,-0.0312 0.875,0.0312 0,-0.25 c -0.536,0 -0.625,0.0163 -0.625,-0.34375 l 0,-1.5 c 0,-0.832 0.58175,-1.28125 1.09375,-1.28125 0.504,0 0.59375,0.45025 0.59375,0.90625 l 0,1.875 c 0,0.36 -0.089,0.34375 -0.625,0.34375 l 0,0.25 0.90625,-0.0312 0.90625,0.0312 0,-0.25 c -0.536,0 -0.625,0.0163 -0.625,-0.34375 l 0,-1.5 c 0,-0.832 0.5505,-1.28125 1.0625,-1.28125 0.504,0 0.59375,0.45025 0.59375,0.90625 l 0,1.875 c 0,0.36 -0.089,0.34375 -0.625,0.34375 l 0,0.25 0.90625,-0.0312 0.90625,0.0312 0,-0.25 c -0.416,0 -0.617,-0.01 -0.625,-0.25 l 0,-1.5 c 0,-0.688 -0.002,-0.962 -0.25,-1.25 -0.112,-0.136 -0.37975,-0.28125 -0.84375,-0.28125 -0.672,0 -1.02025,0.47725 -1.15625,0.78125 -0.112,-0.696 -0.7025,-0.78125 -1.0625,-0.78125 -0.584,0 -0.9635,0.34775 -1.1875,0.84375 l 0,-0.84375 z m 6.65625,0 -1.125,0.0937 0,0.25 c 0.56,0 0.625,0.0455 0.625,0.4375 l 0,2.15625 c 0,0.36 -0.089,0.34375 -0.625,0.34375 l 0,0.25 0.90625,-0.0312 0.90625,0.0312 0,-0.25 c -0.536,0 -0.625,0.0163 -0.625,-0.34375 l 0,-1.5 c 0,-0.832 0.58175,-1.28125 1.09375,-1.28125 0.504,0 0.5625,0.45025 0.5625,0.90625 l 0,1.875 c 0,0.36 -0.089,0.34375 -0.625,0.34375 l 0,0.25 0.90625,-0.0312 0.90625,0.0312 0,-0.25 c -0.536,0 -0.625,0.0163 -0.625,-0.34375 l 0,-1.5 c 0,-0.832 0.58175,-1.28125 1.09375,-1.28125 0.504,0 0.59375,0.45025 0.59375,0.90625 l 0,1.875 c 0,0.36 -0.089,0.34375 -0.625,0.34375 l 0,0.25 0.90625,-0.0312 0.875,0.0312 0,-0.25 c -0.416,0 -0.617,-0.01 -0.625,-0.25 l 0,-1.5 c 0,-0.688 -0.002,-0.962 -0.25,-1.25 -0.112,-0.136 -0.37975,-0.28125 -0.84375,-0.28125 -0.672,0 -1.02025,0.47725 -1.15625,0.78125 -0.112,-0.696 -0.7025,-0.78125 -1.0625,-0.78125 -0.584,0 -0.9635,0.34775 -1.1875,0.84375 l 0,-0.84375 z m 10.1875,0 -1.125,0.0937 0,0.25 c 0.56,0 0.625,0.0455 0.625,0.4375 l 0,2.15625 c 0,0.36 -0.089,0.34375 -0.625,0.34375 l 0,0.25 0.90625,-0.0312 c 0.32,0 0.71125,0.007 1.03125,0.0312 l 0,-0.25 -0.15625,0 c -0.592,0 -0.625,-0.087 -0.625,-0.375 l 0,-1.21875 c 0,-0.792 0.3295,-1.53125 0.9375,-1.53125 0.056,0 0.0777,0.0233 0.0937,0.0312 -0.024,0.008 -0.1875,0.1045 -0.1875,0.3125 0,0.224 0.16775,0.34375 0.34375,0.34375 0.144,0 0.34375,-0.119 0.34375,-0.375 0,-0.256 -0.24975,-0.46875 -0.59375,-0.46875 -0.584,0 -0.85675,0.531 -0.96875,0.875 l 0,-0.875 z m -48.5,0.125 c 0.824,0 0.875,1.09425 0.875,1.40625 l -1.875,0 c 0.048,-1.192 0.728,-1.40625 1,-1.40625 z m 17.125,0 c 0.352,0 0.69825,0.18725 0.90625,0.53125 0.208,0.344 0.1875,0.78975 0.1875,1.09375 0,0.288 0.0197,0.7105 -0.15625,1.0625 -0.176,0.36 -0.5375,0.59375 -0.9375,0.59375 -0.344,0 -0.69025,-0.16325 -0.90625,-0.53125 -0.2,-0.352 -0.1875,-0.837 -0.1875,-1.125 0,-0.312 -0.005,-0.74175 0.1875,-1.09375 0.216,-0.368 0.58625,-0.53125 0.90625,-0.53125 z m 28.375,0 c 0.824,0 0.90625,1.09425 0.90625,1.40625 l -1.90625,0 c 0.048,-1.192 0.728,-1.40625 1,-1.40625 z m -24.59375,0.0625 c 0.696,0 0.6875,0.78475 0.6875,0.96875 0,0.216 -0.005,0.4875 -0.125,0.6875 -0.064,0.096 -0.2425,0.3125 -0.5625,0.3125 -0.696,0 -0.6875,-0.816 -0.6875,-1 0,-0.216 0.005,-0.45625 0.125,-0.65625 0.064,-0.096 0.2425,-0.3125 0.5625,-0.3125 z m -35.84375,1.4375 0,0.78125 c 0,0.76 -0.5775,1.03125 -0.9375,1.03125 -0.392,0 -0.71875,-0.2875 -0.71875,-0.6875 0,-0.44 0.33625,-1.077 1.65625,-1.125 z m 7.125,0 0,0.78125 c 0,0.76 -0.5775,1.03125 -0.9375,1.03125 -0.392,0 -0.71875,-0.2875 -0.71875,-0.6875 0,-0.44 0.33625,-1.077 1.65625,-1.125 z m 36.625,0 0,0.78125 c 0,0.76 -0.5775,1.03125 -0.9375,1.03125 -0.392,0 -0.71875,-0.2875 -0.71875,-0.6875 0,-0.44 0.33625,-1.077 1.65625,-1.125 z m -8.375,1.84375 0.46875,0 c 0.688,0 1.5625,-5e-4 1.5625,0.6875 0,0.432 -0.55975,0.84375 -1.34375,0.84375 -0.808,0 -1.34375,-0.41975 -1.34375,-0.84375 0,-0.368 0.30425,-0.6635 0.65625,-0.6875 z"
       id="text3008"
       inkscape:connector-curvature="0" />
    <path
       sodipodi:type="arc"
       style="opacity:0.6;fill:none;stroke:#000000;stroke-width:2;stroke-miterlimit:4;stroke-opacity:1;stroke-dasharray:none;stroke-dashoffset:0"
       id="path3019"
       sodipodi:cx="256.96429"
       sodipodi:cy="384.32648"
       sodipodi:rx="131.96428"
       sodipodi:ry="131.96428"
       d="m 388.92857,384.32648 c 0,72.88186 -59.08242,131.96428 -131.96428,131.96428 -72.88185,0 -131.96427,-59.08242 -131.96427,-131.96428 0,-72.88186 59.08242,-131.96428 131.96427,-131.96428 72.88186,0 131.96428,59.08242 131.96428,131.96428 z"
       transform="translate(2.1428572,-18.928571)" />
    <text
       xml:space="preserve"
       style="font-size:8px;font-style:normal;font-variant:normal;font-weight:normal;font-stretch:normal;text-align:center;line-height:125%;letter-spacing:0px;word-spacing:0px;text-anchor:middle;fill:#000000;fill-opacity:1;stroke:none;font-family:LMRoman10;-inkscape-font-specification:LMRoman10"
       x="260"
       y="412.36218"
       id="text3021"
       sodipodi:linespacing="125%"><tspan
         sodipodi:role="line"
         id="tspan3023"
         x="260"
         y="412.36218">Parallel Programming</tspan><tspan
         sodipodi:role="line"
         x="260"
         y="422.36218"
         id="tspan3025">Experts</tspan></text>
    <path
       sodipodi:type="arc"
       style="opacity:0.6;fill:none;stroke:#000000;stroke-width:2;stroke-miterlimit:4;stroke-opacity:1;stroke-dasharray:none;stroke-dashoffset:0"
       id="path3027"
       sodipodi:cx="265"
       sodipodi:cy="409.86218"
       sodipodi:rx="55"
       sodipodi:ry="27.5"
       d="m 320,409.86218 c 0,15.18783 -24.62434,27.5 -55,27.5 -30.37566,0 -55,-12.31217 -55,-27.5 0,-15.18783 24.62434,-27.5 55,-27.5 30.37566,0 55,12.31217 55,27.5 z"
       transform="translate(-5.7142857,4.2857143)" />
  </g>
</svg>
