<?xml version="1.0" encoding="UTF-8" standalone="no"?>
<!DOCTYPE svg PUBLIC "-//W3C//DTD SVG 1.1//EN"
 "http://www.w3.org/Graphics/SVG/1.1/DTD/svg11.dtd">
<!-- Generated by graphviz version 2.36.0 (20140111.2315)
 -->
<!-- Title: %3 Pages: 1 -->
<svg width="4110pt" height="1131pt"
 viewBox="0.00 0.00 4110.00 1131.00" xmlns="http://www.w3.org/2000/svg" xmlns:xlink="http://www.w3.org/1999/xlink">
<g id="graph0" class="graph" transform="scale(1 1) rotate(0) translate(4 1127)">
<title>%3</title>
<polygon fill="none" stroke="none" points="-4,4 -4,-1127 4106,-1127 4106,4 -4,4"/>
<!-- 5811610323224772930 -->
<g id="node1" class="node"><title>5811610323224772930</title>
<polygon fill="none" stroke="white" points="2466,-107 2314,-107 2314,-71 2466,-71 2466,-107"/>
<text text-anchor="middle" x="2390" y="-85.3" font-family="Times,serif" font-size="14.00" fill="#ffffff">(&#39;make&#45;timeseries&#45;#0&#39;, 4)</text>
</g>
<!-- &#45;1157853554381638307 -->
<g id="node12" class="node"><title>&#45;1157853554381638307</title>
<ellipse fill="none" stroke="white" cx="2673" cy="-89" rx="37.8943" ry="37.8943"/>
<text text-anchor="middle" x="2673" y="-85.3" font-family="Times,serif" font-size="14.00" fill="#ffffff">getitem</text>
</g>
<!-- 5811610323224772930&#45;&gt;&#45;1157853554381638307 -->
<g id="edge9" class="edge"><title>5811610323224772930&#45;&gt;&#45;1157853554381638307</title>
<path fill="none" stroke="white" d="M2466.3,-89C2516.77,-89 2581.65,-89 2624.91,-89"/>
<polygon fill="white" stroke="white" points="2625.16,-92.5001 2635.16,-89 2625.16,-85.5001 2625.16,-92.5001"/>
</g>
<!-- &#45;7133517631035046760 -->
<g id="node2" class="node"><title>&#45;7133517631035046760</title>
<ellipse fill="none" stroke="white" cx="2107" cy="-89" rx="89.0842" ry="89.0842"/>
<text text-anchor="middle" x="2107" y="-85.3" font-family="Times,serif" font-size="14.00" fill="#ffffff">make_timeseries_part</text>
</g>
<!-- &#45;7133517631035046760&#45;&gt;5811610323224772930 -->
<g id="edge1" class="edge"><title>&#45;7133517631035046760&#45;&gt;5811610323224772930</title>
<path fill="none" stroke="white" d="M2196.14,-89C2230.42,-89 2269.55,-89 2303.56,-89"/>
<polygon fill="white" stroke="white" points="2303.94,-92.5001 2313.94,-89 2303.94,-85.5001 2303.94,-92.5001"/>
</g>
<!-- &#45;7247745924639566458 -->
<g id="node3" class="node"><title>&#45;7247745924639566458</title>
<polygon fill="none" stroke="white" points="3005,-461 2907,-461 2907,-425 3005,-425 3005,-461"/>
<text text-anchor="middle" x="2956" y="-439.3" font-family="Times,serif" font-size="14.00" fill="#ffffff">(&#39;rolling&#45;#1&#39;, 3)</text>
</g>
<!-- 6834689850942608668 -->
<g id="node4" class="node"><title>6834689850942608668</title>
<ellipse fill="none" stroke="white" cx="2673" cy="-443" rx="170.07" ry="170.07"/>
<text text-anchor="middle" x="2673" y="-439.3" font-family="Times,serif" font-size="14.00" fill="#ffffff">call_pandas_rolling_method_with_neighbors</text>
</g>
<!-- 6834689850942608668&#45;&gt;&#45;7247745924639566458 -->
<g id="edge2" class="edge"><title>6834689850942608668&#45;&gt;&#45;7247745924639566458</title>
<path fill="none" stroke="white" d="M2843.54,-443C2862.46,-443 2880.65,-443 2896.64,-443"/>
<polygon fill="white" stroke="white" points="2896.82,-446.5 2906.82,-443 2896.82,-439.5 2896.82,-446.5"/>
</g>
<!-- 5852198005188210098 -->
<g id="node5" class="node"><title>5852198005188210098</title>
<polygon fill="none" stroke="white" points="2442,-299 2338,-299 2338,-263 2442,-263 2442,-299"/>
<text text-anchor="middle" x="2390" y="-277.3" font-family="Times,serif" font-size="14.00" fill="#ffffff">(&#39;getitem&#45;#2&#39;, 3)</text>
</g>
<!-- 5852198005188210098&#45;&gt;6834689850942608668 -->
<g id="edge3" class="edge"><title>5852198005188210098&#45;&gt;6834689850942608668</title>
<path fill="none" stroke="white" d="M2422.42,-299.112C2446.05,-312.736 2480.37,-332.525 2516.04,-353.089"/>
<polygon fill="white" stroke="white" points="2514.72,-356.368 2525.14,-358.331 2518.22,-350.304 2514.72,-356.368"/>
</g>
<!-- 1775204408287329421 -->
<g id="node46" class="node"><title>1775204408287329421</title>
<ellipse fill="none" stroke="white" cx="2673" cy="-233" rx="22.1965" ry="22.1965"/>
<text text-anchor="middle" x="2673" y="-229.3" font-family="Times,serif" font-size="14.00" fill="#ffffff">tail</text>
</g>
<!-- 5852198005188210098&#45;&gt;1775204408287329421 -->
<g id="edge45" class="edge"><title>5852198005188210098&#45;&gt;1775204408287329421</title>
<path fill="none" stroke="white" d="M2442.21,-272.252C2500.2,-262.347 2592.83,-246.524 2640.85,-238.321"/>
<polygon fill="white" stroke="white" points="2641.68,-241.73 2650.95,-236.596 2640.5,-234.83 2641.68,-241.73"/>
</g>
<!-- &#45;8871671627943685540 -->
<g id="node6" class="node"><title>&#45;8871671627943685540</title>
<polygon fill="none" stroke="white" points="2461.5,-461 2318.5,-461 2318.5,-425 2461.5,-425 2461.5,-461"/>
<text text-anchor="middle" x="2390" y="-439.3" font-family="Times,serif" font-size="14.00" fill="#ffffff">(&#39;tail&#45;99&#45;getitem&#45;#2&#39;, 2)</text>
</g>
<!-- &#45;8871671627943685540&#45;&gt;6834689850942608668 -->
<g id="edge4" class="edge"><title>&#45;8871671627943685540&#45;&gt;6834689850942608668</title>
<path fill="none" stroke="white" d="M2461.55,-443C2471.28,-443 2481.61,-443 2492.27,-443"/>
<polygon fill="white" stroke="white" points="2492.59,-446.5 2502.59,-443 2492.59,-439.5 2492.59,-446.5"/>
</g>
<!-- &#45;7247745924641731508 -->
<g id="node7" class="node"><title>&#45;7247745924641731508</title>
<polygon fill="none" stroke="white" points="1873,-971 1775,-971 1775,-935 1873,-935 1873,-971"/>
<text text-anchor="middle" x="1824" y="-949.3" font-family="Times,serif" font-size="14.00" fill="#ffffff">(&#39;rolling&#45;#1&#39;, 1)</text>
</g>
<!-- &#45;38366842482017598 -->
<g id="node8" class="node"><title>&#45;38366842482017598</title>
<ellipse fill="none" stroke="white" cx="1541" cy="-953" rx="170.07" ry="170.07"/>
<text text-anchor="middle" x="1541" y="-949.3" font-family="Times,serif" font-size="14.00" fill="#ffffff">call_pandas_rolling_method_with_neighbors</text>
</g>
<!-- &#45;38366842482017598&#45;&gt;&#45;7247745924641731508 -->
<g id="edge5" class="edge"><title>&#45;38366842482017598&#45;&gt;&#45;7247745924641731508</title>
<path fill="none" stroke="white" d="M1711.54,-953C1730.46,-953 1748.65,-953 1764.64,-953"/>
<polygon fill="white" stroke="white" points="1764.82,-956.5 1774.82,-953 1764.82,-949.5 1764.82,-956.5"/>
</g>
<!-- 5852198005186045048 -->
<g id="node9" class="node"><title>5852198005186045048</title>
<polygon fill="none" stroke="white" points="1310,-671 1206,-671 1206,-635 1310,-635 1310,-671"/>
<text text-anchor="middle" x="1258" y="-649.3" font-family="Times,serif" font-size="14.00" fill="#ffffff">(&#39;getitem&#45;#2&#39;, 1)</text>
</g>
<!-- 5852198005186045048&#45;&gt;&#45;38366842482017598 -->
<g id="edge6" class="edge"><title>5852198005186045048&#45;&gt;&#45;38366842482017598</title>
<path fill="none" stroke="white" d="M1276.15,-671.315C1304.27,-701.326 1362.49,-763.484 1417.1,-821.792"/>
<polygon fill="white" stroke="white" points="1414.7,-824.344 1424.09,-829.25 1419.81,-819.559 1414.7,-824.344"/>
</g>
<!-- 9095758572633055671 -->
<g id="node41" class="node"><title>9095758572633055671</title>
<ellipse fill="none" stroke="white" cx="1541" cy="-653" rx="22.1965" ry="22.1965"/>
<text text-anchor="middle" x="1541" y="-649.3" font-family="Times,serif" font-size="14.00" fill="#ffffff">tail</text>
</g>
<!-- 5852198005186045048&#45;&gt;9095758572633055671 -->
<g id="edge39" class="edge"><title>5852198005186045048&#45;&gt;9095758572633055671</title>
<path fill="none" stroke="white" d="M1310.21,-653C1368.05,-653 1460.36,-653 1508.49,-653"/>
<polygon fill="white" stroke="white" points="1508.61,-656.5 1518.61,-653 1508.61,-649.5 1508.61,-656.5"/>
</g>
<!-- &#45;8871671627941520490 -->
<g id="node10" class="node"><title>&#45;8871671627941520490</title>
<polygon fill="none" stroke="white" points="1329.5,-1012 1186.5,-1012 1186.5,-976 1329.5,-976 1329.5,-1012"/>
<text text-anchor="middle" x="1258" y="-990.3" font-family="Times,serif" font-size="14.00" fill="#ffffff">(&#39;tail&#45;99&#45;getitem&#45;#2&#39;, 0)</text>
</g>
<!-- &#45;8871671627941520490&#45;&gt;&#45;38366842482017598 -->
<g id="edge7" class="edge"><title>&#45;8871671627941520490&#45;&gt;&#45;38366842482017598</title>
<path fill="none" stroke="white" d="M1329.55,-983.707C1339.86,-982.202 1350.84,-980.6 1362.18,-978.946"/>
<polygon fill="white" stroke="white" points="1362.83,-982.388 1372.22,-977.48 1361.82,-975.461 1362.83,-982.388"/>
</g>
<!-- 5852198005189292623 -->
<g id="node11" class="node"><title>5852198005189292623</title>
<polygon fill="none" stroke="white" points="3008,-107 2904,-107 2904,-71 3008,-71 3008,-107"/>
<text text-anchor="middle" x="2956" y="-85.3" font-family="Times,serif" font-size="14.00" fill="#ffffff">(&#39;getitem&#45;#2&#39;, 4)</text>
</g>
<!-- 5405329074821351096 -->
<g id="node29" class="node"><title>5405329074821351096</title>
<ellipse fill="none" stroke="white" cx="3239" cy="-52" rx="22.1965" ry="22.1965"/>
<text text-anchor="middle" x="3239" y="-48.3" font-family="Times,serif" font-size="14.00" fill="#ffffff">tail</text>
</g>
<!-- 5852198005189292623&#45;&gt;5405329074821351096 -->
<g id="edge24" class="edge"><title>5852198005189292623&#45;&gt;5405329074821351096</title>
<path fill="none" stroke="white" d="M3008.21,-82.2567C3066.2,-74.6216 3158.83,-62.4249 3206.85,-56.1014"/>
<polygon fill="white" stroke="white" points="3207.49,-59.5475 3216.95,-54.7719 3206.58,-52.6074 3207.49,-59.5475"/>
</g>
<!-- 631196187120850377 -->
<g id="node43" class="node"><title>631196187120850377</title>
<ellipse fill="none" stroke="white" cx="3239" cy="-262" rx="170.07" ry="170.07"/>
<text text-anchor="middle" x="3239" y="-258.3" font-family="Times,serif" font-size="14.00" fill="#ffffff">call_pandas_rolling_method_with_neighbors</text>
</g>
<!-- 5852198005189292623&#45;&gt;631196187120850377 -->
<g id="edge42" class="edge"><title>5852198005189292623&#45;&gt;631196187120850377</title>
<path fill="none" stroke="white" d="M2986.28,-107.024C3010.58,-121.989 3047.19,-144.524 3085,-167.807"/>
<polygon fill="white" stroke="white" points="3083.25,-170.837 3093.6,-173.1 3086.92,-164.877 3083.25,-170.837"/>
</g>
<!-- &#45;1157853554381638307&#45;&gt;5852198005189292623 -->
<g id="edge8" class="edge"><title>&#45;1157853554381638307&#45;&gt;5852198005189292623</title>
<path fill="none" stroke="white" d="M2710.74,-89C2757.23,-89 2837.98,-89 2893.84,-89"/>
<polygon fill="white" stroke="white" points="2893.97,-92.5001 2903.97,-89 2893.97,-85.5001 2893.97,-92.5001"/>
</g>
<!-- 5852198005187127573 -->
<g id="node13" class="node"><title>5852198005187127573</title>
<polygon fill="none" stroke="white" points="1876,-493 1772,-493 1772,-457 1876,-457 1876,-493"/>
<text text-anchor="middle" x="1824" y="-471.3" font-family="Times,serif" font-size="14.00" fill="#ffffff">(&#39;getitem&#45;#2&#39;, 2)</text>
</g>
<!-- &#45;6318078459413916654 -->
<g id="node26" class="node"><title>&#45;6318078459413916654</title>
<ellipse fill="none" stroke="white" cx="2107" cy="-443" rx="22.1965" ry="22.1965"/>
<text text-anchor="middle" x="2107" y="-439.3" font-family="Times,serif" font-size="14.00" fill="#ffffff">tail</text>
</g>
<!-- 5852198005187127573&#45;&gt;&#45;6318078459413916654 -->
<g id="edge21" class="edge"><title>5852198005187127573&#45;&gt;&#45;6318078459413916654</title>
<path fill="none" stroke="white" d="M1876.21,-469.168C1934.2,-462.565 2026.83,-452.016 2074.85,-446.547"/>
<polygon fill="white" stroke="white" points="2075.41,-450.006 2084.95,-445.397 2074.62,-443.051 2075.41,-450.006"/>
</g>
<!-- &#45;7982197334847682073 -->
<g id="node33" class="node"><title>&#45;7982197334847682073</title>
<ellipse fill="none" stroke="white" cx="2107" cy="-653" rx="170.07" ry="170.07"/>
<text text-anchor="middle" x="2107" y="-649.3" font-family="Times,serif" font-size="14.00" fill="#ffffff">call_pandas_rolling_method_with_neighbors</text>
</g>
<!-- 5852198005187127573&#45;&gt;&#45;7982197334847682073 -->
<g id="edge28" class="edge"><title>5852198005187127573&#45;&gt;&#45;7982197334847682073</title>
<path fill="none" stroke="white" d="M1853.49,-493.047C1878.01,-508.577 1915.44,-532.287 1954.03,-556.732"/>
<polygon fill="white" stroke="white" points="1952.48,-559.893 1962.8,-562.288 1956.22,-553.98 1952.48,-559.893"/>
</g>
<!-- 8176614542473877507 -->
<g id="node14" class="node"><title>8176614542473877507</title>
<ellipse fill="none" stroke="white" cx="1541" cy="-475" rx="37.8943" ry="37.8943"/>
<text text-anchor="middle" x="1541" y="-471.3" font-family="Times,serif" font-size="14.00" fill="#ffffff">getitem</text>
</g>
<!-- 8176614542473877507&#45;&gt;5852198005187127573 -->
<g id="edge10" class="edge"><title>8176614542473877507&#45;&gt;5852198005187127573</title>
<path fill="none" stroke="white" d="M1578.74,-475C1625.23,-475 1705.98,-475 1761.84,-475"/>
<polygon fill="white" stroke="white" points="1761.97,-478.5 1771.97,-475 1761.97,-471.5 1761.97,-478.5"/>
</g>
<!-- 5811610323226937980 -->
<g id="node15" class="node"><title>5811610323226937980</title>
<polygon fill="none" stroke="white" points="1334,-493 1182,-493 1182,-457 1334,-457 1334,-493"/>
<text text-anchor="middle" x="1258" y="-471.3" font-family="Times,serif" font-size="14.00" fill="#ffffff">(&#39;make&#45;timeseries&#45;#0&#39;, 2)</text>
</g>
<!-- 5811610323226937980&#45;&gt;8176614542473877507 -->
<g id="edge11" class="edge"><title>5811610323226937980&#45;&gt;8176614542473877507</title>
<path fill="none" stroke="white" d="M1334.3,-475C1384.77,-475 1449.65,-475 1492.91,-475"/>
<polygon fill="white" stroke="white" points="1493.16,-478.5 1503.16,-475 1493.16,-471.5 1493.16,-478.5"/>
</g>
<!-- &#45;8214936383150764820 -->
<g id="node16" class="node"><title>&#45;8214936383150764820</title>
<ellipse fill="none" stroke="white" cx="975" cy="-1072" rx="22.1965" ry="22.1965"/>
<text text-anchor="middle" x="975" y="-1068.3" font-family="Times,serif" font-size="14.00" fill="#ffffff">tail</text>
</g>
<!-- &#45;8214936383150764820&#45;&gt;&#45;8871671627941520490 -->
<g id="edge12" class="edge"><title>&#45;8214936383150764820&#45;&gt;&#45;8871671627941520490</title>
<path fill="none" stroke="white" d="M997.021,-1069.68C1029.48,-1065.76 1093.54,-1056.68 1146,-1041 1167.8,-1034.48 1191.1,-1025.03 1210.7,-1016.3"/>
<polygon fill="white" stroke="white" points="1212.33,-1019.4 1220,-1012.09 1209.44,-1013.03 1212.33,-1019.4"/>
</g>
<!-- 5852198005184962523 -->
<g id="node17" class="node"><title>5852198005184962523</title>
<polygon fill="none" stroke="white" points="744,-985 640,-985 640,-949 744,-949 744,-985"/>
<text text-anchor="middle" x="692" y="-963.3" font-family="Times,serif" font-size="14.00" fill="#ffffff">(&#39;getitem&#45;#2&#39;, 0)</text>
</g>
<!-- 5852198005184962523&#45;&gt;&#45;8214936383150764820 -->
<g id="edge13" class="edge"><title>5852198005184962523&#45;&gt;&#45;8214936383150764820</title>
<path fill="none" stroke="white" d="M714.43,-985.201C735.743,-1002.31 770.074,-1027.28 804,-1041 850.127,-1059.65 907.835,-1067.14 942.76,-1070.11"/>
<polygon fill="white" stroke="white" points="942.589,-1073.61 952.83,-1070.9 943.131,-1066.63 942.589,-1073.61"/>
</g>
<!-- 3736900172813204477 -->
<g id="node37" class="node"><title>3736900172813204477</title>
<ellipse fill="none" stroke="white" cx="975" cy="-862" rx="170.07" ry="170.07"/>
<text text-anchor="middle" x="975" y="-858.3" font-family="Times,serif" font-size="14.00" fill="#ffffff">call_pandas_rolling_method_with_neighbors</text>
</g>
<!-- 5852198005184962523&#45;&gt;3736900172813204477 -->
<g id="edge32" class="edge"><title>5852198005184962523&#45;&gt;3736900172813204477</title>
<path fill="none" stroke="white" d="M741.306,-948.95C759.869,-942.014 782.276,-933.641 805.76,-924.866"/>
<polygon fill="white" stroke="white" points="807.02,-928.131 815.162,-921.352 804.569,-921.574 807.02,-928.131"/>
</g>
<!-- &#45;7247745924646061608 -->
<g id="node18" class="node"><title>&#45;7247745924646061608</title>
<polygon fill="none" stroke="white" points="4102,-286 4004,-286 4004,-250 4102,-250 4102,-286"/>
<text text-anchor="middle" x="4053" y="-264.3" font-family="Times,serif" font-size="14.00" fill="#ffffff">(&#39;rolling&#45;#1&#39;, 5)</text>
</g>
<!-- &#45;2994663799655156498 -->
<g id="node19" class="node"><title>&#45;2994663799655156498</title>
<ellipse fill="none" stroke="white" cx="3797" cy="-268" rx="170.07" ry="170.07"/>
<text text-anchor="middle" x="3797" y="-264.3" font-family="Times,serif" font-size="14.00" fill="#ffffff">call_pandas_rolling_method_with_neighbors</text>
</g>
<!-- &#45;2994663799655156498&#45;&gt;&#45;7247745924646061608 -->
<g id="edge14" class="edge"><title>&#45;2994663799655156498&#45;&gt;&#45;7247745924646061608</title>
<path fill="none" stroke="white" d="M3967.42,-268C3976.51,-268 3985.27,-268 3993.48,-268"/>
<polygon fill="white" stroke="white" points="3993.58,-271.5 4003.58,-268 3993.58,-264.5 3993.58,-271.5"/>
</g>
<!-- &#45;8871671627945850590 -->
<g id="node20" class="node"><title>&#45;8871671627945850590</title>
<polygon fill="none" stroke="white" points="3589.5,-148 3446.5,-148 3446.5,-112 3589.5,-112 3589.5,-148"/>
<text text-anchor="middle" x="3518" y="-126.3" font-family="Times,serif" font-size="14.00" fill="#ffffff">(&#39;tail&#45;99&#45;getitem&#45;#2&#39;, 4)</text>
</g>
<!-- &#45;8871671627945850590&#45;&gt;&#45;2994663799655156498 -->
<g id="edge15" class="edge"><title>&#45;8871671627945850590&#45;&gt;&#45;2994663799655156498</title>
<path fill="none" stroke="white" d="M3555.21,-148.041C3576.57,-158.68 3605.26,-172.972 3635.37,-187.977"/>
<polygon fill="white" stroke="white" points="3633.82,-191.112 3644.33,-192.439 3636.94,-184.847 3633.82,-191.112"/>
</g>
<!-- 5852198005190375148 -->
<g id="node21" class="node"><title>5852198005190375148</title>
<polygon fill="none" stroke="white" points="3570,-424 3466,-424 3466,-388 3570,-388 3570,-424"/>
<text text-anchor="middle" x="3518" y="-402.3" font-family="Times,serif" font-size="14.00" fill="#ffffff">(&#39;getitem&#45;#2&#39;, 5)</text>
</g>
<!-- 5852198005190375148&#45;&gt;&#45;2994663799655156498 -->
<g id="edge16" class="edge"><title>5852198005190375148&#45;&gt;&#45;2994663799655156498</title>
<path fill="none" stroke="white" d="M3555.21,-387.959C3576.57,-377.32 3605.26,-363.028 3635.37,-348.023"/>
<polygon fill="white" stroke="white" points="3636.94,-351.153 3644.33,-343.561 3633.82,-344.888 3636.94,-351.153"/>
</g>
<!-- 5811610323228020505 -->
<g id="node22" class="node"><title>5811610323228020505</title>
<polygon fill="none" stroke="white" points="768,-654 616,-654 616,-618 768,-618 768,-654"/>
<text text-anchor="middle" x="692" y="-632.3" font-family="Times,serif" font-size="14.00" fill="#ffffff">(&#39;make&#45;timeseries&#45;#0&#39;, 1)</text>
</g>
<!-- &#45;4853443671418162482 -->
<g id="node40" class="node"><title>&#45;4853443671418162482</title>
<ellipse fill="none" stroke="white" cx="975" cy="-636" rx="37.8943" ry="37.8943"/>
<text text-anchor="middle" x="975" y="-632.3" font-family="Times,serif" font-size="14.00" fill="#ffffff">getitem</text>
</g>
<!-- 5811610323228020505&#45;&gt;&#45;4853443671418162482 -->
<g id="edge37" class="edge"><title>5811610323228020505&#45;&gt;&#45;4853443671418162482</title>
<path fill="none" stroke="white" d="M768.303,-636C818.765,-636 883.646,-636 926.914,-636"/>
<polygon fill="white" stroke="white" points="927.156,-639.5 937.156,-636 927.156,-632.5 927.156,-639.5"/>
</g>
<!-- 8610317620839803031 -->
<g id="node23" class="node"><title>8610317620839803031</title>
<ellipse fill="none" stroke="white" cx="491" cy="-636" rx="89.0842" ry="89.0842"/>
<text text-anchor="middle" x="491" y="-632.3" font-family="Times,serif" font-size="14.00" fill="#ffffff">make_timeseries_part</text>
</g>
<!-- 8610317620839803031&#45;&gt;5811610323228020505 -->
<g id="edge17" class="edge"><title>8610317620839803031&#45;&gt;5811610323228020505</title>
<path fill="none" stroke="white" d="M580.153,-636C588.653,-636 597.265,-636 605.736,-636"/>
<polygon fill="white" stroke="white" points="605.982,-639.5 615.982,-636 605.982,-632.5 605.982,-639.5"/>
</g>
<!-- &#45;5996556560368315607 -->
<g id="node24" class="node"><title>&#45;5996556560368315607</title>
<ellipse fill="none" stroke="white" cx="491" cy="-967" rx="37.8943" ry="37.8943"/>
<text text-anchor="middle" x="491" y="-963.3" font-family="Times,serif" font-size="14.00" fill="#ffffff">getitem</text>
</g>
<!-- &#45;5996556560368315607&#45;&gt;5852198005184962523 -->
<g id="edge18" class="edge"><title>&#45;5996556560368315607&#45;&gt;5852198005184962523</title>
<path fill="none" stroke="white" d="M528.964,-967C557.282,-967 596.965,-967 629.972,-967"/>
<polygon fill="white" stroke="white" points="629.981,-970.5 639.981,-967 629.981,-963.5 629.981,-970.5"/>
</g>
<!-- 5811610323229103030 -->
<g id="node25" class="node"><title>5811610323229103030</title>
<polygon fill="none" stroke="white" points="366,-985 214,-985 214,-949 366,-949 366,-985"/>
<text text-anchor="middle" x="290" y="-963.3" font-family="Times,serif" font-size="14.00" fill="#ffffff">(&#39;make&#45;timeseries&#45;#0&#39;, 0)</text>
</g>
<!-- 5811610323229103030&#45;&gt;&#45;5996556560368315607 -->
<g id="edge19" class="edge"><title>5811610323229103030&#45;&gt;&#45;5996556560368315607</title>
<path fill="none" stroke="white" d="M366.233,-967C392.004,-967 420.088,-967 442.98,-967"/>
<polygon fill="white" stroke="white" points="443.105,-970.5 453.105,-967 443.105,-963.5 443.105,-970.5"/>
</g>
<!-- &#45;6318078459413916654&#45;&gt;&#45;8871671627943685540 -->
<g id="edge20" class="edge"><title>&#45;6318078459413916654&#45;&gt;&#45;8871671627943685540</title>
<path fill="none" stroke="white" d="M2129.12,-443C2166.66,-443 2246.83,-443 2308.27,-443"/>
<polygon fill="white" stroke="white" points="2308.34,-446.5 2318.34,-443 2308.34,-439.5 2308.34,-446.5"/>
</g>
<!-- 5811610323225855455 -->
<g id="node27" class="node"><title>5811610323225855455</title>
<polygon fill="none" stroke="white" points="1900,-299 1748,-299 1748,-263 1900,-263 1900,-299"/>
<text text-anchor="middle" x="1824" y="-277.3" font-family="Times,serif" font-size="14.00" fill="#ffffff">(&#39;make&#45;timeseries&#45;#0&#39;, 3)</text>
</g>
<!-- &#45;9139286352227382584 -->
<g id="node38" class="node"><title>&#45;9139286352227382584</title>
<ellipse fill="none" stroke="white" cx="2107" cy="-281" rx="37.8943" ry="37.8943"/>
<text text-anchor="middle" x="2107" y="-277.3" font-family="Times,serif" font-size="14.00" fill="#ffffff">getitem</text>
</g>
<!-- 5811610323225855455&#45;&gt;&#45;9139286352227382584 -->
<g id="edge34" class="edge"><title>5811610323225855455&#45;&gt;&#45;9139286352227382584</title>
<path fill="none" stroke="white" d="M1900.3,-281C1950.77,-281 2015.65,-281 2058.91,-281"/>
<polygon fill="white" stroke="white" points="2059.16,-284.5 2069.16,-281 2059.16,-277.5 2059.16,-284.5"/>
</g>
<!-- 7683637619433731181 -->
<g id="node28" class="node"><title>7683637619433731181</title>
<ellipse fill="none" stroke="white" cx="1541" cy="-281" rx="89.0842" ry="89.0842"/>
<text text-anchor="middle" x="1541" y="-277.3" font-family="Times,serif" font-size="14.00" fill="#ffffff">make_timeseries_part</text>
</g>
<!-- 7683637619433731181&#45;&gt;5811610323225855455 -->
<g id="edge22" class="edge"><title>7683637619433731181&#45;&gt;5811610323225855455</title>
<path fill="none" stroke="white" d="M1630.14,-281C1664.42,-281 1703.55,-281 1737.56,-281"/>
<polygon fill="white" stroke="white" points="1737.94,-284.5 1747.94,-281 1737.94,-277.5 1737.94,-284.5"/>
</g>
<!-- 5405329074821351096&#45;&gt;&#45;8871671627945850590 -->
<g id="edge23" class="edge"><title>5405329074821351096&#45;&gt;&#45;8871671627945850590</title>
<path fill="none" stroke="white" d="M3261.05,-54.2348C3293.54,-58.0409 3357.65,-66.9704 3410,-83 3431.08,-89.4537 3453.54,-98.8947 3472.41,-107.625"/>
<polygon fill="white" stroke="white" points="3471.1,-110.879 3481.64,-111.971 3474.08,-104.546 3471.1,-110.879"/>
</g>
<!-- 5811610323223690405 -->
<g id="node30" class="node"><title>5811610323223690405</title>
<polygon fill="none" stroke="white" points="3032,-552 2880,-552 2880,-516 3032,-516 3032,-552"/>
<text text-anchor="middle" x="2956" y="-530.3" font-family="Times,serif" font-size="14.00" fill="#ffffff">(&#39;make&#45;timeseries&#45;#0&#39;, 5)</text>
</g>
<!-- &#45;27001298929493982 -->
<g id="node35" class="node"><title>&#45;27001298929493982</title>
<ellipse fill="none" stroke="white" cx="3239" cy="-497" rx="37.8943" ry="37.8943"/>
<text text-anchor="middle" x="3239" y="-493.3" font-family="Times,serif" font-size="14.00" fill="#ffffff">getitem</text>
</g>
<!-- 5811610323223690405&#45;&gt;&#45;27001298929493982 -->
<g id="edge30" class="edge"><title>5811610323223690405&#45;&gt;&#45;27001298929493982</title>
<path fill="none" stroke="white" d="M3032.3,-524.085C3083.02,-517.406 3148.31,-508.81 3191.57,-503.113"/>
<polygon fill="white" stroke="white" points="3192.08,-506.577 3201.54,-501.801 3191.17,-499.637 3192.08,-506.577"/>
</g>
<!-- 3801555428825760531 -->
<g id="node31" class="node"><title>3801555428825760531</title>
<ellipse fill="none" stroke="white" cx="2673" cy="-720" rx="89.0842" ry="89.0842"/>
<text text-anchor="middle" x="2673" y="-716.3" font-family="Times,serif" font-size="14.00" fill="#ffffff">make_timeseries_part</text>
</g>
<!-- 3801555428825760531&#45;&gt;5811610323223690405 -->
<g id="edge25" class="edge"><title>3801555428825760531&#45;&gt;5811610323223690405</title>
<path fill="none" stroke="white" d="M2752.06,-678.194C2781.46,-661.621 2814.83,-641.811 2844,-622 2873.04,-602.274 2904.21,-577.182 2926.11,-558.843"/>
<polygon fill="white" stroke="white" points="2928.63,-561.293 2934.02,-552.171 2924.12,-555.942 2928.63,-561.293"/>
</g>
<!-- &#45;7247745924640648983 -->
<g id="node32" class="node"><title>&#45;7247745924640648983</title>
<polygon fill="none" stroke="white" points="2439,-671 2341,-671 2341,-635 2439,-635 2439,-671"/>
<text text-anchor="middle" x="2390" y="-649.3" font-family="Times,serif" font-size="14.00" fill="#ffffff">(&#39;rolling&#45;#1&#39;, 2)</text>
</g>
<!-- &#45;7982197334847682073&#45;&gt;&#45;7247745924640648983 -->
<g id="edge26" class="edge"><title>&#45;7982197334847682073&#45;&gt;&#45;7247745924640648983</title>
<path fill="none" stroke="white" d="M2277.54,-653C2296.46,-653 2314.65,-653 2330.64,-653"/>
<polygon fill="white" stroke="white" points="2330.82,-656.5 2340.82,-653 2330.82,-649.5 2330.82,-656.5"/>
</g>
<!-- &#45;8871671627942603015 -->
<g id="node34" class="node"><title>&#45;8871671627942603015</title>
<polygon fill="none" stroke="white" points="1895.5,-671 1752.5,-671 1752.5,-635 1895.5,-635 1895.5,-671"/>
<text text-anchor="middle" x="1824" y="-649.3" font-family="Times,serif" font-size="14.00" fill="#ffffff">(&#39;tail&#45;99&#45;getitem&#45;#2&#39;, 1)</text>
</g>
<!-- &#45;8871671627942603015&#45;&gt;&#45;7982197334847682073 -->
<g id="edge27" class="edge"><title>&#45;8871671627942603015&#45;&gt;&#45;7982197334847682073</title>
<path fill="none" stroke="white" d="M1895.55,-653C1905.28,-653 1915.61,-653 1926.27,-653"/>
<polygon fill="white" stroke="white" points="1926.59,-656.5 1936.59,-653 1926.59,-649.5 1926.59,-656.5"/>
</g>
<!-- &#45;27001298929493982&#45;&gt;5852198005190375148 -->
<g id="edge29" class="edge"><title>&#45;27001298929493982&#45;&gt;5852198005190375148</title>
<path fill="none" stroke="white" d="M3275.08,-485.475C3320.61,-470.519 3400.77,-444.183 3456.28,-425.949"/>
<polygon fill="white" stroke="white" points="3457.59,-429.203 3465.99,-422.757 3455.4,-422.553 3457.59,-429.203"/>
</g>
<!-- &#45;7247745924642814033 -->
<g id="node36" class="node"><title>&#45;7247745924642814033</title>
<polygon fill="none" stroke="white" points="1307,-880 1209,-880 1209,-844 1307,-844 1307,-880"/>
<text text-anchor="middle" x="1258" y="-858.3" font-family="Times,serif" font-size="14.00" fill="#ffffff">(&#39;rolling&#45;#1&#39;, 0)</text>
</g>
<!-- 3736900172813204477&#45;&gt;&#45;7247745924642814033 -->
<g id="edge31" class="edge"><title>3736900172813204477&#45;&gt;&#45;7247745924642814033</title>
<path fill="none" stroke="white" d="M1145.54,-862C1164.46,-862 1182.65,-862 1198.64,-862"/>
<polygon fill="white" stroke="white" points="1198.82,-865.5 1208.82,-862 1198.82,-858.5 1198.82,-865.5"/>
</g>
<!-- &#45;9139286352227382584&#45;&gt;5852198005188210098 -->
<g id="edge33" class="edge"><title>&#45;9139286352227382584&#45;&gt;5852198005188210098</title>
<path fill="none" stroke="white" d="M2144.74,-281C2191.23,-281 2271.98,-281 2327.84,-281"/>
<polygon fill="white" stroke="white" points="2327.97,-284.5 2337.97,-281 2327.97,-277.5 2327.97,-284.5"/>
</g>
<!-- &#45;7136014534937525044 -->
<g id="node39" class="node"><title>&#45;7136014534937525044</title>
<ellipse fill="none" stroke="white" cx="89" cy="-967" rx="89.0842" ry="89.0842"/>
<text text-anchor="middle" x="89" y="-963.3" font-family="Times,serif" font-size="14.00" fill="#ffffff">make_timeseries_part</text>
</g>
<!-- &#45;7136014534937525044&#45;&gt;5811610323229103030 -->
<g id="edge35" class="edge"><title>&#45;7136014534937525044&#45;&gt;5811610323229103030</title>
<path fill="none" stroke="white" d="M178.153,-967C186.653,-967 195.265,-967 203.736,-967"/>
<polygon fill="white" stroke="white" points="203.982,-970.5 213.982,-967 203.982,-963.5 203.982,-970.5"/>
</g>
<!-- &#45;4853443671418162482&#45;&gt;5852198005186045048 -->
<g id="edge36" class="edge"><title>&#45;4853443671418162482&#45;&gt;5852198005186045048</title>
<path fill="none" stroke="white" d="M1012.74,-638.222C1059.23,-641.035 1139.98,-645.921 1195.84,-649.3"/>
<polygon fill="white" stroke="white" points="1195.78,-652.802 1205.97,-649.913 1196.2,-645.815 1195.78,-652.802"/>
</g>
<!-- 9095758572633055671&#45;&gt;&#45;8871671627942603015 -->
<g id="edge38" class="edge"><title>9095758572633055671&#45;&gt;&#45;8871671627942603015</title>
<path fill="none" stroke="white" d="M1563.12,-653C1600.66,-653 1680.83,-653 1742.27,-653"/>
<polygon fill="white" stroke="white" points="1742.34,-656.5 1752.34,-653 1742.34,-649.5 1742.34,-656.5"/>
</g>
<!-- &#45;7247745924647144133 -->
<g id="node42" class="node"><title>&#45;7247745924647144133</title>
<polygon fill="none" stroke="white" points="3567,-280 3469,-280 3469,-244 3567,-244 3567,-280"/>
<text text-anchor="middle" x="3518" y="-258.3" font-family="Times,serif" font-size="14.00" fill="#ffffff">(&#39;rolling&#45;#1&#39;, 4)</text>
</g>
<!-- 631196187120850377&#45;&gt;&#45;7247745924647144133 -->
<g id="edge40" class="edge"><title>631196187120850377&#45;&gt;&#45;7247745924647144133</title>
<path fill="none" stroke="white" d="M3409.51,-262C3427.03,-262 3443.85,-262 3458.78,-262"/>
<polygon fill="white" stroke="white" points="3458.79,-265.5 3468.79,-262 3458.79,-258.5 3458.79,-265.5"/>
</g>
<!-- &#45;8871671627944768065 -->
<g id="node44" class="node"><title>&#45;8871671627944768065</title>
<polygon fill="none" stroke="white" points="3027.5,-270 2884.5,-270 2884.5,-234 3027.5,-234 3027.5,-270"/>
<text text-anchor="middle" x="2956" y="-248.3" font-family="Times,serif" font-size="14.00" fill="#ffffff">(&#39;tail&#45;99&#45;getitem&#45;#2&#39;, 3)</text>
</g>
<!-- &#45;8871671627944768065&#45;&gt;631196187120850377 -->
<g id="edge41" class="edge"><title>&#45;8871671627944768065&#45;&gt;631196187120850377</title>
<path fill="none" stroke="white" d="M3027.55,-254.511C3037.28,-254.857 3047.61,-255.225 3058.27,-255.604"/>
<polygon fill="white" stroke="white" points="3058.47,-259.113 3068.59,-255.971 3058.72,-252.118 3058.47,-259.113"/>
</g>
<!-- 8669402217729851506 -->
<g id="node45" class="node"><title>8669402217729851506</title>
<ellipse fill="none" stroke="white" cx="975" cy="-475" rx="89.0842" ry="89.0842"/>
<text text-anchor="middle" x="975" y="-471.3" font-family="Times,serif" font-size="14.00" fill="#ffffff">make_timeseries_part</text>
</g>
<!-- 8669402217729851506&#45;&gt;5811610323226937980 -->
<g id="edge43" class="edge"><title>8669402217729851506&#45;&gt;5811610323226937980</title>
<path fill="none" stroke="white" d="M1064.14,-475C1098.42,-475 1137.55,-475 1171.56,-475"/>
<polygon fill="white" stroke="white" points="1171.94,-478.5 1181.94,-475 1171.94,-471.5 1171.94,-478.5"/>
</g>
<!-- 1775204408287329421&#45;&gt;&#45;8871671627944768065 -->
<g id="edge44" class="edge"><title>1775204408287329421&#45;&gt;&#45;8871671627944768065</title>
<path fill="none" stroke="white" d="M2695.12,-234.428C2732.66,-236.966 2812.83,-242.387 2874.27,-246.541"/>
<polygon fill="white" stroke="white" points="2874.13,-250.04 2884.34,-247.222 2874.6,-243.056 2874.13,-250.04"/>
</g>
</g>
</svg>
