<?xml version="1.0" encoding="UTF-8" standalone="no"?>
<!DOCTYPE svg PUBLIC "-//W3C//DTD SVG 1.1//EN"
 "http://www.w3.org/Graphics/SVG/1.1/DTD/svg11.dtd">
<!-- Generated by graphviz version 2.36.0 (20140111.2315)
 -->
<!-- Title: %3 Pages: 1 -->
<svg width="4110pt" height="1288pt"
 viewBox="0.00 0.00 4110.00 1288.00" xmlns="http://www.w3.org/2000/svg" xmlns:xlink="http://www.w3.org/1999/xlink">
<g id="graph0" class="graph" transform="scale(1 1) rotate(0) translate(4 1284)">
<title>%3</title>
<polygon fill="none" stroke="none" points="-4,4 -4,-1284 4106,-1284 4106,4 -4,4"/>
<!-- 7699002527471584899 -->
<g id="node1" class="node"><title>7699002527471584899</title>
<polygon fill="none" stroke="white" stroke-width="3" points="744,-145 640,-145 640,-109 744,-109 744,-145"/>
<text text-anchor="middle" x="692" y="-123.3" font-family="Times,serif" font-size="14.00" fill="#ffffff">(&#39;getitem&#45;#0&#39;, 0)</text>
</g>
<!-- 1101392822392496466 -->
<g id="node30" class="node"><title>1101392822392496466</title>
<ellipse fill="none" stroke="white" stroke-width="3" cx="975" cy="-232" rx="170.07" ry="170.07"/>
<text text-anchor="middle" x="975" y="-228.3" font-family="Times,serif" font-size="14.00" fill="#ffffff">call_pandas_rolling_method_with_neighbors</text>
</g>
<!-- 7699002527471584899&#45;&gt;1101392822392496466 -->
<g id="edge25" class="edge"><title>7699002527471584899&#45;&gt;1101392822392496466</title>
<path fill="none" stroke="white" stroke-width="3" d="M741.306,-145.05C759.869,-151.986 782.276,-160.359 805.76,-169.134"/>
<polygon fill="white" stroke="white" stroke-width="3" points="804.569,-172.426 815.162,-172.648 807.02,-165.869 804.569,-172.426"/>
</g>
<!-- &#45;6805332067776320056 -->
<g id="node32" class="node"><title>&#45;6805332067776320056</title>
<ellipse fill="none" stroke="white" stroke-width="3" cx="975" cy="-22" rx="22.1965" ry="22.1965"/>
<text text-anchor="middle" x="975" y="-18.3" font-family="Times,serif" font-size="14.00" fill="#ffffff">tail</text>
</g>
<!-- 7699002527471584899&#45;&gt;&#45;6805332067776320056 -->
<g id="edge27" class="edge"><title>7699002527471584899&#45;&gt;&#45;6805332067776320056</title>
<path fill="none" stroke="white" stroke-width="3" d="M714.43,-108.799C735.743,-91.6891 770.074,-66.7156 804,-53 850.127,-34.3519 907.835,-26.8552 942.76,-23.8878"/>
<polygon fill="white" stroke="white" stroke-width="3" points="943.131,-27.3696 952.83,-23.1049 942.589,-20.3907 943.131,-27.3696"/>
</g>
<!-- 2047346473378312565 -->
<g id="node2" class="node"><title>2047346473378312565</title>
<ellipse fill="none" stroke="white" stroke-width="3" cx="491" cy="-127" rx="37.8943" ry="37.8943"/>
<text text-anchor="middle" x="491" y="-123.3" font-family="Times,serif" font-size="14.00" fill="#ffffff">getitem</text>
</g>
<!-- 2047346473378312565&#45;&gt;7699002527471584899 -->
<g id="edge1" class="edge"><title>2047346473378312565&#45;&gt;7699002527471584899</title>
<path fill="none" stroke="white" stroke-width="3" d="M528.964,-127C557.282,-127 596.965,-127 629.972,-127"/>
<polygon fill="white" stroke="white" stroke-width="3" points="629.981,-130.5 639.981,-127 629.981,-123.5 629.981,-130.5"/>
</g>
<!-- 157539198650948593 -->
<g id="node3" class="node"><title>157539198650948593</title>
<polygon fill="none" stroke="white" stroke-width="3" points="366,-145 214,-145 214,-109 366,-109 366,-145"/>
<text text-anchor="middle" x="290" y="-123.3" font-family="Times,serif" font-size="14.00" fill="#ffffff">(&#39;make&#45;timeseries&#45;#1&#39;, 0)</text>
</g>
<!-- 157539198650948593&#45;&gt;2047346473378312565 -->
<g id="edge2" class="edge"><title>157539198650948593&#45;&gt;2047346473378312565</title>
<path fill="none" stroke="white" stroke-width="3" d="M366.233,-127C392.004,-127 420.088,-127 442.98,-127"/>
<polygon fill="white" stroke="white" stroke-width="3" points="443.105,-130.5 453.105,-127 443.105,-123.5 443.105,-130.5"/>
</g>
<!-- 4001630895902606917 -->
<g id="node4" class="node"><title>4001630895902606917</title>
<polygon fill="none" stroke="white" stroke-width="3" points="3005,-669 2907,-669 2907,-633 3005,-633 3005,-669"/>
<text text-anchor="middle" x="2956" y="-647.3" font-family="Times,serif" font-size="14.00" fill="#ffffff">(&#39;rolling&#45;#2&#39;, 3)</text>
</g>
<!-- 300765758560334191 -->
<g id="node5" class="node"><title>300765758560334191</title>
<ellipse fill="none" stroke="white" stroke-width="3" cx="2673" cy="-651" rx="170.07" ry="170.07"/>
<text text-anchor="middle" x="2673" y="-647.3" font-family="Times,serif" font-size="14.00" fill="#ffffff">call_pandas_rolling_method_with_neighbors</text>
</g>
<!-- 300765758560334191&#45;&gt;4001630895902606917 -->
<g id="edge3" class="edge"><title>300765758560334191&#45;&gt;4001630895902606917</title>
<path fill="none" stroke="white" stroke-width="3" d="M2843.54,-651C2862.46,-651 2880.65,-651 2896.64,-651"/>
<polygon fill="white" stroke="white" stroke-width="3" points="2896.82,-654.5 2906.82,-651 2896.82,-647.5 2896.82,-654.5"/>
</g>
<!-- 7699002527474832474 -->
<g id="node6" class="node"><title>7699002527474832474</title>
<polygon fill="none" stroke="white" stroke-width="3" points="2442,-818 2338,-818 2338,-782 2442,-782 2442,-818"/>
<text text-anchor="middle" x="2390" y="-796.3" font-family="Times,serif" font-size="14.00" fill="#ffffff">(&#39;getitem&#45;#0&#39;, 3)</text>
</g>
<!-- 7699002527474832474&#45;&gt;300765758560334191 -->
<g id="edge4" class="edge"><title>7699002527474832474&#45;&gt;300765758560334191</title>
<path fill="none" stroke="white" stroke-width="3" d="M2425.18,-781.879C2448.07,-769.74 2480.03,-752.793 2513.38,-735.111"/>
<polygon fill="white" stroke="white" stroke-width="3" points="2515.15,-738.133 2522.34,-730.356 2511.87,-731.948 2515.15,-738.133"/>
</g>
<!-- &#45;2930121410360293631 -->
<g id="node18" class="node"><title>&#45;2930121410360293631</title>
<ellipse fill="none" stroke="white" stroke-width="3" cx="2673" cy="-861" rx="22.1965" ry="22.1965"/>
<text text-anchor="middle" x="2673" y="-857.3" font-family="Times,serif" font-size="14.00" fill="#ffffff">tail</text>
</g>
<!-- 7699002527474832474&#45;&gt;&#45;2930121410360293631 -->
<g id="edge12" class="edge"><title>7699002527474832474&#45;&gt;&#45;2930121410360293631</title>
<path fill="none" stroke="white" stroke-width="3" d="M2442.17,-814.79C2460.91,-819.951 2482.33,-825.557 2502,-830 2550.06,-840.856 2606.42,-850.541 2640.65,-856.09"/>
<polygon fill="white" stroke="white" stroke-width="3" points="2640.52,-859.614 2650.95,-857.743 2641.63,-852.702 2640.52,-859.614"/>
</g>
<!-- &#45;5638569459743580300 -->
<g id="node7" class="node"><title>&#45;5638569459743580300</title>
<polygon fill="none" stroke="white" stroke-width="3" points="2461.5,-669 2318.5,-669 2318.5,-633 2461.5,-633 2461.5,-669"/>
<text text-anchor="middle" x="2390" y="-647.3" font-family="Times,serif" font-size="14.00" fill="#ffffff">(&#39;tail&#45;99&#45;getitem&#45;#0&#39;, 2)</text>
</g>
<!-- &#45;5638569459743580300&#45;&gt;300765758560334191 -->
<g id="edge5" class="edge"><title>&#45;5638569459743580300&#45;&gt;300765758560334191</title>
<path fill="none" stroke="white" stroke-width="3" d="M2461.55,-651C2471.28,-651 2481.61,-651 2492.27,-651"/>
<polygon fill="white" stroke="white" stroke-width="3" points="2492.59,-654.5 2502.59,-651 2492.59,-647.5 2492.59,-654.5"/>
</g>
<!-- 157539198648783543 -->
<g id="node8" class="node"><title>157539198648783543</title>
<polygon fill="none" stroke="white" stroke-width="3" points="1334,-653 1182,-653 1182,-617 1334,-617 1334,-653"/>
<text text-anchor="middle" x="1258" y="-631.3" font-family="Times,serif" font-size="14.00" fill="#ffffff">(&#39;make&#45;timeseries&#45;#1&#39;, 2)</text>
</g>
<!-- &#45;8523336277744392185 -->
<g id="node44" class="node"><title>&#45;8523336277744392185</title>
<ellipse fill="none" stroke="white" stroke-width="3" cx="1541" cy="-635" rx="37.8943" ry="37.8943"/>
<text text-anchor="middle" x="1541" y="-631.3" font-family="Times,serif" font-size="14.00" fill="#ffffff">getitem</text>
</g>
<!-- 157539198648783543&#45;&gt;&#45;8523336277744392185 -->
<g id="edge42" class="edge"><title>157539198648783543&#45;&gt;&#45;8523336277744392185</title>
<path fill="none" stroke="white" stroke-width="3" d="M1334.3,-635C1384.77,-635 1449.65,-635 1492.91,-635"/>
<polygon fill="white" stroke="white" stroke-width="3" points="1493.16,-638.5 1503.16,-635 1493.16,-631.5 1493.16,-638.5"/>
</g>
<!-- &#45;2562228780488432607 -->
<g id="node9" class="node"><title>&#45;2562228780488432607</title>
<ellipse fill="none" stroke="white" stroke-width="3" cx="975" cy="-635" rx="89.0842" ry="89.0842"/>
<text text-anchor="middle" x="975" y="-631.3" font-family="Times,serif" font-size="14.00" fill="#ffffff">make_timeseries_part</text>
</g>
<!-- &#45;2562228780488432607&#45;&gt;157539198648783543 -->
<g id="edge6" class="edge"><title>&#45;2562228780488432607&#45;&gt;157539198648783543</title>
<path fill="none" stroke="white" stroke-width="3" d="M1064.14,-635C1098.42,-635 1137.55,-635 1171.56,-635"/>
<polygon fill="white" stroke="white" stroke-width="3" points="1171.94,-638.5 1181.94,-635 1171.94,-631.5 1171.94,-638.5"/>
</g>
<!-- 157539198652031118 -->
<g id="node10" class="node"><title>157539198652031118</title>
<polygon fill="none" stroke="white" stroke-width="3" points="768,-476 616,-476 616,-440 768,-440 768,-476"/>
<text text-anchor="middle" x="692" y="-454.3" font-family="Times,serif" font-size="14.00" fill="#ffffff">(&#39;make&#45;timeseries&#45;#1&#39;, 1)</text>
</g>
<!-- &#45;9167996864988914710 -->
<g id="node25" class="node"><title>&#45;9167996864988914710</title>
<ellipse fill="none" stroke="white" stroke-width="3" cx="975" cy="-458" rx="37.8943" ry="37.8943"/>
<text text-anchor="middle" x="975" y="-454.3" font-family="Times,serif" font-size="14.00" fill="#ffffff">getitem</text>
</g>
<!-- 157539198652031118&#45;&gt;&#45;9167996864988914710 -->
<g id="edge20" class="edge"><title>157539198652031118&#45;&gt;&#45;9167996864988914710</title>
<path fill="none" stroke="white" stroke-width="3" d="M768.303,-458C818.765,-458 883.646,-458 926.914,-458"/>
<polygon fill="white" stroke="white" stroke-width="3" points="927.156,-461.5 937.156,-458 927.156,-454.5 927.156,-461.5"/>
</g>
<!-- &#45;8676523963748187416 -->
<g id="node11" class="node"><title>&#45;8676523963748187416</title>
<ellipse fill="none" stroke="white" stroke-width="3" cx="491" cy="-458" rx="89.0842" ry="89.0842"/>
<text text-anchor="middle" x="491" y="-454.3" font-family="Times,serif" font-size="14.00" fill="#ffffff">make_timeseries_part</text>
</g>
<!-- &#45;8676523963748187416&#45;&gt;157539198652031118 -->
<g id="edge7" class="edge"><title>&#45;8676523963748187416&#45;&gt;157539198652031118</title>
<path fill="none" stroke="white" stroke-width="3" d="M580.153,-458C588.653,-458 597.265,-458 605.736,-458"/>
<polygon fill="white" stroke="white" stroke-width="3" points="605.982,-461.5 615.982,-458 605.982,-454.5 605.982,-461.5"/>
</g>
<!-- &#45;5638569459742497775 -->
<g id="node12" class="node"><title>&#45;5638569459742497775</title>
<polygon fill="none" stroke="white" stroke-width="3" points="1895.5,-459 1752.5,-459 1752.5,-423 1895.5,-423 1895.5,-459"/>
<text text-anchor="middle" x="1824" y="-437.3" font-family="Times,serif" font-size="14.00" fill="#ffffff">(&#39;tail&#45;99&#45;getitem&#45;#0&#39;, 1)</text>
</g>
<!-- &#45;946320867949331484 -->
<g id="node27" class="node"><title>&#45;946320867949331484</title>
<ellipse fill="none" stroke="white" stroke-width="3" cx="2107" cy="-441" rx="170.07" ry="170.07"/>
<text text-anchor="middle" x="2107" y="-437.3" font-family="Times,serif" font-size="14.00" fill="#ffffff">call_pandas_rolling_method_with_neighbors</text>
</g>
<!-- &#45;5638569459742497775&#45;&gt;&#45;946320867949331484 -->
<g id="edge22" class="edge"><title>&#45;5638569459742497775&#45;&gt;&#45;946320867949331484</title>
<path fill="none" stroke="white" stroke-width="3" d="M1895.55,-441C1905.28,-441 1915.61,-441 1926.27,-441"/>
<polygon fill="white" stroke="white" stroke-width="3" points="1926.59,-444.5 1936.59,-441 1926.59,-437.5 1926.59,-444.5"/>
</g>
<!-- &#45;5111958037121146781 -->
<g id="node13" class="node"><title>&#45;5111958037121146781</title>
<ellipse fill="none" stroke="white" stroke-width="3" cx="1541" cy="-441" rx="22.1965" ry="22.1965"/>
<text text-anchor="middle" x="1541" y="-437.3" font-family="Times,serif" font-size="14.00" fill="#ffffff">tail</text>
</g>
<!-- &#45;5111958037121146781&#45;&gt;&#45;5638569459742497775 -->
<g id="edge8" class="edge"><title>&#45;5111958037121146781&#45;&gt;&#45;5638569459742497775</title>
<path fill="none" stroke="white" stroke-width="3" d="M1563.12,-441C1600.66,-441 1680.83,-441 1742.27,-441"/>
<polygon fill="white" stroke="white" stroke-width="3" points="1742.34,-444.5 1752.34,-441 1742.34,-437.5 1742.34,-444.5"/>
</g>
<!-- 7699002527472667424 -->
<g id="node14" class="node"><title>7699002527472667424</title>
<polygon fill="none" stroke="white" stroke-width="3" points="1310,-459 1206,-459 1206,-423 1310,-423 1310,-459"/>
<text text-anchor="middle" x="1258" y="-437.3" font-family="Times,serif" font-size="14.00" fill="#ffffff">(&#39;getitem&#45;#0&#39;, 1)</text>
</g>
<!-- 7699002527472667424&#45;&gt;&#45;5111958037121146781 -->
<g id="edge9" class="edge"><title>7699002527472667424&#45;&gt;&#45;5111958037121146781</title>
<path fill="none" stroke="white" stroke-width="3" d="M1310.21,-441C1368.05,-441 1460.36,-441 1508.49,-441"/>
<polygon fill="white" stroke="white" stroke-width="3" points="1508.61,-444.5 1518.61,-441 1508.61,-437.5 1508.61,-444.5"/>
</g>
<!-- 5119763404254614141 -->
<g id="node39" class="node"><title>5119763404254614141</title>
<ellipse fill="none" stroke="white" stroke-width="3" cx="1541" cy="-174" rx="170.07" ry="170.07"/>
<text text-anchor="middle" x="1541" y="-170.3" font-family="Times,serif" font-size="14.00" fill="#ffffff">call_pandas_rolling_method_with_neighbors</text>
</g>
<!-- 7699002527472667424&#45;&gt;5119763404254614141 -->
<g id="edge35" class="edge"><title>7699002527472667424&#45;&gt;5119763404254614141</title>
<path fill="none" stroke="white" stroke-width="3" d="M1278.31,-422.648C1305.79,-396.539 1358.51,-346.452 1409.46,-298.034"/>
<polygon fill="white" stroke="white" stroke-width="3" points="1412.13,-300.331 1416.96,-290.905 1407.3,-295.256 1412.13,-300.331"/>
</g>
<!-- 157539198649866068 -->
<g id="node15" class="node"><title>157539198649866068</title>
<polygon fill="none" stroke="white" stroke-width="3" points="1900,-818 1748,-818 1748,-782 1900,-782 1900,-818"/>
<text text-anchor="middle" x="1824" y="-796.3" font-family="Times,serif" font-size="14.00" fill="#ffffff">(&#39;make&#45;timeseries&#45;#1&#39;, 3)</text>
</g>
<!-- 8667543537663105756 -->
<g id="node24" class="node"><title>8667543537663105756</title>
<ellipse fill="none" stroke="white" stroke-width="3" cx="2107" cy="-800" rx="37.8943" ry="37.8943"/>
<text text-anchor="middle" x="2107" y="-796.3" font-family="Times,serif" font-size="14.00" fill="#ffffff">getitem</text>
</g>
<!-- 157539198649866068&#45;&gt;8667543537663105756 -->
<g id="edge18" class="edge"><title>157539198649866068&#45;&gt;8667543537663105756</title>
<path fill="none" stroke="white" stroke-width="3" d="M1900.3,-800C1950.77,-800 2015.65,-800 2058.91,-800"/>
<polygon fill="white" stroke="white" stroke-width="3" points="2059.16,-803.5 2069.16,-800 2059.16,-796.5 2059.16,-803.5"/>
</g>
<!-- &#45;3674830175217007882 -->
<g id="node16" class="node"><title>&#45;3674830175217007882</title>
<ellipse fill="none" stroke="white" stroke-width="3" cx="1541" cy="-800" rx="89.0842" ry="89.0842"/>
<text text-anchor="middle" x="1541" y="-796.3" font-family="Times,serif" font-size="14.00" fill="#ffffff">make_timeseries_part</text>
</g>
<!-- &#45;3674830175217007882&#45;&gt;157539198649866068 -->
<g id="edge10" class="edge"><title>&#45;3674830175217007882&#45;&gt;157539198649866068</title>
<path fill="none" stroke="white" stroke-width="3" d="M1630.14,-800C1664.42,-800 1703.55,-800 1737.56,-800"/>
<polygon fill="white" stroke="white" stroke-width="3" points="1737.94,-803.5 1747.94,-800 1737.94,-796.5 1737.94,-803.5"/>
</g>
<!-- &#45;5638569459744662825 -->
<g id="node17" class="node"><title>&#45;5638569459744662825</title>
<polygon fill="none" stroke="white" stroke-width="3" points="3027.5,-879 2884.5,-879 2884.5,-843 3027.5,-843 3027.5,-879"/>
<text text-anchor="middle" x="2956" y="-857.3" font-family="Times,serif" font-size="14.00" fill="#ffffff">(&#39;tail&#45;99&#45;getitem&#45;#0&#39;, 3)</text>
</g>
<!-- &#45;3593686197128474434 -->
<g id="node22" class="node"><title>&#45;3593686197128474434</title>
<ellipse fill="none" stroke="white" stroke-width="3" cx="3239" cy="-861" rx="170.07" ry="170.07"/>
<text text-anchor="middle" x="3239" y="-857.3" font-family="Times,serif" font-size="14.00" fill="#ffffff">call_pandas_rolling_method_with_neighbors</text>
</g>
<!-- &#45;5638569459744662825&#45;&gt;&#45;3593686197128474434 -->
<g id="edge15" class="edge"><title>&#45;5638569459744662825&#45;&gt;&#45;3593686197128474434</title>
<path fill="none" stroke="white" stroke-width="3" d="M3027.55,-861C3037.28,-861 3047.61,-861 3058.27,-861"/>
<polygon fill="white" stroke="white" stroke-width="3" points="3058.59,-864.5 3068.59,-861 3058.59,-857.5 3058.59,-864.5"/>
</g>
<!-- &#45;2930121410360293631&#45;&gt;&#45;5638569459744662825 -->
<g id="edge11" class="edge"><title>&#45;2930121410360293631&#45;&gt;&#45;5638569459744662825</title>
<path fill="none" stroke="white" stroke-width="3" d="M2695.12,-861C2732.66,-861 2812.83,-861 2874.27,-861"/>
<polygon fill="white" stroke="white" stroke-width="3" points="2874.34,-864.5 2884.34,-861 2874.34,-857.5 2874.34,-864.5"/>
</g>
<!-- 157539198647701018 -->
<g id="node19" class="node"><title>157539198647701018</title>
<polygon fill="none" stroke="white" stroke-width="3" points="3032,-1167 2880,-1167 2880,-1131 3032,-1131 3032,-1167"/>
<text text-anchor="middle" x="2956" y="-1145.3" font-family="Times,serif" font-size="14.00" fill="#ffffff">(&#39;make&#45;timeseries&#45;#1&#39;, 5)</text>
</g>
<!-- 5002720390704548790 -->
<g id="node41" class="node"><title>5002720390704548790</title>
<ellipse fill="none" stroke="white" stroke-width="3" cx="3239" cy="-1149" rx="37.8943" ry="37.8943"/>
<text text-anchor="middle" x="3239" y="-1145.3" font-family="Times,serif" font-size="14.00" fill="#ffffff">getitem</text>
</g>
<!-- 157539198647701018&#45;&gt;5002720390704548790 -->
<g id="edge38" class="edge"><title>157539198647701018&#45;&gt;5002720390704548790</title>
<path fill="none" stroke="white" stroke-width="3" d="M3032.3,-1149C3082.77,-1149 3147.65,-1149 3190.91,-1149"/>
<polygon fill="white" stroke="white" stroke-width="3" points="3191.16,-1152.5 3201.16,-1149 3191.16,-1145.5 3191.16,-1152.5"/>
</g>
<!-- 7003387833532924700 -->
<g id="node20" class="node"><title>7003387833532924700</title>
<ellipse fill="none" stroke="white" stroke-width="3" cx="2673" cy="-1149" rx="89.0842" ry="89.0842"/>
<text text-anchor="middle" x="2673" y="-1145.3" font-family="Times,serif" font-size="14.00" fill="#ffffff">make_timeseries_part</text>
</g>
<!-- 7003387833532924700&#45;&gt;157539198647701018 -->
<g id="edge13" class="edge"><title>7003387833532924700&#45;&gt;157539198647701018</title>
<path fill="none" stroke="white" stroke-width="3" d="M2762.14,-1149C2796.42,-1149 2835.55,-1149 2869.56,-1149"/>
<polygon fill="white" stroke="white" stroke-width="3" points="2869.94,-1152.5 2879.94,-1149 2869.94,-1145.5 2869.94,-1152.5"/>
</g>
<!-- 4001630895905854492 -->
<g id="node21" class="node"><title>4001630895905854492</title>
<polygon fill="none" stroke="white" stroke-width="3" points="3567,-879 3469,-879 3469,-843 3567,-843 3567,-879"/>
<text text-anchor="middle" x="3518" y="-857.3" font-family="Times,serif" font-size="14.00" fill="#ffffff">(&#39;rolling&#45;#2&#39;, 4)</text>
</g>
<!-- &#45;3593686197128474434&#45;&gt;4001630895905854492 -->
<g id="edge14" class="edge"><title>&#45;3593686197128474434&#45;&gt;4001630895905854492</title>
<path fill="none" stroke="white" stroke-width="3" d="M3409.51,-861C3427.03,-861 3443.85,-861 3458.78,-861"/>
<polygon fill="white" stroke="white" stroke-width="3" points="3458.79,-864.5 3468.79,-861 3458.79,-857.5 3458.79,-864.5"/>
</g>
<!-- 7699002527475914999 -->
<g id="node23" class="node"><title>7699002527475914999</title>
<polygon fill="none" stroke="white" stroke-width="3" points="3008,-1002 2904,-1002 2904,-966 3008,-966 3008,-1002"/>
<text text-anchor="middle" x="2956" y="-980.3" font-family="Times,serif" font-size="14.00" fill="#ffffff">(&#39;getitem&#45;#0&#39;, 4)</text>
</g>
<!-- 7699002527475914999&#45;&gt;&#45;3593686197128474434 -->
<g id="edge16" class="edge"><title>7699002527475914999&#45;&gt;&#45;3593686197128474434</title>
<path fill="none" stroke="white" stroke-width="3" d="M2998.16,-965.983C3018.84,-956.931 3045.4,-945.305 3073.27,-933.105"/>
<polygon fill="white" stroke="white" stroke-width="3" points="3075.01,-936.164 3082.77,-928.948 3072.2,-929.752 3075.01,-936.164"/>
</g>
<!-- &#45;1994067619900273156 -->
<g id="node43" class="node"><title>&#45;1994067619900273156</title>
<ellipse fill="none" stroke="white" stroke-width="3" cx="3239" cy="-1071" rx="22.1965" ry="22.1965"/>
<text text-anchor="middle" x="3239" y="-1067.3" font-family="Times,serif" font-size="14.00" fill="#ffffff">tail</text>
</g>
<!-- 7699002527475914999&#45;&gt;&#45;1994067619900273156 -->
<g id="edge40" class="edge"><title>7699002527475914999&#45;&gt;&#45;1994067619900273156</title>
<path fill="none" stroke="white" stroke-width="3" d="M2987.07,-1002.15C3008.84,-1014.54 3039.35,-1030.39 3068,-1040 3115.04,-1055.79 3172.25,-1064.11 3206.86,-1068.03"/>
<polygon fill="white" stroke="white" stroke-width="3" points="3206.52,-1071.52 3216.84,-1069.11 3207.28,-1064.56 3206.52,-1071.52"/>
</g>
<!-- 8667543537663105756&#45;&gt;7699002527474832474 -->
<g id="edge17" class="edge"><title>8667543537663105756&#45;&gt;7699002527474832474</title>
<path fill="none" stroke="white" stroke-width="3" d="M2144.74,-800C2191.23,-800 2271.98,-800 2327.84,-800"/>
<polygon fill="white" stroke="white" stroke-width="3" points="2327.97,-803.5 2337.97,-800 2327.97,-796.5 2327.97,-803.5"/>
</g>
<!-- &#45;9167996864988914710&#45;&gt;7699002527472667424 -->
<g id="edge19" class="edge"><title>&#45;9167996864988914710&#45;&gt;7699002527472667424</title>
<path fill="none" stroke="white" stroke-width="3" d="M1012.74,-455.778C1059.23,-452.965 1139.98,-448.079 1195.84,-444.7"/>
<polygon fill="white" stroke="white" stroke-width="3" points="1196.2,-448.185 1205.97,-444.087 1195.78,-441.198 1196.2,-448.185"/>
</g>
<!-- 4001630895903689442 -->
<g id="node26" class="node"><title>4001630895903689442</title>
<polygon fill="none" stroke="white" stroke-width="3" points="2439,-459 2341,-459 2341,-423 2439,-423 2439,-459"/>
<text text-anchor="middle" x="2390" y="-437.3" font-family="Times,serif" font-size="14.00" fill="#ffffff">(&#39;rolling&#45;#2&#39;, 2)</text>
</g>
<!-- &#45;946320867949331484&#45;&gt;4001630895903689442 -->
<g id="edge21" class="edge"><title>&#45;946320867949331484&#45;&gt;4001630895903689442</title>
<path fill="none" stroke="white" stroke-width="3" d="M2277.54,-441C2296.46,-441 2314.65,-441 2330.64,-441"/>
<polygon fill="white" stroke="white" stroke-width="3" points="2330.82,-444.5 2340.82,-441 2330.82,-437.5 2330.82,-444.5"/>
</g>
<!-- 7699002527473749949 -->
<g id="node28" class="node"><title>7699002527473749949</title>
<polygon fill="none" stroke="white" stroke-width="3" points="1876,-653 1772,-653 1772,-617 1876,-617 1876,-653"/>
<text text-anchor="middle" x="1824" y="-631.3" font-family="Times,serif" font-size="14.00" fill="#ffffff">(&#39;getitem&#45;#0&#39;, 2)</text>
</g>
<!-- 7699002527473749949&#45;&gt;&#45;946320867949331484 -->
<g id="edge23" class="edge"><title>7699002527473749949&#45;&gt;&#45;946320867949331484</title>
<path fill="none" stroke="white" stroke-width="3" d="M1851.18,-616.923C1876.47,-599.463 1916.92,-571.539 1958.21,-543.034"/>
<polygon fill="white" stroke="white" stroke-width="3" points="1960.23,-545.89 1966.47,-537.328 1956.25,-540.13 1960.23,-545.89"/>
</g>
<!-- &#45;3875289585476964906 -->
<g id="node36" class="node"><title>&#45;3875289585476964906</title>
<ellipse fill="none" stroke="white" stroke-width="3" cx="2107" cy="-651" rx="22.1965" ry="22.1965"/>
<text text-anchor="middle" x="2107" y="-647.3" font-family="Times,serif" font-size="14.00" fill="#ffffff">tail</text>
</g>
<!-- 7699002527473749949&#45;&gt;&#45;3875289585476964906 -->
<g id="edge31" class="edge"><title>7699002527473749949&#45;&gt;&#45;3875289585476964906</title>
<path fill="none" stroke="white" stroke-width="3" d="M1876.21,-637.916C1934.05,-641.209 2026.36,-646.465 2074.49,-649.206"/>
<polygon fill="white" stroke="white" stroke-width="3" points="2074.43,-652.708 2084.61,-649.782 2074.83,-645.719 2074.43,-652.708"/>
</g>
<!-- 4001630895901524392 -->
<g id="node29" class="node"><title>4001630895901524392</title>
<polygon fill="none" stroke="white" stroke-width="3" points="1307,-250 1209,-250 1209,-214 1307,-214 1307,-250"/>
<text text-anchor="middle" x="1258" y="-228.3" font-family="Times,serif" font-size="14.00" fill="#ffffff">(&#39;rolling&#45;#2&#39;, 0)</text>
</g>
<!-- 1101392822392496466&#45;&gt;4001630895901524392 -->
<g id="edge24" class="edge"><title>1101392822392496466&#45;&gt;4001630895901524392</title>
<path fill="none" stroke="white" stroke-width="3" d="M1145.54,-232C1164.46,-232 1182.65,-232 1198.64,-232"/>
<polygon fill="white" stroke="white" stroke-width="3" points="1198.82,-235.5 1208.82,-232 1198.82,-228.5 1198.82,-235.5"/>
</g>
<!-- &#45;5638569459741415250 -->
<g id="node31" class="node"><title>&#45;5638569459741415250</title>
<polygon fill="none" stroke="white" stroke-width="3" points="1329.5,-118 1186.5,-118 1186.5,-82 1329.5,-82 1329.5,-118"/>
<text text-anchor="middle" x="1258" y="-96.3" font-family="Times,serif" font-size="14.00" fill="#ffffff">(&#39;tail&#45;99&#45;getitem&#45;#0&#39;, 0)</text>
</g>
<!-- &#45;5638569459741415250&#45;&gt;5119763404254614141 -->
<g id="edge36" class="edge"><title>&#45;5638569459741415250&#45;&gt;5119763404254614141</title>
<path fill="none" stroke="white" stroke-width="3" d="M1327.38,-118.008C1339.54,-121.209 1352.68,-124.671 1366.27,-128.249"/>
<polygon fill="white" stroke="white" stroke-width="3" points="1365.67,-131.71 1376.23,-130.873 1367.45,-124.941 1365.67,-131.71"/>
</g>
<!-- &#45;6805332067776320056&#45;&gt;&#45;5638569459741415250 -->
<g id="edge26" class="edge"><title>&#45;6805332067776320056&#45;&gt;&#45;5638569459741415250</title>
<path fill="none" stroke="white" stroke-width="3" d="M997.021,-24.3212C1029.48,-28.2417 1093.54,-37.3201 1146,-53 1167.8,-59.5153 1191.1,-68.9726 1210.7,-77.6984"/>
<polygon fill="white" stroke="white" stroke-width="3" points="1209.44,-80.9728 1220,-81.9071 1212.33,-74.5954 1209.44,-80.9728"/>
</g>
<!-- 157539198646618493 -->
<g id="node33" class="node"><title>157539198646618493</title>
<polygon fill="none" stroke="white" stroke-width="3" points="2466,-1002 2314,-1002 2314,-966 2466,-966 2466,-1002"/>
<text text-anchor="middle" x="2390" y="-980.3" font-family="Times,serif" font-size="14.00" fill="#ffffff">(&#39;make&#45;timeseries&#45;#1&#39;, 4)</text>
</g>
<!-- &#45;3573763645359637535 -->
<g id="node37" class="node"><title>&#45;3573763645359637535</title>
<ellipse fill="none" stroke="white" stroke-width="3" cx="2673" cy="-984" rx="37.8943" ry="37.8943"/>
<text text-anchor="middle" x="2673" y="-980.3" font-family="Times,serif" font-size="14.00" fill="#ffffff">getitem</text>
</g>
<!-- 157539198646618493&#45;&gt;&#45;3573763645359637535 -->
<g id="edge33" class="edge"><title>157539198646618493&#45;&gt;&#45;3573763645359637535</title>
<path fill="none" stroke="white" stroke-width="3" d="M2466.3,-984C2516.77,-984 2581.65,-984 2624.91,-984"/>
<polygon fill="white" stroke="white" stroke-width="3" points="2625.16,-987.5 2635.16,-984 2625.16,-980.5 2625.16,-987.5"/>
</g>
<!-- 6180936361771560775 -->
<g id="node34" class="node"><title>6180936361771560775</title>
<ellipse fill="none" stroke="white" stroke-width="3" cx="2107" cy="-984" rx="89.0842" ry="89.0842"/>
<text text-anchor="middle" x="2107" y="-980.3" font-family="Times,serif" font-size="14.00" fill="#ffffff">make_timeseries_part</text>
</g>
<!-- 6180936361771560775&#45;&gt;157539198646618493 -->
<g id="edge28" class="edge"><title>6180936361771560775&#45;&gt;157539198646618493</title>
<path fill="none" stroke="white" stroke-width="3" d="M2196.14,-984C2230.42,-984 2269.55,-984 2303.56,-984"/>
<polygon fill="white" stroke="white" stroke-width="3" points="2303.94,-987.5 2313.94,-984 2303.94,-980.5 2303.94,-987.5"/>
</g>
<!-- 1484914429668460675 -->
<g id="node35" class="node"><title>1484914429668460675</title>
<ellipse fill="none" stroke="white" stroke-width="3" cx="89" cy="-127" rx="89.0842" ry="89.0842"/>
<text text-anchor="middle" x="89" y="-123.3" font-family="Times,serif" font-size="14.00" fill="#ffffff">make_timeseries_part</text>
</g>
<!-- 1484914429668460675&#45;&gt;157539198650948593 -->
<g id="edge29" class="edge"><title>1484914429668460675&#45;&gt;157539198650948593</title>
<path fill="none" stroke="white" stroke-width="3" d="M178.153,-127C186.653,-127 195.265,-127 203.736,-127"/>
<polygon fill="white" stroke="white" stroke-width="3" points="203.982,-130.5 213.982,-127 203.982,-123.5 203.982,-130.5"/>
</g>
<!-- &#45;3875289585476964906&#45;&gt;&#45;5638569459743580300 -->
<g id="edge30" class="edge"><title>&#45;3875289585476964906&#45;&gt;&#45;5638569459743580300</title>
<path fill="none" stroke="white" stroke-width="3" d="M2129.12,-651C2166.66,-651 2246.83,-651 2308.27,-651"/>
<polygon fill="white" stroke="white" stroke-width="3" points="2308.34,-654.5 2318.34,-651 2308.34,-647.5 2308.34,-654.5"/>
</g>
<!-- &#45;3573763645359637535&#45;&gt;7699002527475914999 -->
<g id="edge32" class="edge"><title>&#45;3573763645359637535&#45;&gt;7699002527475914999</title>
<path fill="none" stroke="white" stroke-width="3" d="M2710.74,-984C2757.23,-984 2837.98,-984 2893.84,-984"/>
<polygon fill="white" stroke="white" stroke-width="3" points="2893.97,-987.5 2903.97,-984 2893.97,-980.5 2893.97,-987.5"/>
</g>
<!-- 4001630895900441867 -->
<g id="node38" class="node"><title>4001630895900441867</title>
<polygon fill="none" stroke="white" stroke-width="3" points="1873,-192 1775,-192 1775,-156 1873,-156 1873,-192"/>
<text text-anchor="middle" x="1824" y="-170.3" font-family="Times,serif" font-size="14.00" fill="#ffffff">(&#39;rolling&#45;#2&#39;, 1)</text>
</g>
<!-- 5119763404254614141&#45;&gt;4001630895900441867 -->
<g id="edge34" class="edge"><title>5119763404254614141&#45;&gt;4001630895900441867</title>
<path fill="none" stroke="white" stroke-width="3" d="M1711.54,-174C1730.46,-174 1748.65,-174 1764.64,-174"/>
<polygon fill="white" stroke="white" stroke-width="3" points="1764.82,-177.5 1774.82,-174 1764.82,-170.5 1764.82,-177.5"/>
</g>
<!-- 7699002527476997524 -->
<g id="node40" class="node"><title>7699002527476997524</title>
<polygon fill="none" stroke="white" stroke-width="3" points="3570,-1161 3466,-1161 3466,-1125 3570,-1125 3570,-1161"/>
<text text-anchor="middle" x="3518" y="-1139.3" font-family="Times,serif" font-size="14.00" fill="#ffffff">(&#39;getitem&#45;#0&#39;, 5)</text>
</g>
<!-- &#45;2635336633694219959 -->
<g id="node46" class="node"><title>&#45;2635336633694219959</title>
<ellipse fill="none" stroke="white" stroke-width="3" cx="3797" cy="-1110" rx="170.07" ry="170.07"/>
<text text-anchor="middle" x="3797" y="-1106.3" font-family="Times,serif" font-size="14.00" fill="#ffffff">call_pandas_rolling_method_with_neighbors</text>
</g>
<!-- 7699002527476997524&#45;&gt;&#45;2635336633694219959 -->
<g id="edge45" class="edge"><title>7699002527476997524&#45;&gt;&#45;2635336633694219959</title>
<path fill="none" stroke="white" stroke-width="3" d="M3570.13,-1136.91C3584.31,-1135.22 3600.55,-1133.28 3617.68,-1131.24"/>
<polygon fill="white" stroke="white" stroke-width="3" points="3618.35,-1134.69 3627.86,-1130.03 3617.52,-1127.74 3618.35,-1134.69"/>
</g>
<!-- 5002720390704548790&#45;&gt;7699002527476997524 -->
<g id="edge37" class="edge"><title>5002720390704548790&#45;&gt;7699002527476997524</title>
<path fill="none" stroke="white" stroke-width="3" d="M3276.78,-1148.2C3322.41,-1147.21 3400.85,-1145.52 3455.65,-1144.33"/>
<polygon fill="white" stroke="white" stroke-width="3" points="3456.01,-1147.82 3465.93,-1144.11 3455.86,-1140.82 3456.01,-1147.82"/>
</g>
<!-- &#45;5638569459745745350 -->
<g id="node42" class="node"><title>&#45;5638569459745745350</title>
<polygon fill="none" stroke="white" stroke-width="3" points="3589.5,-1095 3446.5,-1095 3446.5,-1059 3589.5,-1059 3589.5,-1095"/>
<text text-anchor="middle" x="3518" y="-1073.3" font-family="Times,serif" font-size="14.00" fill="#ffffff">(&#39;tail&#45;99&#45;getitem&#45;#0&#39;, 4)</text>
</g>
<!-- &#45;5638569459745745350&#45;&gt;&#45;2635336633694219959 -->
<g id="edge44" class="edge"><title>&#45;5638569459745745350&#45;&gt;&#45;2635336633694219959</title>
<path fill="none" stroke="white" stroke-width="3" d="M3589.62,-1085.41C3598.54,-1086.48 3607.96,-1087.6 3617.67,-1088.75"/>
<polygon fill="white" stroke="white" stroke-width="3" points="3617.53,-1092.26 3627.88,-1089.97 3618.36,-1085.31 3617.53,-1092.26"/>
</g>
<!-- &#45;1994067619900273156&#45;&gt;&#45;5638569459745745350 -->
<g id="edge39" class="edge"><title>&#45;1994067619900273156&#45;&gt;&#45;5638569459745745350</title>
<path fill="none" stroke="white" stroke-width="3" d="M3261.28,-1071.46C3298.22,-1072.26 3376.04,-1073.95 3436.19,-1075.25"/>
<polygon fill="white" stroke="white" stroke-width="3" points="3436.37,-1078.75 3446.44,-1075.47 3436.52,-1071.76 3436.37,-1078.75"/>
</g>
<!-- &#45;8523336277744392185&#45;&gt;7699002527473749949 -->
<g id="edge41" class="edge"><title>&#45;8523336277744392185&#45;&gt;7699002527473749949</title>
<path fill="none" stroke="white" stroke-width="3" d="M1578.74,-635C1625.23,-635 1705.98,-635 1761.84,-635"/>
<polygon fill="white" stroke="white" stroke-width="3" points="1761.97,-638.5 1771.97,-635 1761.97,-631.5 1761.97,-638.5"/>
</g>
<!-- 4001630895904771967 -->
<g id="node45" class="node"><title>4001630895904771967</title>
<polygon fill="none" stroke="white" stroke-width="3" points="4102,-1128 4004,-1128 4004,-1092 4102,-1092 4102,-1128"/>
<text text-anchor="middle" x="4053" y="-1106.3" font-family="Times,serif" font-size="14.00" fill="#ffffff">(&#39;rolling&#45;#2&#39;, 5)</text>
</g>
<!-- &#45;2635336633694219959&#45;&gt;4001630895904771967 -->
<g id="edge43" class="edge"><title>&#45;2635336633694219959&#45;&gt;4001630895904771967</title>
<path fill="none" stroke="white" stroke-width="3" d="M3967.42,-1110C3976.51,-1110 3985.27,-1110 3993.48,-1110"/>
<polygon fill="white" stroke="white" stroke-width="3" points="3993.58,-1113.5 4003.58,-1110 3993.58,-1106.5 3993.58,-1113.5"/>
</g>
</g>
</svg>
