<?xml version="1.0" encoding="UTF-8" standalone="no"?>
<!-- Created with Inkscape (http://www.inkscape.org/) -->

<svg
   xmlns:dc="http://purl.org/dc/elements/1.1/"
   xmlns:cc="http://creativecommons.org/ns#"
   xmlns:rdf="http://www.w3.org/1999/02/22-rdf-syntax-ns#"
   xmlns:svg="http://www.w3.org/2000/svg"
   xmlns="http://www.w3.org/2000/svg"
   xmlns:sodipodi="http://sodipodi.sourceforge.net/DTD/sodipodi-0.dtd"
   xmlns:inkscape="http://www.inkscape.org/namespaces/inkscape"
   id="svg3063"
   version="1.1"
   inkscape:version="0.48.3.1 r9886"
   width="305"
   height="517.5"
   xml:space="preserve"
   sodipodi:docname="sexpr.pdf"><metadata
     id="metadata3069"><rdf:RDF><cc:Work
         rdf:about=""><dc:format>image/svg+xml</dc:format><dc:type
           rdf:resource="http://purl.org/dc/dcmitype/StillImage" /><dc:title></dc:title></cc:Work></rdf:RDF></metadata><defs
     id="defs3067"><clipPath
       clipPathUnits="userSpaceOnUse"
       id="clipPath3077"><path
         d="m 36,230 207,0 0,-195 -207,0 0,195 z"
         id="path3079"
         inkscape:connector-curvature="0" /></clipPath></defs><sodipodi:namedview
     pagecolor="#ffffff"
     bordercolor="#666666"
     borderopacity="1"
     objecttolerance="10"
     gridtolerance="10"
     guidetolerance="10"
     inkscape:pageopacity="0"
     inkscape:pageshadow="2"
     inkscape:window-width="640"
     inkscape:window-height="480"
     id="namedview3065"
     showgrid="false"
     inkscape:zoom="0.50188632"
     inkscape:cx="120.24888"
     inkscape:cy="219.35622"
     inkscape:window-x="853"
     inkscape:window-y="98"
     inkscape:window-maximized="0"
     inkscape:current-layer="g3071" /><g
     id="g3071"
     inkscape:groupmode="layer"
     inkscape:label="sexpr"
     transform="matrix(1.25,0,0,-1.25,0,517.5)"><g
       id="g3073"
       transform="translate(-17.533851,63.759459)"><g
         id="g3075"
         clip-path="url(#clipPath3077)"><path
           d="m 36,35 0,195 207,0 0,-195 -207,0 z"
           style="fill:#ffffff;fill-opacity:1;fill-rule:nonzero;stroke:#ffffff;stroke-width:1;stroke-linecap:butt;stroke-linejoin:miter;stroke-miterlimit:10;stroke-opacity:1;stroke-dasharray:none"
           id="path3081"
           inkscape:connector-curvature="0" /><path
           d="m 94,133 c 0,-10.152 -12.09,-18.387 -27,-18.387 -14.91,0 -27,8.235 -27,18.387 0,10.152 12.09,18.387 27,18.387 14.91,0 27,-8.235 27,-18.387 z"
           style="fill:none;stroke:#000000;stroke-width:1;stroke-linecap:butt;stroke-linejoin:miter;stroke-miterlimit:10;stroke-opacity:1;stroke-dasharray:none"
           id="path3083"
           inkscape:connector-curvature="0" /><text
           transform="matrix(1,0,0,-1,62.5,129.39844)"
           id="text3085"><tspan
             style="font-size:14.00024414px;font-variant:normal;font-weight:normal;writing-mode:lr-tb;fill:#000000;fill-opacity:1;fill-rule:nonzero;stroke:none;font-family:DejaVu Sans;-inkscape-font-specification:DejaVuSans"
             x="0"
             y="0"
             id="tspan3087">x</tspan></text>
<path
           d="m 238,59 c 0,-10.152 -12.09,-18.387 -27,-18.387 -14.91,0 -27,8.235 -27,18.387 0,10.152 12.09,18.387 27,18.387 14.91,0 27,-8.235 27,-18.387 z"
           style="fill:none;stroke:#000000;stroke-width:1;stroke-linecap:butt;stroke-linejoin:miter;stroke-miterlimit:10;stroke-opacity:1;stroke-dasharray:none"
           id="path3089"
           inkscape:connector-curvature="0" /><text
           transform="matrix(1,0,0,-1,206,55.398438)"
           id="text3091"><tspan
             style="font-size:14.00024414px;font-variant:normal;font-weight:normal;writing-mode:lr-tb;fill:#000000;fill-opacity:1;fill-rule:nonzero;stroke:none;font-family:DejaVu Sans;-inkscape-font-specification:DejaVuSans"
             x="0"
             y="0"
             id="tspan3093">3</tspan></text>
<path
           d="m 166,133 c 0,-10.152 -12.09,-18.387 -27,-18.387 -14.91,0 -27,8.235 -27,18.387 0,10.152 12.09,18.387 27,18.387 14.91,0 27,-8.235 27,-18.387 z"
           style="fill:none;stroke:#000000;stroke-width:1;stroke-linecap:butt;stroke-linejoin:miter;stroke-miterlimit:10;stroke-opacity:1;stroke-dasharray:none"
           id="path3095"
           inkscape:connector-curvature="0" /><text
           transform="matrix(1,0,0,-1,134,129.39844)"
           id="text3097"><tspan
             style="font-size:14.00024414px;font-variant:normal;font-weight:normal;writing-mode:lr-tb;fill:#000000;fill-opacity:1;fill-rule:nonzero;stroke:none;font-family:DejaVu Sans;-inkscape-font-specification:DejaVuSans"
             x="0"
             y="0"
             id="tspan3099">2</tspan></text>
<path
           d="m 238,133 c 0,-10.152 -12.09,-18.387 -27,-18.387 -14.91,0 -27,8.235 -27,18.387 0,10.152 12.09,18.387 27,18.387 14.91,0 27,-8.235 27,-18.387 z"
           style="fill:none;stroke:#000000;stroke-width:1;stroke-linecap:butt;stroke-linejoin:miter;stroke-miterlimit:10;stroke-opacity:1;stroke-dasharray:none"
           id="path3101"
           inkscape:connector-curvature="0" /><text
           transform="matrix(1,0,0,-1,200.5,129.39844)"
           id="text3103"><tspan
             style="font-size:14.00024414px;font-variant:normal;font-weight:normal;writing-mode:lr-tb;fill:#000000;fill-opacity:1;fill-rule:nonzero;stroke:none;font-family:DejaVu Sans;-inkscape-font-specification:DejaVuSans"
             x="0 3.7380652 11.970208"
             y="0"
             sodipodi:role="line"
             id="tspan3105">log</tspan></text>
<path
           d="m 211,114.328 c 0,-8.062 0,-17.68 0,-26.617"
           style="fill:none;stroke:#000000;stroke-width:1;stroke-linecap:butt;stroke-linejoin:miter;stroke-miterlimit:10;stroke-opacity:1;stroke-dasharray:none"
           id="path3107"
           inkscape:connector-curvature="0" /><path
           d="m 214.5,87.668 -3.5,-10 -3.5,10 7,0 z"
           style="fill:#000000;fill-opacity:1;fill-rule:nonzero;stroke:#000000;stroke-width:1;stroke-linecap:butt;stroke-linejoin:miter;stroke-miterlimit:10;stroke-opacity:1;stroke-dasharray:none"
           id="path3109"
           inkscape:connector-curvature="0" /><path
           d="m 168.906,207 c 0,-10.152 -13.39,-18.387 -29.906,-18.387 -16.516,0 -29.906,8.235 -29.906,18.387 0,10.152 13.39,18.387 29.906,18.387 16.516,0 29.906,-8.235 29.906,-18.387 z"
           style="fill:none;stroke:#000000;stroke-width:1;stroke-linecap:butt;stroke-linejoin:miter;stroke-miterlimit:10;stroke-opacity:1;stroke-dasharray:none"
           id="path3111"
           inkscape:connector-curvature="0" /><text
           transform="matrix(1,0,0,-1,125.5,203.39844)"
           id="text3113"><tspan
             style="font-size:14.00024414px;font-variant:normal;font-weight:normal;writing-mode:lr-tb;fill:#000000;fill-opacity:1;fill-rule:nonzero;stroke:none;font-family:DejaVu Sans;-inkscape-font-specification:DejaVuSans"
             x="0 9.7441702 17.990314"
             y="0"
             sodipodi:role="line"
             id="tspan3115">Add</tspan></text>
<path
           d="M 123.379,190.941 C 113.43,180.719 100.391,167.316 89.355,155.977"
           style="fill:none;stroke:#000000;stroke-width:1;stroke-linecap:butt;stroke-linejoin:miter;stroke-miterlimit:10;stroke-opacity:1;stroke-dasharray:none"
           id="path3117"
           inkscape:connector-curvature="0" /><path
           d="m 91.582,153.246 -9.484,-4.726 4.464,9.605 5.02,-4.879 z"
           style="fill:#000000;fill-opacity:1;fill-rule:nonzero;stroke:#000000;stroke-width:1;stroke-linecap:butt;stroke-linejoin:miter;stroke-miterlimit:10;stroke-opacity:1;stroke-dasharray:none"
           id="path3119"
           inkscape:connector-curvature="0" /><path
           d="m 139,188.328 c 0,-8.062 0,-17.68 0,-26.617"
           style="fill:none;stroke:#000000;stroke-width:1;stroke-linecap:butt;stroke-linejoin:miter;stroke-miterlimit:10;stroke-opacity:1;stroke-dasharray:none"
           id="path3121"
           inkscape:connector-curvature="0" /><path
           d="m 142.5,161.668 -3.5,-10 -3.5,10 7,0 z"
           style="fill:#000000;fill-opacity:1;fill-rule:nonzero;stroke:#000000;stroke-width:1;stroke-linecap:butt;stroke-linejoin:miter;stroke-miterlimit:10;stroke-opacity:1;stroke-dasharray:none"
           id="path3123"
           inkscape:connector-curvature="0" /><path
           d="m 154.621,190.941 c 9.949,-10.222 22.988,-23.625 34.024,-34.964"
           style="fill:none;stroke:#000000;stroke-width:1;stroke-linecap:butt;stroke-linejoin:miter;stroke-miterlimit:10;stroke-opacity:1;stroke-dasharray:none"
           id="path3125"
           inkscape:connector-curvature="0" /><path
           d="m 191.438,158.125 4.464,-9.605 -9.484,4.726 5.02,4.879 z"
           style="fill:#000000;fill-opacity:1;fill-rule:nonzero;stroke:#000000;stroke-width:1;stroke-linecap:butt;stroke-linejoin:miter;stroke-miterlimit:10;stroke-opacity:1;stroke-dasharray:none"
           id="path3127"
           inkscape:connector-curvature="0" /></g></g></g></svg>