<?xml version="1.0" encoding="UTF-8" standalone="no"?>
<!DOCTYPE svg PUBLIC "-//W3C//DTD SVG 1.1//EN"
 "http://www.w3.org/Graphics/SVG/1.1/DTD/svg11.dtd">
<!-- Generated by graphviz version 2.36.0 (20140111.2315)
 -->
<!-- Title: %3 Pages: 1 -->
<svg width="1154pt" height="530pt"
 viewBox="0.00 0.00 1154.00 530.00" xmlns="http://www.w3.org/2000/svg" xmlns:xlink="http://www.w3.org/1999/xlink">
<g id="graph0" class="graph" transform="scale(1 1) rotate(0) translate(4 526)">
<title>%3</title>
<polygon fill="white" stroke="none" points="-4,4 -4,-526 1150,-526 1150,4 -4,4"/>
<!-- 7010341226023122240 -->
<g id="node1" class="node"><title>7010341226023122240</title>
<polygon fill="none" stroke="black" points="106,-513 7.10543e-15,-513 7.10543e-15,-477 106,-477 106,-513"/>
<text text-anchor="middle" x="53" y="-491.3" font-family="Times,serif" font-size="14.00">2016&#45;01&#45;02.data</text>
</g>
<!-- &#45;6520710137832021119 -->
<g id="node58" class="node"><title>&#45;6520710137832021119</title>
<ellipse fill="none" stroke="black" cx="168" cy="-495" rx="25.9954" ry="25.9954"/>
<text text-anchor="middle" x="168" y="-491.3" font-family="Times,serif" font-size="14.00">load</text>
</g>
<!-- 7010341226023122240&#45;&gt;&#45;6520710137832021119 -->
<g id="edge57" class="edge"><title>7010341226023122240&#45;&gt;&#45;6520710137832021119</title>
<path fill="none" stroke="black" d="M106.2,-495C114.805,-495 123.543,-495 131.611,-495"/>
<polygon fill="black" stroke="black" points="131.763,-498.5 141.763,-495 131.763,-491.5 131.763,-498.5"/>
</g>
<!-- &#45;6949368648104637183 -->
<g id="node2" class="node"><title>&#45;6949368648104637183</title>
<polygon fill="none" stroke="black" points="106,-119 7.10543e-15,-119 7.10543e-15,-83 106,-83 106,-119"/>
<text text-anchor="middle" x="53" y="-97.3" font-family="Times,serif" font-size="14.00">2016&#45;01&#45;05.data</text>
</g>
<!-- &#45;93434141303002307 -->
<g id="node64" class="node"><title>&#45;93434141303002307</title>
<ellipse fill="none" stroke="black" cx="168" cy="-101" rx="25.9954" ry="25.9954"/>
<text text-anchor="middle" x="168" y="-97.3" font-family="Times,serif" font-size="14.00">load</text>
</g>
<!-- &#45;6949368648104637183&#45;&gt;&#45;93434141303002307 -->
<g id="edge67" class="edge"><title>&#45;6949368648104637183&#45;&gt;&#45;93434141303002307</title>
<path fill="none" stroke="black" d="M106.2,-101C114.805,-101 123.543,-101 131.611,-101"/>
<polygon fill="black" stroke="black" points="131.763,-104.5 141.763,-101 131.763,-97.5001 131.763,-104.5"/>
</g>
<!-- &#45;2946855837777030206 -->
<g id="node3" class="node"><title>&#45;2946855837777030206</title>
<polygon fill="none" stroke="black" points="552.5,-349 491.5,-349 491.5,-313 552.5,-313 552.5,-349"/>
<text text-anchor="middle" x="522" y="-327.3" font-family="Times,serif" font-size="14.00">filter&#45;#0</text>
</g>
<!-- &#45;6441209111991746843 -->
<g id="node49" class="node"><title>&#45;6441209111991746843</title>
<ellipse fill="none" stroke="black" cx="627" cy="-263" rx="24.8972" ry="24.8972"/>
<text text-anchor="middle" x="627" y="-259.3" font-family="Times,serif" font-size="14.00">join</text>
</g>
<!-- &#45;2946855837777030206&#45;&gt;&#45;6441209111991746843 -->
<g id="edge41" class="edge"><title>&#45;2946855837777030206&#45;&gt;&#45;6441209111991746843</title>
<path fill="none" stroke="black" d="M550.332,-312.956C564.842,-303.376 582.663,-291.611 597.364,-281.905"/>
<polygon fill="black" stroke="black" points="599.641,-284.596 606.058,-276.166 595.784,-278.755 599.641,-284.596"/>
</g>
<!-- &#45;1306671388875583110 -->
<g id="node4" class="node"><title>&#45;1306671388875583110</title>
<ellipse fill="none" stroke="black" cx="401" cy="-347" rx="27.8951" ry="27.8951"/>
<text text-anchor="middle" x="401" y="-343.3" font-family="Times,serif" font-size="14.00">filter</text>
</g>
<!-- &#45;1306671388875583110&#45;&gt;&#45;2946855837777030206 -->
<g id="edge1" class="edge"><title>&#45;1306671388875583110&#45;&gt;&#45;2946855837777030206</title>
<path fill="none" stroke="black" d="M429.003,-343.369C444.336,-341.308 463.822,-338.688 480.909,-336.39"/>
<polygon fill="black" stroke="black" points="481.736,-339.811 491.18,-335.009 480.803,-332.873 481.736,-339.811"/>
</g>
<!-- &#45;2219489784640221762 -->
<g id="node5" class="node"><title>&#45;2219489784640221762</title>
<polygon fill="none" stroke="black" points="306,-365 248,-365 248,-329 306,-329 306,-365"/>
<text text-anchor="middle" x="277" y="-343.3" font-family="Times,serif" font-size="14.00">load&#45;#1</text>
</g>
<!-- &#45;2219489784640221762&#45;&gt;&#45;1306671388875583110 -->
<g id="edge2" class="edge"><title>&#45;2219489784640221762&#45;&gt;&#45;1306671388875583110</title>
<path fill="none" stroke="black" d="M306.296,-347C323.007,-347 344.368,-347 362.473,-347"/>
<polygon fill="black" stroke="black" points="362.697,-350.5 372.697,-347 362.697,-343.5 362.697,-350.5"/>
</g>
<!-- 2825903704706585603 -->
<g id="node6" class="node"><title>2825903704706585603</title>
<polygon fill="none" stroke="black" points="946.5,-393 883.5,-393 883.5,-357 946.5,-357 946.5,-393"/>
<text text-anchor="middle" x="915" y="-371.3" font-family="Times,serif" font-size="14.00">share&#45;#2</text>
</g>
<!-- 7873483290125902779 -->
<g id="node30" class="node"><title>7873483290125902779</title>
<ellipse fill="none" stroke="black" cx="1014" cy="-375" rx="27.8951" ry="27.8951"/>
<text text-anchor="middle" x="1014" y="-371.3" font-family="Times,serif" font-size="14.00">store</text>
</g>
<!-- 2825903704706585603&#45;&gt;7873483290125902779 -->
<g id="edge23" class="edge"><title>2825903704706585603&#45;&gt;7873483290125902779</title>
<path fill="none" stroke="black" d="M946.691,-375C955.903,-375 966.111,-375 975.7,-375"/>
<polygon fill="black" stroke="black" points="975.787,-378.5 985.787,-375 975.787,-371.5 975.787,-378.5"/>
</g>
<!-- 8290755964498904959 -->
<g id="node7" class="node"><title>8290755964498904959</title>
<ellipse fill="none" stroke="black" cx="815" cy="-375" rx="29.4969" ry="29.4969"/>
<text text-anchor="middle" x="815" y="-371.3" font-family="Times,serif" font-size="14.00">share</text>
</g>
<!-- 8290755964498904959&#45;&gt;2825903704706585603 -->
<g id="edge3" class="edge"><title>8290755964498904959&#45;&gt;2825903704706585603</title>
<path fill="none" stroke="black" d="M844.346,-375C853.313,-375 863.409,-375 873.075,-375"/>
<polygon fill="black" stroke="black" points="873.32,-378.5 883.32,-375 873.32,-371.5 873.32,-378.5"/>
</g>
<!-- 3819810955354687042 -->
<g id="node8" class="node"><title>3819810955354687042</title>
<polygon fill="none" stroke="black" points="747,-397 691,-397 691,-361 747,-361 747,-397"/>
<text text-anchor="middle" x="719" y="-375.3" font-family="Times,serif" font-size="14.00">join&#45;#3</text>
</g>
<!-- 3819810955354687042&#45;&gt;8290755964498904959 -->
<g id="edge4" class="edge"><title>3819810955354687042&#45;&gt;8290755964498904959</title>
<path fill="none" stroke="black" d="M747.189,-377.843C756.029,-377.467 766.013,-377.042 775.517,-376.638"/>
<polygon fill="black" stroke="black" points="775.722,-380.132 785.564,-376.21 775.424,-373.138 775.722,-380.132"/>
</g>
<!-- &#45;4914559070631956397 -->
<g id="node51" class="node"><title>&#45;4914559070631956397</title>
<ellipse fill="none" stroke="black" cx="815" cy="-299" rx="29.4969" ry="29.4969"/>
<text text-anchor="middle" x="815" y="-295.3" font-family="Times,serif" font-size="14.00">share</text>
</g>
<!-- 3819810955354687042&#45;&gt;&#45;4914559070631956397 -->
<g id="edge46" class="edge"><title>3819810955354687042&#45;&gt;&#45;4914559070631956397</title>
<path fill="none" stroke="black" d="M741.33,-360.847C754.009,-350.056 770.282,-336.206 784.215,-324.349"/>
<polygon fill="black" stroke="black" points="786.755,-326.783 792.102,-317.637 782.218,-321.452 786.755,-326.783"/>
</g>
<!-- 8100357930029544086 -->
<g id="node9" class="node"><title>8100357930029544086</title>
<polygon fill="none" stroke="black" points="747,-343 691,-343 691,-307 747,-307 747,-343"/>
<text text-anchor="middle" x="719" y="-321.3" font-family="Times,serif" font-size="14.00">join&#45;#4</text>
</g>
<!-- 8100357930029544086&#45;&gt;8290755964498904959 -->
<g id="edge5" class="edge"><title>8100357930029544086&#45;&gt;8290755964498904959</title>
<path fill="none" stroke="black" d="M747.189,-339.462C757.338,-344.86 768.995,-351.061 779.702,-356.756"/>
<polygon fill="black" stroke="black" points="778.332,-359.992 788.804,-361.598 781.619,-353.812 778.332,-359.992"/>
</g>
<!-- 8703110591936136645 -->
<g id="node12" class="node"><title>8703110591936136645</title>
<ellipse fill="none" stroke="black" cx="815" cy="-222" rx="29.4969" ry="29.4969"/>
<text text-anchor="middle" x="815" y="-218.3" font-family="Times,serif" font-size="14.00">share</text>
</g>
<!-- 8100357930029544086&#45;&gt;8703110591936136645 -->
<g id="edge8" class="edge"><title>8100357930029544086&#45;&gt;8703110591936136645</title>
<path fill="none" stroke="black" d="M737.897,-306.764C741.913,-302.601 746.129,-298.173 750,-294 762.809,-280.19 776.735,-264.596 788.316,-251.46"/>
<polygon fill="black" stroke="black" points="791.219,-253.458 795.192,-243.637 785.961,-248.837 791.219,-253.458"/>
</g>
<!-- &#45;1435098686403263228 -->
<g id="node10" class="node"><title>&#45;1435098686403263228</title>
<polygon fill="none" stroke="black" points="323.5,-279 230.5,-279 230.5,-243 323.5,-243 323.5,-279"/>
<text text-anchor="middle" x="277" y="-257.3" font-family="Times,serif" font-size="14.00">reference.data</text>
</g>
<!-- &#45;226229288739752366 -->
<g id="node38" class="node"><title>&#45;226229288739752366</title>
<ellipse fill="none" stroke="black" cx="401" cy="-261" rx="40.0939" ry="40.0939"/>
<text text-anchor="middle" x="401" y="-257.3" font-family="Times,serif" font-size="14.00">read_sql</text>
</g>
<!-- &#45;1435098686403263228&#45;&gt;&#45;226229288739752366 -->
<g id="edge32" class="edge"><title>&#45;1435098686403263228&#45;&gt;&#45;226229288739752366</title>
<path fill="none" stroke="black" d="M323.775,-261C332.426,-261 341.512,-261 350.277,-261"/>
<polygon fill="black" stroke="black" points="350.373,-264.5 360.373,-261 350.373,-257.5 350.373,-264.5"/>
</g>
<!-- 6808221194483912965 -->
<g id="node11" class="node"><title>6808221194483912965</title>
<polygon fill="none" stroke="black" points="946.5,-240 883.5,-240 883.5,-204 946.5,-204 946.5,-240"/>
<text text-anchor="middle" x="915" y="-218.3" font-family="Times,serif" font-size="14.00">share&#45;#5</text>
</g>
<!-- &#45;7483309982822755392 -->
<g id="node40" class="node"><title>&#45;7483309982822755392</title>
<ellipse fill="none" stroke="black" cx="1014" cy="-222" rx="27.8951" ry="27.8951"/>
<text text-anchor="middle" x="1014" y="-218.3" font-family="Times,serif" font-size="14.00">store</text>
</g>
<!-- 6808221194483912965&#45;&gt;&#45;7483309982822755392 -->
<g id="edge34" class="edge"><title>6808221194483912965&#45;&gt;&#45;7483309982822755392</title>
<path fill="none" stroke="black" d="M946.691,-222C955.903,-222 966.111,-222 975.7,-222"/>
<polygon fill="black" stroke="black" points="975.787,-225.5 985.787,-222 975.787,-218.5 975.787,-225.5"/>
</g>
<!-- 8703110591936136645&#45;&gt;6808221194483912965 -->
<g id="edge6" class="edge"><title>8703110591936136645&#45;&gt;6808221194483912965</title>
<path fill="none" stroke="black" d="M844.346,-222C853.313,-222 863.409,-222 873.075,-222"/>
<polygon fill="black" stroke="black" points="873.32,-225.5 883.32,-222 873.32,-218.5 873.32,-225.5"/>
</g>
<!-- 378099014699217446 -->
<g id="node13" class="node"><title>378099014699217446</title>
<polygon fill="none" stroke="black" points="747,-214 691,-214 691,-178 747,-178 747,-214"/>
<text text-anchor="middle" x="719" y="-192.3" font-family="Times,serif" font-size="14.00">join&#45;#6</text>
</g>
<!-- 378099014699217446&#45;&gt;8703110591936136645 -->
<g id="edge7" class="edge"><title>378099014699217446&#45;&gt;8703110591936136645</title>
<path fill="none" stroke="black" d="M747.189,-203.52C756.461,-206.085 766.992,-208.998 776.907,-211.74"/>
<polygon fill="black" stroke="black" points="775.976,-215.114 786.547,-214.407 777.842,-208.367 775.976,-215.114"/>
</g>
<!-- &#45;9158930559578209218 -->
<g id="node15" class="node"><title>&#45;9158930559578209218</title>
<ellipse fill="none" stroke="black" cx="815" cy="-145" rx="29.4969" ry="29.4969"/>
<text text-anchor="middle" x="815" y="-141.3" font-family="Times,serif" font-size="14.00">share</text>
</g>
<!-- 378099014699217446&#45;&gt;&#45;9158930559578209218 -->
<g id="edge11" class="edge"><title>378099014699217446&#45;&gt;&#45;9158930559578209218</title>
<path fill="none" stroke="black" d="M747.189,-181.249C757.338,-175.742 768.995,-169.418 779.702,-163.609"/>
<polygon fill="black" stroke="black" points="781.683,-166.515 788.804,-158.67 778.345,-160.363 781.683,-166.515"/>
</g>
<!-- &#45;2734528907731084218 -->
<g id="node14" class="node"><title>&#45;2734528907731084218</title>
<polygon fill="none" stroke="black" points="946.5,-163 883.5,-163 883.5,-127 946.5,-127 946.5,-163"/>
<text text-anchor="middle" x="915" y="-141.3" font-family="Times,serif" font-size="14.00">share&#45;#7</text>
</g>
<!-- &#45;8410842743033141633 -->
<g id="node32" class="node"><title>&#45;8410842743033141633</title>
<ellipse fill="none" stroke="black" cx="1014" cy="-145" rx="27.8951" ry="27.8951"/>
<text text-anchor="middle" x="1014" y="-141.3" font-family="Times,serif" font-size="14.00">store</text>
</g>
<!-- &#45;2734528907731084218&#45;&gt;&#45;8410842743033141633 -->
<g id="edge25" class="edge"><title>&#45;2734528907731084218&#45;&gt;&#45;8410842743033141633</title>
<path fill="none" stroke="black" d="M946.691,-145C955.903,-145 966.111,-145 975.7,-145"/>
<polygon fill="black" stroke="black" points="975.787,-148.5 985.787,-145 975.787,-141.5 975.787,-148.5"/>
</g>
<!-- &#45;9158930559578209218&#45;&gt;&#45;2734528907731084218 -->
<g id="edge9" class="edge"><title>&#45;9158930559578209218&#45;&gt;&#45;2734528907731084218</title>
<path fill="none" stroke="black" d="M844.346,-145C853.313,-145 863.409,-145 873.075,-145"/>
<polygon fill="black" stroke="black" points="873.32,-148.5 883.32,-145 873.32,-141.5 873.32,-148.5"/>
</g>
<!-- 7168019737513942461 -->
<g id="node16" class="node"><title>7168019737513942461</title>
<polygon fill="none" stroke="black" points="747,-147 691,-147 691,-111 747,-111 747,-147"/>
<text text-anchor="middle" x="719" y="-125.3" font-family="Times,serif" font-size="14.00">join&#45;#8</text>
</g>
<!-- 7168019737513942461&#45;&gt;&#45;9158930559578209218 -->
<g id="edge10" class="edge"><title>7168019737513942461&#45;&gt;&#45;9158930559578209218</title>
<path fill="none" stroke="black" d="M747.189,-133.628C756.108,-135.146 766.193,-136.863 775.773,-138.493"/>
<polygon fill="black" stroke="black" points="775.447,-141.988 785.892,-140.216 776.622,-135.087 775.447,-141.988"/>
</g>
<!-- 7110859070570488051 -->
<g id="node18" class="node"><title>7110859070570488051</title>
<ellipse fill="none" stroke="black" cx="815" cy="-67" rx="29.4969" ry="29.4969"/>
<text text-anchor="middle" x="815" y="-63.3" font-family="Times,serif" font-size="14.00">share</text>
</g>
<!-- 7168019737513942461&#45;&gt;7110859070570488051 -->
<g id="edge14" class="edge"><title>7168019737513942461&#45;&gt;7110859070570488051</title>
<path fill="none" stroke="black" d="M747.189,-111.067C757.885,-104.012 770.257,-95.852 781.425,-88.4856"/>
<polygon fill="black" stroke="black" points="783.648,-91.212 790.069,-82.7843 779.794,-85.3686 783.648,-91.212"/>
</g>
<!-- &#45;3309285466122053625 -->
<g id="node17" class="node"><title>&#45;3309285466122053625</title>
<polygon fill="none" stroke="black" points="946.5,-85 883.5,-85 883.5,-49 946.5,-49 946.5,-85"/>
<text text-anchor="middle" x="915" y="-63.3" font-family="Times,serif" font-size="14.00">share&#45;#9</text>
</g>
<!-- &#45;7811745652875257742 -->
<g id="node63" class="node"><title>&#45;7811745652875257742</title>
<ellipse fill="none" stroke="black" cx="1014" cy="-67" rx="27.8951" ry="27.8951"/>
<text text-anchor="middle" x="1014" y="-63.3" font-family="Times,serif" font-size="14.00">store</text>
</g>
<!-- &#45;3309285466122053625&#45;&gt;&#45;7811745652875257742 -->
<g id="edge65" class="edge"><title>&#45;3309285466122053625&#45;&gt;&#45;7811745652875257742</title>
<path fill="none" stroke="black" d="M946.691,-67C955.903,-67 966.111,-67 975.7,-67"/>
<polygon fill="black" stroke="black" points="975.787,-70.5001 985.787,-67 975.787,-63.5001 975.787,-70.5001"/>
</g>
<!-- 7110859070570488051&#45;&gt;&#45;3309285466122053625 -->
<g id="edge12" class="edge"><title>7110859070570488051&#45;&gt;&#45;3309285466122053625</title>
<path fill="none" stroke="black" d="M844.346,-67C853.313,-67 863.409,-67 873.075,-67"/>
<polygon fill="black" stroke="black" points="873.32,-70.5001 883.32,-67 873.32,-63.5001 873.32,-70.5001"/>
</g>
<!-- &#45;1069620841438840341 -->
<g id="node19" class="node"><title>&#45;1069620841438840341</title>
<polygon fill="none" stroke="black" points="750,-81 688,-81 688,-45 750,-45 750,-81"/>
<text text-anchor="middle" x="719" y="-59.3" font-family="Times,serif" font-size="14.00">join&#45;#10</text>
</g>
<!-- &#45;1069620841438840341&#45;&gt;7110859070570488051 -->
<g id="edge13" class="edge"><title>&#45;1069620841438840341&#45;&gt;7110859070570488051</title>
<path fill="none" stroke="black" d="M750.001,-64.2766C758.099,-64.6212 766.975,-64.9989 775.47,-65.3604"/>
<polygon fill="black" stroke="black" points="775.424,-68.8615 785.564,-65.7899 775.722,-61.8679 775.424,-68.8615"/>
</g>
<!-- &#45;7326806430128957301 -->
<g id="node20" class="node"><title>&#45;7326806430128957301</title>
<polygon fill="none" stroke="black" points="556,-128 488,-128 488,-92 556,-92 556,-128"/>
<text text-anchor="middle" x="522" y="-106.3" font-family="Times,serif" font-size="14.00">filter&#45;#11</text>
</g>
<!-- &#45;5824034926261321347 -->
<g id="node57" class="node"><title>&#45;5824034926261321347</title>
<ellipse fill="none" stroke="black" cx="627" cy="-129" rx="24.8972" ry="24.8972"/>
<text text-anchor="middle" x="627" y="-125.3" font-family="Times,serif" font-size="14.00">join</text>
</g>
<!-- &#45;7326806430128957301&#45;&gt;&#45;5824034926261321347 -->
<g id="edge55" class="edge"><title>&#45;7326806430128957301&#45;&gt;&#45;5824034926261321347</title>
<path fill="none" stroke="black" d="M556.157,-116.116C567.892,-118.281 581.089,-120.715 592.825,-122.88"/>
<polygon fill="black" stroke="black" points="592.221,-126.328 602.69,-124.7 593.491,-119.444 592.221,-126.328"/>
</g>
<!-- &#45;2245712466935011449 -->
<g id="node21" class="node"><title>&#45;2245712466935011449</title>
<ellipse fill="none" stroke="black" cx="401" cy="-101" rx="27.8951" ry="27.8951"/>
<text text-anchor="middle" x="401" y="-97.3" font-family="Times,serif" font-size="14.00">filter</text>
</g>
<!-- &#45;2245712466935011449&#45;&gt;&#45;7326806430128957301 -->
<g id="edge15" class="edge"><title>&#45;2245712466935011449&#45;&gt;&#45;7326806430128957301</title>
<path fill="none" stroke="black" d="M429.003,-103.042C443.291,-104.123 461.186,-105.476 477.385,-106.701"/>
<polygon fill="black" stroke="black" points="477.495,-110.22 487.731,-107.484 478.023,-103.24 477.495,-110.22"/>
</g>
<!-- &#45;2067913143115163139 -->
<g id="node22" class="node"><title>&#45;2067913143115163139</title>
<polygon fill="none" stroke="black" points="309.5,-119 244.5,-119 244.5,-83 309.5,-83 309.5,-119"/>
<text text-anchor="middle" x="277" y="-97.3" font-family="Times,serif" font-size="14.00">load&#45;#12</text>
</g>
<!-- &#45;2067913143115163139&#45;&gt;&#45;2245712466935011449 -->
<g id="edge16" class="edge"><title>&#45;2067913143115163139&#45;&gt;&#45;2245712466935011449</title>
<path fill="none" stroke="black" d="M309.736,-101C325.989,-101 345.876,-101 362.842,-101"/>
<polygon fill="black" stroke="black" points="362.97,-104.5 372.97,-101 362.97,-97.5001 362.97,-104.5"/>
</g>
<!-- 6062603062300132090 -->
<g id="node23" class="node"><title>6062603062300132090</title>
<ellipse fill="none" stroke="black" cx="627" cy="-397" rx="24.8972" ry="24.8972"/>
<text text-anchor="middle" x="627" y="-393.3" font-family="Times,serif" font-size="14.00">join</text>
</g>
<!-- 6062603062300132090&#45;&gt;3819810955354687042 -->
<g id="edge17" class="edge"><title>6062603062300132090&#45;&gt;3819810955354687042</title>
<path fill="none" stroke="black" d="M651.646,-392.271C660.537,-390.493 670.875,-388.425 680.707,-386.459"/>
<polygon fill="black" stroke="black" points="681.568,-389.856 690.688,-384.462 680.196,-382.992 681.568,-389.856"/>
</g>
<!-- 3654970159583600730 -->
<g id="node24" class="node"><title>3654970159583600730</title>
<polygon fill="none" stroke="black" points="565.5,-279 478.5,-279 478.5,-243 565.5,-243 565.5,-279"/>
<text text-anchor="middle" x="522" y="-257.3" font-family="Times,serif" font-size="14.00">read_sql&#45;#13</text>
</g>
<!-- 3654970159583600730&#45;&gt;6062603062300132090 -->
<g id="edge18" class="edge"><title>3654970159583600730&#45;&gt;6062603062300132090</title>
<path fill="none" stroke="black" d="M543.296,-279.35C550.841,-286.656 559.211,-295.371 566,-304 584.994,-328.142 585.133,-337.327 602,-363 603.257,-364.913 604.571,-366.874 605.908,-368.841"/>
<polygon fill="black" stroke="black" points="603.246,-371.146 611.814,-377.377 609.002,-367.162 603.246,-371.146"/>
</g>
<!-- 7621406813804280526 -->
<g id="node34" class="node"><title>7621406813804280526</title>
<ellipse fill="none" stroke="black" cx="627" cy="-330" rx="24.8972" ry="24.8972"/>
<text text-anchor="middle" x="627" y="-326.3" font-family="Times,serif" font-size="14.00">join</text>
</g>
<!-- 3654970159583600730&#45;&gt;7621406813804280526 -->
<g id="edge27" class="edge"><title>3654970159583600730&#45;&gt;7621406813804280526</title>
<path fill="none" stroke="black" d="M550.062,-279.129C564.711,-288.942 582.793,-301.056 597.638,-311"/>
<polygon fill="black" stroke="black" points="595.697,-313.913 605.953,-316.571 599.593,-308.097 595.697,-313.913"/>
</g>
<!-- 3654970159583600730&#45;&gt;&#45;6441209111991746843 -->
<g id="edge40" class="edge"><title>3654970159583600730&#45;&gt;&#45;6441209111991746843</title>
<path fill="none" stroke="black" d="M565.786,-261.831C574.492,-262 583.539,-262.176 591.894,-262.338"/>
<polygon fill="black" stroke="black" points="591.964,-265.84 602.03,-262.535 592.1,-258.841 591.964,-265.84"/>
</g>
<!-- 4504643496174151774 -->
<g id="node50" class="node"><title>4504643496174151774</title>
<ellipse fill="none" stroke="black" cx="627" cy="-196" rx="24.8972" ry="24.8972"/>
<text text-anchor="middle" x="627" y="-192.3" font-family="Times,serif" font-size="14.00">join</text>
</g>
<!-- 3654970159583600730&#45;&gt;4504643496174151774 -->
<g id="edge43" class="edge"><title>3654970159583600730&#45;&gt;4504643496174151774</title>
<path fill="none" stroke="black" d="M551.691,-242.894C565.754,-234.019 582.66,-223.35 596.792,-214.432"/>
<polygon fill="black" stroke="black" points="599.031,-217.158 605.62,-208.861 595.295,-211.238 599.031,-217.158"/>
</g>
<!-- &#45;1871190025478497241 -->
<g id="node55" class="node"><title>&#45;1871190025478497241</title>
<ellipse fill="none" stroke="black" cx="627" cy="-62" rx="24.8972" ry="24.8972"/>
<text text-anchor="middle" x="627" y="-58.3" font-family="Times,serif" font-size="14.00">join</text>
</g>
<!-- 3654970159583600730&#45;&gt;&#45;1871190025478497241 -->
<g id="edge51" class="edge"><title>3654970159583600730&#45;&gt;&#45;1871190025478497241</title>
<path fill="none" stroke="black" d="M542.206,-242.894C550.493,-234.213 559.708,-223.265 566,-212 592.531,-164.501 577.669,-143.662 602,-95 603.004,-92.9922 604.127,-90.9759 605.324,-88.9838"/>
<polygon fill="black" stroke="black" points="608.33,-90.7839 610.91,-80.5081 602.485,-86.9317 608.33,-90.7839"/>
</g>
<!-- 3654970159583600730&#45;&gt;&#45;5824034926261321347 -->
<g id="edge54" class="edge"><title>3654970159583600730&#45;&gt;&#45;5824034926261321347</title>
<path fill="none" stroke="black" d="M539.765,-242.745C547.898,-233.677 557.684,-222.45 566,-212 583.051,-190.573 585.947,-184.184 602,-162 603.184,-160.364 604.401,-158.684 605.63,-156.989"/>
<polygon fill="black" stroke="black" points="608.727,-158.681 611.771,-148.532 603.063,-154.568 608.727,-158.681"/>
</g>
<!-- &#45;575222822816161372 -->
<g id="node25" class="node"><title>&#45;575222822816161372</title>
<polygon fill="none" stroke="black" points="556,-494 488,-494 488,-458 556,-458 556,-494"/>
<text text-anchor="middle" x="522" y="-472.3" font-family="Times,serif" font-size="14.00">filter&#45;#14</text>
</g>
<!-- &#45;575222822816161372&#45;&gt;6062603062300132090 -->
<g id="edge19" class="edge"><title>&#45;575222822816161372&#45;&gt;6062603062300132090</title>
<path fill="none" stroke="black" d="M546.63,-457.876C562.208,-445.928 582.654,-430.246 598.892,-417.791"/>
<polygon fill="black" stroke="black" points="601.148,-420.472 606.952,-411.609 596.888,-414.918 601.148,-420.472"/>
</g>
<!-- &#45;4239504044806348722 -->
<g id="node26" class="node"><title>&#45;4239504044806348722</title>
<polygon fill="none" stroke="black" points="556,-421 488,-421 488,-385 556,-385 556,-421"/>
<text text-anchor="middle" x="522" y="-399.3" font-family="Times,serif" font-size="14.00">filter&#45;#15</text>
</g>
<!-- &#45;4239504044806348722&#45;&gt;7621406813804280526 -->
<g id="edge28" class="edge"><title>&#45;4239504044806348722&#45;&gt;7621406813804280526</title>
<path fill="none" stroke="black" d="M548.461,-384.955C563.54,-374.268 582.661,-360.716 598.142,-349.744"/>
<polygon fill="black" stroke="black" points="600.185,-352.586 606.319,-343.948 596.137,-346.875 600.185,-352.586"/>
</g>
<!-- &#45;3708470408975692922 -->
<g id="node27" class="node"><title>&#45;3708470408975692922</title>
<ellipse fill="none" stroke="black" cx="401" cy="-421" rx="27.8951" ry="27.8951"/>
<text text-anchor="middle" x="401" y="-417.3" font-family="Times,serif" font-size="14.00">filter</text>
</g>
<!-- &#45;3708470408975692922&#45;&gt;&#45;4239504044806348722 -->
<g id="edge20" class="edge"><title>&#45;3708470408975692922&#45;&gt;&#45;4239504044806348722</title>
<path fill="none" stroke="black" d="M428.706,-416.96C443.12,-414.78 461.268,-412.035 477.649,-409.557"/>
<polygon fill="black" stroke="black" points="478.207,-413.013 487.571,-408.056 477.16,-406.092 478.207,-413.013"/>
</g>
<!-- &#45;8866326087538421384 -->
<g id="node28" class="node"><title>&#45;8866326087538421384</title>
<polygon fill="none" stroke="black" points="309.5,-439 244.5,-439 244.5,-403 309.5,-403 309.5,-439"/>
<text text-anchor="middle" x="277" y="-417.3" font-family="Times,serif" font-size="14.00">load&#45;#16</text>
</g>
<!-- &#45;8866326087538421384&#45;&gt;&#45;3708470408975692922 -->
<g id="edge21" class="edge"><title>&#45;8866326087538421384&#45;&gt;&#45;3708470408975692922</title>
<path fill="none" stroke="black" d="M309.736,-421C325.989,-421 345.876,-421 362.842,-421"/>
<polygon fill="black" stroke="black" points="362.97,-424.5 372.97,-421 362.97,-417.5 362.97,-424.5"/>
</g>
<!-- &#45;7732076380889865585 -->
<g id="node29" class="node"><title>&#45;7732076380889865585</title>
<polygon fill="none" stroke="black" points="1146,-393 1078,-393 1078,-357 1146,-357 1146,-393"/>
<text text-anchor="middle" x="1112" y="-371.3" font-family="Times,serif" font-size="14.00">store&#45;#17</text>
</g>
<!-- 7873483290125902779&#45;&gt;&#45;7732076380889865585 -->
<g id="edge22" class="edge"><title>7873483290125902779&#45;&gt;&#45;7732076380889865585</title>
<path fill="none" stroke="black" d="M1042,-375C1049.97,-375 1058.9,-375 1067.63,-375"/>
<polygon fill="black" stroke="black" points="1067.71,-378.5 1077.71,-375 1067.71,-371.5 1067.71,-378.5"/>
</g>
<!-- 7545907882808745731 -->
<g id="node31" class="node"><title>7545907882808745731</title>
<polygon fill="none" stroke="black" points="1146,-163 1078,-163 1078,-127 1146,-127 1146,-163"/>
<text text-anchor="middle" x="1112" y="-141.3" font-family="Times,serif" font-size="14.00">store&#45;#18</text>
</g>
<!-- &#45;8410842743033141633&#45;&gt;7545907882808745731 -->
<g id="edge24" class="edge"><title>&#45;8410842743033141633&#45;&gt;7545907882808745731</title>
<path fill="none" stroke="black" d="M1042,-145C1049.97,-145 1058.9,-145 1067.63,-145"/>
<polygon fill="black" stroke="black" points="1067.71,-148.5 1077.71,-145 1067.71,-141.5 1067.71,-148.5"/>
</g>
<!-- 8297707255421229973 -->
<g id="node33" class="node"><title>8297707255421229973</title>
<polygon fill="none" stroke="black" points="106,-439 7.10543e-15,-439 7.10543e-15,-403 106,-403 106,-439"/>
<text text-anchor="middle" x="53" y="-417.3" font-family="Times,serif" font-size="14.00">2016&#45;01&#45;03.data</text>
</g>
<!-- 5792100064758259948 -->
<g id="node60" class="node"><title>5792100064758259948</title>
<ellipse fill="none" stroke="black" cx="168" cy="-421" rx="25.9954" ry="25.9954"/>
<text text-anchor="middle" x="168" y="-417.3" font-family="Times,serif" font-size="14.00">load</text>
</g>
<!-- 8297707255421229973&#45;&gt;5792100064758259948 -->
<g id="edge61" class="edge"><title>8297707255421229973&#45;&gt;5792100064758259948</title>
<path fill="none" stroke="black" d="M106.2,-421C114.805,-421 123.543,-421 131.611,-421"/>
<polygon fill="black" stroke="black" points="131.763,-424.5 141.763,-421 131.763,-417.5 131.763,-424.5"/>
</g>
<!-- 7621406813804280526&#45;&gt;8100357930029544086 -->
<g id="edge26" class="edge"><title>7621406813804280526&#45;&gt;8100357930029544086</title>
<path fill="none" stroke="black" d="M652.118,-328.66C660.913,-328.171 671.075,-327.607 680.745,-327.07"/>
<polygon fill="black" stroke="black" points="681.167,-330.552 690.957,-326.502 680.778,-323.563 681.167,-330.552"/>
</g>
<!-- &#45;8414470195241178172 -->
<g id="node35" class="node"><title>&#45;8414470195241178172</title>
<polygon fill="none" stroke="black" points="556,-203 488,-203 488,-167 556,-167 556,-203"/>
<text text-anchor="middle" x="522" y="-181.3" font-family="Times,serif" font-size="14.00">filter&#45;#19</text>
</g>
<!-- &#45;8414470195241178172&#45;&gt;4504643496174151774 -->
<g id="edge44" class="edge"><title>&#45;8414470195241178172&#45;&gt;4504643496174151774</title>
<path fill="none" stroke="black" d="M556.157,-188.541C567.683,-189.772 580.62,-191.154 592.198,-192.39"/>
<polygon fill="black" stroke="black" points="592.055,-195.895 602.37,-193.476 592.798,-188.934 592.055,-195.895"/>
</g>
<!-- 2019482956208022952 -->
<g id="node36" class="node"><title>2019482956208022952</title>
<ellipse fill="none" stroke="black" cx="401" cy="-175" rx="27.8951" ry="27.8951"/>
<text text-anchor="middle" x="401" y="-171.3" font-family="Times,serif" font-size="14.00">filter</text>
</g>
<!-- 2019482956208022952&#45;&gt;&#45;8414470195241178172 -->
<g id="edge29" class="edge"><title>2019482956208022952&#45;&gt;&#45;8414470195241178172</title>
<path fill="none" stroke="black" d="M429.003,-177.269C443.291,-178.47 461.186,-179.974 477.385,-181.335"/>
<polygon fill="black" stroke="black" points="477.473,-184.854 487.731,-182.204 478.059,-177.879 477.473,-184.854"/>
</g>
<!-- &#45;3927196322523014474 -->
<g id="node37" class="node"><title>&#45;3927196322523014474</title>
<polygon fill="none" stroke="black" points="309.5,-193 244.5,-193 244.5,-157 309.5,-157 309.5,-193"/>
<text text-anchor="middle" x="277" y="-171.3" font-family="Times,serif" font-size="14.00">load&#45;#20</text>
</g>
<!-- &#45;3927196322523014474&#45;&gt;2019482956208022952 -->
<g id="edge30" class="edge"><title>&#45;3927196322523014474&#45;&gt;2019482956208022952</title>
<path fill="none" stroke="black" d="M309.736,-175C325.989,-175 345.876,-175 362.842,-175"/>
<polygon fill="black" stroke="black" points="362.97,-178.5 372.97,-175 362.97,-171.5 362.97,-178.5"/>
</g>
<!-- &#45;226229288739752366&#45;&gt;3654970159583600730 -->
<g id="edge31" class="edge"><title>&#45;226229288739752366&#45;&gt;3654970159583600730</title>
<path fill="none" stroke="black" d="M441.625,-261C450.081,-261 459.142,-261 468.007,-261"/>
<polygon fill="black" stroke="black" points="468.277,-264.5 478.277,-261 468.277,-257.5 468.277,-264.5"/>
</g>
<!-- 823839579420193564 -->
<g id="node39" class="node"><title>823839579420193564</title>
<polygon fill="none" stroke="black" points="1146,-240 1078,-240 1078,-204 1146,-204 1146,-240"/>
<text text-anchor="middle" x="1112" y="-218.3" font-family="Times,serif" font-size="14.00">store&#45;#21</text>
</g>
<!-- &#45;7483309982822755392&#45;&gt;823839579420193564 -->
<g id="edge33" class="edge"><title>&#45;7483309982822755392&#45;&gt;823839579420193564</title>
<path fill="none" stroke="black" d="M1042,-222C1049.97,-222 1058.9,-222 1067.63,-222"/>
<polygon fill="black" stroke="black" points="1067.71,-225.5 1077.71,-222 1067.71,-218.5 1067.71,-225.5"/>
</g>
<!-- 578875202583303054 -->
<g id="node41" class="node"><title>578875202583303054</title>
<polygon fill="none" stroke="black" points="106,-45 7.10543e-15,-45 7.10543e-15,-9 106,-9 106,-45"/>
<text text-anchor="middle" x="53" y="-23.3" font-family="Times,serif" font-size="14.00">2016&#45;01&#45;06.data</text>
</g>
<!-- &#45;5386009419017004602 -->
<g id="node53" class="node"><title>&#45;5386009419017004602</title>
<ellipse fill="none" stroke="black" cx="168" cy="-27" rx="25.9954" ry="25.9954"/>
<text text-anchor="middle" x="168" y="-23.3" font-family="Times,serif" font-size="14.00">load</text>
</g>
<!-- 578875202583303054&#45;&gt;&#45;5386009419017004602 -->
<g id="edge49" class="edge"><title>578875202583303054&#45;&gt;&#45;5386009419017004602</title>
<path fill="none" stroke="black" d="M106.2,-27C114.805,-27 123.543,-27 131.611,-27"/>
<polygon fill="black" stroke="black" points="131.763,-30.5001 141.763,-27 131.763,-23.5001 131.763,-30.5001"/>
</g>
<!-- &#45;6090279778451091233 -->
<g id="node42" class="node"><title>&#45;6090279778451091233</title>
<polygon fill="none" stroke="black" points="106,-365 7.10543e-15,-365 7.10543e-15,-329 106,-329 106,-365"/>
<text text-anchor="middle" x="53" y="-343.3" font-family="Times,serif" font-size="14.00">2016&#45;01&#45;01.data</text>
</g>
<!-- 3717781288909663286 -->
<g id="node65" class="node"><title>3717781288909663286</title>
<ellipse fill="none" stroke="black" cx="168" cy="-347" rx="25.9954" ry="25.9954"/>
<text text-anchor="middle" x="168" y="-343.3" font-family="Times,serif" font-size="14.00">load</text>
</g>
<!-- &#45;6090279778451091233&#45;&gt;3717781288909663286 -->
<g id="edge69" class="edge"><title>&#45;6090279778451091233&#45;&gt;3717781288909663286</title>
<path fill="none" stroke="black" d="M106.2,-347C114.805,-347 123.543,-347 131.611,-347"/>
<polygon fill="black" stroke="black" points="131.763,-350.5 141.763,-347 131.763,-343.5 131.763,-350.5"/>
</g>
<!-- 7907860366856824160 -->
<g id="node43" class="node"><title>7907860366856824160</title>
<polygon fill="none" stroke="black" points="1146,-317 1078,-317 1078,-281 1146,-281 1146,-317"/>
<text text-anchor="middle" x="1112" y="-295.3" font-family="Times,serif" font-size="14.00">store&#45;#22</text>
</g>
<!-- &#45;3121998966707688300 -->
<g id="node44" class="node"><title>&#45;3121998966707688300</title>
<ellipse fill="none" stroke="black" cx="1014" cy="-299" rx="27.8951" ry="27.8951"/>
<text text-anchor="middle" x="1014" y="-295.3" font-family="Times,serif" font-size="14.00">store</text>
</g>
<!-- &#45;3121998966707688300&#45;&gt;7907860366856824160 -->
<g id="edge35" class="edge"><title>&#45;3121998966707688300&#45;&gt;7907860366856824160</title>
<path fill="none" stroke="black" d="M1042,-299C1049.97,-299 1058.9,-299 1067.63,-299"/>
<polygon fill="black" stroke="black" points="1067.71,-302.5 1077.71,-299 1067.71,-295.5 1067.71,-302.5"/>
</g>
<!-- 3866290424280813735 -->
<g id="node45" class="node"><title>3866290424280813735</title>
<polygon fill="none" stroke="black" points="950,-317 880,-317 880,-281 950,-281 950,-317"/>
<text text-anchor="middle" x="915" y="-295.3" font-family="Times,serif" font-size="14.00">share&#45;#23</text>
</g>
<!-- 3866290424280813735&#45;&gt;&#45;3121998966707688300 -->
<g id="edge36" class="edge"><title>3866290424280813735&#45;&gt;&#45;3121998966707688300</title>
<path fill="none" stroke="black" d="M950.199,-299C958.406,-299 967.213,-299 975.559,-299"/>
<polygon fill="black" stroke="black" points="975.804,-302.5 985.804,-299 975.804,-295.5 975.804,-302.5"/>
</g>
<!-- 1682589474090142152 -->
<g id="node46" class="node"><title>1682589474090142152</title>
<ellipse fill="none" stroke="black" cx="401" cy="-495" rx="27.8951" ry="27.8951"/>
<text text-anchor="middle" x="401" y="-491.3" font-family="Times,serif" font-size="14.00">filter</text>
</g>
<!-- 1682589474090142152&#45;&gt;&#45;575222822816161372 -->
<g id="edge37" class="edge"><title>1682589474090142152&#45;&gt;&#45;575222822816161372</title>
<path fill="none" stroke="black" d="M428.706,-490.736C443.12,-488.435 461.268,-485.537 477.649,-482.922"/>
<polygon fill="black" stroke="black" points="478.248,-486.37 487.571,-481.337 477.144,-479.458 478.248,-486.37"/>
</g>
<!-- &#45;4264629517758873871 -->
<g id="node47" class="node"><title>&#45;4264629517758873871</title>
<polygon fill="none" stroke="black" points="309.5,-513 244.5,-513 244.5,-477 309.5,-477 309.5,-513"/>
<text text-anchor="middle" x="277" y="-491.3" font-family="Times,serif" font-size="14.00">load&#45;#24</text>
</g>
<!-- &#45;4264629517758873871&#45;&gt;1682589474090142152 -->
<g id="edge38" class="edge"><title>&#45;4264629517758873871&#45;&gt;1682589474090142152</title>
<path fill="none" stroke="black" d="M309.736,-495C325.989,-495 345.876,-495 362.842,-495"/>
<polygon fill="black" stroke="black" points="362.97,-498.5 372.97,-495 362.97,-491.5 362.97,-498.5"/>
</g>
<!-- 1120781347016658661 -->
<g id="node48" class="node"><title>1120781347016658661</title>
<polygon fill="none" stroke="black" points="750,-285 688,-285 688,-249 750,-249 750,-285"/>
<text text-anchor="middle" x="719" y="-263.3" font-family="Times,serif" font-size="14.00">join&#45;#25</text>
</g>
<!-- 1120781347016658661&#45;&gt;&#45;4914559070631956397 -->
<g id="edge47" class="edge"><title>1120781347016658661&#45;&gt;&#45;4914559070631956397</title>
<path fill="none" stroke="black" d="M750.001,-277.213C758.76,-280.195 768.43,-283.487 777.543,-286.589"/>
<polygon fill="black" stroke="black" points="776.549,-289.948 787.143,-289.857 778.804,-283.321 776.549,-289.948"/>
</g>
<!-- &#45;6441209111991746843&#45;&gt;1120781347016658661 -->
<g id="edge39" class="edge"><title>&#45;6441209111991746843&#45;&gt;1120781347016658661</title>
<path fill="none" stroke="black" d="M652.118,-264.072C659.977,-264.421 668.928,-264.819 677.644,-265.206"/>
<polygon fill="black" stroke="black" points="677.543,-268.705 687.689,-265.653 677.854,-261.712 677.543,-268.705"/>
</g>
<!-- 4504643496174151774&#45;&gt;378099014699217446 -->
<g id="edge42" class="edge"><title>4504643496174151774&#45;&gt;378099014699217446</title>
<path fill="none" stroke="black" d="M652.118,-196C660.913,-196 671.075,-196 680.745,-196"/>
<polygon fill="black" stroke="black" points="680.957,-199.5 690.957,-196 680.957,-192.5 680.957,-199.5"/>
</g>
<!-- &#45;4914559070631956397&#45;&gt;3866290424280813735 -->
<g id="edge45" class="edge"><title>&#45;4914559070631956397&#45;&gt;3866290424280813735</title>
<path fill="none" stroke="black" d="M844.346,-299C852.223,-299 860.971,-299 869.534,-299"/>
<polygon fill="black" stroke="black" points="869.815,-302.5 879.815,-299 869.815,-295.5 869.815,-302.5"/>
</g>
<!-- &#45;1247810409323027698 -->
<g id="node52" class="node"><title>&#45;1247810409323027698</title>
<polygon fill="none" stroke="black" points="309.5,-45 244.5,-45 244.5,-9 309.5,-9 309.5,-45"/>
<text text-anchor="middle" x="277" y="-23.3" font-family="Times,serif" font-size="14.00">load&#45;#26</text>
</g>
<!-- 2318847444253519245 -->
<g id="node61" class="node"><title>2318847444253519245</title>
<ellipse fill="none" stroke="black" cx="401" cy="-27" rx="27.8951" ry="27.8951"/>
<text text-anchor="middle" x="401" y="-23.3" font-family="Times,serif" font-size="14.00">filter</text>
</g>
<!-- &#45;1247810409323027698&#45;&gt;2318847444253519245 -->
<g id="edge63" class="edge"><title>&#45;1247810409323027698&#45;&gt;2318847444253519245</title>
<path fill="none" stroke="black" d="M309.736,-27C325.989,-27 345.876,-27 362.842,-27"/>
<polygon fill="black" stroke="black" points="362.97,-30.5001 372.97,-27 362.97,-23.5001 362.97,-30.5001"/>
</g>
<!-- &#45;5386009419017004602&#45;&gt;&#45;1247810409323027698 -->
<g id="edge48" class="edge"><title>&#45;5386009419017004602&#45;&gt;&#45;1247810409323027698</title>
<path fill="none" stroke="black" d="M194.087,-27C205.999,-27 220.558,-27 234.08,-27"/>
<polygon fill="black" stroke="black" points="234.158,-30.5001 244.158,-27 234.158,-23.5001 234.158,-30.5001"/>
</g>
<!-- 623565886723399594 -->
<g id="node54" class="node"><title>623565886723399594</title>
<polygon fill="none" stroke="black" points="106,-193 7.10543e-15,-193 7.10543e-15,-157 106,-157 106,-193"/>
<text text-anchor="middle" x="53" y="-171.3" font-family="Times,serif" font-size="14.00">2016&#45;01&#45;04.data</text>
</g>
<!-- &#45;3004105131654102354 -->
<g id="node59" class="node"><title>&#45;3004105131654102354</title>
<ellipse fill="none" stroke="black" cx="168" cy="-175" rx="25.9954" ry="25.9954"/>
<text text-anchor="middle" x="168" y="-171.3" font-family="Times,serif" font-size="14.00">load</text>
</g>
<!-- 623565886723399594&#45;&gt;&#45;3004105131654102354 -->
<g id="edge59" class="edge"><title>623565886723399594&#45;&gt;&#45;3004105131654102354</title>
<path fill="none" stroke="black" d="M106.2,-175C114.805,-175 123.543,-175 131.611,-175"/>
<polygon fill="black" stroke="black" points="131.763,-178.5 141.763,-175 131.763,-171.5 131.763,-178.5"/>
</g>
<!-- &#45;1871190025478497241&#45;&gt;&#45;1069620841438840341 -->
<g id="edge50" class="edge"><title>&#45;1871190025478497241&#45;&gt;&#45;1069620841438840341</title>
<path fill="none" stroke="black" d="M652.118,-62.268C659.977,-62.3553 668.928,-62.4548 677.644,-62.5516"/>
<polygon fill="black" stroke="black" points="677.651,-66.0518 687.689,-62.6632 677.728,-59.0522 677.651,-66.0518"/>
</g>
<!-- 5384620223726279117 -->
<g id="node56" class="node"><title>5384620223726279117</title>
<polygon fill="none" stroke="black" points="556,-71 488,-71 488,-35 556,-35 556,-71"/>
<text text-anchor="middle" x="522" y="-49.3" font-family="Times,serif" font-size="14.00">filter&#45;#27</text>
</g>
<!-- 5384620223726279117&#45;&gt;&#45;1871190025478497241 -->
<g id="edge52" class="edge"><title>5384620223726279117&#45;&gt;&#45;1871190025478497241</title>
<path fill="none" stroke="black" d="M556.157,-55.8972C567.683,-56.9044 580.62,-58.0348 592.198,-59.0464"/>
<polygon fill="black" stroke="black" points="592.103,-62.5514 602.37,-59.9352 592.712,-55.5779 592.103,-62.5514"/>
</g>
<!-- &#45;5824034926261321347&#45;&gt;7168019737513942461 -->
<g id="edge53" class="edge"><title>&#45;5824034926261321347&#45;&gt;7168019737513942461</title>
<path fill="none" stroke="black" d="M652.118,-129C660.913,-129 671.075,-129 680.745,-129"/>
<polygon fill="black" stroke="black" points="680.957,-132.5 690.957,-129 680.957,-125.5 680.957,-132.5"/>
</g>
<!-- &#45;6520710137832021119&#45;&gt;&#45;4264629517758873871 -->
<g id="edge56" class="edge"><title>&#45;6520710137832021119&#45;&gt;&#45;4264629517758873871</title>
<path fill="none" stroke="black" d="M194.087,-495C205.999,-495 220.558,-495 234.08,-495"/>
<polygon fill="black" stroke="black" points="234.158,-498.5 244.158,-495 234.158,-491.5 234.158,-498.5"/>
</g>
<!-- &#45;3004105131654102354&#45;&gt;&#45;3927196322523014474 -->
<g id="edge58" class="edge"><title>&#45;3004105131654102354&#45;&gt;&#45;3927196322523014474</title>
<path fill="none" stroke="black" d="M194.087,-175C205.999,-175 220.558,-175 234.08,-175"/>
<polygon fill="black" stroke="black" points="234.158,-178.5 244.158,-175 234.158,-171.5 234.158,-178.5"/>
</g>
<!-- 5792100064758259948&#45;&gt;&#45;8866326087538421384 -->
<g id="edge60" class="edge"><title>5792100064758259948&#45;&gt;&#45;8866326087538421384</title>
<path fill="none" stroke="black" d="M194.087,-421C205.999,-421 220.558,-421 234.08,-421"/>
<polygon fill="black" stroke="black" points="234.158,-424.5 244.158,-421 234.158,-417.5 234.158,-424.5"/>
</g>
<!-- 2318847444253519245&#45;&gt;5384620223726279117 -->
<g id="edge62" class="edge"><title>2318847444253519245&#45;&gt;5384620223726279117</title>
<path fill="none" stroke="black" d="M428.41,-32.7702C442.926,-35.9419 461.296,-39.9554 477.838,-43.5697"/>
<polygon fill="black" stroke="black" points="477.335,-47.0423 487.852,-45.7576 478.829,-40.2036 477.335,-47.0423"/>
</g>
<!-- &#45;3609895078079209926 -->
<g id="node62" class="node"><title>&#45;3609895078079209926</title>
<polygon fill="none" stroke="black" points="1146,-85 1078,-85 1078,-49 1146,-49 1146,-85"/>
<text text-anchor="middle" x="1112" y="-63.3" font-family="Times,serif" font-size="14.00">store&#45;#28</text>
</g>
<!-- &#45;7811745652875257742&#45;&gt;&#45;3609895078079209926 -->
<g id="edge64" class="edge"><title>&#45;7811745652875257742&#45;&gt;&#45;3609895078079209926</title>
<path fill="none" stroke="black" d="M1042,-67C1049.97,-67 1058.9,-67 1067.63,-67"/>
<polygon fill="black" stroke="black" points="1067.71,-70.5001 1077.71,-67 1067.71,-63.5001 1067.71,-70.5001"/>
</g>
<!-- &#45;93434141303002307&#45;&gt;&#45;2067913143115163139 -->
<g id="edge66" class="edge"><title>&#45;93434141303002307&#45;&gt;&#45;2067913143115163139</title>
<path fill="none" stroke="black" d="M194.087,-101C205.999,-101 220.558,-101 234.08,-101"/>
<polygon fill="black" stroke="black" points="234.158,-104.5 244.158,-101 234.158,-97.5001 234.158,-104.5"/>
</g>
<!-- 3717781288909663286&#45;&gt;&#45;2219489784640221762 -->
<g id="edge68" class="edge"><title>3717781288909663286&#45;&gt;&#45;2219489784640221762</title>
<path fill="none" stroke="black" d="M194.087,-347C207.01,-347 223.049,-347 237.5,-347"/>
<polygon fill="black" stroke="black" points="237.675,-350.5 247.675,-347 237.675,-343.5 237.675,-350.5"/>
</g>
</g>
</svg>
