<?xml version="1.0" encoding="UTF-8" standalone="no"?>
<!-- Created with Inkscape (http://www.inkscape.org/) -->

<svg
   xmlns:dc="http://purl.org/dc/elements/1.1/"
   xmlns:cc="http://creativecommons.org/ns#"
   xmlns:rdf="http://www.w3.org/1999/02/22-rdf-syntax-ns#"
   xmlns:svg="http://www.w3.org/2000/svg"
   xmlns="http://www.w3.org/2000/svg"
   xmlns:sodipodi="http://sodipodi.sourceforge.net/DTD/sodipodi-0.dtd"
   xmlns:inkscape="http://www.inkscape.org/namespaces/inkscape"
   width="1082.9689"
   height="647.50238"
   id="svg2"
   version="1.1"
   inkscape:version="0.48.4 r9939"
   sodipodi:docname="threads-procs.svg">
  <defs
     id="defs4">
    <inkscape:path-effect
       effect="skeletal"
       id="path-effect3816"
       is_visible="true"
       pattern="m -309.28571,-119.28571 c 0,-2.76 2.24,-5 5,-5 2.76,0 5,2.24 5,5 0,2.76 -2.24,5 -5,5 -2.76,0 -5,-2.24 -5,-5 z"
       copytype="single_stretched"
       prop_scale="1"
       scale_y_rel="false"
       spacing="0"
       normal_offset="0"
       tang_offset="0"
       prop_units="false"
       vertical_pattern="false"
       fuse_tolerance="0" />
    <inkscape:path-effect
       effect="skeletal"
       id="path-effect3816-6"
       is_visible="true"
       pattern="m -299.28571,58.571433 c 0,-2.76 2.24,-5 5,-5 2.76,0 5,2.24 5,5 0,2.76 -2.24,5 -5,5 -2.76,0 -5,-2.24 -5,-5 z"
       copytype="single_stretched"
       prop_scale="1"
       scale_y_rel="false"
       spacing="0"
       normal_offset="0"
       tang_offset="0"
       prop_units="false"
       vertical_pattern="false"
       fuse_tolerance="0" />
    <inkscape:path-effect
       effect="skeletal"
       id="path-effect3816-2"
       is_visible="true"
       pattern="m -99.28571,58.571433 c 0,-2.76 2.24,-5 5,-5 2.76,0 5,2.24 5,5 0,2.76 -2.24,5 -5,5 -2.76,0 -5,-2.24 -5,-5 z"
       copytype="single_stretched"
       prop_scale="1"
       scale_y_rel="false"
       spacing="0"
       normal_offset="0"
       tang_offset="0"
       prop_units="false"
       vertical_pattern="false"
       fuse_tolerance="0" />
    <inkscape:path-effect
       effect="skeletal"
       id="path-effect3816-9"
       is_visible="true"
       pattern="m 100.71429,58.571433 c 0,-2.76 2.24,-5 5,-5 2.76,0 5,2.24 5,5 0,2.76 -2.24,5 -5,5 -2.76,0 -5,-2.24 -5,-5 z"
       copytype="single_stretched"
       prop_scale="1"
       scale_y_rel="false"
       spacing="0"
       normal_offset="0"
       tang_offset="0"
       prop_units="false"
       vertical_pattern="false"
       fuse_tolerance="0" />
    <inkscape:path-effect
       effect="skeletal"
       id="path-effect3816-5"
       is_visible="true"
       pattern="m -279.28571,-121.42857 c 0,-2.76 2.24,-5 5,-5 2.76,0 5,2.24 5,5 0,2.76 -2.24,5 -5,5 -2.76,0 -5,-2.24 -5,-5 z"
       copytype="single_stretched"
       prop_scale="1"
       scale_y_rel="false"
       spacing="0"
       normal_offset="0"
       tang_offset="0"
       prop_units="false"
       vertical_pattern="false"
       fuse_tolerance="0" />
    <inkscape:path-effect
       effect="skeletal"
       id="path-effect3816-8"
       is_visible="true"
       pattern="m -248.57142,-121.42857 c 0,-2.76 2.24,-5 5,-5 2.76,0 5,2.24 5,5 0,2.76 -2.24,5 -5,5 -2.76,0 -5,-2.24 -5,-5 z"
       copytype="single_stretched"
       prop_scale="1"
       scale_y_rel="false"
       spacing="0"
       normal_offset="0"
       tang_offset="0"
       prop_units="false"
       vertical_pattern="false"
       fuse_tolerance="0" />
    <inkscape:path-effect
       effect="skeletal"
       id="path-effect3816-8-2"
       is_visible="true"
       pattern="m 101.42858,-131.42857 c 0,-2.76 2.24,-5 5,-5 2.76,0 5,2.24 5,5 0,2.76 -2.24,5 -5,5 -2.76,0 -5,-2.24 -5,-5 z"
       copytype="single_stretched"
       prop_scale="1"
       scale_y_rel="false"
       spacing="0"
       normal_offset="0"
       tang_offset="0"
       prop_units="false"
       vertical_pattern="false"
       fuse_tolerance="0" />
  </defs>
  <sodipodi:namedview
     id="base"
     pagecolor="#ffffff"
     bordercolor="#666666"
     borderopacity="1.0"
     inkscape:pageopacity="0.0"
     inkscape:pageshadow="2"
     inkscape:zoom="0.49497475"
     inkscape:cx="876.55723"
     inkscape:cy="554.68177"
     inkscape:document-units="px"
     inkscape:current-layer="layer1"
     showgrid="true"
     inkscape:window-width="1600"
     inkscape:window-height="876"
     inkscape:window-x="0"
     inkscape:window-y="24"
     inkscape:window-maximized="1"
     fit-margin-top="0"
     fit-margin-left="0"
     fit-margin-right="0"
     fit-margin-bottom="0">
    <inkscape:grid
       type="xygrid"
       id="grid2985"
       empspacing="5"
       visible="true"
       enabled="true"
       snapvisiblegridlinesonly="true"
       originx="411.06261px"
       originy="-64.393389px" />
  </sodipodi:namedview>
  <metadata
     id="metadata7">
    <rdf:RDF>
      <cc:Work
         rdf:about="">
        <dc:format>image/svg+xml</dc:format>
        <dc:type
           rdf:resource="http://purl.org/dc/dcmitype/StillImage" />
        <dc:title></dc:title>
      </cc:Work>
    </rdf:RDF>
  </metadata>
  <g
     inkscape:label="Layer 1"
     inkscape:groupmode="layer"
     id="layer1"
     transform="translate(411.06261,-340.46643)">
    <rect
       style="opacity:0.6;fill:#00b700;fill-opacity:0.64383563;stroke:#000000;stroke-width:3.78654552;stroke-linecap:round;stroke-linejoin:round;stroke-miterlimit:4;stroke-opacity:0.44292238;stroke-dasharray:none;stroke-dashoffset:0"
       id="rect2987"
       width="321.85638"
       height="302.92365"
       x="-409.1655"
       y="342.36218" />
    <text
       xml:space="preserve"
       style="font-size:28.39909172px;font-style:normal;font-variant:normal;font-weight:normal;font-stretch:normal;text-align:center;line-height:125%;letter-spacing:0px;word-spacing:0px;text-anchor:middle;fill:#000000;fill-opacity:1;stroke:none;font-family:ubuntu;-inkscape-font-specification:ubuntu"
       x="-333.4346"
       y="380.22763"
       id="text3757"
       sodipodi:linespacing="125%"><tspan
         sodipodi:role="line"
         id="tspan3759"
         x="-333.4346"
         y="380.22763">$ python</tspan></text>
    <path
       style="fill:#000000;fill-rule:evenodd;stroke:none"
       d="m -346.5392,639.13176 c -0.0587,0.16673 -0.35528,0.25294 -0.88423,0.22408 -0.52896,-0.0289 -1.29052,-0.17513 -2.24482,-0.51006 -0.9543,-0.33494 -2.10131,-0.86191 -3.36557,-1.64562 -1.26425,-0.78372 -2.64552,-1.82805 -4.03481,-3.13629 -1.44,-1.34146 -2.9273,-2.9597 -4.38933,-4.86003 -1.46204,-1.90032 -2.89788,-4.08391 -4.25301,-6.50558 -2.22238,-3.9536 -4.31784,-8.58911 -6.01187,-13.85855 -1.69404,-5.26944 -2.98476,-11.17454 -3.6177,-17.54802 -0.57332,-5.52906 -0.74376,-11.58914 0.33884,-17.97859 0.73241,-4.30471 2.16752,-8.7226 4.58552,-12.8897 1.98882,-3.35945 4.50153,-6.35016 7.28149,-8.97054 2.61073,-2.46977 5.33521,-4.63295 7.89178,-6.75533 2.57273,-2.15419 5.03214,-4.3067 7.09315,-6.66635 2.26471,-2.57042 4.19413,-5.49597 5.63614,-8.66658 0.9402,-2.03655 1.69423,-4.20649 2.29801,-6.47247 0.59138,-2.21943 1.03166,-4.5022 1.36628,-6.80635 0.97634,-6.802 0.93069,-13.71733 0.54231,-20.51284 -0.20136,-4.19351 -1.15137,-8.3082 -2.49066,-12.31108 -1.33929,-4.00288 -3.06727,-7.89376 -4.8907,-11.6405 0,0 0,-10e-6 0,-10e-6 -2.18542,-4.42514 -4.56746,-8.64735 -6.90421,-12.74597 -2.33675,-4.09862 -4.62807,-8.07346 -6.71164,-11.95685 -2.41024,-4.43562 -4.57599,-8.8373 -6.22137,-13.1121 -1.64538,-4.2748 -2.77377,-8.42137 -3.35563,-12.3199 0,0 0,-1e-5 0,-1e-5 -0.71551,-4.88453 -0.42099,-9.31036 0.4057,-12.90038 0.51086,-2.18582 1.20235,-4.04113 1.91646,-5.58403 0.71411,-1.5429 1.45166,-2.77445 2.11122,-3.72304 1.31913,-1.89718 2.29139,-2.68103 2.61824,-2.48305 0.32685,0.19798 -0.001,1.36995 -0.61654,3.45538 -0.30772,1.04271 -0.68015,2.3178 -1.02075,3.82128 -0.3406,1.50347 -0.65012,3.23646 -0.78705,5.1763 -0.23741,3.18719 0.0147,6.98265 1.05417,11.13406 0,0 0,0 0,0 0.82938,3.36742 2.16192,6.93617 3.98435,10.70186 1.82243,3.76569 4.13836,7.72828 6.69396,11.93734 2.23484,3.63422 4.69396,7.42871 7.24011,11.46423 2.54615,4.03552 5.17942,8.31229 7.68083,12.95422 0,0 0,10e-6 0,10e-6 2.13415,3.90954 4.16067,8.1489 5.77902,12.72748 1.61835,4.57858 2.82791,9.49654 3.26227,14.74871 0.55233,7.18185 0.65156,14.76507 -0.40054,22.54462 -0.35521,2.65477 -0.87196,5.34399 -1.59769,8.02596 -0.74097,2.73824 -1.69074,5.43275 -2.88162,8.04079 -1.89575,4.10391 -4.39434,7.83775 -7.32535,11.09143 -2.66739,2.94059 -5.52345,5.405 -8.30339,7.6284 -2.72479,2.19686 -5.3228,4.1618 -7.55694,6.20047 -2.32763,2.13254 -4.35315,4.37066 -5.83656,6.77064 -1.87027,2.94592 -3.07198,6.3271 -3.81899,9.76117 -1.13318,5.20107 -1.19471,10.55425 -0.9693,15.70628 0.28053,5.84197 1.11133,11.30502 2.29763,16.24233 1.1863,4.93731 2.72693,9.35075 4.39542,13.19857 1.02209,2.34473 2.08035,4.46581 3.16077,6.34029 1.08043,1.87448 2.1822,3.50362 3.25941,4.90492 1.04942,1.34897 2.05884,2.49358 2.985,3.42921 0.92616,0.93562 1.76854,1.66613 2.47337,2.24406 0.70483,0.57792 1.2714,1.0066 1.6448,1.3413 0.37341,0.3347 0.55276,0.5777 0.49402,0.74443 z"
       id="path3814"
       inkscape:path-effect="#path-effect3816"
       inkscape:original-d="m -346.5392,639.13176 c -12.84966,-4.5274 -23.15056,-26.67536 -24.75588,-48.14259 -4.04579,-54.10219 42.46437,-27.36003 37.86195,-95.74425 -2.37802,-35.33322 -48.1024,-65.9159 -28.39648,-98.4489"
       inkscape:connector-curvature="0" />
    <text
       xml:space="preserve"
       style="font-size:46.22278976px;font-style:normal;font-variant:normal;font-weight:normal;font-stretch:normal;text-align:center;line-height:125%;letter-spacing:0px;word-spacing:0px;text-anchor:middle;fill:#000000;fill-opacity:1;stroke:none;font-family:ubuntu;-inkscape-font-specification:ubuntu"
       x="-158.65456"
       y="389.49594"
       id="text3818"
       sodipodi:linespacing="125%"><tspan
         sodipodi:role="line"
         id="tspan3820"
         x="-158.65456"
         y="389.49594">x</tspan></text>
    <text
       xml:space="preserve"
       style="font-size:46.22278976px;font-style:normal;font-variant:normal;font-weight:normal;font-stretch:normal;text-align:center;line-height:125%;letter-spacing:0px;word-spacing:0px;text-anchor:middle;fill:#000000;fill-opacity:1;stroke:none;font-family:ubuntu;-inkscape-font-specification:ubuntu"
       x="-158.65456"
       y="451.12634"
       id="text3822"
       sodipodi:linespacing="125%"><tspan
         sodipodi:role="line"
         id="tspan3824"
         x="-158.65456"
         y="451.12634">y</tspan></text>
    <text
       xml:space="preserve"
       style="font-size:46.22278976px;font-style:normal;font-variant:normal;font-weight:normal;font-stretch:normal;text-align:center;line-height:125%;letter-spacing:0px;word-spacing:0px;text-anchor:middle;fill:#000000;fill-opacity:1;stroke:none;font-family:ubuntu;-inkscape-font-specification:ubuntu"
       x="-158.65456"
       y="512.75671"
       id="text3826"
       sodipodi:linespacing="125%"><tspan
         sodipodi:role="line"
         id="tspan3828"
         x="-158.65456"
         y="512.75671">z</tspan></text>
    <rect
       style="opacity:0.6;fill:#00b700;fill-opacity:0.64383563;stroke:#000000;stroke-width:3.78654552;stroke-linecap:round;stroke-linejoin:round;stroke-miterlimit:4;stroke-opacity:0.44292238;stroke-dasharray:none;stroke-dashoffset:0"
       id="rect2987-9"
       width="321.85638"
       height="302.92365"
       x="-409.1655"
       y="683.15131" />
    <text
       xml:space="preserve"
       style="font-size:28.39909172px;font-style:normal;font-variant:normal;font-weight:normal;font-stretch:normal;text-align:center;line-height:125%;letter-spacing:0px;word-spacing:0px;text-anchor:middle;fill:#000000;fill-opacity:1;stroke:none;font-family:ubuntu;-inkscape-font-specification:ubuntu"
       x="-333.4346"
       y="721.01672"
       id="text3757-5"
       sodipodi:linespacing="125%"><tspan
         sodipodi:role="line"
         id="tspan3759-6"
         x="-333.4346"
         y="721.01672">$ python</tspan></text>
    <path
       style="fill:#000000;fill-rule:evenodd;stroke:none"
       d="m -327.60647,975.86385 c -0.0587,0.16673 -0.35528,0.25294 -0.88423,0.22408 -0.52896,-0.0289 -1.29052,-0.17513 -2.24482,-0.51006 -0.9543,-0.33494 -2.10131,-0.86191 -3.36557,-1.64562 -1.26425,-0.78372 -2.64552,-1.82805 -4.03481,-3.13629 -1.44,-1.34146 -2.9273,-2.9597 -4.38933,-4.86003 -1.46204,-1.90032 -2.89788,-4.08391 -4.25301,-6.50558 -2.22238,-3.9536 -4.31784,-8.58911 -6.01187,-13.85856 -1.69404,-5.26944 -2.98476,-11.17454 -3.6177,-17.54802 -0.57333,-5.52906 -0.74376,-11.58914 0.33883,-17.97859 0.73242,-4.30471 2.16753,-8.7226 4.58552,-12.88969 1.98883,-3.35946 4.50154,-6.35017 7.28149,-8.97054 2.61073,-2.46977 5.33522,-4.63295 7.89178,-6.75534 2.57273,-2.15418 5.03215,-4.30669 7.09315,-6.66634 2.26471,-2.57042 4.19413,-5.49597 5.63615,-8.66658 0.9402,-2.03655 1.69423,-4.20649 2.29801,-6.47247 0.59137,-2.21943 1.03165,-4.5022 1.36628,-6.80635 0.97634,-6.802 0.93069,-13.71733 0.54231,-20.51284 -0.20136,-4.19351 -1.15138,-8.3082 -2.49067,-12.31108 -1.33929,-4.00288 -3.06726,-7.89376 -4.89069,-11.6405 0,0 0,-10e-6 0,-10e-6 -2.18543,-4.42514 -4.56747,-8.64735 -6.90422,-12.74597 -2.33675,-4.09862 -4.62806,-8.07346 -6.71163,-11.95685 -2.41024,-4.43562 -4.576,-8.8373 -6.22137,-13.1121 -1.64538,-4.2748 -2.77377,-8.42138 -3.35563,-12.3199 0,0 0,-10e-6 -10e-6,-10e-6 -0.7155,-4.88453 -0.42098,-9.31036 0.40571,-12.90038 0.51085,-2.18582 1.20235,-4.04113 1.91646,-5.58403 0.71411,-1.5429 1.45166,-2.77445 2.11122,-3.72304 1.31913,-1.89718 2.29139,-2.68103 2.61824,-2.48305 0.32685,0.19798 -0.001,1.36995 -0.61654,3.45538 -0.30772,1.04271 -0.68015,2.3178 -1.02075,3.82128 -0.3406,1.50347 -0.65012,3.23646 -0.78705,5.1763 -0.23741,3.18719 0.0147,6.98265 1.05417,11.13406 0,0 0,0 0,0 0.82938,3.36742 2.16192,6.93617 3.98435,10.70186 1.82243,3.76569 4.13836,7.72829 6.69396,11.93734 2.23484,3.63422 4.69395,7.42871 7.2401,11.46423 2.54615,4.03552 5.17943,8.31229 7.68083,12.95422 0,0 10e-6,10e-6 10e-6,10e-6 2.13415,3.90954 4.16066,8.1489 5.77901,12.72748 1.61835,4.57858 2.82792,9.49654 3.26228,14.74871 0.55233,7.18185 0.65156,14.76508 -0.40054,22.54462 -0.35521,2.65477 -0.87196,5.34399 -1.5977,8.02596 -0.74096,2.73824 -1.69074,5.43275 -2.88161,8.04079 -1.89575,4.10391 -4.39435,7.83775 -7.32536,11.09143 -2.66739,2.94059 -5.52344,5.405 -8.30339,7.6284 -2.72479,2.19686 -5.3228,4.1618 -7.55694,6.20047 -2.32763,2.13254 -4.35315,4.37065 -5.83655,6.77063 -1.87028,2.94593 -3.07198,6.32711 -3.81899,9.76117 -1.13318,5.20107 -1.19471,10.55426 -0.9693,15.70628 0.28053,5.84197 1.11133,11.30502 2.29763,16.24234 1.1863,4.93731 2.72693,9.35075 4.39542,13.19857 1.02209,2.34473 2.08035,4.46581 3.16077,6.34029 1.08043,1.87448 2.1822,3.50362 3.25941,4.90492 1.04942,1.34897 2.05884,2.49358 2.985,3.42921 0.92616,0.93562 1.76854,1.66613 2.47337,2.24406 0.70483,0.57792 1.2714,1.0066 1.6448,1.3413 0.37341,0.3347 0.55276,0.5777 0.49402,0.74443 z"
       id="path3814-2"
       inkscape:path-effect="#path-effect3816-6"
       inkscape:original-d="m -327.60647,975.86385 c -12.84966,-4.5274 -23.15056,-26.67536 -24.75588,-48.1426 -4.0458,-54.10218 42.46436,-27.36002 37.86195,-95.74424 -2.37803,-35.33322 -48.1024,-65.9159 -28.39648,-98.4489"
       inkscape:connector-curvature="0" />
    <rect
       style="opacity:0.6;fill:#00b700;fill-opacity:0.64383563;stroke:#000000;stroke-width:3.78654552;stroke-linecap:round;stroke-linejoin:round;stroke-miterlimit:4;stroke-opacity:0.44292238;stroke-dasharray:none;stroke-dashoffset:0"
       id="rect2987-0"
       width="321.85638"
       height="302.92365"
       x="-30.510939"
       y="683.15131" />
    <text
       xml:space="preserve"
       style="font-size:28.39909172px;font-style:normal;font-variant:normal;font-weight:normal;font-stretch:normal;text-align:center;line-height:125%;letter-spacing:0px;word-spacing:0px;text-anchor:middle;fill:#000000;fill-opacity:1;stroke:none;font-family:ubuntu;-inkscape-font-specification:ubuntu"
       x="45.219975"
       y="721.01672"
       id="text3757-2"
       sodipodi:linespacing="125%"><tspan
         sodipodi:role="line"
         id="tspan3759-8"
         x="45.219978"
         y="721.01672">$ python</tspan></text>
    <path
       style="fill:#000000;fill-rule:evenodd;stroke:none"
       d="m 51.048093,975.86385 c -0.05874,0.16673 -0.355276,0.25294 -0.884231,0.22408 -0.528955,-0.0289 -1.290517,-0.17513 -2.24482,-0.51006 -0.954304,-0.33494 -2.101311,-0.86191 -3.365567,-1.64562 -1.264256,-0.78372 -2.645526,-1.82805 -4.034809,-3.13629 -1.440005,-1.34146 -2.927304,-2.9597 -4.389338,-4.86003 -1.462034,-1.90032 -2.897881,-4.08391 -4.253004,-6.50558 -2.222387,-3.9536 -4.317846,-8.58911 -6.011879,-13.85856 -1.694032,-5.26944 -2.984754,-11.17454 -3.617694,-17.54802 -0.573329,-5.52906 -0.743764,-11.58914 0.338832,-17.97859 0.732417,-4.30471 2.167523,-8.7226 4.585523,-12.88969 1.988825,-3.35946 4.501533,-6.35017 7.281491,-8.97054 2.610726,-2.46977 5.335212,-4.63295 7.891781,-6.75534 2.572725,-2.15418 5.032143,-4.30669 7.093149,-6.66634 2.264709,-2.57042 4.19413,-5.49597 5.636143,-8.66658 0.9402,-2.03655 1.69423,-4.20649 2.29801,-6.47247 0.591374,-2.21943 1.031654,-4.5022 1.366277,-6.80635 0.976343,-6.802 0.930691,-13.71733 0.542313,-20.51284 -0.201359,-4.19351 -1.151375,-8.3082 -2.490666,-12.31108 -1.339291,-4.00288 -3.067262,-7.89376 -4.890692,-11.6405 -2e-6,0 -3e-6,-10e-6 -4e-6,-10e-6 -2.185423,-4.42514 -4.567462,-8.64735 -6.904213,-12.74597 -2.336751,-4.09862 -4.628065,-8.07346 -6.711636,-11.95685 -2.41024,-4.43562 -4.575995,-8.8373 -6.221371,-13.1121 -1.645375,-4.2748 -2.773772,-8.42137 -3.355632,-12.3199 0,0 0,-10e-6 -1e-6,-10e-6 -0.715502,-4.88453 -0.420989,-9.31036 0.40571,-12.90038 0.510851,-2.18582 1.202343,-4.04113 1.916455,-5.58403 0.714111,-1.5429 1.45166,-2.77445 2.111224,-3.72304 1.319129,-1.89718 2.291391,-2.68103 2.618237,-2.48305 0.326846,0.19798 -0.0011,1.36995 -0.616542,3.45538 -0.307721,1.04271 -0.680149,2.3178 -1.020746,3.82128 -0.340598,1.50347 -0.650125,3.23646 -0.787056,5.1763 -0.23741,3.18719 0.01467,6.98265 1.054176,11.13406 0,0 0,0 1e-6,0 0.829372,3.36742 2.161919,6.93617 3.984348,10.70186 1.822429,3.76569 4.138355,7.72829 6.693959,11.93734 2.23484,3.63422 4.693955,7.42871 7.240105,11.46423 2.54615,4.03552 5.179423,8.31229 7.680828,12.95422 1e-6,0 3e-6,10e-6 5e-6,10e-6 2.134148,3.90954 4.160665,8.1489 5.779015,12.72748 1.61835,4.57858 2.827912,9.49654 3.262275,14.74871 0.552331,7.18185 0.651558,14.76508 -0.400537,22.54462 -0.355211,2.65477 -0.87196,5.34399 -1.597699,8.02597 -0.740963,2.73823 -1.690741,5.43274 -2.881615,8.04078 -1.89575,4.10391 -4.39434,7.83775 -7.325354,11.09143 -2.667389,2.94059 -5.523445,5.405 -8.303388,7.6284 -2.724789,2.19686 -5.3228,4.1618 -7.556939,6.20047 -2.327632,2.13254 -4.353151,4.37065 -5.836557,6.77063 -1.870275,2.94593 -3.071983,6.32711 -3.818995,9.76117 -1.133174,5.20107 -1.19471,10.55426 -0.969302,15.70628 0.280534,5.84197 1.111338,11.30502 2.297638,16.24234 1.1863,4.93731 2.726926,9.35075 4.395422,13.19857 1.022084,2.34473 2.08035,4.46581 3.160773,6.34029 1.080424,1.87448 2.182198,3.50362 3.259408,4.90492 1.049415,1.34897 2.058835,2.49358 2.984998,3.42921 0.926163,0.93562 1.768538,1.66613 2.473368,2.24406 0.704829,0.57792 1.2714,1.0066 1.644805,1.3413 0.373406,0.3347 0.552762,0.5777 0.494018,0.74443 z"
       id="path3814-29"
       inkscape:path-effect="#path-effect3816-2"
       inkscape:original-d="M 51.048093,975.86385 C 38.198431,971.33645 27.897532,949.18849 26.292207,927.72125 22.246415,873.61907 68.756574,900.36123 64.15416,831.97701 61.776134,796.64379 16.051759,766.06111 35.757681,733.52811"
       inkscape:connector-curvature="0" />
    <rect
       style="opacity:0.6;fill:#00b700;fill-opacity:0.64383563;stroke:#000000;stroke-width:3.78654552;stroke-linecap:round;stroke-linejoin:round;stroke-miterlimit:4;stroke-opacity:0.44292238;stroke-dasharray:none;stroke-dashoffset:0"
       id="rect2987-4"
       width="321.85638"
       height="302.92365"
       x="348.14362"
       y="683.15131" />
    <text
       xml:space="preserve"
       style="font-size:28.39909172px;font-style:normal;font-variant:normal;font-weight:normal;font-stretch:normal;text-align:center;line-height:125%;letter-spacing:0px;word-spacing:0px;text-anchor:middle;fill:#000000;fill-opacity:1;stroke:none;font-family:ubuntu;-inkscape-font-specification:ubuntu"
       x="423.87454"
       y="721.01672"
       id="text3757-4"
       sodipodi:linespacing="125%"><tspan
         sodipodi:role="line"
         id="tspan3759-3"
         x="423.87454"
         y="721.01672">$ python</tspan></text>
    <path
       style="fill:#000000;fill-rule:evenodd;stroke:none"
       d="m 429.70265,975.86385 c -0.0587,0.16673 -0.35528,0.25294 -0.88423,0.22408 -0.52896,-0.0289 -1.29052,-0.17513 -2.24482,-0.51006 -0.9543,-0.33494 -2.10131,-0.86191 -3.36557,-1.64562 -1.26425,-0.78372 -2.64552,-1.82805 -4.03481,-3.13629 -1.44,-1.34146 -2.9273,-2.9597 -4.38933,-4.86003 -1.46204,-1.90032 -2.89788,-4.08391 -4.25301,-6.50558 -2.22238,-3.9536 -4.31784,-8.58911 -6.01187,-13.85856 -1.69404,-5.26944 -2.98476,-11.17454 -3.6177,-17.54802 -0.57333,-5.52906 -0.74376,-11.58914 0.33884,-17.97859 0.73241,-4.30471 2.16752,-8.7226 4.58552,-12.88969 1.98882,-3.35946 4.50153,-6.35017 7.28149,-8.97054 2.61072,-2.46977 5.33521,-4.63295 7.89178,-6.75533 2.57272,-2.15419 5.03214,-4.3067 7.09315,-6.66635 2.26471,-2.57042 4.19413,-5.49597 5.63614,-8.66658 0.9402,-2.03655 1.69423,-4.20649 2.29801,-6.47248 0.59137,-2.21942 1.03165,-4.50219 1.36628,-6.80634 0.97634,-6.802 0.93069,-13.71733 0.54231,-20.51284 -0.20136,-4.19351 -1.15138,-8.3082 -2.49067,-12.31108 -1.33929,-4.00288 -3.06726,-7.89376 -4.89069,-11.6405 0,0 0,-10e-6 0,-10e-6 -2.18543,-4.42514 -4.56747,-8.64735 -6.90422,-12.74597 -2.33675,-4.09862 -4.62806,-8.07346 -6.71163,-11.95685 -2.41024,-4.43562 -4.576,-8.8373 -6.22137,-13.1121 -1.64538,-4.2748 -2.77377,-8.42138 -3.35563,-12.3199 0,0 0,-10e-6 -10e-6,-10e-6 -0.7155,-4.88453 -0.42098,-9.31036 0.40571,-12.90038 0.51085,-2.18582 1.20235,-4.04113 1.91646,-5.58403 0.71411,-1.5429 1.45166,-2.77445 2.11122,-3.72304 1.31913,-1.89718 2.29139,-2.68103 2.61824,-2.48305 0.32685,0.19798 -0.001,1.36995 -0.61654,3.45538 -0.30772,1.04271 -0.68015,2.3178 -1.02075,3.82128 -0.3406,1.50347 -0.65012,3.23646 -0.78705,5.1763 -0.23741,3.18719 0.0147,6.98265 1.05417,11.13406 0,0 0,0 0,0 0.82938,3.36742 2.16192,6.93617 3.98435,10.70186 1.82243,3.76569 4.13836,7.72829 6.69396,11.93734 2.23484,3.63422 4.69395,7.42871 7.2401,11.46423 2.54615,4.03552 5.17943,8.31229 7.68083,12.95422 0,0 1e-5,10e-6 1e-5,10e-6 2.13415,3.90954 4.16066,8.1489 5.77901,12.72748 1.61835,4.57858 2.82792,9.49654 3.26228,14.74871 0.55233,7.18185 0.65156,14.76508 -0.40054,22.54462 -0.35521,2.65477 -0.87196,5.34399 -1.5977,8.02596 -0.74096,2.73824 -1.69074,5.43275 -2.88161,8.04079 -1.89575,4.10391 -4.39434,7.83775 -7.32536,11.09143 -2.66738,2.94059 -5.52344,5.405 -8.30338,7.6284 -2.72479,2.19686 -5.3228,4.1618 -7.55694,6.20047 -2.32763,2.13254 -4.35315,4.37065 -5.83656,6.77063 -1.87027,2.94593 -3.07198,6.32711 -3.81899,9.76117 -1.13318,5.20107 -1.19471,10.55426 -0.9693,15.70628 0.28053,5.84197 1.11133,11.30502 2.29763,16.24234 1.1863,4.93731 2.72693,9.35075 4.39542,13.19857 1.02209,2.34473 2.08035,4.46581 3.16077,6.34029 1.08043,1.87448 2.1822,3.50362 3.25941,4.90492 1.04942,1.34897 2.05884,2.49358 2.985,3.42921 0.92616,0.93562 1.76854,1.66613 2.47337,2.24406 0.70483,0.57792 1.2714,1.0066 1.6448,1.3413 0.37341,0.3347 0.55276,0.5777 0.49402,0.74443 z"
       id="path3814-9"
       inkscape:path-effect="#path-effect3816-9"
       inkscape:original-d="m 429.70265,975.86385 c -12.84966,-4.5274 -23.15056,-26.67536 -24.75588,-48.1426 -4.04579,-54.10218 42.46436,-27.36002 37.86195,-95.74424 -2.37803,-35.33322 -48.1024,-65.9159 -28.39648,-98.4489"
       inkscape:connector-curvature="0" />
    <path
       style="fill:#000000;fill-rule:evenodd;stroke:none"
       d="m -289.74101,635.07474 c -0.0587,0.16673 -0.35528,0.25294 -0.88423,0.22408 -0.52896,-0.0289 -1.29052,-0.17513 -2.24482,-0.51006 -0.9543,-0.33494 -2.10131,-0.86191 -3.36557,-1.64562 -1.26425,-0.78372 -2.64552,-1.82805 -4.03481,-3.13629 -1.44,-1.34146 -2.9273,-2.9597 -4.38933,-4.86003 -1.46204,-1.90032 -2.89788,-4.08391 -4.25301,-6.50558 -2.22239,-3.9536 -4.31784,-8.58911 -6.01188,-13.85855 -1.69403,-5.26944 -2.98475,-11.17454 -3.6177,-17.54802 -0.57332,-5.52906 -0.74376,-11.58914 0.33884,-17.97859 0.73241,-4.30471 2.16752,-8.7226 4.58552,-12.88969 1.98883,-3.35946 4.50153,-6.35017 7.28149,-8.97055 2.61073,-2.46977 5.33521,-4.63294 7.89178,-6.75533 2.57273,-2.15418 5.03215,-4.3067 7.09315,-6.66635 2.26471,-2.57042 4.19413,-5.49597 5.63615,-8.66658 0.9402,-2.03655 1.69423,-4.20648 2.29801,-6.47247 0.59137,-2.21943 1.03165,-4.5022 1.36628,-6.80635 0.97634,-6.802 0.93069,-13.71733 0.54231,-20.51284 -0.20136,-4.19351 -1.15138,-8.3082 -2.49067,-12.31108 -1.33929,-4.00288 -3.06726,-7.89376 -4.89069,-11.6405 0,0 0,0 -10e-6,-1e-5 -2.18542,-4.42514 -4.56746,-8.64735 -6.90421,-12.74597 -2.33675,-4.09862 -4.62806,-8.07345 -6.71164,-11.95685 -2.41024,-4.43561 -4.57599,-8.8373 -6.22137,-13.1121 -1.64537,-4.2748 -2.77377,-8.42137 -3.35563,-12.3199 0,0 0,0 0,0 -0.7155,-4.88453 -0.42099,-9.31036 0.40571,-12.90038 0.51085,-2.18582 1.20235,-4.04113 1.91646,-5.58403 0.71411,-1.5429 1.45166,-2.77445 2.11122,-3.72304 1.31913,-1.89718 2.29139,-2.68103 2.61824,-2.48305 0.32685,0.19798 -0.001,1.36995 -0.61654,3.45538 -0.30772,1.04271 -0.68015,2.3178 -1.02075,3.82128 -0.3406,1.50347 -0.65013,3.23646 -0.78706,5.1763 -0.23741,3.18719 0.0147,6.98265 1.05418,11.13405 0,0 0,10e-6 0,10e-6 0.82937,3.36741 2.16192,6.93616 3.98435,10.70185 1.82243,3.7657 4.13835,7.72829 6.69396,11.93734 2.23484,3.63422 4.69395,7.42871 7.2401,11.46423 2.54615,4.03552 5.17942,8.31229 7.68083,12.95422 0,0 0,1e-5 10e-6,1e-5 2.13414,3.90954 4.16066,8.1489 5.77901,12.72748 1.61835,4.57858 2.82792,9.49654 3.26228,14.74871 0.55233,7.18185 0.65156,14.76508 -0.40054,22.54462 -0.35521,2.65477 -0.87196,5.34399 -1.5977,8.02597 -0.74096,2.73824 -1.69074,5.43274 -2.88161,8.04078 -1.89575,4.10391 -4.39435,7.83776 -7.32536,11.09143 -2.66739,2.94059 -5.52345,5.40501 -8.30339,7.6284 -2.72479,2.19687 -5.3228,4.16181 -7.55694,6.20048 -2.32763,2.13253 -4.35315,4.37065 -5.83656,6.77063 -1.87027,2.94593 -3.07198,6.32711 -3.81899,9.76117 -1.13318,5.20107 -1.19471,10.55425 -0.9693,15.70628 0.28053,5.84197 1.11134,11.30502 2.29764,16.24233 1.1863,4.93731 2.72692,9.35075 4.39542,13.19857 1.02208,2.34473 2.08035,4.46581 3.16077,6.34029 1.08043,1.87448 2.1822,3.50362 3.25941,4.90492 1.04942,1.34897 2.05884,2.49358 2.985,3.42921 0.92616,0.93562 1.76854,1.66613 2.47337,2.24406 0.70483,0.57792 1.2714,1.0066 1.6448,1.3413 0.37341,0.3347 0.55276,0.5777 0.49402,0.74443 z"
       id="path3814-0"
       inkscape:path-effect="#path-effect3816-5"
       inkscape:original-d="m -289.74101,635.07474 c -12.84966,-4.5274 -23.15056,-26.67536 -24.75589,-48.14259 -4.04579,-54.10218 42.46437,-27.36003 37.86196,-95.74425 -2.37803,-35.33322 -48.10241,-65.9159 -28.39648,-98.44889"
       inkscape:connector-curvature="0" />
    <path
       style="fill:#000000;fill-rule:evenodd;stroke:none"
       d="m -231.59048,635.07474 c -0.0587,0.16673 -0.35528,0.25294 -0.88423,0.22408 -0.52896,-0.0289 -1.29052,-0.17513 -2.24482,-0.51006 -0.9543,-0.33494 -2.10131,-0.86191 -3.36557,-1.64562 -1.26425,-0.78372 -2.64552,-1.82805 -4.03481,-3.13629 -1.44,-1.34146 -2.9273,-2.9597 -4.38933,-4.86003 -1.46204,-1.90032 -2.89788,-4.08391 -4.25301,-6.50558 -2.22239,-3.9536 -4.31784,-8.58911 -6.01188,-13.85855 -1.69403,-5.26944 -2.98475,-11.17454 -3.6177,-17.54802 -0.57332,-5.52906 -0.74376,-11.58914 0.33884,-17.97859 0.73241,-4.30471 2.16752,-8.7226 4.58552,-12.88969 1.98883,-3.35946 4.50153,-6.35017 7.28149,-8.97055 2.61073,-2.46977 5.33521,-4.63294 7.89178,-6.75533 2.57273,-2.15418 5.03215,-4.3067 7.09315,-6.66635 2.26471,-2.57042 4.19413,-5.49597 5.63615,-8.66658 0.9402,-2.03655 1.69423,-4.20648 2.29801,-6.47247 0.59137,-2.21943 1.03165,-4.5022 1.36628,-6.80635 0.97634,-6.802 0.93069,-13.71733 0.54231,-20.51284 -0.20136,-4.19351 -1.15138,-8.3082 -2.49067,-12.31108 -1.33929,-4.00288 -3.06726,-7.89376 -4.89069,-11.6405 0,0 0,0 -1e-5,-1e-5 -2.18542,-4.42514 -4.56746,-8.64735 -6.90421,-12.74597 -2.33675,-4.09862 -4.62806,-8.07345 -6.71164,-11.95685 -2.41024,-4.43561 -4.57599,-8.8373 -6.22137,-13.1121 -1.64537,-4.2748 -2.77377,-8.42137 -3.35563,-12.3199 0,0 0,0 0,0 -0.7155,-4.88453 -0.42099,-9.31036 0.40571,-12.90038 0.51085,-2.18582 1.20235,-4.04113 1.91646,-5.58403 0.71411,-1.5429 1.45166,-2.77445 2.11122,-3.72304 1.31913,-1.89718 2.29139,-2.68103 2.61824,-2.48305 0.32685,0.19798 -0.001,1.36995 -0.61654,3.45538 -0.30772,1.04271 -0.68015,2.3178 -1.02075,3.82128 -0.3406,1.50347 -0.65013,3.23646 -0.78706,5.1763 -0.23741,3.18719 0.0147,6.98265 1.05418,11.13405 0,0 0,10e-6 0,10e-6 0.82937,3.36741 2.16192,6.93616 3.98435,10.70185 1.82243,3.7657 4.13835,7.72829 6.69396,11.93734 2.23484,3.63422 4.69395,7.42871 7.2401,11.46423 2.54615,4.03552 5.17942,8.31229 7.68083,12.95422 0,0 0,1e-5 10e-6,1e-5 2.13414,3.90954 4.16066,8.1489 5.77901,12.72748 1.61835,4.57858 2.82792,9.49654 3.26228,14.74871 0.55233,7.18185 0.65156,14.76508 -0.40054,22.54462 -0.35521,2.65477 -0.87196,5.34399 -1.5977,8.02597 -0.74096,2.73824 -1.69074,5.43274 -2.88161,8.04078 -1.89575,4.10391 -4.39435,7.83776 -7.32536,11.09143 -2.66739,2.94059 -5.52345,5.40501 -8.30339,7.6284 -2.72479,2.19687 -5.3228,4.16181 -7.55694,6.20048 -2.32763,2.13253 -4.35315,4.37065 -5.83656,6.77063 -1.87027,2.94593 -3.07198,6.32711 -3.81899,9.76117 -1.13318,5.20107 -1.19471,10.55425 -0.9693,15.70628 0.28053,5.84197 1.11134,11.30502 2.29764,16.24233 1.1863,4.93731 2.72692,9.35075 4.39542,13.19857 1.02208,2.34473 2.08035,4.46581 3.16077,6.34029 1.08043,1.87448 2.1822,3.50362 3.25941,4.90492 1.04942,1.34897 2.05884,2.49358 2.985,3.42921 0.92616,0.93562 1.76854,1.66613 2.47337,2.24406 0.70483,0.57792 1.2714,1.0066 1.6448,1.3413 0.37341,0.3347 0.55276,0.5777 0.49402,0.74443 z"
       id="path3814-3"
       inkscape:path-effect="#path-effect3816-8"
       inkscape:original-d="m -231.59048,635.07474 c -12.84966,-4.5274 -23.15056,-26.67536 -24.75589,-48.14259 -4.04579,-54.10218 42.46437,-27.36003 37.86196,-95.74425 -2.37803,-35.33322 -48.10241,-65.9159 -28.39648,-98.44889"
       inkscape:connector-curvature="0" />
    <text
       xml:space="preserve"
       style="font-size:46.22278976px;font-style:normal;font-variant:normal;font-weight:normal;font-stretch:normal;text-align:center;line-height:125%;letter-spacing:0px;word-spacing:0px;text-anchor:middle;fill:#000000;fill-opacity:1;stroke:none;font-family:ubuntu;-inkscape-font-specification:ubuntu"
       x="-158.65456"
       y="730.28503"
       id="text3818-96"
       sodipodi:linespacing="125%"><tspan
         sodipodi:role="line"
         id="tspan3820-1"
         x="-158.65456"
         y="730.28503">x</tspan></text>
    <text
       xml:space="preserve"
       style="font-size:46.22278976px;font-style:normal;font-variant:normal;font-weight:normal;font-stretch:normal;text-align:center;line-height:125%;letter-spacing:0px;word-spacing:0px;text-anchor:middle;fill:#000000;fill-opacity:1;stroke:none;font-family:ubuntu;-inkscape-font-specification:ubuntu"
       x="220"
       y="791.91547"
       id="text3822-0"
       sodipodi:linespacing="125%"><tspan
         sodipodi:role="line"
         id="tspan3824-6"
         x="220"
         y="791.91547">y</tspan></text>
    <text
       xml:space="preserve"
       style="font-size:46.22278976px;font-style:normal;font-variant:normal;font-weight:normal;font-stretch:normal;text-align:center;line-height:125%;letter-spacing:0px;word-spacing:0px;text-anchor:middle;fill:#000000;fill-opacity:1;stroke:none;font-family:ubuntu;-inkscape-font-specification:ubuntu"
       x="617.58728"
       y="853.54584"
       id="text3826-74"
       sodipodi:linespacing="125%"><tspan
         sodipodi:role="line"
         id="tspan3828-51"
         x="617.58728"
         y="853.54584">z</tspan></text>
    <rect
       style="opacity:0.6;fill:#00b700;fill-opacity:0.64383563;stroke:#000000;stroke-width:3.78654552;stroke-linecap:round;stroke-linejoin:round;stroke-miterlimit:4;stroke-opacity:0.44292238;stroke-dasharray:none;stroke-dashoffset:0"
       id="rect2987-8"
       width="160.92819"
       height="123.06273"
       x="58.804474"
       y="422.68692" />
    <path
       style="fill:#000000;fill-rule:evenodd;stroke:none"
       d="m 431.055,616.14202 c -0.0587,0.16673 -0.35528,0.25294 -0.88423,0.22408 -0.52896,-0.0289 -1.29052,-0.17513 -2.24482,-0.51007 -0.9543,-0.33493 -2.10131,-0.8619 -3.36557,-1.64562 -1.26425,-0.78371 -2.64552,-1.82805 -4.03481,-3.13629 -1.44,-1.34146 -2.9273,-2.9597 -4.38933,-4.86002 -1.46204,-1.90033 -2.89788,-4.08391 -4.25301,-6.50559 -2.22239,-3.9536 -4.31784,-8.58911 -6.01188,-13.85855 -1.69403,-5.26944 -2.98475,-11.17454 -3.6177,-17.54802 -0.57332,-5.52906 -0.74376,-11.58914 0.33884,-17.97859 0.73241,-4.30471 2.16752,-8.7226 4.58552,-12.88969 1.98883,-3.35946 4.50153,-6.35017 7.28149,-8.97055 2.61073,-2.46977 5.33521,-4.63294 7.89178,-6.75533 2.57273,-2.15418 5.03215,-4.3067 7.09315,-6.66635 2.26471,-2.57041 4.19413,-5.49597 5.63615,-8.66657 0.9402,-2.03655 1.69423,-4.20649 2.29801,-6.47247 0.59137,-2.21943 1.03165,-4.50221 1.36628,-6.80635 0.97634,-6.802 0.93069,-13.71733 0.54231,-20.51284 -0.20136,-4.19351 -1.15138,-8.3082 -2.49067,-12.31108 -1.33929,-4.00288 -3.06726,-7.89377 -4.89069,-11.64051 0,0 0,0 0,0 -2.18543,-4.42515 -4.56747,-8.64736 -6.90422,-12.74598 -2.33675,-4.09862 -4.62806,-8.07345 -6.71163,-11.95685 -2.41024,-4.43561 -4.576,-8.8373 -6.22137,-13.1121 -1.64538,-4.2748 -2.77377,-8.42137 -3.35563,-12.3199 0,0 0,0 0,0 -0.71551,-4.88453 -0.42099,-9.31036 0.4057,-12.90038 0.51086,-2.18582 1.20235,-4.04113 1.91646,-5.58403 0.71411,-1.5429 1.45166,-2.77445 2.11122,-3.72304 1.31913,-1.89718 2.29139,-2.68103 2.61824,-2.48305 0.32685,0.19798 -0.001,1.36995 -0.61654,3.45538 -0.30772,1.04271 -0.68015,2.3178 -1.02075,3.82128 -0.3406,1.50347 -0.65012,3.23646 -0.78705,5.1763 -0.23741,3.18719 0.0147,6.98265 1.05417,11.13405 0,0 0,1e-5 0,1e-5 0.82938,3.36741 2.16192,6.93616 3.98435,10.70185 1.82243,3.7657 4.13836,7.72829 6.69396,11.93735 2.23484,3.63421 4.69395,7.4287 7.2401,11.46422 2.54615,4.03552 5.17943,8.3123 7.68083,12.95423 0,0 1e-5,0 1e-5,0 2.13415,3.90955 4.16066,8.14891 5.77901,12.72749 1.61835,4.57858 2.82792,9.49654 3.26228,14.74871 0.55233,7.18185 0.65156,14.76507 -0.40054,22.54462 -0.35521,2.65477 -0.87196,5.34399 -1.5977,8.02597 -0.74096,2.73823 -1.69074,5.43274 -2.88162,8.04078 -1.89575,4.10391 -4.39434,7.83775 -7.32535,11.09142 -2.66739,2.9406 -5.52345,5.40501 -8.30339,7.6284 -2.72479,2.19687 -5.3228,4.16181 -7.55694,6.20048 -2.32763,2.13254 -4.35315,4.37065 -5.83656,6.77063 -1.87027,2.94593 -3.07198,6.32711 -3.81899,9.76117 -1.13318,5.20107 -1.19471,10.55425 -0.9693,15.70628 0.28053,5.84197 1.11134,11.30502 2.29764,16.24233 1.1863,4.93731 2.72692,9.35075 4.39542,13.19857 1.02208,2.34474 2.08035,4.46581 3.16077,6.34029 1.08043,1.87448 2.1822,3.50362 3.25941,4.90492 1.04942,1.34897 2.05884,2.49358 2.985,3.42921 0.92616,0.93563 1.76854,1.66614 2.47337,2.24407 0.70483,0.57792 1.2714,1.0066 1.6448,1.3413 0.37341,0.3347 0.55276,0.5777 0.49402,0.74443 z"
       id="path3814-3-4"
       inkscape:path-effect="#path-effect3816-8-2"
       inkscape:original-d="m 431.055,616.14202 c -12.84966,-4.52741 -23.15056,-26.67537 -24.75589,-48.1426 -4.04579,-54.10218 42.46437,-27.36003 37.86196,-95.74424 -2.37803,-35.33323 -48.1024,-65.91591 -28.39648,-98.4489"
       inkscape:connector-curvature="0" />
    <text
       xml:space="preserve"
       style="font-size:28.39909172px;font-style:normal;font-variant:normal;font-weight:normal;font-stretch:normal;text-align:center;line-height:125%;letter-spacing:0px;word-spacing:0px;text-anchor:middle;fill:#000000;fill-opacity:1;stroke:none;font-family:ubuntu;-inkscape-font-specification:ubuntu"
       x="139.88362"
       y="493.82401"
       id="text3082"
       sodipodi:linespacing="125%"><tspan
         sodipodi:role="line"
         id="tspan3084"
         x="139.88362"
         y="493.82401">Process</tspan></text>
    <text
       xml:space="preserve"
       style="font-size:28.39909172px;font-style:normal;font-variant:normal;font-weight:normal;font-stretch:normal;text-align:center;line-height:125%;letter-spacing:0px;word-spacing:0px;text-anchor:middle;fill:#000000;fill-opacity:1;stroke:none;font-family:ubuntu;-inkscape-font-specification:ubuntu"
       x="509.07181"
       y="493.82401"
       id="text3082-7"
       sodipodi:linespacing="125%"><tspan
         sodipodi:role="line"
         id="tspan3084-5"
         x="509.07181"
         y="493.82401">Thread</tspan></text>
  </g>
</svg>
