<?xml version="1.0" encoding="UTF-8" standalone="no"?>
<!DOCTYPE svg PUBLIC "-//W3C//DTD SVG 1.1//EN"
 "http://www.w3.org/Graphics/SVG/1.1/DTD/svg11.dtd">
<!-- Generated by graphviz version 2.38.0 (20140413.2041)
 -->
<!-- Title: %3 Pages: 1 -->
<svg width="903pt" height="686pt"
 viewBox="0.00 0.00 903.18 685.89" xmlns="http://www.w3.org/2000/svg" xmlns:xlink="http://www.w3.org/1999/xlink">
<g id="graph0" class="graph" transform="scale(1 1) rotate(0) translate(4 681.894)">
<title>%3</title>
<polygon fill="none" stroke="none" points="-4,4 -4,-681.894 899.178,-681.894 899.178,4 -4,4"/>
<!-- 5033153742278144192 -->
<g id="node1" class="node"><title>5033153742278144192</title>
<polygon fill="none" stroke="white" points="532.086,-178.447 478.086,-178.447 478.086,-142.447 532.086,-142.447 532.086,-178.447"/>
<text text-anchor="middle" x="505.086" y="-156.747" font-family="Times,serif" font-size="14.00" fill="white">add&#45;#0</text>
</g>
<!-- 3105280829635306666 -->
<g id="node44" class="node"><title>3105280829635306666</title>
<ellipse fill="none" stroke="white" cx="594.984" cy="-252.447" rx="23.2963" ry="23.2963"/>
<text text-anchor="middle" x="594.984" y="-248.747" font-family="Times,serif" font-size="14.00" fill="white">add</text>
</g>
<!-- 5033153742278144192&#45;&gt;3105280829635306666 -->
<g id="edge41" class="edge"><title>5033153742278144192&#45;&gt;3105280829635306666</title>
<path fill="none" stroke="white" d="M523.452,-178.623C537.124,-192.934 556.295,-213 571.2,-228.6"/>
<polygon fill="white" stroke="white" points="568.693,-231.042 578.131,-235.855 573.754,-226.206 568.693,-231.042"/>
</g>
<!-- 3317184059316986433 -->
<g id="node2" class="node"><title>3317184059316986433</title>
<ellipse fill="none" stroke="white" cx="415.188" cy="-121.447" rx="23.2963" ry="23.2963"/>
<text text-anchor="middle" x="415.188" y="-117.747" font-family="Times,serif" font-size="14.00" fill="white">add</text>
</g>
<!-- 3317184059316986433&#45;&gt;5033153742278144192 -->
<g id="edge1" class="edge"><title>3317184059316986433&#45;&gt;5033153742278144192</title>
<path fill="none" stroke="white" d="M437.019,-130.689C446.521,-134.905 458.038,-140.016 468.828,-144.803"/>
<polygon fill="white" stroke="white" points="467.494,-148.04 478.054,-148.897 470.333,-141.642 467.494,-148.04"/>
</g>
<!-- &#45;1527101718114813662 -->
<g id="node3" class="node"><title>&#45;1527101718114813662</title>
<polygon fill="none" stroke="white" points="352.29,-139.447 281.29,-139.447 281.29,-103.447 352.29,-103.447 352.29,-139.447"/>
<text text-anchor="middle" x="316.79" y="-117.747" font-family="Times,serif" font-size="14.00" fill="white">double&#45;#1</text>
</g>
<!-- &#45;1527101718114813662&#45;&gt;3317184059316986433 -->
<g id="edge2" class="edge"><title>&#45;1527101718114813662&#45;&gt;3317184059316986433</title>
<path fill="none" stroke="white" d="M352.32,-121.447C361.819,-121.447 372.09,-121.447 381.483,-121.447"/>
<polygon fill="white" stroke="white" points="381.626,-124.947 391.626,-121.447 381.626,-117.947 381.626,-124.947"/>
</g>
<!-- &#45;4206772295845858554 -->
<g id="node4" class="node"><title>&#45;4206772295845858554</title>
<polygon fill="none" stroke="white" points="352.29,-69.4469 281.29,-69.4469 281.29,-33.4469 352.29,-33.4469 352.29,-69.4469"/>
<text text-anchor="middle" x="316.79" y="-47.7469" font-family="Times,serif" font-size="14.00" fill="white">double&#45;#2</text>
</g>
<!-- &#45;4206772295845858554&#45;&gt;3317184059316986433 -->
<g id="edge3" class="edge"><title>&#45;4206772295845858554&#45;&gt;3317184059316986433</title>
<path fill="none" stroke="white" d="M342.615,-69.4737C356.382,-79.4705 373.505,-91.9049 387.551,-102.105"/>
<polygon fill="white" stroke="white" points="385.694,-105.081 395.842,-108.125 389.807,-99.4168 385.694,-105.081"/>
</g>
<!-- &#45;2714726870768624736 -->
<g id="node5" class="node"><title>&#45;2714726870768624736</title>
<polygon fill="none" stroke="white" points="352.29,-644.447 281.29,-644.447 281.29,-608.447 352.29,-608.447 352.29,-644.447"/>
<text text-anchor="middle" x="316.79" y="-622.747" font-family="Times,serif" font-size="14.00" fill="white">double&#45;#3</text>
</g>
<!-- 6913068728211078762 -->
<g id="node16" class="node"><title>6913068728211078762</title>
<ellipse fill="none" stroke="white" cx="415.188" cy="-556.447" rx="23.2963" ry="23.2963"/>
<text text-anchor="middle" x="415.188" y="-552.747" font-family="Times,serif" font-size="14.00" fill="white">add</text>
</g>
<!-- &#45;2714726870768624736&#45;&gt;6913068728211078762 -->
<g id="edge12" class="edge"><title>&#45;2714726870768624736&#45;&gt;6913068728211078762</title>
<path fill="none" stroke="white" d="M342.615,-608.42C356.382,-598.423 373.505,-585.989 387.551,-575.789"/>
<polygon fill="white" stroke="white" points="389.807,-578.477 395.842,-569.769 385.694,-572.813 389.807,-578.477"/>
</g>
<!-- &#45;2678250565958506975 -->
<g id="node6" class="node"><title>&#45;2678250565958506975</title>
<ellipse fill="none" stroke="white" cx="207.343" cy="-643.447" rx="34.394" ry="34.394"/>
<text text-anchor="middle" x="207.343" y="-639.747" font-family="Times,serif" font-size="14.00" fill="white">double</text>
</g>
<!-- &#45;2678250565958506975&#45;&gt;&#45;2714726870768624736 -->
<g id="edge4" class="edge"><title>&#45;2678250565958506975&#45;&gt;&#45;2714726870768624736</title>
<path fill="none" stroke="white" d="M241.457,-638.208C250.793,-636.731 261.108,-635.099 271.006,-633.533"/>
<polygon fill="white" stroke="white" points="271.781,-636.954 281.111,-631.934 270.687,-630.04 271.781,-636.954"/>
</g>
<!-- &#45;6361786870872840242 -->
<g id="node7" class="node"><title>&#45;6361786870872840242</title>
<polygon fill="none" stroke="white" points="134.896,-661.447 80.8962,-661.447 80.8962,-625.447 134.896,-625.447 134.896,-661.447"/>
<text text-anchor="middle" x="107.896" y="-639.747" font-family="Times,serif" font-size="14.00" fill="white">inc&#45;#4</text>
</g>
<!-- &#45;6361786870872840242&#45;&gt;&#45;2678250565958506975 -->
<g id="edge5" class="edge"><title>&#45;6361786870872840242&#45;&gt;&#45;2678250565958506975</title>
<path fill="none" stroke="white" d="M135.01,-643.447C143.539,-643.447 153.255,-643.447 162.713,-643.447"/>
<polygon fill="white" stroke="white" points="162.805,-646.947 172.805,-643.447 162.805,-639.947 162.805,-646.947"/>
</g>
<!-- 5150712034804368709 -->
<g id="node8" class="node"><title>5150712034804368709</title>
<polygon fill="none" stroke="white" points="352.29,-471.447 281.29,-471.447 281.29,-435.447 352.29,-435.447 352.29,-471.447"/>
<text text-anchor="middle" x="316.79" y="-449.747" font-family="Times,serif" font-size="14.00" fill="white">double&#45;#5</text>
</g>
<!-- 5990358267532942935 -->
<g id="node39" class="node"><title>5990358267532942935</title>
<ellipse fill="none" stroke="white" cx="415.188" cy="-421.447" rx="23.2963" ry="23.2963"/>
<text text-anchor="middle" x="415.188" y="-417.747" font-family="Times,serif" font-size="14.00" fill="white">add</text>
</g>
<!-- 5150712034804368709&#45;&gt;5990358267532942935 -->
<g id="edge34" class="edge"><title>5150712034804368709&#45;&gt;5990358267532942935</title>
<path fill="none" stroke="white" d="M352.32,-441.985C362.344,-438.657 373.228,-435.044 383.032,-431.79"/>
<polygon fill="white" stroke="white" points="384.388,-435.027 392.776,-428.555 382.183,-428.384 384.388,-435.027"/>
</g>
<!-- 4248521556451496888 -->
<g id="node9" class="node"><title>4248521556451496888</title>
<ellipse fill="none" stroke="white" cx="207.343" cy="-469.447" rx="34.394" ry="34.394"/>
<text text-anchor="middle" x="207.343" y="-465.747" font-family="Times,serif" font-size="14.00" fill="white">double</text>
</g>
<!-- 4248521556451496888&#45;&gt;5150712034804368709 -->
<g id="edge6" class="edge"><title>4248521556451496888&#45;&gt;5150712034804368709</title>
<path fill="none" stroke="white" d="M241.457,-464.516C250.793,-463.126 261.108,-461.59 271.006,-460.116"/>
<polygon fill="white" stroke="white" points="271.736,-463.546 281.111,-458.611 270.705,-456.622 271.736,-463.546"/>
</g>
<!-- &#45;1259915966511500679 -->
<g id="node10" class="node"><title>&#45;1259915966511500679</title>
<polygon fill="none" stroke="white" points="134.896,-487.447 80.8962,-487.447 80.8962,-451.447 134.896,-451.447 134.896,-487.447"/>
<text text-anchor="middle" x="107.896" y="-465.747" font-family="Times,serif" font-size="14.00" fill="white">inc&#45;#6</text>
</g>
<!-- &#45;1259915966511500679&#45;&gt;4248521556451496888 -->
<g id="edge7" class="edge"><title>&#45;1259915966511500679&#45;&gt;4248521556451496888</title>
<path fill="none" stroke="white" d="M135.01,-469.447C143.539,-469.447 153.255,-469.447 162.713,-469.447"/>
<polygon fill="white" stroke="white" points="162.805,-472.947 172.805,-469.447 162.805,-465.947 162.805,-472.947"/>
</g>
<!-- &#45;1540227900600923273 -->
<g id="node11" class="node"><title>&#45;1540227900600923273</title>
<ellipse fill="none" stroke="white" cx="207.343" cy="-34.4469" rx="34.394" ry="34.394"/>
<text text-anchor="middle" x="207.343" y="-30.7469" font-family="Times,serif" font-size="14.00" fill="white">double</text>
</g>
<!-- &#45;1540227900600923273&#45;&gt;&#45;4206772295845858554 -->
<g id="edge8" class="edge"><title>&#45;1540227900600923273&#45;&gt;&#45;4206772295845858554</title>
<path fill="none" stroke="white" d="M241.457,-39.6862C250.793,-41.1633 261.108,-42.7953 271.006,-44.3613"/>
<polygon fill="white" stroke="white" points="270.687,-47.8544 281.111,-45.9602 271.781,-40.9404 270.687,-47.8544"/>
</g>
<!-- &#45;7597472584394011461 -->
<g id="node12" class="node"><title>&#45;7597472584394011461</title>
<polygon fill="none" stroke="white" points="134.896,-52.4469 80.8962,-52.4469 80.8962,-16.4469 134.896,-16.4469 134.896,-52.4469"/>
<text text-anchor="middle" x="107.896" y="-30.7469" font-family="Times,serif" font-size="14.00" fill="white">inc&#45;#7</text>
</g>
<!-- &#45;7597472584394011461&#45;&gt;&#45;1540227900600923273 -->
<g id="edge9" class="edge"><title>&#45;7597472584394011461&#45;&gt;&#45;1540227900600923273</title>
<path fill="none" stroke="white" d="M135.01,-34.4469C143.539,-34.4469 153.255,-34.4469 162.713,-34.4469"/>
<polygon fill="white" stroke="white" points="162.805,-37.947 172.805,-34.4469 162.805,-30.947 162.805,-37.947"/>
</g>
<!-- 5817603069621987336 -->
<g id="node13" class="node"><title>5817603069621987336</title>
<polygon fill="none" stroke="white" points="134.896,-574.447 80.8962,-574.447 80.8962,-538.447 134.896,-538.447 134.896,-574.447"/>
<text text-anchor="middle" x="107.896" y="-552.747" font-family="Times,serif" font-size="14.00" fill="white">inc&#45;#8</text>
</g>
<!-- &#45;5643072704277137606 -->
<g id="node41" class="node"><title>&#45;5643072704277137606</title>
<ellipse fill="none" stroke="white" cx="207.343" cy="-556.447" rx="34.394" ry="34.394"/>
<text text-anchor="middle" x="207.343" y="-552.747" font-family="Times,serif" font-size="14.00" fill="white">double</text>
</g>
<!-- 5817603069621987336&#45;&gt;&#45;5643072704277137606 -->
<g id="edge37" class="edge"><title>5817603069621987336&#45;&gt;&#45;5643072704277137606</title>
<path fill="none" stroke="white" d="M135.01,-556.447C143.539,-556.447 153.255,-556.447 162.713,-556.447"/>
<polygon fill="white" stroke="white" points="162.805,-559.947 172.805,-556.447 162.805,-552.947 162.805,-559.947"/>
</g>
<!-- 1010040913867991465 -->
<g id="node14" class="node"><title>1010040913867991465</title>
<ellipse fill="none" stroke="white" cx="21.4481" cy="-556.447" rx="21.3963" ry="21.3963"/>
<text text-anchor="middle" x="21.4481" y="-552.747" font-family="Times,serif" font-size="14.00" fill="white">inc</text>
</g>
<!-- 1010040913867991465&#45;&gt;5817603069621987336 -->
<g id="edge10" class="edge"><title>1010040913867991465&#45;&gt;5817603069621987336</title>
<path fill="none" stroke="white" d="M43.3229,-556.447C51.556,-556.447 61.2586,-556.447 70.5708,-556.447"/>
<polygon fill="white" stroke="white" points="70.8195,-559.947 80.8195,-556.447 70.8195,-552.947 70.8195,-559.947"/>
</g>
<!-- &#45;2052600233227988297 -->
<g id="node15" class="node"><title>&#45;2052600233227988297</title>
<polygon fill="none" stroke="white" points="532.086,-533.447 478.086,-533.447 478.086,-497.447 532.086,-497.447 532.086,-533.447"/>
<text text-anchor="middle" x="505.086" y="-511.747" font-family="Times,serif" font-size="14.00" fill="white">add&#45;#9</text>
</g>
<!-- &#45;7210537930170713951 -->
<g id="node32" class="node"><title>&#45;7210537930170713951</title>
<ellipse fill="none" stroke="white" cx="594.984" cy="-421.447" rx="23.2963" ry="23.2963"/>
<text text-anchor="middle" x="594.984" y="-417.747" font-family="Times,serif" font-size="14.00" fill="white">add</text>
</g>
<!-- &#45;2052600233227988297&#45;&gt;&#45;7210537930170713951 -->
<g id="edge28" class="edge"><title>&#45;2052600233227988297&#45;&gt;&#45;7210537930170713951</title>
<path fill="none" stroke="white" d="M523.034,-497.323C536.752,-482.651 556.202,-461.851 571.269,-445.738"/>
<polygon fill="white" stroke="white" points="573.996,-447.947 578.269,-438.252 568.883,-443.166 573.996,-447.947"/>
</g>
<!-- 6913068728211078762&#45;&gt;&#45;2052600233227988297 -->
<g id="edge11" class="edge"><title>6913068728211078762&#45;&gt;&#45;2052600233227988297</title>
<path fill="none" stroke="white" d="M436.574,-546.938C446.067,-542.51 457.641,-537.111 468.507,-532.043"/>
<polygon fill="white" stroke="white" points="470.22,-535.106 477.803,-527.707 467.261,-528.762 470.22,-535.106"/>
</g>
<!-- &#45;6559774220649794265 -->
<g id="node17" class="node"><title>&#45;6559774220649794265</title>
<polygon fill="none" stroke="white" points="355.79,-574.447 277.79,-574.447 277.79,-538.447 355.79,-538.447 355.79,-574.447"/>
<text text-anchor="middle" x="316.79" y="-552.747" font-family="Times,serif" font-size="14.00" fill="white">double&#45;#10</text>
</g>
<!-- &#45;6559774220649794265&#45;&gt;6913068728211078762 -->
<g id="edge13" class="edge"><title>&#45;6559774220649794265&#45;&gt;6913068728211078762</title>
<path fill="none" stroke="white" d="M355.889,-556.447C364.4,-556.447 373.35,-556.447 381.614,-556.447"/>
<polygon fill="white" stroke="white" points="381.629,-559.947 391.629,-556.447 381.629,-552.947 381.629,-559.947"/>
</g>
<!-- 4804364141678961523 -->
<g id="node18" class="node"><title>4804364141678961523</title>
<ellipse fill="none" stroke="white" cx="207.343" cy="-121.447" rx="34.394" ry="34.394"/>
<text text-anchor="middle" x="207.343" y="-117.747" font-family="Times,serif" font-size="14.00" fill="white">double</text>
</g>
<!-- 4804364141678961523&#45;&gt;&#45;1527101718114813662 -->
<g id="edge14" class="edge"><title>4804364141678961523&#45;&gt;&#45;1527101718114813662</title>
<path fill="none" stroke="white" d="M242.045,-121.447C251.175,-121.447 261.205,-121.447 270.847,-121.447"/>
<polygon fill="white" stroke="white" points="271.096,-124.947 281.096,-121.447 271.096,-117.947 271.096,-124.947"/>
</g>
<!-- 8748745915589235892 -->
<g id="node19" class="node"><title>8748745915589235892</title>
<polygon fill="none" stroke="white" points="136.896,-139.447 78.8962,-139.447 78.8962,-103.447 136.896,-103.447 136.896,-139.447"/>
<text text-anchor="middle" x="107.896" y="-117.747" font-family="Times,serif" font-size="14.00" fill="white">inc&#45;#11</text>
</g>
<!-- 8748745915589235892&#45;&gt;4804364141678961523 -->
<g id="edge15" class="edge"><title>8748745915589235892&#45;&gt;4804364141678961523</title>
<path fill="none" stroke="white" d="M137.082,-121.447C145.081,-121.447 153.985,-121.447 162.672,-121.447"/>
<polygon fill="white" stroke="white" points="162.703,-124.947 172.703,-121.447 162.703,-117.947 162.703,-124.947"/>
</g>
<!-- &#45;7721025623874007393 -->
<g id="node20" class="node"><title>&#45;7721025623874007393</title>
<ellipse fill="none" stroke="white" cx="21.4481" cy="-643.447" rx="21.3963" ry="21.3963"/>
<text text-anchor="middle" x="21.4481" y="-639.747" font-family="Times,serif" font-size="14.00" fill="white">inc</text>
</g>
<!-- &#45;7721025623874007393&#45;&gt;&#45;6361786870872840242 -->
<g id="edge16" class="edge"><title>&#45;7721025623874007393&#45;&gt;&#45;6361786870872840242</title>
<path fill="none" stroke="white" d="M43.3229,-643.447C51.556,-643.447 61.2586,-643.447 70.5708,-643.447"/>
<polygon fill="white" stroke="white" points="70.8195,-646.947 80.8195,-643.447 70.8195,-639.947 70.8195,-646.947"/>
</g>
<!-- &#45;760895328985426157 -->
<g id="node21" class="node"><title>&#45;760895328985426157</title>
<polygon fill="none" stroke="white" points="895.178,-368.447 834.178,-368.447 834.178,-332.447 895.178,-332.447 895.178,-368.447"/>
<text text-anchor="middle" x="864.678" y="-346.747" font-family="Times,serif" font-size="14.00" fill="white">add&#45;#12</text>
</g>
<!-- &#45;7545839377888159402 -->
<g id="node22" class="node"><title>&#45;7545839377888159402</title>
<ellipse fill="none" stroke="white" cx="774.78" cy="-350.447" rx="23.2963" ry="23.2963"/>
<text text-anchor="middle" x="774.78" y="-346.747" font-family="Times,serif" font-size="14.00" fill="white">add</text>
</g>
<!-- &#45;7545839377888159402&#45;&gt;&#45;760895328985426157 -->
<g id="edge17" class="edge"><title>&#45;7545839377888159402&#45;&gt;&#45;760895328985426157</title>
<path fill="none" stroke="white" d="M798.416,-350.447C806.239,-350.447 815.252,-350.447 824.034,-350.447"/>
<polygon fill="white" stroke="white" points="824.151,-353.947 834.151,-350.447 824.151,-346.947 824.151,-353.947"/>
</g>
<!-- &#45;3035422733209131744 -->
<g id="node23" class="node"><title>&#45;3035422733209131744</title>
<polygon fill="none" stroke="white" points="715.382,-410.447 654.382,-410.447 654.382,-374.447 715.382,-374.447 715.382,-410.447"/>
<text text-anchor="middle" x="684.882" y="-388.747" font-family="Times,serif" font-size="14.00" fill="white">add&#45;#13</text>
</g>
<!-- &#45;3035422733209131744&#45;&gt;&#45;7545839377888159402 -->
<g id="edge18" class="edge"><title>&#45;3035422733209131744&#45;&gt;&#45;7545839377888159402</title>
<path fill="none" stroke="white" d="M715.64,-378.228C724.881,-373.812 735.06,-368.948 744.283,-364.541"/>
<polygon fill="white" stroke="white" points="745.955,-367.621 753.469,-360.152 742.937,-361.305 745.955,-367.621"/>
</g>
<!-- 7335024069479599223 -->
<g id="node24" class="node"><title>7335024069479599223</title>
<polygon fill="none" stroke="white" points="715.382,-327.447 654.382,-327.447 654.382,-291.447 715.382,-291.447 715.382,-327.447"/>
<text text-anchor="middle" x="684.882" y="-305.747" font-family="Times,serif" font-size="14.00" fill="white">add&#45;#14</text>
</g>
<!-- 7335024069479599223&#45;&gt;&#45;7545839377888159402 -->
<g id="edge19" class="edge"><title>7335024069479599223&#45;&gt;&#45;7545839377888159402</title>
<path fill="none" stroke="white" d="M715.64,-323.328C724.807,-327.604 734.897,-332.31 744.061,-336.585"/>
<polygon fill="white" stroke="white" points="742.657,-339.792 753.199,-340.847 745.616,-333.448 742.657,-339.792"/>
</g>
<!-- 5059134434635740222 -->
<g id="node25" class="node"><title>5059134434635740222</title>
<ellipse fill="none" stroke="white" cx="21.4481" cy="-34.4469" rx="21.3963" ry="21.3963"/>
<text text-anchor="middle" x="21.4481" y="-30.7469" font-family="Times,serif" font-size="14.00" fill="white">inc</text>
</g>
<!-- 5059134434635740222&#45;&gt;&#45;7597472584394011461 -->
<g id="edge20" class="edge"><title>5059134434635740222&#45;&gt;&#45;7597472584394011461</title>
<path fill="none" stroke="white" d="M43.3229,-34.4469C51.556,-34.4469 61.2586,-34.4469 70.5708,-34.4469"/>
<polygon fill="white" stroke="white" points="70.8195,-37.947 80.8195,-34.4469 70.8195,-30.947 70.8195,-37.947"/>
</g>
<!-- &#45;52753886654136614 -->
<g id="node26" class="node"><title>&#45;52753886654136614</title>
<polygon fill="none" stroke="white" points="535.586,-270.447 474.586,-270.447 474.586,-234.447 535.586,-234.447 535.586,-270.447"/>
<text text-anchor="middle" x="505.086" y="-248.747" font-family="Times,serif" font-size="14.00" fill="white">add&#45;#15</text>
</g>
<!-- &#45;52753886654136614&#45;&gt;3105280829635306666 -->
<g id="edge42" class="edge"><title>&#45;52753886654136614&#45;&gt;3105280829635306666</title>
<path fill="none" stroke="white" d="M535.844,-252.447C544.039,-252.447 552.97,-252.447 561.319,-252.447"/>
<polygon fill="white" stroke="white" points="561.484,-255.947 571.483,-252.447 561.483,-248.947 561.484,-255.947"/>
</g>
<!-- &#45;5951805527630012821 -->
<g id="node27" class="node"><title>&#45;5951805527630012821</title>
<ellipse fill="none" stroke="white" cx="415.188" cy="-252.447" rx="23.2963" ry="23.2963"/>
<text text-anchor="middle" x="415.188" y="-248.747" font-family="Times,serif" font-size="14.00" fill="white">add</text>
</g>
<!-- &#45;5951805527630012821&#45;&gt;&#45;52753886654136614 -->
<g id="edge21" class="edge"><title>&#45;5951805527630012821&#45;&gt;&#45;52753886654136614</title>
<path fill="none" stroke="white" d="M438.824,-252.447C446.648,-252.447 455.661,-252.447 464.442,-252.447"/>
<polygon fill="white" stroke="white" points="464.559,-255.947 474.559,-252.447 464.559,-248.947 464.559,-255.947"/>
</g>
<!-- 6742165669743006075 -->
<g id="node28" class="node"><title>6742165669743006075</title>
<polygon fill="none" stroke="white" points="355.79,-305.447 277.79,-305.447 277.79,-269.447 355.79,-269.447 355.79,-305.447"/>
<text text-anchor="middle" x="316.79" y="-283.747" font-family="Times,serif" font-size="14.00" fill="white">double&#45;#16</text>
</g>
<!-- 6742165669743006075&#45;&gt;&#45;5951805527630012821 -->
<g id="edge22" class="edge"><title>6742165669743006075&#45;&gt;&#45;5951805527630012821</title>
<path fill="none" stroke="white" d="M355.889,-273.614C365.066,-270.282 374.754,-266.765 383.541,-263.574"/>
<polygon fill="white" stroke="white" points="384.798,-266.841 393.003,-260.139 382.409,-260.262 384.798,-266.841"/>
</g>
<!-- 2340867012240520991 -->
<g id="node29" class="node"><title>2340867012240520991</title>
<polygon fill="none" stroke="white" points="355.79,-235.447 277.79,-235.447 277.79,-199.447 355.79,-199.447 355.79,-235.447"/>
<text text-anchor="middle" x="316.79" y="-213.747" font-family="Times,serif" font-size="14.00" fill="white">double&#45;#17</text>
</g>
<!-- 2340867012240520991&#45;&gt;&#45;5951805527630012821 -->
<g id="edge23" class="edge"><title>2340867012240520991&#45;&gt;&#45;5951805527630012821</title>
<path fill="none" stroke="white" d="M355.889,-231.28C365.066,-234.612 374.754,-238.129 383.541,-241.32"/>
<polygon fill="white" stroke="white" points="382.409,-244.632 393.003,-244.755 384.798,-238.052 382.409,-244.632"/>
</g>
<!-- &#45;9128479992365178382 -->
<g id="node30" class="node"><title>&#45;9128479992365178382</title>
<ellipse fill="none" stroke="white" cx="207.343" cy="-208.447" rx="34.394" ry="34.394"/>
<text text-anchor="middle" x="207.343" y="-204.747" font-family="Times,serif" font-size="14.00" fill="white">double</text>
</g>
<!-- &#45;9128479992365178382&#45;&gt;2340867012240520991 -->
<g id="edge24" class="edge"><title>&#45;9128479992365178382&#45;&gt;2340867012240520991</title>
<path fill="none" stroke="white" d="M241.751,-211.245C249.898,-211.928 258.776,-212.671 267.464,-213.399"/>
<polygon fill="white" stroke="white" points="267.263,-216.894 277.521,-214.241 267.848,-209.919 267.263,-216.894"/>
</g>
<!-- 783076715204088802 -->
<g id="node31" class="node"><title>783076715204088802</title>
<polygon fill="none" stroke="white" points="136.896,-226.447 78.8962,-226.447 78.8962,-190.447 136.896,-190.447 136.896,-226.447"/>
<text text-anchor="middle" x="107.896" y="-204.747" font-family="Times,serif" font-size="14.00" fill="white">inc&#45;#18</text>
</g>
<!-- 783076715204088802&#45;&gt;&#45;9128479992365178382 -->
<g id="edge25" class="edge"><title>783076715204088802&#45;&gt;&#45;9128479992365178382</title>
<path fill="none" stroke="white" d="M137.082,-208.447C145.081,-208.447 153.985,-208.447 162.672,-208.447"/>
<polygon fill="white" stroke="white" points="162.703,-211.947 172.703,-208.447 162.703,-204.947 162.703,-211.947"/>
</g>
<!-- &#45;7210537930170713951&#45;&gt;&#45;3035422733209131744 -->
<g id="edge26" class="edge"><title>&#45;7210537930170713951&#45;&gt;&#45;3035422733209131744</title>
<path fill="none" stroke="white" d="M617.711,-414.278C625.776,-411.618 635.194,-408.51 644.354,-405.488"/>
<polygon fill="white" stroke="white" points="645.716,-408.725 654.116,-402.268 643.523,-402.077 645.716,-408.725"/>
</g>
<!-- &#45;5192754517519228954 -->
<g id="node33" class="node"><title>&#45;5192754517519228954</title>
<polygon fill="none" stroke="white" points="535.586,-439.447 474.586,-439.447 474.586,-403.447 535.586,-403.447 535.586,-439.447"/>
<text text-anchor="middle" x="505.086" y="-417.747" font-family="Times,serif" font-size="14.00" fill="white">add&#45;#19</text>
</g>
<!-- &#45;5192754517519228954&#45;&gt;&#45;7210537930170713951 -->
<g id="edge27" class="edge"><title>&#45;5192754517519228954&#45;&gt;&#45;7210537930170713951</title>
<path fill="none" stroke="white" d="M535.844,-421.447C544.039,-421.447 552.97,-421.447 561.319,-421.447"/>
<polygon fill="white" stroke="white" points="561.484,-424.947 571.483,-421.447 561.483,-417.947 561.484,-424.947"/>
</g>
<!-- 7486906837343349025 -->
<g id="node34" class="node"><title>7486906837343349025</title>
<polygon fill="none" stroke="white" points="136.896,-400.447 78.8962,-400.447 78.8962,-364.447 136.896,-364.447 136.896,-400.447"/>
<text text-anchor="middle" x="107.896" y="-378.747" font-family="Times,serif" font-size="14.00" fill="white">inc&#45;#20</text>
</g>
<!-- &#45;7219671398611928526 -->
<g id="node46" class="node"><title>&#45;7219671398611928526</title>
<ellipse fill="none" stroke="white" cx="207.343" cy="-382.447" rx="34.394" ry="34.394"/>
<text text-anchor="middle" x="207.343" y="-378.747" font-family="Times,serif" font-size="14.00" fill="white">double</text>
</g>
<!-- 7486906837343349025&#45;&gt;&#45;7219671398611928526 -->
<g id="edge45" class="edge"><title>7486906837343349025&#45;&gt;&#45;7219671398611928526</title>
<path fill="none" stroke="white" d="M137.082,-382.447C145.081,-382.447 153.985,-382.447 162.672,-382.447"/>
<polygon fill="white" stroke="white" points="162.703,-385.947 172.703,-382.447 162.703,-378.947 162.703,-385.947"/>
</g>
<!-- &#45;7555170512697104700 -->
<g id="node35" class="node"><title>&#45;7555170512697104700</title>
<ellipse fill="none" stroke="white" cx="21.4481" cy="-382.447" rx="21.3963" ry="21.3963"/>
<text text-anchor="middle" x="21.4481" y="-378.747" font-family="Times,serif" font-size="14.00" fill="white">inc</text>
</g>
<!-- &#45;7555170512697104700&#45;&gt;7486906837343349025 -->
<g id="edge29" class="edge"><title>&#45;7555170512697104700&#45;&gt;7486906837343349025</title>
<path fill="none" stroke="white" d="M43.3229,-382.447C50.976,-382.447 59.8988,-382.447 68.5975,-382.447"/>
<polygon fill="white" stroke="white" points="68.6166,-385.947 78.6166,-382.447 68.6165,-378.947 68.6166,-385.947"/>
</g>
<!-- &#45;5621410708052328269 -->
<g id="node36" class="node"><title>&#45;5621410708052328269</title>
<ellipse fill="none" stroke="white" cx="21.4481" cy="-208.447" rx="21.3963" ry="21.3963"/>
<text text-anchor="middle" x="21.4481" y="-204.747" font-family="Times,serif" font-size="14.00" fill="white">inc</text>
</g>
<!-- &#45;5621410708052328269&#45;&gt;783076715204088802 -->
<g id="edge30" class="edge"><title>&#45;5621410708052328269&#45;&gt;783076715204088802</title>
<path fill="none" stroke="white" d="M43.3229,-208.447C50.976,-208.447 59.8988,-208.447 68.5975,-208.447"/>
<polygon fill="white" stroke="white" points="68.6166,-211.947 78.6166,-208.447 68.6165,-204.947 68.6166,-211.947"/>
</g>
<!-- &#45;7638667044370448514 -->
<g id="node37" class="node"><title>&#45;7638667044370448514</title>
<ellipse fill="none" stroke="white" cx="207.343" cy="-295.447" rx="34.394" ry="34.394"/>
<text text-anchor="middle" x="207.343" y="-291.747" font-family="Times,serif" font-size="14.00" fill="white">double</text>
</g>
<!-- &#45;7638667044370448514&#45;&gt;6742165669743006075 -->
<g id="edge31" class="edge"><title>&#45;7638667044370448514&#45;&gt;6742165669743006075</title>
<path fill="none" stroke="white" d="M241.751,-292.96C249.898,-292.353 258.776,-291.692 267.464,-291.045"/>
<polygon fill="white" stroke="white" points="267.808,-294.529 277.521,-290.296 267.288,-287.549 267.808,-294.529"/>
</g>
<!-- 1593350249871177708 -->
<g id="node38" class="node"><title>1593350249871177708</title>
<polygon fill="none" stroke="white" points="136.896,-313.447 78.8962,-313.447 78.8962,-277.447 136.896,-277.447 136.896,-313.447"/>
<text text-anchor="middle" x="107.896" y="-291.747" font-family="Times,serif" font-size="14.00" fill="white">inc&#45;#21</text>
</g>
<!-- 1593350249871177708&#45;&gt;&#45;7638667044370448514 -->
<g id="edge32" class="edge"><title>1593350249871177708&#45;&gt;&#45;7638667044370448514</title>
<path fill="none" stroke="white" d="M137.082,-295.447C145.081,-295.447 153.985,-295.447 162.672,-295.447"/>
<polygon fill="white" stroke="white" points="162.703,-298.947 172.703,-295.447 162.703,-291.947 162.703,-298.947"/>
</g>
<!-- 5990358267532942935&#45;&gt;&#45;5192754517519228954 -->
<g id="edge33" class="edge"><title>5990358267532942935&#45;&gt;&#45;5192754517519228954</title>
<path fill="none" stroke="white" d="M438.824,-421.447C446.648,-421.447 455.661,-421.447 464.442,-421.447"/>
<polygon fill="white" stroke="white" points="464.559,-424.947 474.559,-421.447 464.559,-417.947 464.559,-424.947"/>
</g>
<!-- &#45;5372224451980179489 -->
<g id="node40" class="node"><title>&#45;5372224451980179489</title>
<polygon fill="none" stroke="white" points="355.79,-408.447 277.79,-408.447 277.79,-372.447 355.79,-372.447 355.79,-408.447"/>
<text text-anchor="middle" x="316.79" y="-386.747" font-family="Times,serif" font-size="14.00" fill="white">double&#45;#22</text>
</g>
<!-- &#45;5372224451980179489&#45;&gt;5990358267532942935 -->
<g id="edge35" class="edge"><title>&#45;5372224451980179489&#45;&gt;5990358267532942935</title>
<path fill="none" stroke="white" d="M355.889,-402.699C364.892,-405.594 374.386,-408.647 383.039,-411.43"/>
<polygon fill="white" stroke="white" points="382.139,-414.817 392.731,-414.547 384.282,-408.153 382.139,-414.817"/>
</g>
<!-- &#45;5643072704277137606&#45;&gt;&#45;6559774220649794265 -->
<g id="edge36" class="edge"><title>&#45;5643072704277137606&#45;&gt;&#45;6559774220649794265</title>
<path fill="none" stroke="white" d="M242.045,-556.447C250.184,-556.447 259.039,-556.447 267.697,-556.447"/>
<polygon fill="white" stroke="white" points="267.715,-559.947 277.715,-556.447 267.715,-552.947 267.715,-559.947"/>
</g>
<!-- &#45;7017496778373461123 -->
<g id="node42" class="node"><title>&#45;7017496778373461123</title>
<ellipse fill="none" stroke="white" cx="21.4481" cy="-295.447" rx="21.3963" ry="21.3963"/>
<text text-anchor="middle" x="21.4481" y="-291.747" font-family="Times,serif" font-size="14.00" fill="white">inc</text>
</g>
<!-- &#45;7017496778373461123&#45;&gt;1593350249871177708 -->
<g id="edge38" class="edge"><title>&#45;7017496778373461123&#45;&gt;1593350249871177708</title>
<path fill="none" stroke="white" d="M43.3229,-295.447C50.976,-295.447 59.8988,-295.447 68.5975,-295.447"/>
<polygon fill="white" stroke="white" points="68.6166,-298.947 78.6166,-295.447 68.6165,-291.947 68.6166,-298.947"/>
</g>
<!-- &#45;2077316349535723355 -->
<g id="node43" class="node"><title>&#45;2077316349535723355</title>
<ellipse fill="none" stroke="white" cx="21.4481" cy="-121.447" rx="21.3963" ry="21.3963"/>
<text text-anchor="middle" x="21.4481" y="-117.747" font-family="Times,serif" font-size="14.00" fill="white">inc</text>
</g>
<!-- &#45;2077316349535723355&#45;&gt;8748745915589235892 -->
<g id="edge39" class="edge"><title>&#45;2077316349535723355&#45;&gt;8748745915589235892</title>
<path fill="none" stroke="white" d="M43.3229,-121.447C50.976,-121.447 59.8988,-121.447 68.5975,-121.447"/>
<polygon fill="white" stroke="white" points="68.6166,-124.947 78.6166,-121.447 68.6165,-117.947 68.6166,-124.947"/>
</g>
<!-- 3105280829635306666&#45;&gt;7335024069479599223 -->
<g id="edge40" class="edge"><title>3105280829635306666&#45;&gt;7335024069479599223</title>
<path fill="none" stroke="white" d="M615.056,-264.815C624.459,-270.912 636.126,-278.478 647.167,-285.638"/>
<polygon fill="white" stroke="white" points="645.538,-288.753 655.832,-291.258 649.346,-282.88 645.538,-288.753"/>
</g>
<!-- 7841848486471010780 -->
<g id="node45" class="node"><title>7841848486471010780</title>
<ellipse fill="none" stroke="white" cx="21.4481" cy="-469.447" rx="21.3963" ry="21.3963"/>
<text text-anchor="middle" x="21.4481" y="-465.747" font-family="Times,serif" font-size="14.00" fill="white">inc</text>
</g>
<!-- 7841848486471010780&#45;&gt;&#45;1259915966511500679 -->
<g id="edge43" class="edge"><title>7841848486471010780&#45;&gt;&#45;1259915966511500679</title>
<path fill="none" stroke="white" d="M43.3229,-469.447C51.556,-469.447 61.2586,-469.447 70.5708,-469.447"/>
<polygon fill="white" stroke="white" points="70.8195,-472.947 80.8195,-469.447 70.8195,-465.947 70.8195,-472.947"/>
</g>
<!-- &#45;7219671398611928526&#45;&gt;&#45;5372224451980179489 -->
<g id="edge44" class="edge"><title>&#45;7219671398611928526&#45;&gt;&#45;5372224451980179489</title>
<path fill="none" stroke="white" d="M241.751,-384.934C249.898,-385.541 258.776,-386.202 267.464,-386.849"/>
<polygon fill="white" stroke="white" points="267.288,-390.345 277.521,-387.598 267.808,-383.365 267.288,-390.345"/>
</g>
</g>
</svg>
