<?xml version="1.0" encoding="UTF-8" standalone="no"?>
<!-- Created with Inkscape (http://www.inkscape.org/) -->

<svg
   xmlns:dc="http://purl.org/dc/elements/1.1/"
   xmlns:cc="http://creativecommons.org/ns#"
   xmlns:rdf="http://www.w3.org/1999/02/22-rdf-syntax-ns#"
   xmlns:svg="http://www.w3.org/2000/svg"
   xmlns="http://www.w3.org/2000/svg"
   xmlns:sodipodi="http://sodipodi.sourceforge.net/DTD/sodipodi-0.dtd"
   xmlns:inkscape="http://www.inkscape.org/namespaces/inkscape"
   width="125.86"
   height="99.152908"
   id="svg3582"
   version="1.1"
   inkscape:version="0.48.3.1 r9886"
   sodipodi:docname="uq-3.svg">
  <sodipodi:namedview
     id="base"
     pagecolor="#ffffff"
     bordercolor="#666666"
     borderopacity="1.0"
     inkscape:pageopacity="0.0"
     inkscape:pageshadow="2"
     inkscape:zoom="5.6"
     inkscape:cx="63.602142"
     inkscape:cy="48.697818"
     inkscape:document-units="px"
     inkscape:current-layer="layer1"
     showgrid="false"
     inkscape:window-width="1600"
     inkscape:window-height="876"
     inkscape:window-x="0"
     inkscape:window-y="24"
     inkscape:window-maximized="1"
     fit-margin-top="0"
     fit-margin-left="0"
     fit-margin-right="0"
     fit-margin-bottom="0">
    <inkscape:grid
       type="xygrid"
       id="grid3590"
       empspacing="5"
       visible="true"
       enabled="true"
       snapvisiblegridlinesonly="true"
       originx="-229.84136px"
       originy="-513.40501px" />
  </sodipodi:namedview>
  <defs
     id="defs3584" />
  <metadata
     id="metadata3587">
    <rdf:RDF>
      <cc:Work
         rdf:about="">
        <dc:format>image/svg+xml</dc:format>
        <dc:type
           rdf:resource="http://purl.org/dc/dcmitype/StillImage" />
        <dc:title></dc:title>
      </cc:Work>
    </rdf:RDF>
  </metadata>
  <g
     inkscape:label="Layer 1"
     inkscape:groupmode="layer"
     id="layer1"
     transform="translate(-229.84136,-439.80426)">
    <path
       sodipodi:type="arc"
       style="opacity:0.6;fill:none;stroke:#000000;stroke-width:1;stroke-miterlimit:4;stroke-dasharray:none"
       id="path3766-71"
       sodipodi:cx="172.5"
       sodipodi:cy="559.86218"
       sodipodi:rx="0.5"
       sodipodi:ry="0.5"
       d="m 173,559.86218 a 0.5,0.5 0 1 1 -1,0 0.5,0.5 0 1 1 1,0 z"
       transform="matrix(1.2447522,-0.45184882,0.31124056,1.7579294,-149.12719,-383.77105)" />
    <path
       style="fill:none;stroke:#000000;stroke-width:0.30000001;stroke-linecap:butt;stroke-linejoin:miter;stroke-miterlimit:4;stroke-opacity:1;stroke-dasharray:none"
       d="m 240,522.36218 c 15,-20 50,-45 90,-50"
       id="path3610"
       inkscape:connector-curvature="0" />
    <path
       sodipodi:type="arc"
       style="opacity:0.6;fill:none;stroke:#000000;stroke-width:1;stroke-miterlimit:4;stroke-dasharray:none"
       id="path3766-71-2"
       sodipodi:cx="172.5"
       sodipodi:cy="559.86218"
       sodipodi:rx="0.5"
       sodipodi:ry="0.5"
       d="m 173,559.86218 a 0.5,0.5 0 1 1 -1,0 0.5,0.5 0 1 1 1,0 z"
       transform="matrix(1.2447522,-0.45184882,0.31124056,1.7579294,-59.127191,-433.77105)" />
    <g
       transform="matrix(0.1297285,0,0,0.1297285,192.99141,477.03709)"
       id="g4407">
      <g
         style="font-style:normal;font-variant:normal;font-weight:normal;font-stretch:normal;letter-spacing:normal;word-spacing:normal;text-anchor:start;fill:none;stroke:#000000;stroke-linecap:butt;stroke-linejoin:miter;stroke-miterlimit:10.43299961;stroke-opacity:1;stroke-dasharray:none;stroke-dashoffset:0"
         id="content"
         transform="matrix(1.0629921,0,0,-1.0629921,-186.02362,789.27165)"
         xml:space="preserve"
         stroke-miterlimit="10.433"
         font-style="normal"
         font-variant="normal"
         font-weight="normal"
         font-stretch="normal"
         font-size-adjust="none"
         letter-spacing="normal"
         word-spacing="normal"><path
           style="fill:#000000;stroke-width:0"
           inkscape:connector-curvature="0"
           d="m 472.16,421.25 0.03,0.13 0.04,0.15 0.04,0.16 0.04,0.18 0.06,0.19 0.06,0.21 0.06,0.22 0.07,0.22 0.08,0.23 0.09,0.24 0.1,0.25 0.1,0.24 0.11,0.25 0.12,0.25 0.13,0.25 0.14,0.25 0.15,0.24 0.15,0.24 0.17,0.23 0.18,0.22 0.18,0.22 0.2,0.2 0.21,0.19 0.22,0.18 0.23,0.16 0.25,0.14 0.12,0.07 0.13,0.06 0.14,0.05 0.13,0.05 0.14,0.05 0.14,0.04 0.15,0.03 0.15,0.03 0.15,0.02 0.16,0.02 0.16,0.01 0.16,0 c 0.25,0 1.44,0 2.48,-0.64 -1.39,-0.25 -2.39,-1.5 -2.39,-2.69 0,-0.79 0.55,-1.75 1.89,-1.75 1.1,0 2.69,0.89 2.69,2.89 0,2.6 -2.94,3.28 -4.63,3.28 -2.89,0 -4.64,-2.64 -5.23,-3.78 -1.25,3.28 -3.94,3.78 -5.37,3.78 -5.19,0 -8.04,-6.42 -8.04,-7.67 0,-0.5 0.5,-0.5 0.61,-0.5 0.39,0 0.55,0.11 0.64,0.55 1.69,5.28 4.99,6.53 6.68,6.53 0.95,0 2.68,-0.44 2.68,-3.33 0,-1.54 -0.84,-4.89 -2.68,-11.86 -0.8,-3.09 -2.54,-5.18 -4.74,-5.18 -0.3,0 -1.44,0 -2.48,0.65 1.25,0.24 2.34,1.28 2.34,2.69 0,1.34 -1.09,1.73 -1.84,1.73 -1.5,0 -2.75,-1.29 -2.75,-2.89 0,-2.28 2.5,-3.28 4.68,-3.28 3.3,0 5.08,3.49 5.24,3.78 0.59,-1.84 2.39,-3.78 5.37,-3.78 5.14,0 7.99,6.42 7.99,7.67 0,0.5 -0.45,0.5 -0.61,0.5 -0.44,0 -0.55,-0.2 -0.64,-0.54 -1.64,-5.33 -5.03,-6.53 -6.63,-6.53 -1.95,0 -2.75,1.59 -2.75,3.29 0,1.1 0.3,2.19 0.86,4.38 z"
           id="path4410" /><path
           style="fill:#000000;stroke-width:0"
           inkscape:connector-curvature="0"
           d="m 501.95,409.87 -0.01,0.71 -0.02,0.68 -0.03,0.66 -0.04,0.64 -0.06,0.62 -0.07,0.6 -0.09,0.57 -0.11,0.56 -0.13,0.55 -0.15,0.53 -0.17,0.51 -0.19,0.5 -0.21,0.49 -0.24,0.48 -0.26,0.47 -0.14,0.23 -0.15,0.23 c -1.08,1.61 -3.23,3 -6.03,3 v -0.98 c 1.89,0 3.7,-1.14 4.33,-3.17 0.56,-1.88 0.59,-4.39 0.59,-7.43 0,-2.57 0,-5.15 -0.45,-7.34 -0.7,-3.17 -3.06,-3.94 -4.47,-3.94 h 0 c -1.59,0 -3.72,0.94 -4.42,3.8 -0.48,2.05 -0.48,4.91 -0.48,7.48 0,2.55 0,5.21 0.51,7.11 0.74,2.75 2.97,3.49 4.39,3.49 v 0.98 c -8.08,0 -8.08,-9.51 -8.08,-12.03 0,-2.5 0,-11.81 8.08,-11.81 8.1,0 8.1,9.31 8.1,11.81 z"
           id="path4412" /></g>    </g>
    <g
       id="g4438"
       transform="matrix(0.58370645,0,0,0.58370645,90.349862,275.84956)">
      <g
         id="g4526"
         transform="matrix(0.244669,0,0,0.244669,235.23443,274.92087)">
        <g
           word-spacing="normal"
           letter-spacing="normal"
           font-size-adjust="none"
           font-stretch="normal"
           font-weight="normal"
           font-variant="normal"
           font-style="normal"
           stroke-miterlimit="10.433"
           xml:space="preserve"
           transform="matrix(1.0629921,0,0,-1.0629921,-186.02362,789.27165)"
           id="g4528"
           style="font-style:normal;font-variant:normal;font-weight:normal;font-stretch:normal;letter-spacing:normal;word-spacing:normal;text-anchor:start;fill:none;stroke:#000000;stroke-linecap:butt;stroke-linejoin:miter;stroke-miterlimit:10.43299961;stroke-opacity:1;stroke-dasharray:none;stroke-dashoffset:0"><path
             id="path4530"
             d="m 473.8,426.12 h 4.28 c 1,0 1.5,0 1.5,1 0,0.55 -0.5,0.55 -1.34,0.55 h -4.14 l 1.04,5.69 c 0.21,1.04 0.91,4.57 1.21,5.17 0.45,0.95 1.29,1.7 2.34,1.7 0.19,0 1.49,0 2.44,-0.91 -2.19,-0.18 -2.69,-1.93 -2.69,-2.68 0,-1.14 0.89,-1.74 1.85,-1.74 1.29,0 2.73,1.1 2.73,2.99 0,2.29 -2.3,3.43 -4.33,3.43 -1.7,0 -4.84,-0.89 -6.33,-5.82 -0.29,-1.05 -0.45,-1.55 -1.64,-7.83 h -3.43 c -0.96,0 -1.5,0 -1.5,-0.94 0,-0.61 0.45,-0.61 1.39,-0.61 h 3.29 l -3.75,-19.67 c -0.89,-4.83 -1.73,-9.38 -4.33,-9.38 -0.2,0 -1.43,0 -2.39,0.91 2.3,0.14 2.74,1.94 2.74,2.69 0,1.14 -0.89,1.75 -1.85,1.75 -1.29,0 -2.73,-1.1 -2.73,-3 0,-2.24 2.19,-3.44 4.23,-3.44 2.74,0 4.74,2.94 5.63,4.84 1.59,3.14 2.75,9.16 2.8,9.52 z"
             inkscape:connector-curvature="0"
             style="fill:#000000;stroke-width:0" /><path
             id="path4532"
             d="M 488.46,412.53 H 492 c 0.66,0 1.11,0 1.11,0.76 0,0.49 -0.45,0.49 -1.03,0.49 h -3.31 l 1.28,5.15 c 0.03,0.18 0.11,0.35 0.11,0.49 0,0.64 -0.48,1.12 -1.19,1.12 -0.87,0 -1.39,-0.59 -1.64,-1.5 -0.23,-0.87 0.22,0.8 -1.33,-5.26 h -3.54 c -0.66,0 -1.11,0 -1.11,-0.77 0,-0.48 0.4,-0.48 1.04,-0.48 h 3.3 l -2.05,-8.22 c -0.21,-0.88 -0.53,-2.13 -0.53,-2.58 0,-2.06 1.75,-3.31 3.74,-3.31 3.87,0 6.06,4.87 6.06,5.33 0,0.45 -0.45,0.45 -0.56,0.45 -0.41,0 -0.46,-0.08 -0.72,-0.66 -0.99,-2.2 -2.77,-4.15 -4.67,-4.15 -0.74,0 -1.22,0.45 -1.22,1.7 0,0.36 0.14,1.09 0.2,1.44 z"
             inkscape:connector-curvature="0"
             style="fill:#000000;stroke-width:0" /></g>      </g>
    </g>
    <g
       transform="matrix(0.11384518,0,0,0.11384518,290.73296,426.1855)"
       id="g4474">
      <g
         style="font-style:normal;font-variant:normal;font-weight:normal;font-stretch:normal;letter-spacing:normal;word-spacing:normal;text-anchor:start;fill:none;stroke:#000000;stroke-linecap:butt;stroke-linejoin:miter;stroke-miterlimit:10.43299961;stroke-opacity:1;stroke-dasharray:none;stroke-dashoffset:0"
         id="g4476"
         transform="matrix(1.0629921,0,0,-1.0629921,-186.02362,789.27165)"
         xml:space="preserve"
         stroke-miterlimit="10.433"
         font-style="normal"
         font-variant="normal"
         font-weight="normal"
         font-stretch="normal"
         font-size-adjust="none"
         letter-spacing="normal"
         word-spacing="normal"><path
           style="fill:#000000;stroke-width:0"
           inkscape:connector-curvature="0"
           d="m 473.8,426.12 h 4.28 c 1,0 1.5,0 1.5,1 0,0.55 -0.5,0.55 -1.34,0.55 h -4.14 l 1.04,5.69 c 0.21,1.04 0.91,4.57 1.21,5.17 0.45,0.95 1.29,1.7 2.34,1.7 0.19,0 1.49,0 2.44,-0.91 -2.19,-0.18 -2.69,-1.93 -2.69,-2.68 0,-1.14 0.89,-1.74 1.85,-1.74 1.29,0 2.73,1.1 2.73,2.99 0,2.29 -2.3,3.43 -4.33,3.43 -1.7,0 -4.84,-0.89 -6.33,-5.82 -0.29,-1.05 -0.45,-1.55 -1.64,-7.83 h -3.43 c -0.96,0 -1.5,0 -1.5,-0.94 0,-0.61 0.45,-0.61 1.39,-0.61 h 3.29 l -3.75,-19.67 c -0.89,-4.83 -1.73,-9.38 -4.33,-9.38 -0.2,0 -1.43,0 -2.39,0.91 2.3,0.14 2.74,1.94 2.74,2.69 0,1.14 -0.89,1.75 -1.85,1.75 -1.29,0 -2.73,-1.1 -2.73,-3 0,-2.24 2.19,-3.44 4.23,-3.44 2.74,0 4.74,2.94 5.63,4.84 1.59,3.14 2.75,9.16 2.8,9.52 z"
           id="path4478" /><path
           style="fill:#000000;stroke-width:0"
           inkscape:connector-curvature="0"
           d="M 488.46,412.53 H 492 c 0.66,0 1.11,0 1.11,0.76 0,0.49 -0.45,0.49 -1.03,0.49 h -3.31 l 1.28,5.15 c 0.03,0.18 0.11,0.35 0.11,0.49 0,0.64 -0.48,1.12 -1.19,1.12 -0.87,0 -1.39,-0.59 -1.64,-1.5 -0.23,-0.87 0.22,0.8 -1.33,-5.26 h -3.54 c -0.66,0 -1.11,0 -1.11,-0.77 0,-0.48 0.4,-0.48 1.04,-0.48 h 3.3 l -2.05,-8.22 c -0.21,-0.88 -0.53,-2.13 -0.53,-2.58 0,-2.06 1.75,-3.31 3.74,-3.31 3.87,0 6.06,4.87 6.06,5.33 0,0.45 -0.45,0.45 -0.56,0.45 -0.41,0 -0.46,-0.08 -0.72,-0.66 -0.99,-2.2 -2.77,-4.15 -4.67,-4.15 -0.74,0 -1.22,0.45 -1.22,1.7 0,0.36 0.14,1.09 0.2,1.44 z"
           id="path4480" /><path
           style="fill:#000000;stroke-width:0"
           inkscape:connector-curvature="0"
           d="m 514,394.25 0,0.02 0,0.03 0,0.01 0,0.02 0,0.01 -0.01,0.02 0,0.01 -0.01,0.02 -0.01,0.02 -0.01,0.02 -0.01,0.02 -0.02,0.03 -0.01,0.02 -0.02,0.03 -0.02,0.03 -0.03,0.03 -0.02,0.03 -0.03,0.04 -0.02,0.02 -0.01,0.02 -0.02,0.02 -0.02,0.02 -0.02,0.02 -0.02,0.03 -0.02,0.02 -0.02,0.02 -0.02,0.03 -0.03,0.02 -0.02,0.03 -0.03,0.03 -0.03,0.03 -0.02,0.03 -0.03,0.03 -0.03,0.03 -0.03,0.03 -0.03,0.03 -0.04,0.04 -0.03,0.03 -0.04,0.04 -0.03,0.03 -0.04,0.04 -0.04,0.04 c -6.22,6.28 -7.81,15.69 -7.81,23.31 0,8.67 1.89,17.35 8.01,23.56 0.64,0.61 0.64,0.71 0.64,0.86 0,0.35 -0.18,0.49 -0.48,0.49 -0.5,0 -4.98,-3.38 -7.92,-9.7 -2.55,-5.49 -3.14,-11.02 -3.14,-15.21 0,-3.89 0.54,-9.9 3.28,-15.54 2.98,-6.13 7.28,-9.36 7.78,-9.36 0.3,0 0.48,0.14 0.48,0.5 z"
           id="path4482" /><path
           style="fill:#000000;stroke-width:0"
           inkscape:connector-curvature="0"
           d="m 533.48,421.25 0.03,0.13 0.03,0.15 0.04,0.16 0.05,0.18 0.05,0.19 0.06,0.21 0.07,0.22 0.07,0.22 0.08,0.23 0.09,0.24 0.09,0.25 0.11,0.24 0.11,0.25 0.12,0.25 0.13,0.25 0.13,0.25 0.15,0.24 0.16,0.24 0.16,0.23 0.18,0.22 0.19,0.22 0.2,0.2 0.21,0.19 0.22,0.18 0.23,0.16 0.24,0.14 0.13,0.07 0.13,0.06 0.13,0.05 0.14,0.05 0.14,0.05 0.14,0.04 0.15,0.03 0.15,0.03 0.15,0.02 0.15,0.02 0.16,0.01 0.16,0 c 0.25,0 1.44,0 2.49,-0.64 -1.39,-0.25 -2.39,-1.5 -2.39,-2.69 0,-0.79 0.54,-1.75 1.89,-1.75 1.09,0 2.69,0.89 2.69,2.89 0,2.6 -2.94,3.28 -4.63,3.28 -2.89,0 -4.64,-2.64 -5.23,-3.78 -1.25,3.28 -3.94,3.78 -5.38,3.78 -5.19,0 -8.03,-6.42 -8.03,-7.67 0,-0.5 0.5,-0.5 0.61,-0.5 0.39,0 0.55,0.11 0.64,0.55 1.69,5.28 4.98,6.53 6.67,6.53 0.96,0 2.69,-0.44 2.69,-3.33 0,-1.54 -0.84,-4.89 -2.69,-11.86 -0.79,-3.09 -2.53,-5.18 -4.73,-5.18 -0.3,0 -1.44,0 -2.49,0.65 1.25,0.24 2.35,1.28 2.35,2.69 0,1.34 -1.1,1.73 -1.85,1.73 -1.5,0 -2.75,-1.29 -2.75,-2.89 0,-2.28 2.5,-3.28 4.69,-3.28 3.3,0 5.08,3.49 5.24,3.78 0.59,-1.84 2.39,-3.78 5.37,-3.78 5.14,0 7.98,6.42 7.98,7.67 0,0.5 -0.45,0.5 -0.6,0.5 -0.44,0 -0.55,-0.2 -0.65,-0.54 -1.64,-5.33 -5.03,-6.53 -6.62,-6.53 -1.95,0 -2.75,1.59 -2.75,3.29 0,1.1 0.3,2.19 0.86,4.38 z"
           id="path4484" /><path
           style="fill:#000000;stroke-width:0"
           inkscape:connector-curvature="0"
           d="m 563.27,409.87 -0.01,0.71 -0.02,0.68 -0.03,0.66 -0.04,0.64 -0.06,0.62 -0.07,0.6 -0.09,0.57 -0.11,0.56 -0.13,0.55 -0.15,0.53 -0.17,0.51 -0.19,0.5 -0.21,0.49 -0.24,0.48 -0.26,0.47 -0.14,0.23 -0.15,0.23 c -1.08,1.61 -3.23,3 -6.03,3 v -0.98 c 1.89,0 3.71,-1.14 4.33,-3.17 0.56,-1.88 0.59,-4.39 0.59,-7.43 0,-2.57 0,-5.15 -0.45,-7.34 -0.7,-3.17 -3.06,-3.94 -4.47,-3.94 h 0 c -1.59,0 -3.72,0.94 -4.42,3.8 -0.48,2.05 -0.48,4.91 -0.48,7.48 0,2.55 0,5.21 0.51,7.11 0.74,2.75 2.97,3.49 4.39,3.49 v 0.98 c -8.08,0 -8.08,-9.51 -8.08,-12.03 0,-2.5 0,-11.81 8.08,-11.81 8.1,0 8.1,9.31 8.1,11.81 z"
           id="path4486" /><path
           style="fill:#000000;stroke-width:0"
           inkscape:connector-curvature="0"
           d="m 582.11,418.65 0,0.37 -0.01,0.39 -0.01,0.39 -0.01,0.41 -0.04,0.84 -0.06,0.88 -0.08,0.92 -0.11,0.95 -0.13,0.97 -0.17,1.01 -0.19,1.02 -0.23,1.03 -0.27,1.05 -0.31,1.06 -0.34,1.07 -0.4,1.07 -0.21,0.53 -0.22,0.53 -0.24,0.53 -0.25,0.53 c -2.99,6.12 -7.27,9.36 -7.77,9.36 -0.29,0 -0.5,-0.19 -0.5,-0.49 0,-0.15 0,-0.25 0.94,-1.15 4.89,-4.92 7.73,-12.85 7.73,-23.27 0,-8.51 -1.84,-17.28 -8.03,-23.56 -0.64,-0.59 -0.64,-0.7 -0.64,-0.84 0,-0.3 0.21,-0.5 0.5,-0.5 0.5,0 4.97,3.39 7.92,9.71 2.54,5.47 3.13,11 3.13,15.19 z"
           id="path4488" /></g>    </g>
    <path
       sodipodi:type="arc"
       style="opacity:0.6;fill:none;stroke:#000000;stroke-width:0.30000001;stroke-miterlimit:4;stroke-dasharray:none"
       id="path4585"
       sodipodi:cx="242.5"
       sodipodi:cy="524.86218"
       sodipodi:rx="7.5"
       sodipodi:ry="17.5"
       d="m 250,524.86218 a 7.5,17.5 0 1 1 -15,0 7.5,17.5 0 1 1 15,0 z"
       transform="matrix(0.98404882,-0.41161361,0.38588775,0.92254574,-201.16972,137.96911)" />
    <path
       style="fill:none;stroke:#000000;stroke-width:0.30000001;stroke-linecap:butt;stroke-linejoin:miter;stroke-miterlimit:4;stroke-opacity:1;stroke-dasharray:none"
       d="m 329.47412,439.95426 c -6.05827,3.64655 -6.05827,3.64655 -8.47,13.35137 -2.41172,9.70482 -2.41172,9.70482 0.029,20.61551 2.44068,10.91069 1.23482,15.7631 6.08723,16.96896 4.85241,1.20586 3.64655,6.05827 14.55724,3.61759 10.91068,-2.44068 12.11654,-7.2931 13.32241,-12.14551 1.20586,-4.85241 1.20586,-4.85241 -8.49896,-7.26413 -9.70482,-2.41173 -10.93964,-18.17483 -9.73378,-23.02724 1.20586,-4.85241 2.41172,-9.70482 -7.2931,-12.11655 z"
       id="path4587"
       inkscape:connector-curvature="0" />
    <path
       sodipodi:type="arc"
       style="opacity:0.6;fill:none;stroke:#000000;stroke-width:1;stroke-miterlimit:4;stroke-dasharray:none"
       id="path3766-71-4"
       sodipodi:cx="172.5"
       sodipodi:cy="559.86218"
       sodipodi:rx="0.5"
       sodipodi:ry="0.5"
       d="m 173,559.86218 a 0.5,0.5 0 1 1 -1,0 0.5,0.5 0 1 1 1,0 z"
       transform="matrix(-0.77367735,0.17403339,-0.193452,-0.6770814,475.16335,857.8821)" />
    <path
       sodipodi:type="arc"
       style="opacity:0.6;fill:none;stroke:#000000;stroke-width:1;stroke-miterlimit:4;stroke-dasharray:none"
       id="path3766-71-4-1"
       sodipodi:cx="172.5"
       sodipodi:cy="559.86218"
       sodipodi:rx="0.5"
       sodipodi:ry="0.5"
       d="m 173,559.86218 a 0.5,0.5 0 1 1 -1,0 0.5,0.5 0 1 1 1,0 z"
       transform="matrix(-0.77367735,0.17403339,-0.193452,-0.6770814,481.23509,862.52888)" />
    <path
       sodipodi:type="arc"
       style="opacity:0.6;fill:none;stroke:#000000;stroke-width:1;stroke-miterlimit:4;stroke-dasharray:none"
       id="path3766-71-4-2"
       sodipodi:cx="172.5"
       sodipodi:cy="559.86218"
       sodipodi:rx="0.5"
       sodipodi:ry="0.5"
       d="m 173,559.86218 a 0.5,0.5 0 1 1 -1,0 0.5,0.5 0 1 1 1,0 z"
       transform="matrix(-0.77367735,0.17403339,-0.193452,-0.6770814,474.03775,867.29553)" />
    <path
       sodipodi:type="arc"
       style="opacity:0.6;fill:none;stroke:#000000;stroke-width:1;stroke-miterlimit:4;stroke-dasharray:none"
       id="path3766-71-4-29"
       sodipodi:cx="172.5"
       sodipodi:cy="559.86218"
       sodipodi:rx="0.5"
       sodipodi:ry="0.5"
       d="m 173,559.86218 a 0.5,0.5 0 1 1 -1,0 0.5,0.5 0 1 1 1,0 z"
       transform="matrix(-0.77367735,0.17403339,-0.193452,-0.6770814,487.42227,873.51429)" />
    <path
       sodipodi:type="arc"
       style="opacity:0.6;fill:none;stroke:#000000;stroke-width:1;stroke-miterlimit:4;stroke-dasharray:none"
       id="path3766-71-4-0"
       sodipodi:cx="172.5"
       sodipodi:cy="559.86218"
       sodipodi:rx="0.5"
       sodipodi:ry="0.5"
       d="m 173,559.86218 a 0.5,0.5 0 1 1 -1,0 0.5,0.5 0 1 1 1,0 z"
       transform="matrix(-0.77367735,0.17403339,-0.193452,-0.6770814,482.49778,879.35423)" />
    <path
       sodipodi:type="arc"
       style="opacity:0.6;fill:none;stroke:#000000;stroke-width:1;stroke-miterlimit:4;stroke-dasharray:none"
       id="path3766-71-4-09"
       sodipodi:cx="172.5"
       sodipodi:cy="559.86218"
       sodipodi:rx="0.5"
       sodipodi:ry="0.5"
       d="m 173,559.86218 a 0.5,0.5 0 1 1 -1,0 0.5,0.5 0 1 1 1,0 z"
       transform="matrix(-0.77367735,0.17403339,-0.193452,-0.6770814,488.14832,883.52111)" />
    <path
       sodipodi:type="arc"
       style="opacity:0.6;fill:none;stroke:#000000;stroke-width:1;stroke-miterlimit:4;stroke-dasharray:none"
       id="path3766-71-4-04"
       sodipodi:cx="172.5"
       sodipodi:cy="559.86218"
       sodipodi:rx="0.5"
       sodipodi:ry="0.5"
       d="m 173,559.86218 a 0.5,0.5 0 1 1 -1,0 0.5,0.5 0 1 1 1,0 z"
       transform="matrix(-0.77367735,0.17403339,-0.193452,-0.6770814,571.49795,795.69941)" />
    <path
       sodipodi:type="arc"
       style="opacity:0.6;fill:none;stroke:#000000;stroke-width:1;stroke-miterlimit:4;stroke-dasharray:none"
       id="path3766-71-4-8"
       sodipodi:cx="172.5"
       sodipodi:cy="559.86218"
       sodipodi:rx="0.5"
       sodipodi:ry="0.5"
       d="m 173,559.86218 a 0.5,0.5 0 1 1 -1,0 0.5,0.5 0 1 1 1,0 z"
       transform="matrix(-0.77367735,0.17403339,-0.193452,-0.6770814,566.00687,804.18155)" />
    <path
       sodipodi:type="arc"
       style="opacity:0.6;fill:none;stroke:#000000;stroke-width:1;stroke-miterlimit:4;stroke-dasharray:none"
       id="path3766-71-4-12"
       sodipodi:cx="172.5"
       sodipodi:cy="559.86218"
       sodipodi:rx="0.5"
       sodipodi:ry="0.5"
       d="m 173,559.86218 a 0.5,0.5 0 1 1 -1,0 0.5,0.5 0 1 1 1,0 z"
       transform="matrix(-0.77367735,0.17403339,-0.193452,-0.6770814,574.98009,810.11905)" />
    <path
       sodipodi:type="arc"
       style="opacity:0.6;fill:none;stroke:#000000;stroke-width:1;stroke-miterlimit:4;stroke-dasharray:none"
       id="path3766-71-4-3"
       sodipodi:cx="172.5"
       sodipodi:cy="559.86218"
       sodipodi:rx="0.5"
       sodipodi:ry="0.5"
       d="m 173,559.86218 a 0.5,0.5 0 1 1 -1,0 0.5,0.5 0 1 1 1,0 z"
       transform="matrix(-0.77367735,0.17403339,-0.193452,-0.6770814,568.46223,833.37798)" />
    <path
       sodipodi:type="arc"
       style="opacity:0.6;fill:none;stroke:#000000;stroke-width:1;stroke-miterlimit:4;stroke-dasharray:none"
       id="path3766-71-4-19"
       sodipodi:cx="172.5"
       sodipodi:cy="559.86218"
       sodipodi:rx="0.5"
       sodipodi:ry="0.5"
       d="m 173,559.86218 a 0.5,0.5 0 1 1 -1,0 0.5,0.5 0 1 1 1,0 z"
       transform="matrix(-0.77367735,0.17403339,-0.193452,-0.6770814,581.09616,839.89583)" />
    <path
       sodipodi:type="arc"
       style="opacity:0.6;fill:none;stroke:#000000;stroke-width:1;stroke-miterlimit:4;stroke-dasharray:none"
       id="path3766-71-4-83"
       sodipodi:cx="172.5"
       sodipodi:cy="559.86218"
       sodipodi:rx="0.5"
       sodipodi:ry="0.5"
       d="m 173,559.86218 a 0.5,0.5 0 1 1 -1,0 0.5,0.5 0 1 1 1,0 z"
       transform="matrix(-0.77367735,0.17403339,-0.193452,-0.6770814,591.00687,829.67262)" />
    <path
       sodipodi:type="arc"
       style="opacity:0.6;fill:none;stroke:#000000;stroke-width:1;stroke-miterlimit:4;stroke-dasharray:none"
       id="path3766-71-4-24"
       sodipodi:cx="172.5"
       sodipodi:cy="559.86218"
       sodipodi:rx="0.5"
       sodipodi:ry="0.5"
       d="m 173,559.86218 a 0.5,0.5 0 1 1 -1,0 0.5,0.5 0 1 1 1,0 z"
       transform="matrix(-0.77367735,0.17403339,-0.193452,-0.6770814,579.75687,826.50298)" />
    <path
       sodipodi:type="arc"
       style="opacity:0.6;fill:none;stroke:#000000;stroke-width:1;stroke-miterlimit:4;stroke-dasharray:none"
       id="path3766-71-4-292"
       sodipodi:cx="172.5"
       sodipodi:cy="559.86218"
       sodipodi:rx="0.5"
       sodipodi:ry="0.5"
       d="m 173,559.86218 a 0.5,0.5 0 1 1 -1,0 0.5,0.5 0 1 1 1,0 z"
       transform="matrix(-0.77367735,0.17403339,-0.193452,-0.6770814,489.48902,878.69048)" />
    <path
       style="fill:none;stroke:#000000;stroke-width:0.25;stroke-linecap:butt;stroke-linejoin:miter;stroke-miterlimit:4;stroke-opacity:0.25098039;stroke-dasharray:none"
       d="m 233.23809,508.94552 c 16.12302,-24.98096 53.7434,-56.20716 96.73811,-62.4524"
       id="path3610-9"
       inkscape:connector-curvature="0" />
    <path
       style="fill:none;stroke:#000000;stroke-width:0.25;stroke-linecap:butt;stroke-linejoin:miter;stroke-miterlimit:4;stroke-opacity:0.25098039;stroke-dasharray:none"
       d="m 232.8764,517.87863 c 15.20191,-25.12745 50.67304,-56.53676 91.21148,-62.81862"
       id="path3610-4"
       inkscape:connector-curvature="0" />
    <path
       style="fill:none;stroke:#000000;stroke-width:0.25;stroke-linecap:butt;stroke-linejoin:miter;stroke-miterlimit:4;stroke-opacity:0.25098039;stroke-dasharray:none"
       d="m 246.77828,534.69105 c 15.47867,-17.50595 51.59557,-39.38839 92.87203,-43.76488"
       id="path3610-2"
       inkscape:connector-curvature="0" />
    <path
       style="fill:none;stroke:#000000;stroke-width:0.25;stroke-linecap:butt;stroke-linejoin:miter;stroke-miterlimit:4;stroke-opacity:0.25098039;stroke-dasharray:none"
       d="m 240.70595,530.76337 c 14.34802,-18.64953 47.82673,-41.96144 86.0881,-46.62382"
       id="path3610-3"
       inkscape:connector-curvature="0" />
    <path
       style="fill:none;stroke:#000000;stroke-width:0.25;stroke-linecap:butt;stroke-linejoin:miter;stroke-miterlimit:4;stroke-opacity:0.25098039;stroke-dasharray:none"
       d="m 245.88926,523.97291 c 15.32858,-18.64573 51.09526,-41.95289 91.97147,-46.61432"
       id="path3610-96"
       inkscape:connector-curvature="0" />
    <path
       style="fill:none;stroke:#000000;stroke-width:0.25;stroke-linecap:butt;stroke-linejoin:miter;stroke-miterlimit:4;stroke-opacity:0.25098039;stroke-dasharray:none"
       d="m 247.86405,529.31955 c 16.90246,-19.42304 56.34153,-43.70184 101.41475,-48.5576"
       id="path3610-20"
       inkscape:connector-curvature="0" />
    <path
       style="fill:none;stroke:#000000;stroke-width:0.25;stroke-linecap:butt;stroke-linejoin:miter;stroke-miterlimit:4;stroke-opacity:0.25098039;stroke-dasharray:none"
       d="m 239.11399,513.60534 c 15.62272,-20.99453 52.07573,-47.23769 93.73632,-52.48632"
       id="path3610-1"
       inkscape:connector-curvature="0" />
  </g>
</svg>
